<svg xmlns="http://www.w3.org/2000/svg" viewBox="0 0 100.41 358.22"><defs><style>.cls-1{fill:#fff;}</style></defs><g id="圖層_2" data-name="圖層 2"><g id="圖層_1-2" data-name="圖層 1"><line class="cls-1" x1="95.42" y1="313.1" x2="50.58" y2="353.25"/><path class="cls-1" d="M91.89,309.56,76.78,323.09l-24.2,21.67-5.54,5a5,5,0,0,0,0,7.07,5.13,5.13,0,0,0,7.07,0l15.11-13.53,24.2-21.67,5.54-5a5,5,0,0,0,0-7.07,5.13,5.13,0,0,0-7.07,0Z"/><line class="cls-1" x1="49.82" y1="353.25" x2="4.97" y2="313.1"/><path class="cls-1" d="M53.36,349.72,38.25,336.19l-24.2-21.67-5.54-5c-1.95-1.74-5.18-2.06-7.07,0s-2.08,5.21,0,7.07l15.11,13.53,24.2,21.67,5.54,5c1.94,1.74,5.17,2.06,7.07,0s2.08-5.21,0-7.07Z"/><path class="cls-1" d="M50.2,279.11c5.23,0,10.24-4.6,10-10a10.18,10.18,0,0,0-10-10c-5.23,0-10.24,4.6-10,10a10.17,10.17,0,0,0,10,10Z"/><path class="cls-1" d="M50.2,226.37c5.23,0,10.24-4.6,10-10a10.18,10.18,0,0,0-10-10c-5.23,0-10.24,4.6-10,10a10.17,10.17,0,0,0,10,10Z"/><path class="cls-1" d="M50.2,174.09c5.23,0,10.24-4.6,10-10a10.18,10.18,0,0,0-10-10c-5.23,0-10.24,4.6-10,10a10.17,10.17,0,0,0,10,10Z"/><path class="cls-1" d="M50.2,125c5.23,0,10.24-4.6,10-10a10.18,10.18,0,0,0-10-10c-5.23,0-10.24,4.6-10,10a10.17,10.17,0,0,0,10,10Z"/><path class="cls-1" d="M50.2,72.28c5.23,0,10.24-4.6,10-10a10.18,10.18,0,0,0-10-10c-5.23,0-10.24,4.6-10,10a10.17,10.17,0,0,0,10,10Z"/><path class="cls-1" d="M50.2,20c5.23,0,10.24-4.6,10-10a10.18,10.18,0,0,0-10-10C45,0,40,4.6,40.2,10a10.17,10.17,0,0,0,10,10Z"/></g></g></svg>