<svg xmlns="http://www.w3.org/2000/svg" viewBox="0 0 85.52 174.03"><defs><style>.cls-1{fill:#fff;}</style></defs><g id="圖層_2" data-name="圖層 2"><g id="圖層_1-2" data-name="圖層 1"><line class="cls-1" x1="78.07" y1="7.46" x2="7.45" y2="86.34"/><path class="cls-1" d="M72.77,2.16l-7,7.82L48.85,28.87,28.47,51.64,10.85,71.32C8,74.51,5.09,77.67,2.27,80.9L2.15,81c-2.62,2.92-3.1,7.76,0,10.6,2.85,2.63,7.81,3.13,10.6,0l7-7.82L36.67,64.93,57.05,42.16,74.67,22.48c2.86-3.19,5.76-6.35,8.58-9.58l.13-.13C86,9.84,86.47,5,83.38,2.16,80.52-.47,75.57-1,72.77,2.16Z"/><line class="cls-1" x1="7.45" y1="87.67" x2="78.07" y2="166.55"/><path class="cls-1" d="M2.15,93l7,7.83,16.92,18.89,20.38,22.76,17.62,19.68c2.85,3.19,5.63,6.48,8.58,9.58l.12.14c2.63,2.93,8,2.87,10.61,0a7.67,7.67,0,0,0,0-10.6l-7-7.83L59.46,134.53,39.08,111.77,21.46,92.09c-2.86-3.19-5.63-6.49-8.58-9.59l-.13-.13c-2.62-2.94-8-2.88-10.6,0a7.66,7.66,0,0,0,0,10.6Z"/></g></g></svg>