<svg xmlns="http://www.w3.org/2000/svg" viewBox="0 0 85.52 174.03"><defs><style>.cls-1{fill:#fff;}</style></defs><g id="圖層_2" data-name="圖層 2"><g id="圖層_1-2" data-name="圖層 1"><line class="cls-1" x1="7.45" y1="7.48" x2="78.07" y2="86.36"/><path class="cls-1" d="M2.15,12.78l7,7.83L26.07,39.5,46.45,62.26,64.07,81.94c2.85,3.19,5.63,6.48,8.58,9.58l.12.14c2.63,2.93,8,2.87,10.61,0a7.67,7.67,0,0,0,0-10.6l-7-7.83L59.46,54.34,39.08,31.58,21.46,11.9c-2.86-3.19-5.63-6.49-8.58-9.59a1.59,1.59,0,0,1-.13-.13c-2.62-2.94-8-2.88-10.6,0a7.66,7.66,0,0,0,0,10.6Z"/><line class="cls-1" x1="78.07" y1="87.69" x2="7.45" y2="166.57"/><path class="cls-1" d="M72.77,82.38l-7,7.83L48.85,109.1,28.47,131.86,10.85,151.54c-2.86,3.2-5.76,6.36-8.58,9.58l-.12.14c-2.62,2.93-3.1,7.77,0,10.61,2.85,2.62,7.81,3.12,10.6,0l7-7.83,16.91-18.89,20.38-22.76,17.62-19.68c2.86-3.19,5.76-6.35,8.58-9.58l.13-.14c2.61-2.92,3.09-7.76,0-10.61-2.86-2.62-7.81-3.12-10.61,0Z"/></g></g></svg>