<svg xmlns="http://www.w3.org/2000/svg" viewBox="0 0 165.93 233.47"><defs><style>.cls-1{fill:#fff;}</style></defs><g id="圖層_2" data-name="圖層 2"><g id="圖層_1-2" data-name="圖層 1"><path class="cls-1" d="M76.85,3.71a88.2,88.2,0,0,1-6,9.43c1.4-2,.34-.44,0,0s-.65.79-1,1.18c-.58.69-1.18,1.36-1.79,2q-1.89,2.05-4,3.95c-1.37,1.27-2.82,2.43-4.26,3.62,1.9-1.58.42-.34,0,0l-.94.67q-1.19.84-2.4,1.62a66,66,0,0,1-10,5.31l1.79-.76-1.42.58a8.23,8.23,0,0,0-4.49,3.45,7.63,7.63,0,0,0-.75,5.78A7.56,7.56,0,0,0,45,45c1.68.89,3.94,1.49,5.78.76A76.81,76.81,0,0,0,74,31.56,72.62,72.62,0,0,0,89.81,11.28C91.62,7.81,90.81,3,87.12,1,83.66-.8,78.8,0,76.85,3.71Z"/><path class="cls-1" d="M74.77,48.08c-1,1.58-2.07,3.13-3.17,4.65A20.89,20.89,0,0,1,69.92,55s1.18-1.51.44-.57c-.13.16-.25.32-.38.47-.33.42-.66.83-1,1.24a97.51,97.51,0,0,1-7.68,8.32q-2,1.92-4.07,3.73-1,.9-2.1,1.77l-1.07.86-.46.36c-.81.64.49-.31.59-.45A9.45,9.45,0,0,1,52,72.34c-.79.57-1.59,1.13-2.39,1.67Q47.35,75.54,45,76.92a91.09,91.09,0,0,1-11.15,5.65l1.8-.76A90,90,0,0,1,26,85.23c-3.76,1.09-6.49,5.34-5.24,9.23A7.64,7.64,0,0,0,30,99.7,101.52,101.52,0,0,0,77.39,69.31,114.37,114.37,0,0,0,87.72,55.65,7.55,7.55,0,0,0,85,45.39a7.66,7.66,0,0,0-10.26,2.69Z"/><path class="cls-1" d="M76.23,90.57c-1.38,2.12-2.81,4.19-4.31,6.21-.38.51-.74,1-1.15,1.52l.48-.62-.47.6c-.83,1-1.67,2.08-2.54,3.09a125.9,125.9,0,0,1-10.46,11q-2.76,2.58-5.67,5c-1,.79-1.9,1.56-2.87,2.32l-.62.48c1.83-1.46.69-.53.28-.22l-1.56,1.17a140.75,140.75,0,0,1-13,8.49,144.9,144.9,0,0,1-15.84,7.86l1.79-.76a142,142,0,0,1-14.74,5.28c-3.75,1.13-6.5,5.32-5.24,9.23s5.2,6.44,9.23,5.24C34.6,148.92,58,134.93,75.7,115.57A134.62,134.62,0,0,0,89.18,98.14a7.57,7.57,0,0,0-2.69-10.26,7.67,7.67,0,0,0-10.26,2.69Z"/><path class="cls-1" d="M76.85,11.28A72.62,72.62,0,0,0,92.64,31.56a76.93,76.93,0,0,0,23.2,14.24,7.51,7.51,0,0,0,8.47-11,8.7,8.7,0,0,0-4.48-3.45l-1.43-.58,1.79.76a66.94,66.94,0,0,1-9.88-5.2c-.87-.56-1.72-1.13-2.56-1.73l-.94-.67c-.44-.33-1.92-1.57,0,0-1.44-1.19-2.89-2.35-4.26-3.62s-2.69-2.58-4-3.95c-.61-.67-1.21-1.34-1.79-2-.33-.39-.66-.78-1-1.18-.17-.21-1.24-1.58-.37-.46s-.18-.25-.34-.47c-.31-.41-.6-.83-.9-1.25-.51-.74-1-1.49-1.5-2.24q-1.56-2.45-2.89-5A7.57,7.57,0,0,0,79.55,1a7.68,7.68,0,0,0-2.7,10.26Z"/><path class="cls-1" d="M78.31,55.65c10.4,16.14,25.06,29.82,42.45,38.14a100.16,100.16,0,0,0,15.32,5.91c3.77,1.08,8.34-1.33,9.23-5.24a7.65,7.65,0,0,0-5.24-9.23,89.82,89.82,0,0,1-9.69-3.42l1.79.76A93.42,93.42,0,0,1,113.1,71.65l-1.1-.82a8.82,8.82,0,0,1,.74.57,2.5,2.5,0,0,1-.46-.36c-.77-.6-1.53-1.22-2.28-1.85q-2.11-1.77-4.13-3.66a100.28,100.28,0,0,1-7.79-8.18c-.69-.81-1.37-1.64-2-2.47l-.49-.63c-.58-.72,1,1.31.43.57l-1-1.28c-1.32-1.78-2.57-3.6-3.77-5.46-2.12-3.29-6.75-4.95-10.26-2.69-3.29,2.12-5,6.73-2.69,10.26Z"/><path class="cls-1" d="M76.85,98.14a140.11,140.11,0,0,0,58,50,157.81,157.81,0,0,0,21.64,8.31c3.75,1.12,8.34-1.35,9.22-5.24a7.65,7.65,0,0,0-5.24-9.23,143.7,143.7,0,0,1-14.74-5.28l1.79.76a142.31,142.31,0,0,1-27.25-15.2c-1-.68-1.9-1.38-2.84-2.08-.31-.24-.63-.47-.93-.71,0,0,1.53,1.19.6.45-.57-.44-1.13-.88-1.68-1.33-2-1.58-3.88-3.22-5.75-4.91A127.94,127.94,0,0,1,99,102.82c-.92-1-1.82-2.12-2.7-3.2-.44-.55-.88-1.09-1.31-1.64l-.47-.6c1.52,1.88.47.6.14.16-1.71-2.26-3.34-4.59-4.88-7-2.14-3.28-6.75-5-10.26-2.69-3.29,2.12-5,6.74-2.7,10.26Z"/><path class="cls-1" d="M75.83,15V217.37c0,2.74,0,5.49,0,8.24V226c0,3.92,3.45,7.68,7.5,7.5a7.63,7.63,0,0,0,7.5-7.5V23.55c0-2.75,0-5.5,0-8.24V15c0-3.92-3.45-7.68-7.5-7.5a7.63,7.63,0,0,0-7.5,7.5Z"/></g></g></svg>