<!--?xml version="1.0" encoding="utf-8"?-->
<!-- Generator: Adobe Illustrator 22.1.0, SVG Export Plug-In . SVG Version: 6.00 Build 0)  -->
<svg version="1.1" id="_x31__1_" xmlns="http://www.w3.org/2000/svg" xmlns:xlink="http://www.w3.org/1999/xlink" x="0px" y="0px" viewBox="0 0 800 279.296" style="enable-background:new 0 0 800 279.296;" xml:space="preserve">
<style type="text/css">
	.st0{fill:#040000;}
</style>
<g>
	<path class="st0" d="M174.557,278.597h6.154c0,0-8.32-151.377,34.046-217.485C214.756,61.112,175.493,99.38,174.557,278.597z" style="fill: rgb(204, 213, 174);"></path>
	<path class="st0" d="M283.01,278.597c0,0-7.578-122.822-32.92-165.92c-25.343-43.096-70.752-11.604-77.718,34.538
		c5.402-19.992,28.032-69.524,60.808-47.63c39.203,26.19,42.913,172.857,42.138,179.011H283.01z" style="fill: rgb(204, 213, 174);"></path>
	<path class="st0" d="M213.786,278.597h6.152c0,0-6.056-105.187,62.438-145.889C282.376,132.708,216.974,158.608,213.786,278.597z" style="fill: rgb(204, 213, 174);"></path>
	<path class="st0" d="M239.168,278.597h5.384c0,0,33.176-108.974,4.018-185.92C248.57,92.677,273.896,154.024,239.168,278.597z" style="fill: rgb(204, 213, 174);"></path>
	<path class="st0" d="M197.602,278.597h4.953c0,0,12.862-100.573-49.365-181.394C153.19,97.203,205.424,170.921,197.602,278.597z" style="fill: rgb(204, 213, 174);"></path>
	<path class="st0" d="M358.809,278.597h4.301c0,0,11.163-87.22-42.848-157.368C320.262,121.229,365.598,185.139,358.809,278.597z" style="fill: rgb(204, 213, 174);"></path>
	<path class="st0" d="M160.712,278.597h-3.845c0,0,0.087-93.705-8.338-132.941C148.529,145.657,160.794,190.143,160.712,278.597z" style="fill: rgb(204, 213, 174);"></path>
	<path class="st0" d="M739.453,278.597h-3.846c0,0,0.086-93.705-8.337-132.941C727.27,145.657,739.536,190.143,739.453,278.597z" style="fill: rgb(204, 213, 174);"></path>
	<path class="st0" d="M227.63,278.597h6.153c0,0-3.764-89.021,62.405-109.727C296.188,168.87,235.42,171.69,227.63,278.597z" style="fill: rgb(204, 213, 174);"></path>
	<path class="st0" d="M260.057,278.597c0,0,9.971-101.289-73.013-192.899c0,0,70.695,72.142,68.276,192.899H260.057z" style="fill: rgb(204, 213, 174);"></path>
	<path class="st0" d="M204.554,278.597h6.154c0,0-3.798-52.894,10.085-93.646C220.794,184.951,205.694,211.681,204.554,278.597z" style="fill: rgb(204, 213, 174);"></path>
	<path class="st0" d="M193.786,278.597c0,0,0.08-86.746-64.521-95.269c0,0,56.141,9.121,57.599,95.269H193.786z" style="fill: rgb(204, 213, 174);"></path>
	<path class="st0" d="M264.55,278.597h7.691c0,0-11.429-116.682,50.921-166.621c0,0-27.707,18.435-39.271,46.114
		C272.076,186.372,264.59,234.753,264.55,278.597z" style="fill: rgb(204, 213, 174);"></path>
	<path class="st0" d="M249.167,278.597h6.923c0,0,0.098-105.148-61.396-147.511C194.693,131.086,255.408,184.763,249.167,278.597z" style="fill: rgb(204, 213, 174);"></path>
	<path class="st0" d="M294.361,278.597h9.549c0,0-8.488-114.129,51.723-174.228C355.633,104.369,301.176,138.244,294.361,278.597z" style="fill: rgb(204, 213, 174);"></path>
	<path class="st0" d="M328.735,278.597h7.639c0,0,1.05-103.588-14.189-143.704C322.185,134.893,333.574,209.855,328.735,278.597z" style="fill: rgb(204, 213, 174);"></path>
	<path class="st0" d="M311.549,278.597h8.593c-1.896-13.369,22.094-143.687,74.549-78.709c0,0-15.245-34.389-42.953-15.318
		C324.03,203.642,311.56,266.183,311.549,278.597z" style="fill: rgb(204, 213, 174);"></path>
	<path class="st0" d="M344.967,278.597h7.639c0,0-6.634-53.928,12.539-136.025C365.145,142.572,345.999,197.438,344.967,278.597z" style="fill: rgb(204, 213, 174);"></path>
	<path class="st0" d="M302,278.597h-11.458c0,0,12.485-77.839-31.328-195.323C259.214,83.274,292.588,132.502,302,278.597z" style="fill: rgb(204, 213, 174);"></path>
	<path class="st0" d="M377.433,278.597h8.592c0,0-5.645-89.226,37.397-170.345C423.422,108.252,385.192,148.749,377.433,278.597z" style="fill: rgb(204, 213, 174);"></path>
	<path class="st0" d="M410.85,278.597h8.594c0,0-2.732-142.182-89.597-168.044C367.063,134.457,405.233,159.238,410.85,278.597z" style="fill: rgb(204, 213, 174);"></path>
	<path class="st0" d="M393.969,278.597h4.278c0,0,0.074-78.629,18.437-113.443C416.684,165.154,394.045,197.322,393.969,278.597z" style="fill: rgb(204, 213, 174);"></path>
	<path class="st0" d="M422.08,278.597h7.333c0,0-5.441-65.161,20.897-128.689C450.31,149.908,427.055,185.105,422.08,278.597z" style="fill: rgb(204, 213, 174);"></path>
	<path class="st0" d="M400.692,278.597h6.11c0,0,45.919-92.022,32.536-160.478c0,0,2.974,29.523-3.725,63.551
		C423.947,240.934,400.083,274.931,400.692,278.597z" style="fill: rgb(204, 213, 174);"></path>
	<path class="st0" d="M367.082,278.597h6.111c0,0,11.683-78.032-20.658-129.393c0,0,14.663,36.177,17.664,62.961
		C374.44,250.055,367.082,278.597,367.082,278.597z" style="fill: rgb(204, 213, 174);"></path>
	<path class="st0" d="M320.142,278.597h6.607c0,0,6.775-57.317-23.126-101.956C303.623,176.641,328.251,224.844,320.142,278.597z" style="fill: rgb(204, 213, 174);"></path>
	<path class="st0" d="M435.523,278.597h7.333c0,0,21.505-126.233-55.443-177.635C400.235,113.194,459.456,171.68,435.523,278.597z" style="fill: rgb(204, 213, 174);"></path>
	<path class="st0" d="M451.501,278.597h8.629c0,0-33.165-125.5,32.868-216.04c0,0-38.174,41.056-43.248,113.366
		C444.127,256.042,451.501,278.597,451.501,278.597z" style="fill: rgb(204, 213, 174);"></path>
	<path class="st0" d="M468.758,278.597h6.78c0,0,1.927-80.459-13.44-126.699C462.099,151.898,475.603,207.109,468.758,278.597z" style="fill: rgb(204, 213, 174);"></path>
	<path class="st0" d="M487.248,278.597h8.631c0,0,0.199-213.571-110.812-140.329c27.132-13.535,57.417-18.248,72.725,2.531
		C476.876,166.703,491.622,215.119,487.248,278.597z" style="fill: rgb(204, 213, 174);"></path>
	<path class="st0" d="M387.021,27.944c0,0-21.666,100.879-17.491,250.652c1.849,0.002,3.664,0,3.664,0
		S370.297,117.297,387.021,27.944z" style="fill: rgb(204, 213, 174);"></path>
	<path class="st0" d="M506.663,278.597h10.17c0,0,10.384-230.49-56.198-210.213C470.804,68.391,521.661,58.579,506.663,278.597z" style="fill: rgb(204, 213, 174);"></path>
	<path class="st0" d="M475.538,278.597h8.012c0,0-7.297-106.965,47.291-150.364C530.841,128.233,483.37,143.935,475.538,278.597z" style="fill: rgb(204, 213, 174);"></path>
	<path class="st0" d="M146.107,278.597h-8.321c0,0-2.651-131.935,29.757-185.526C167.543,93.071,134.189,170.419,146.107,278.597z" style="fill: rgb(204, 213, 174);"></path>
	<path class="st0" d="M649.039,276.748h-8.321c0,0-2.651-131.936,29.756-185.526C670.474,91.222,637.122,168.57,649.039,276.748z" style="fill: rgb(204, 213, 174);"></path>
	<path class="st0" d="M169.219,278.597h-4.622c0,0,1.916-71.813,1.019-102.322C165.616,176.275,170.199,219.429,169.219,278.597z" style="fill: rgb(204, 213, 174);"></path>
	<path class="st0" d="M137.786,278.597h-9.245c0,0-28.583-82.968-14.609-196.67C113.932,81.927,103.66,191.661,137.786,278.597z" style="fill: rgb(204, 213, 174);"></path>
	<path class="st0" d="M111.9,278.597c0,0,3.739-44.125,17.643-82.942c0,0-16.667,27.479-23.189,82.942H111.9z" style="fill: rgb(204, 213, 174);"></path>
	<path class="st0" d="M122.994,278.597h-5.547c0,0-10.083-92.207,14.022-166.144C131.469,112.453,110.121,202.775,122.994,278.597z" style="fill: rgb(204, 213, 174);"></path>
	<path class="st0" d="M526.078,278.597h9.245c0,0-21.182-87.205,20.486-155.581C555.808,123.016,513.24,166.721,526.078,278.597z" style="fill: rgb(204, 213, 174);"></path>
	<path class="st0" d="M305.078,278.597h6.471c0,0,21.444-194.615-21.957-248.278c0,0,12.97,18.784,16.638,50.221
		C309.278,106.657,318.141,150.103,305.078,278.597z" style="fill: rgb(204, 213, 174);"></path>
	<path class="st0" d="M516.833,278.597h9.245c0,0-32.235-131.599,77.779-129.649c0,0-53.614-7.445-73.991,33.214
		C509.489,222.822,516.833,278.597,516.833,278.597z" style="fill: rgb(204, 213, 174);"></path>
	<path class="st0" d="M545.492,278.597h8.321c0,0,17.623-62.189,21.375-118.58c3.751-56.393-28.582-85.082-28.582-85.082
		s24.938,26.832,24.9,67.512C571.476,173.881,569.607,195.415,545.492,278.597z" style="fill: rgb(204, 213, 174);"></path>
	<path class="st0" d="M575.077,278.597h-5.547c0,0-24.915-49.271-24.873-94.572C544.656,184.025,543.697,221.247,575.077,278.597z" style="fill: rgb(204, 213, 174);"></path>
	<path class="st0" d="M587.095,278.597h7.396c0,0-2.698-81.585,21.417-163.843C615.908,114.754,589.963,177.828,587.095,278.597z" style="fill: rgb(204, 213, 174);"></path>
	<path class="st0" d="M498.342,278.597h8.321c0,0-3.9-113.411-22.353-155.339C484.31,123.258,505.184,213.271,498.342,278.597z" style="fill: rgb(204, 213, 174);"></path>
	<path class="st0" d="M539.023,278.597h6.471c0,0-1.439-112.139-22.349-160.232C523.145,118.365,542.806,187.381,539.023,278.597z" style="fill: rgb(204, 213, 174);"></path>
	<path class="st0" d="M102.771,278.597h-4.314c0,0,2.465-72.248-14.792-132.648C83.664,145.949,100.922,180.6,102.771,278.597z" style="fill: rgb(204, 213, 174);"></path>
	<path class="st0" d="M132.972,134.855c-9.245,12.943-33.898,57.457-36.98,143.742c-3.698,0-3.698,0-3.698,0l0,0
		c0,0,3.082-54.374,11.094-84.574C111.4,163.823,132.972,134.855,132.972,134.855z" style="fill: rgb(204, 213, 174);"></path>
	<path class="st0" d="M227.63,278.597h-7.692c0,0,11.031-54.99-29.031-136.346C216.178,176.766,229.222,245.499,227.63,278.597z" style="fill: rgb(204, 213, 174);"></path>
	<path class="st0" d="M460.13,278.597h8.628c0,0-16.524-37.733,9.362-82.725C478.121,195.872,455.699,215.514,460.13,278.597z" style="fill: rgb(204, 213, 174);"></path>
	<path class="st0" d="M429.413,278.597h6.11c0,0,2.537-56.223-16.571-93.204C433.744,232.237,431.859,260.479,429.413,278.597z" style="fill: rgb(204, 213, 174);"></path>
	<path class="st0" d="M607.552,278.597h-10.169c0,0,13.868-86.423-64.716-154.837C601.08,184.778,595.533,216.655,607.552,278.597z" style="fill: rgb(204, 213, 174);"></path>
	<path class="st0" d="M587.095,278.597h-9.127c0,0-17.566-50.368-16.641-105.837C561.327,172.76,565.714,233.508,587.095,278.597z" style="fill: rgb(204, 213, 174);"></path>
	<path class="st0" d="M615.872,278.597h8.32c0,0,6.775-32.919,13.868-68.857c13.868-70.263-34.207-110.016-34.207-110.016
		s41.603,45.301,27.735,107.243C626.705,228.786,621.419,261.031,615.872,278.597z" style="fill: rgb(204, 213, 174);"></path>
	<path class="st0" d="M635.287,278.597h7.396c0,0-24.962-65.159-24.037-116.932C618.646,161.665,616.797,229.599,635.287,278.597z" style="fill: rgb(204, 213, 174);"></path>
	<path class="st0" d="M619.57,277.57c0,0-31.433-165.007,18.49-228.798c0,0-55.471,54.066-24.037,228.798
		C616.334,279.881,619.57,277.57,619.57,277.57z" style="fill: rgb(204, 213, 174);"></path>
	<path class="st0" d="M87.055,278.597h-7.396c0,0-3.698-106.318-77.658-146.997C2,131.6,75.96,165.807,87.055,278.597z" style="fill: rgb(204, 213, 174);"></path>
	<path class="st0" d="M69.489,278.597h-5.547c0,0-2.773-37.905,16.641-68.414C80.583,210.184,67.64,237.919,69.489,278.597z" style="fill: rgb(204, 213, 174);"></path>
	<path class="st0" d="M51.215,278.597h-4.891c0,0-3.67-112.523,32.41-162.668C78.734,115.929,44.488,167.297,51.215,278.597z" style="fill: rgb(204, 213, 174);"></path>
	<path class="st0" d="M39.905,273.975l-0.925,4.622c0,0-1.849-72.112-18.49-122.959C20.49,155.638,38.056,174.128,39.905,273.975z" style="fill: rgb(204, 213, 174);"></path>
	<path class="st0" d="M55.621,278.597h8.321c0,0-7.396-88.753,36.98-137.751C100.922,140.846,58.395,178.751,55.621,278.597z" style="fill: rgb(204, 213, 174);"></path>
	<path class="st0" d="M146.107,278.597h10.76c0,0,2.3-88.375-66.114-152.166C90.753,126.431,153.386,195.014,146.107,278.597z" style="fill: rgb(204, 213, 174);"></path>
	<path class="st0" d="M556.704,278.597h8.32c0,0-3.697-108.167-24.961-177.505C540.063,101.092,557.628,175.977,556.704,278.597z" style="fill: rgb(204, 213, 174);"></path>
	<path class="st0" d="M648.23,278.597h7.396c0,0,0-69.338,15.716-102.62C671.342,175.977,651.928,213.882,648.23,278.597z" style="fill: rgb(204, 213, 174);"></path>
	<path class="st0" d="M664.871,278.597h6.471c0,0,2.773-87.828-19.414-121.11C651.928,157.487,668.569,186.146,664.871,278.597z" style="fill: rgb(204, 213, 174);"></path>
	<path class="st0" d="M689.833,278.597h-6.471c0,0-2.773-72.112-16.641-154.392C666.72,124.205,685.21,197.241,689.833,278.597z" style="fill: rgb(204, 213, 174);"></path>
	<path class="st0" d="M709.247,278.597h-6.471c0,0-8.321-113.714,36.056-140.524C738.831,138.073,700.002,168.581,709.247,278.597z" style="fill: rgb(204, 213, 174);"></path>
	<path class="st0" d="M187.826,278.597h-6.471c0,0-8.32-113.714,36.056-140.524C217.41,138.073,178.581,168.581,187.826,278.597z" style="fill: rgb(204, 213, 174);"></path>
	<path class="st0" d="M717.568,278.597h8.32c0,0,4.623-78.583-20.339-124.808C705.549,153.789,725.888,196.316,717.568,278.597z" style="fill: rgb(204, 213, 174);"></path>
	<path class="st0" d="M693.531,278.597h9.245c0,0-9.245-134.978,21.264-194.146C724.04,84.451,693.531,123.28,693.531,278.597z" style="fill: rgb(204, 213, 174);"></path>
	<path class="st0" d="M737.907,278.597h5.169c0,0,9.691-133.755,54.923-87.876c-11.63-16.8-25.846-18.74-38.77,1.937
		C749.275,208.586,741.138,248.874,737.907,278.597z" style="fill: rgb(204, 213, 174);"></path>
	<path class="st0" d="M228.504,0.698c0,0,52.309,75.055,54.506,277.899c-2.734,0-7.692,0-7.692,0S275.345,90.682,228.504,0.698z" style="fill: rgb(204, 213, 174);"></path>
	<path class="st0" d="M683.361,278.597h-12.019c0,0-11.401-104.469,29.277-216.642C700.62,61.955,668.569,158.72,683.361,278.597z" style="fill: rgb(204, 213, 174);"></path>
	<path class="st0" d="M442.856,278.597h8.645c0,0-2.347-137.374-31.932-187.913C419.57,90.684,450.385,169.574,442.856,278.597z" style="fill: rgb(204, 213, 174);"></path>
	<path class="st0" d="M393.969,278.597h-7.945c0,0-0.968-26.435-7.133-75.741C378.891,202.856,389.325,224.908,393.969,278.597z" style="fill: rgb(204, 213, 174);"></path>
	<path class="st0" d="M751.775,278.289h8.629c0,0,3.699-59.17-17.257-89.986C743.147,188.303,759.17,216.655,751.775,278.289z" style="fill: rgb(204, 213, 174);"></path>
</g>
</svg>
