<svg width="803" height="619" viewBox="0 0 803 619" fill="none" xmlns="http://www.w3.org/2000/svg">
<ellipse cx="402.941" cy="344" rx="400" ry="275" fill="#A0C795"/>
<ellipse cx="240.222" cy="271.657" rx="234.922" ry="166.53" fill="#9BCAED"/>
<path d="M149.343 452.5C150.497 450.5 153.384 450.5 154.539 452.5L192.644 518.5C193.799 520.5 192.355 523 190.046 523H113.836C111.526 523 110.083 520.5 111.238 518.5L149.343 452.5Z" fill="#8B5E34"/>
<path d="M143.941 499.5C143.941 495.358 147.299 492 151.441 492V492C155.583 492 158.941 495.358 158.941 499.5V522H143.941V499.5Z" fill="#AC9983"/>
<path d="M357.343 476.5C358.497 474.5 361.384 474.5 362.539 476.5L400.644 542.5C401.799 544.5 400.355 547 398.046 547H321.836C319.526 547 318.083 544.5 319.238 542.5L357.343 476.5Z" fill="#8B5E34"/>
<path d="M351.941 523.5C351.941 519.358 355.299 516 359.441 516V516C363.583 516 366.941 519.358 366.941 523.5V546H351.941V523.5Z" fill="#AC9983"/>
<path d="M478.343 352.5C479.497 350.5 482.384 350.5 483.539 352.5L521.644 418.5C522.799 420.5 521.355 423 519.046 423H442.836C440.526 423 439.083 420.5 440.238 418.5L478.343 352.5Z" fill="#8B5E34"/>
<path d="M472.941 399.5C472.941 395.358 476.299 392 480.441 392V392C484.583 392 487.941 395.358 487.941 399.5V422H472.941V399.5Z" fill="#AC9983"/>
<path d="M551.211 120.968C550.208 132.491 550.259 143.242 547.53 154.636C544.258 168.302 537.325 180.845 532.977 194.089C529.094 205.919 523.434 217.395 520.395 229.353C516.533 244.551 503.859 260.001 495.392 272.863C488.855 282.792 483.419 293.16 477.279 303.363C472.063 312.032 469.526 321.88 462.475 329.148C452.735 339.189 444.53 350.625 437.264 362.848C435.515 365.791 433.611 372.957 431.034 375.135C426.121 379.286 419.526 382.715 414.056 386.736C408.201 391.04 402.943 395.646 396.584 399.139C387.854 403.937 378.109 405.248 369.393 409.44C353.225 417.216 335.341 420.157 318.691 426.713C303.062 432.866 287.565 439.432 271.382 443.807C250.125 449.553 228.804 446.859 207.249 444.503C190.51 442.673 175.003 440.748 158.824 436.151C145.29 432.305 131.324 425.637 118.937 418.884C112.159 415.188 104.453 413.442 97.6063 409.64C89.934 405.379 81.4897 402.766 73.7693 398.838C62.6527 393.181 49.9962 390.302 39.1709 384.29C33.2161 380.983 26.2856 378.431 19.9387 376.071C15.817 374.538 9.5523 373.449 6.54974 370.814" stroke="#AC9983" stroke-opacity="0.8" stroke-width="10" stroke-linecap="round"/>
<rect width="84.0303" height="54.8467" rx="3" transform="matrix(0.960273 -0.279062 0.341451 0.9399 224.011 407.588)" fill="#AC9983"/>
<line y1="-1.5" x2="84.0303" y2="-1.5" transform="matrix(0.960273 -0.279062 0.341451 0.9399 226.35 412.858)" stroke="#876E51" stroke-opacity="0.69" stroke-width="3"/>
<line y1="-1.5" x2="84.0303" y2="-1.5" transform="matrix(0.960273 -0.279062 0.341451 0.9399 228.774 419.363)" stroke="#876E51" stroke-opacity="0.69" stroke-width="3"/>
<line y1="-1.5" x2="84.0303" y2="-1.5" transform="matrix(0.960273 -0.279062 0.341451 0.9399 231.198 425.868)" stroke="#876E51" stroke-opacity="0.69" stroke-width="3"/>
<line y1="-1.5" x2="84.0303" y2="-1.5" transform="matrix(0.960273 -0.279062 0.341451 0.9399 233.622 432.372)" stroke="#876E51" stroke-opacity="0.69" stroke-width="3"/>
<line y1="-1.5" x2="84.0303" y2="-1.5" transform="matrix(0.960273 -0.279062 0.341451 0.9399 236.047 438.876)" stroke="#876E51" stroke-opacity="0.69" stroke-width="3"/>
<line y1="-1.5" x2="84.0303" y2="-1.5" transform="matrix(0.960273 -0.279062 0.341451 0.9399 238.471 445.38)" stroke="#876E51" stroke-opacity="0.69" stroke-width="3"/>
<line y1="-1.5" x2="84.0303" y2="-1.5" transform="matrix(0.960273 -0.279062 0.341451 0.9399 240.895 451.885)" stroke="#876E51" stroke-opacity="0.69" stroke-width="3"/>
<line y1="-1.5" x2="84.0303" y2="-1.5" transform="matrix(0.960273 -0.279062 0.341451 0.9399 243.319 458.389)" stroke="#876E51" stroke-opacity="0.69" stroke-width="3"/>
<path d="M473.265 19.3405C474.896 15.0359 480.985 15.0359 482.616 19.3405L511.748 96.2285C512.988 99.4998 510.571 103 507.073 103H448.809C445.311 103 442.894 99.4998 444.133 96.2285L473.265 19.3405Z" fill="#6BBC7D"/>
<line x1="477.941" y1="68" x2="477.941" y2="134" stroke="#876E51" stroke-width="6" stroke-linecap="round"/>
<line x1="465.444" y1="75.5265" x2="477.376" y2="84.6172" stroke="#876E51" stroke-width="5" stroke-linecap="round"/>
<path d="M589.265 41.3405C590.896 37.0359 596.986 37.0359 598.617 41.3405L627.748 118.228C628.988 121.5 626.571 125 623.073 125H564.809C561.311 125 558.894 121.5 560.133 118.228L589.265 41.3405Z" fill="#6BBC7D"/>
<line x1="593.941" y1="90" x2="593.941" y2="156" stroke="#876E51" stroke-width="6" stroke-linecap="round"/>
<line x1="581.445" y1="97.5265" x2="593.376" y2="106.617" stroke="#876E51" stroke-width="5" stroke-linecap="round"/>
<path d="M537.265 12.3405C538.896 8.03588 544.985 8.03589 546.616 12.3405L575.748 89.2285C576.988 92.4998 574.571 96 571.073 96H512.809C509.311 96 506.894 92.4998 508.133 89.2285L537.265 12.3405Z" fill="#6BBC7D"/>
<line x1="541.941" y1="61" x2="541.941" y2="127" stroke="#876E51" stroke-width="6" stroke-linecap="round"/>
<line x1="529.444" y1="68.5265" x2="541.376" y2="77.6172" stroke="#876E51" stroke-width="5" stroke-linecap="round"/>
<path d="M560.265 71.3405C561.896 67.0359 567.986 67.0359 569.617 71.3405L598.748 148.228C599.988 151.5 597.571 155 594.073 155H535.809C532.311 155 529.894 151.5 531.133 148.228L560.265 71.3405Z" fill="#85BF74"/>
<line x1="564.941" y1="120" x2="564.941" y2="186" stroke="#876E51" stroke-width="6" stroke-linecap="round"/>
<line x1="552.445" y1="127.527" x2="564.376" y2="136.617" stroke="#876E51" stroke-width="5" stroke-linecap="round"/>
<path d="M495.265 61.3405C496.896 57.0359 502.985 57.0359 504.616 61.3405L533.748 138.228C534.988 141.5 532.571 145 529.073 145H470.809C467.311 145 464.894 141.5 466.133 138.228L495.265 61.3405Z" fill="#85BF74"/>
<line x1="499.941" y1="110" x2="499.941" y2="176" stroke="#876E51" stroke-width="6" stroke-linecap="round"/>
<line x1="487.444" y1="117.527" x2="499.376" y2="126.617" stroke="#876E51" stroke-width="5" stroke-linecap="round"/>
<path d="M719.941 184C706.401 197.25 690.524 212.671 683.916 230.778C677.178 249.244 669.186 263.265 656.591 278.673C640.626 298.203 633.148 322.842 622.499 345.229C615.587 359.761 605.071 375.782 594.998 388.653C588.407 397.073 584.482 406.672 579.182 415.825C573.862 425.013 571.554 435.399 565.651 444.201C559.684 453.1 556.371 462.485 552.296 472.234C545.288 488.998 539.179 507.802 530.242 523.655C522.56 537.28 519.36 553.063 512.669 567.251C507.065 579.134 496.941 592.055 496.941 605" stroke="#C4C4C4" stroke-width="12" stroke-linecap="round"/>
<path d="M617.343 444.5C618.498 442.5 621.384 442.5 622.539 444.5L660.644 510.5C661.799 512.5 660.355 515 658.046 515H581.836C579.526 515 578.083 512.5 579.238 510.5L617.343 444.5Z" fill="#8B5E34"/>
<path d="M611.941 491.5C611.941 487.358 615.299 484 619.441 484V484C623.583 484 626.941 487.358 626.941 491.5V514H611.941V491.5Z" fill="#AC9983"/>
<path d="M636.941 446H629.941V466L636.941 479V446Z" fill="#8B5E34"/>
<circle cx="634.441" cy="438.5" r="2.5" fill="white"/>
<circle cx="641.941" cy="429" r="4" fill="white"/>
<circle cx="651.941" cy="420" r="5" fill="white"/>
<path d="M652.568 287.054C662.748 290.173 671.85 294.639 681.968 297.302C690.359 299.51 698.655 301.263 707 303.35C720.687 306.771 734.797 306.425 748.581 308.978C764.008 311.835 780.436 311.246 796.21 311.246" stroke="#C4C4C4" stroke-width="12" stroke-linecap="round"/>
<path d="M262.941 493L268.137 509.071H257.745L262.941 493Z" fill="#739971"/>
<path d="M268.941 493L274.137 509.071H263.745L268.941 493Z" fill="#739971"/>
<path d="M274.941 493L280.137 509.071H269.745L274.941 493Z" fill="#739971"/>
<path d="M305.941 572L311.137 588.071H300.745L305.941 572Z" fill="#739971"/>
<path d="M311.941 572L317.137 588.071H306.745L311.941 572Z" fill="#739971"/>
<path d="M317.941 572L323.137 588.071H312.745L317.941 572Z" fill="#739971"/>
<path d="M442.941 527L448.137 543.071H437.745L442.941 527Z" fill="#739971"/>
<path d="M448.941 527L454.137 543.071H443.745L448.941 527Z" fill="#739971"/>
<path d="M454.941 527L460.137 543.071H449.745L454.941 527Z" fill="#739971"/>
<path d="M412.941 419L418.137 435.071H407.745L412.941 419Z" fill="#739971"/>
<path d="M418.941 419L424.137 435.071H413.745L418.941 419Z" fill="#739971"/>
<path d="M424.941 419L430.137 435.071H419.745L424.941 419Z" fill="#739971"/>
<path d="M556.941 327L562.137 343.071H551.745L556.941 327Z" fill="#739971"/>
<path d="M562.941 327L568.137 343.071H557.745L562.941 327Z" fill="#739971"/>
<path d="M568.941 327L574.137 343.071H563.745L568.941 327Z" fill="#739971"/>
<path d="M567.941 504L573.137 520.071H562.745L567.941 504Z" fill="#739971"/>
<path d="M573.941 504L579.137 520.071H568.745L573.941 504Z" fill="#739971"/>
<path d="M579.941 504L585.137 520.071H574.745L579.941 504Z" fill="#739971"/>
<path d="M761.941 266L767.137 282.071H756.745L761.941 266Z" fill="#739971"/>
<path d="M767.941 266L773.137 282.071H762.745L767.941 266Z" fill="#739971"/>
<path d="M773.941 266L779.137 282.071H768.745L773.941 266Z" fill="#739971"/>
<path d="M719.941 363L725.137 379.071H714.745L719.941 363Z" fill="#739971"/>
<path d="M725.941 363L731.137 379.071H720.745L725.941 363Z" fill="#739971"/>
<path d="M731.941 363L737.137 379.071H726.745L731.941 363Z" fill="#739971"/>
<path d="M501.941 238L507.137 254.071H496.745L501.941 238Z" fill="#739971"/>
<path d="M507.941 238L513.137 254.071H502.745L507.941 238Z" fill="#739971"/>
<path d="M513.941 238L519.137 254.071H508.745L513.941 238Z" fill="#739971"/>
<path d="M638.941 179L644.137 195.071H633.745L638.941 179Z" fill="#739971"/>
<path d="M644.941 179L650.137 195.071H639.745L644.941 179Z" fill="#739971"/>
<path d="M650.941 179L656.137 195.071H645.745L650.941 179Z" fill="#739971"/>
<path d="M68.9408 445L74.1369 461.071H63.7446L68.9408 445Z" fill="#739971"/>
<path d="M74.9408 445L80.1369 461.071H69.7446L74.9408 445Z" fill="#739971"/>
<path d="M80.9408 445L86.1369 461.071H75.7446L80.9408 445Z" fill="#739971"/>
<path d="M400.941 80L406.137 96.0714H395.745L400.941 80Z" fill="#739971"/>
<path d="M406.941 80L412.137 96.0714H401.745L406.941 80Z" fill="#739971"/>
<path d="M412.941 80L418.137 96.0714H407.745L412.941 80Z" fill="#739971"/>
<rect x="702.813" y="224.615" width="55.7021" height="47.3846" fill="#AC9983"/>
<path d="M729.295 200.547C729.668 200.231 730.214 200.231 730.587 200.547L772.025 235.621C772.736 236.223 772.31 237.385 771.379 237.385H688.503C687.571 237.385 687.146 236.223 687.857 235.621L729.295 200.547Z" fill="#AC9983"/>
<rect x="721.622" y="246.77" width="18.0851" height="24.6154" fill="#FFFDF5"/>
<rect x="705.707" y="254.153" width="10.8511" height="9.23077" fill="#FFFDF5"/>
<line x1="705.707" y1="258.576" x2="716.558" y2="258.576" stroke="#AC9983"/>
<line x1="710.994" y1="263.384" x2="710.994" y2="254.153" stroke="#AC9983"/>
<rect x="744.771" y="254.153" width="10.8511" height="9.23077" fill="#FFFDF5"/>
<line x1="744.771" y1="258.576" x2="755.622" y2="258.576" stroke="#AC9983"/>
<line x1="750.058" y1="263.384" x2="750.058" y2="254.153" stroke="#AC9983"/>
<rect x="720.175" y="225.23" width="21.7021" height="6.15385" fill="#FFFDF5"/>
<path d="M741.877 225.231C741.877 222.783 740.734 220.435 738.699 218.704C736.664 216.973 733.904 216 731.026 216C728.148 216 725.388 216.973 723.353 218.704C721.318 220.435 720.175 222.783 720.175 225.231L731.026 225.231H741.877Z" fill="#FFFDF5"/>
<line x1="730.526" y1="231.385" x2="730.526" y2="216" stroke="#AC9983"/>
<line x1="720.175" y1="226.577" x2="741.877" y2="226.577" stroke="#AC9983"/>
<path d="M36.9408 242.906C48.795 235.909 62.5639 227.297 77.5139 234.162C83.8464 237.07 93.1616 239.031 99.7573 236.396C104.596 234.462 110.759 233.144 114.395 229.624" stroke="#C0DDF4" stroke-width="2" stroke-linecap="round"/>
<path d="M107.941 279.906C119.795 272.909 133.564 264.297 148.514 271.162C154.846 274.07 164.162 276.031 170.757 273.396C175.596 271.462 181.759 270.144 185.395 266.624" stroke="#C0DDF4" stroke-width="2" stroke-linecap="round"/>
<path d="M75.9408 350.906C87.795 343.909 101.564 335.297 116.514 342.162C122.846 345.07 132.162 347.031 138.757 344.396C143.596 342.462 149.759 341.144 153.395 337.624" stroke="#C0DDF4" stroke-width="2" stroke-linecap="round"/>
<path d="M161.941 381.906C173.795 374.909 187.564 366.297 202.514 373.162C208.846 376.07 218.162 378.031 224.757 375.396C229.596 373.462 235.759 372.144 239.395 368.624" stroke="#C0DDF4" stroke-width="2" stroke-linecap="round"/>
<path d="M298.941 340.906C310.795 333.909 324.564 325.297 339.514 332.162C345.846 335.07 355.162 337.031 361.757 334.396C366.596 332.462 372.759 331.144 376.395 327.624" stroke="#C0DDF4" stroke-width="2" stroke-linecap="round"/>
<path d="M233.941 235.906C245.795 228.909 259.564 220.297 274.514 227.162C280.846 230.07 290.162 232.031 296.757 229.396C301.596 227.462 307.759 226.144 311.395 222.624" stroke="#C0DDF4" stroke-width="2" stroke-linecap="round"/>
<path d="M195.351 306.854C207.205 299.858 220.974 291.246 235.924 298.11C242.257 301.018 251.572 302.979 258.168 300.344C263.007 298.41 269.169 297.093 272.805 293.572" stroke="#C0DDF4" stroke-width="2" stroke-linecap="round"/>
<path d="M329.941 256.906C341.795 249.909 355.564 241.297 370.514 248.162C376.846 251.07 386.162 253.031 392.757 250.396C397.596 248.462 403.759 247.144 407.395 243.624" stroke="#C0DDF4" stroke-width="2" stroke-linecap="round"/>
<path d="M270.941 156.906C282.795 149.909 296.564 141.297 311.514 148.162C317.846 151.07 327.162 153.031 333.757 150.396C338.596 148.462 344.759 147.144 348.395 143.624" stroke="#C0DDF4" stroke-width="2" stroke-linecap="round"/>
<path d="M148.941 190.906C160.795 183.909 174.564 175.297 189.514 182.162C195.846 185.07 205.162 187.031 211.757 184.396C216.596 182.462 222.759 181.144 226.395 177.624" stroke="#C0DDF4" stroke-width="2" stroke-linecap="round"/>
<ellipse cx="145.85" cy="212" rx="14.9091" ry="6.92308" fill="#FDE3B3"/>
<path d="M156.815 214.629C154.742 213.49 154.742 210.51 156.815 209.371L161.769 206.649C163.768 205.55 166.214 206.996 166.214 209.278V214.722C166.214 217.004 163.768 218.45 161.769 217.351L156.815 214.629Z" fill="#FDE3B3"/>
<ellipse cx="136.032" cy="210.615" rx="1.45455" ry="1.38462" fill="#3E3A39" fill-opacity="0.9"/>
<ellipse cx="136.395" cy="209.577" rx="0.363636" ry="0.346154" fill="white"/>
<path d="M131.668 214.077C133.038 215.088 133.845 214.908 135.304 214.077" stroke="#F8B3B3" stroke-width="0.7" stroke-linecap="round"/>
<ellipse cx="245.87" cy="330.23" rx="13.5859" ry="6.95954" transform="rotate(9.81001 245.87 330.23)" fill="#FDE3B3"/>
<path d="M255.152 334.438C253.453 332.959 253.93 330.205 256.027 329.382L260.53 327.616C262.707 326.762 264.98 328.616 264.582 330.92L263.727 335.863C263.329 338.167 260.565 339.149 258.801 337.614L255.152 334.438Z" fill="#FDE3B3"/>
<ellipse cx="237.291" cy="327.335" rx="1.32545" ry="1.39191" transform="rotate(9.81001 237.291 327.335)" fill="#3E3A39" fill-opacity="0.9"/>
<ellipse cx="237.795" cy="326.362" rx="0.331363" ry="0.347977" transform="rotate(9.81001 237.795 326.362)" fill="white"/>
<path d="M232.78 330.086C233.836 331.3 234.592 331.247 236.045 330.651" stroke="#F8B3B3" stroke-width="0.7" stroke-linecap="round"/>
<ellipse cx="351.104" cy="198" rx="14.1636" ry="5.38462" fill="#FDE3B3"/>
<path d="M363.057 200.736C360.699 199.675 360.699 196.325 363.057 195.264L366.219 193.842C368.204 192.948 370.45 194.4 370.45 196.577V199.423C370.45 201.6 368.204 203.052 366.219 202.158L363.057 200.736Z" fill="#FDE3B3"/>
<ellipse cx="341.777" cy="196.923" rx="1.38182" ry="1.07692" fill="#3E3A39" fill-opacity="0.9"/>
<ellipse cx="342.123" cy="196.115" rx="0.345455" ry="0.269231" fill="white"/>
<path d="M337.632 199.615C338.933 200.402 339.7 200.261 341.086 199.615" stroke="#F8B3B3" stroke-width="0.7" stroke-linecap="round"/>
<circle cx="43" cy="405" r="20" fill="#FFFDF5"/>
<path d="M45.08 416.08C44.8667 416.32 44.3333 416.44 43.48 416.44H43.08V416.16C42.8667 416.16 42.5867 416.227 42.24 416.36C41.92 416.52 41.5467 416.613 41.12 416.64C41.12 416.533 41 416.48 40.76 416.48C40.6 416.48 40.4 416.507 40.16 416.56C39.92 416.613 39.76 416.64 39.68 416.64V416.36H36.72C36.5333 416.173 36.3333 416.08 36.12 416.08C35.96 416.08 35.7333 416.133 35.44 416.24C35.1733 416.347 34.9733 416.4 34.84 416.4C34.6 416.4 34.4267 416.347 34.32 416.24C34.24 416.133 34.2 415.96 34.2 415.72L34.24 415.36L38.4 410.96C38.5067 410.64 39.0267 409.933 39.96 408.84C40.5733 408.147 41.0533 407.56 41.4 407.08C41.7467 406.6 41.92 406.213 41.92 405.92L41.88 405.72C44.0133 403.267 45.08 401.493 45.08 400.4V399.52C45.08 399.36 45.16 399.093 45.32 398.72C45.5067 398.347 45.6 398.133 45.6 398.08L45.56 397.88C45.1333 396.76 44.7067 395.867 44.28 395.2C43.8533 394.507 43.2933 393.96 42.6 393.56C41.9067 393.16 41.0133 392.96 39.92 392.96C39.12 392.96 38.52 393.067 38.12 393.28C37.72 393.493 37.32 393.813 36.92 394.24C36.7067 394.48 36.5067 394.667 36.32 394.8C36.16 394.933 35.9467 395.04 35.68 395.12L35.96 395.4C35.96 395.587 35.8667 395.813 35.68 396.08C35.52 396.32 35.3467 396.44 35.16 396.44C34.6267 396.44 34.28 396.133 34.12 395.52C33.9867 394.907 33.92 394.133 33.92 393.2C33.92 392.827 34.0933 392.56 34.44 392.4C34.4133 392.453 34.4 392.533 34.4 392.64C34.4 392.773 34.4667 392.973 34.6 393.24C34.76 393.48 34.84 393.68 34.84 393.84C35.16 393.84 35.4667 393.72 35.76 393.48C36.0533 393.213 36.2 392.907 36.2 392.56C36.2 392.347 36.12 392.16 35.96 392C35.8267 391.813 35.6533 391.707 35.44 391.68C35.4933 391.627 35.5467 391.56 35.6 391.48C35.6533 391.373 35.68 391.28 35.68 391.2C35.8933 390.587 36.5733 390.147 37.72 389.88C38.8933 389.613 39.9467 389.48 40.88 389.48C43.7867 389.48 46.2533 390.707 48.28 393.16C48.4933 393.427 48.68 393.867 48.84 394.48C48.9467 394.96 49.0933 395.347 49.28 395.64C49.28 397.427 49.2133 398.853 49.08 399.92C48.9467 400.96 48.6 402 48.04 403.04C47.56 403.707 46.9467 404.547 46.2 405.56C45.4533 406.547 44.8267 407.36 44.32 408C44.1333 408.213 43.7867 408.573 43.28 409.08C42.72 409.613 42.2933 410.04 42 410.36C41.7333 410.68 41.6 410.96 41.6 411.2C41.6 411.573 42.3867 411.827 43.96 411.96C45.56 412.093 47.24 412.16 49 412.16V412.64C49.0533 412.64 49.16 412.6 49.32 412.52C49.5067 412.44 49.6267 412.4 49.68 412.4C50 412.4 50.2133 412.707 50.32 413.32C50.4533 413.933 50.52 414.573 50.52 415.24L50.56 415.96C50.56 416.547 50.3733 416.84 50 416.84C49.8933 416.84 49.6933 416.787 49.4 416.68C49.1333 416.573 48.92 416.467 48.76 416.36L45.08 416.08ZM37.16 392.2C37.16 392.36 37.3333 392.44 37.68 392.44C37.8667 392.44 38.1467 392.307 38.52 392.04C38.8933 391.773 39.2 391.64 39.44 391.64L39.68 391.68L40.4 390.76L40 390.72C39.2 390.72 38.52 390.813 37.96 391C37.4267 391.16 37.16 391.56 37.16 392.2ZM41.36 390.8C40.9867 390.8 40.5733 391.093 40.12 391.68H42.84C43.0533 391.68 43.16 391.413 43.16 390.88C42.8933 390.88 42.5733 390.933 42.2 391.04C41.72 391.12 41.44 391.16 41.36 391.16V390.8ZM44.24 391.64C44.24 392.12 44.2533 392.493 44.28 392.76C44.3333 393.027 44.44 393.16 44.6 393.16C44.6533 393.16 44.84 393.107 45.16 393C45.5067 392.867 45.8133 392.76 46.08 392.68C45.8933 392.44 45.6133 392.213 45.24 392C44.8667 391.76 44.5333 391.64 44.24 391.64ZM43.88 391.68C43.5333 391.813 43.2667 391.987 43.08 392.2C43.3733 392.2 43.5733 392.173 43.68 392.12C43.8133 392.067 43.88 391.92 43.88 391.68ZM46.56 393.16C46.4267 393.56 46.1733 393.893 45.8 394.16H47.36C47.36 394.027 47.0933 393.693 46.56 393.16ZM47.8 399.84C48.04 399.573 48.1867 399.267 48.24 398.92C48.2933 398.573 48.32 398.12 48.32 397.56L48.28 395.88L47.8 395.12L46.56 396.4C46.56 396.4 46.5467 396.413 46.52 396.44C46.52 396.467 46.52 396.493 46.52 396.52C46.52 396.76 46.64 396.92 46.88 397C47.1467 397.053 47.36 397.12 47.52 397.2C47.7067 397.28 47.8 397.44 47.8 397.68C47.7467 397.76 47.5467 398 47.2 398.4C46.88 398.773 46.72 399.053 46.72 399.24C46.72 399.32 46.7467 399.36 46.8 399.36L47.8 399.84ZM46.28 401.68C46.28 401.813 46.3333 401.92 46.44 402C46.5467 402.053 46.6667 402.08 46.8 402.08C47.0133 402.08 47.16 402.013 47.24 401.88C47.32 401.747 47.36 401.547 47.36 401.28C47.1467 401.28 46.9067 401.307 46.64 401.36C46.4 401.413 46.28 401.52 46.28 401.68ZM44.8 404.16C44.8 404.24 44.88 404.32 45.04 404.4C45.2267 404.453 45.36 404.507 45.44 404.56L45.56 404.52L46.08 403.52C46.0267 403.547 45.8 403.627 45.4 403.76C45 403.867 44.8 404 44.8 404.16ZM44.2 404.8C44.12 404.8 44.04 404.853 43.96 404.96C43.9067 405.04 43.88 405.147 43.88 405.28H43.92C44 405.28 44.1067 405.253 44.24 405.2C44.4 405.12 44.52 405.053 44.6 405C44.4667 404.867 44.3333 404.8 44.2 404.8ZM43.08 406.36C43.08 406.44 43.1467 406.533 43.28 406.64C43.4133 406.72 43.52 406.76 43.6 406.76C43.7333 406.707 43.9067 406.547 44.12 406.28C44.36 405.987 44.4667 405.8 44.44 405.72C44.0933 405.72 43.64 405.933 43.08 406.36ZM42.84 406.96C42.6267 407.093 42.52 407.267 42.52 407.48H43.12C43.12 407.24 43.0267 407.067 42.84 406.96ZM41.88 408.24C41.88 408.267 41.6533 408.533 41.2 409.04C40.2667 410.08 39.4933 410.987 38.88 411.76C38.2933 412.533 37.8933 413.253 37.68 413.92C38.3467 413.92 38.88 413.68 39.28 413.2C39.68 412.693 40.1067 411.96 40.56 411C40.8533 410.36 41.12 409.853 41.36 409.48C41.44 409.373 41.64 409.173 41.96 408.88C42.28 408.587 42.44 408.373 42.44 408.24H41.88ZM38.16 415.36C38.1867 415.573 38.6533 415.68 39.56 415.68C40.3867 415.68 41.0267 415.533 41.48 415.24C41.96 414.947 42.2 414.253 42.2 413.16H41.88L39.88 415.16C39.8533 415.16 39.8133 415.133 39.76 415.08C39.7067 415 39.68 414.933 39.68 414.88C39.68 414.72 39.9467 414.373 40.48 413.84C40.9333 413.44 41.16 413.173 41.16 413.04C41.16 412.88 41.0667 412.76 40.88 412.68C40.2933 412.68 39.8 412.92 39.4 413.4C39.0267 413.88 38.6133 414.533 38.16 415.36ZM47 414.2C47 414.68 47.1333 414.92 47.4 414.92C47.5333 414.92 47.72 414.693 47.96 414.24C48.2267 413.76 48.36 413.387 48.36 413.12C47.88 413.12 47.5333 413.16 47.32 413.24C47.1067 413.32 47 413.587 47 414.04V414.2ZM43.24 413.12C42.9733 413.12 42.8 413.2 42.72 413.36C42.6667 413.52 42.64 413.787 42.64 414.16L43.6 413.16L43.24 413.12ZM44.8 413.16C44.8 413.373 44.76 413.667 44.68 414.04C44.6 414.387 44.56 414.587 44.56 414.64H44.8L46.08 413.4C45.9733 413.24 45.7333 413.16 45.36 413.16C45.0133 413.16 44.8267 413.16 44.8 413.16ZM48.04 414.88H49.28L49 413.4H48.76L48.04 414.88ZM42.84 415.2C43.2933 415.2 43.6 415.173 43.76 415.12C43.92 415.067 44.0133 414.96 44.04 414.8C44.0667 414.613 44.08 414.227 44.08 413.64L42.84 414.88V415.2ZM45.8 414.92C46.0667 414.92 46.2533 414.893 46.36 414.84C46.4933 414.76 46.56 414.613 46.56 414.4C46.56 414.24 46.5467 414.133 46.52 414.08C46.4933 414 46.4133 413.947 46.28 413.92L45.36 414.88L45.8 414.92ZM37.8 414.88C37.72 414.88 37.6133 414.92 37.48 415C37.3467 415.08 37.24 415.133 37.16 415.16L37.44 415.2C37.6533 415.2 37.8133 415.093 37.92 414.88H37.8Z" fill="#783B01"/>
<circle cx="322" cy="393" r="20" fill="#FFFDF5"/>
<path d="M325.68 402.4H325.32L325.4 403.92C325.4 404 325.36 404.093 325.28 404.2C325.227 404.333 325.187 404.4 325.16 404.4H323.92C323.947 404.08 323.573 403.92 322.8 403.92C322.747 403.92 322.667 403.96 322.56 404.04C322.48 404.147 322.44 404.267 322.44 404.4C322.147 404.133 321.827 403.773 321.48 403.32C321.133 402.84 320.96 402.453 320.96 402.16C320.96 402.08 320.987 401.987 321.04 401.88C321.093 401.773 321.147 401.693 321.2 401.64H320.92C320.92 400.52 321.013 399.707 321.2 399.2C321.2 397.867 321.227 396.133 321.28 394L321.32 389.88C321.32 387.48 321.12 386.067 320.72 385.64C320.693 385.533 320.667 385.36 320.64 385.12C320.613 384.88 320.547 384.707 320.44 384.6C320.333 384.467 320.173 384.4 319.96 384.4C319.933 384.4 319.653 384.533 319.12 384.8C318.613 385.093 318.24 385.28 318 385.36L317.88 385.4L317.76 385.36L318 385.12C317.973 385.067 317.92 385.013 317.84 384.96C317.787 384.907 317.72 384.88 317.64 384.88C317.56 384.88 317.507 384.893 317.48 384.92C317.213 384.387 317.013 383.947 316.88 383.6C316.773 383.227 316.72 382.827 316.72 382.4C316.72 382.16 316.76 382.013 316.84 381.96C316.947 381.88 317.08 381.84 317.24 381.84C317.4 381.813 317.48 381.76 317.48 381.68C318.387 381.28 319.173 380.787 319.84 380.2C320.533 379.613 321.24 378.867 321.96 377.96H324.88C324.88 378.12 324.933 378.347 325.04 378.64C325.147 378.933 325.2 379.173 325.2 379.36V379.6C325.2 379.973 325.107 380.253 324.92 380.44H325.24C325.24 381.053 325.133 381.467 324.92 381.68H325.28C325.28 382.08 325.267 382.587 325.24 383.2C325.213 383.787 325.187 384.267 325.16 384.64C325.133 384.773 325.093 384.947 325.04 385.16C324.987 385.347 324.947 385.507 324.92 385.64C324.947 385.667 324.987 385.707 325.04 385.76C325.093 385.813 325.133 385.853 325.16 385.88V390.08C325.347 390.133 325.44 390.333 325.44 390.68C325.44 391.08 325.347 391.293 325.16 391.32L325.4 391.52L325.16 391.8L325.4 392.08V395.28L325.68 395.52V402.4ZM324.92 399.48C324.92 399.187 324.893 398.987 324.84 398.88C324.813 398.747 324.747 398.68 324.64 398.68C324.48 398.68 324.227 398.733 323.88 398.84C323.533 398.92 323.307 398.96 323.2 398.96C323.467 398.96 323.8 398.787 324.2 398.44C324.627 398.067 324.84 397.747 324.84 397.48H323.68C323.76 397.427 323.893 397.347 324.08 397.24C324.267 397.133 324.413 397.013 324.52 396.88C324.627 396.747 324.68 396.6 324.68 396.44C324.68 396.253 324.627 396.133 324.52 396.08C324.413 396.027 324.213 396 323.92 396C324.187 395.84 324.373 395.693 324.48 395.56C324.613 395.4 324.68 395.213 324.68 395C324.68 394.653 324.507 394.48 324.16 394.48C324.24 394.427 324.32 394.36 324.4 394.28C324.507 394.173 324.587 394.08 324.64 394C324.64 393.307 324.587 392.72 324.48 392.24C324.4 391.76 324.133 391.52 323.68 391.52C323.547 391.52 323.4 391.6 323.24 391.76C323.533 391.413 323.84 391.187 324.16 391.08V388.84L323.92 388.6L324.16 388.32V379.24C324.16 379.133 323.947 379.067 323.52 379.04C323.093 378.987 322.88 378.96 322.88 378.96C322.64 378.96 322.493 379.053 322.44 379.24L322.72 379.48C322.133 379.747 321.453 380.293 320.68 381.12C320.067 381.733 319.587 382.16 319.24 382.4C319.08 382.507 318.88 382.613 318.64 382.72C318.427 382.8 318.267 382.92 318.16 383.08C318.053 383.24 318 383.48 318 383.8C318.4 383.8 318.733 383.733 319 383.6C319.267 383.44 319.573 383.213 319.92 382.92C320.08 382.787 320.24 382.667 320.4 382.56C320.56 382.453 320.707 382.4 320.84 382.4C321.08 382.4 321.28 382.44 321.44 382.52C321.6 382.573 321.773 382.707 321.96 382.92C321.827 382.947 321.733 383 321.68 383.08C321.653 383.16 321.64 383.28 321.64 383.44C321.64 383.573 321.667 383.667 321.72 383.72C321.8 383.773 321.88 383.827 321.96 383.88C321.96 383.96 321.907 384.08 321.8 384.24C321.72 384.4 321.68 384.533 321.68 384.64C321.947 385.547 322.107 386.307 322.16 386.92C322.213 387.507 322.24 388.693 322.24 390.48L322.2 393.76C322.36 393.92 322.453 394.12 322.48 394.36C322.507 394.573 322.52 394.88 322.52 395.28H322.88L322.92 395.48C322.893 395.507 322.827 395.56 322.72 395.64C322.64 395.693 322.547 395.72 322.44 395.72C322.44 395.827 322.4 396.36 322.32 397.32C322.24 397.8 322.2 398.267 322.2 398.72C322.2 398.907 322.227 399.04 322.28 399.12C322.333 399.173 322.48 399.2 322.72 399.2C322.347 399.44 322.16 399.867 322.16 400.48C322.4 400.48 322.653 400.4 322.92 400.24C322.947 400.213 323.04 400.16 323.2 400.08C323.387 400 323.627 399.96 323.92 399.96C323.76 400.173 323.44 400.413 322.96 400.68C322.64 400.84 322.387 401.013 322.2 401.2C322.04 401.36 321.96 401.6 321.96 401.92C321.96 402.827 322.853 403.28 324.64 403.28V401.44L324.16 401.16C324.48 401.053 324.68 400.893 324.76 400.68C324.867 400.467 324.92 400.2 324.92 399.88V399.48ZM323.92 379.96C323.707 380.253 323.307 380.48 322.72 380.64L321.96 380.96C322.413 380.293 322.987 379.96 323.68 379.96H323.92ZM323.24 391.76C323.213 391.76 323.2 391.773 323.2 391.8C323.2 391.773 323.213 391.76 323.24 391.76ZM324 402.16C324.053 402.16 324.133 402.187 324.24 402.24C324.347 402.293 324.4 402.347 324.4 402.4C324.213 402.48 323.987 402.547 323.72 402.6C323.48 402.627 323.307 402.64 323.2 402.64C323.28 402.56 323.387 402.48 323.52 402.4C323.68 402.293 323.813 402.213 323.92 402.16H324Z" fill="#783B01"/>
<circle cx="275" cy="549" r="20" fill="#FFFDF5"/>
<path d="M282.76 554.16C282.76 554.613 282.667 554.947 282.48 555.16C282.32 555.347 282.24 555.507 282.24 555.64L282.28 556.2C282.28 556.573 282 557.107 281.44 557.8C280.88 558.467 280.24 559.067 279.52 559.6C278.8 560.133 278.2 560.4 277.72 560.4L273.76 560.48C272.747 560.48 271.88 560.467 271.16 560.44C270.467 560.413 270.053 560.4 269.92 560.4C269.04 560.293 268.12 560.147 267.16 559.96C266.227 559.747 265.76 559.56 265.76 559.4V559.2H265.2C265.2 557.6 265.707 556.107 266.72 554.72L266.96 554.68C267.093 554.68 267.28 554.813 267.52 555.08C267.787 555.347 267.947 555.48 268 555.48C268.08 555.48 268.173 555.453 268.28 555.4C268.387 555.32 268.44 555.267 268.44 555.24C270.147 556.227 271.84 556.72 273.52 556.72C275.04 556.72 276.173 556.467 276.92 555.96C277.693 555.427 278.08 554.48 278.08 553.12C278.08 552.427 277.96 551.813 277.72 551.28C277.48 550.72 277.107 550.067 276.6 549.32C276.68 549.24 276.72 549.173 276.72 549.12C276.72 548.853 276.373 548.613 275.68 548.4C274.987 548.187 274 547.933 272.72 547.64C272.107 547.507 271.56 547.373 271.08 547.24C270.627 547.107 270.4 547 270.4 546.92L270.44 546.84C270.413 546.84 270.24 546.92 269.92 547.08C269.44 547 269.067 546.907 268.8 546.8C268.56 546.667 268.44 546.48 268.44 546.24C268.44 545.973 268.56 545.493 268.8 544.8C269.067 544.107 269.28 543.72 269.44 543.64C269.52 543.64 269.693 543.653 269.96 543.68C270.227 543.68 270.56 543.68 270.96 543.68C272.613 543.68 274.093 543.507 275.4 543.16C276.707 542.813 277.36 542.147 277.36 541.16C277.36 540.227 277.107 539.4 276.6 538.68C276.12 537.96 275.453 537.4 274.6 537C274.28 536.947 273.76 536.92 273.04 536.92C272.347 536.92 271.467 537.067 270.4 537.36C270.267 537.387 269.92 537.467 269.36 537.6C268.8 537.733 268.267 537.8 267.76 537.8C267.76 537.48 267.587 537.027 267.24 536.44C266.867 535.747 266.68 535.213 266.68 534.84C266.68 534.6 267.227 534.36 268.32 534.12C269.44 533.88 270.693 533.68 272.08 533.52C273.467 533.333 274.413 533.24 274.92 533.24C276.947 533.24 278.507 533.96 279.6 535.4C280.72 536.84 281.28 538.6 281.28 540.68C281.28 541.32 281.2 541.8 281.04 542.12L280.52 542.96C279.72 544.133 279.32 544.907 279.32 545.28C279.32 545.36 279.453 545.493 279.72 545.68C280.013 545.867 280.2 546 280.28 546.08C281.347 547.04 282.027 548.147 282.32 549.4C282.613 550.627 282.76 552.213 282.76 554.16ZM274.24 534.6C274.453 534.6 274.573 534.573 274.6 534.52C274.6 534.44 274.48 534.4 274.24 534.4C274 534.4 273.88 534.427 273.88 534.48C273.88 534.56 274 534.6 274.24 534.6ZM277.44 535C276.987 535.027 276.56 535.147 276.16 535.36C275.787 535.547 275.6 535.76 275.6 536C276.027 535.947 276.533 535.853 277.12 535.72C277.707 535.587 278.027 535.52 278.08 535.52C278 535.387 277.907 535.267 277.8 535.16C277.693 535.053 277.573 535 277.44 535ZM270.36 536C270.653 536 270.867 535.96 271 535.88C271.16 535.8 271.24 535.627 271.24 535.36C270.893 535.387 270.587 535.44 270.32 535.52C270.08 535.6 269.867 535.76 269.68 536H270.36ZM267.96 536C268.093 536 268.16 535.92 268.16 535.76C268.16 535.6 268.093 535.52 267.96 535.52C267.827 535.52 267.76 535.6 267.76 535.76C267.76 535.92 267.827 536 267.96 536ZM272.88 535.72C272.933 535.72 272.987 535.693 273.04 535.64C273.093 535.587 273.12 535.547 273.12 535.52H272.4C272.453 535.547 272.52 535.587 272.6 535.64C272.707 535.693 272.8 535.72 272.88 535.72ZM277.08 537.2C277.347 537.36 277.68 537.96 278.08 539C278.267 539.48 278.413 539.787 278.52 539.92L278.32 540.44L278.8 540.68C278.613 540.68 278.52 540.84 278.52 541.16L279.96 541.68C280.093 541.68 280.213 541.333 280.32 540.64C280.453 539.92 280.52 539.427 280.52 539.16C280.52 538.813 280.4 538.64 280.16 538.64C280.08 538.64 279.987 538.653 279.88 538.68C279.8 538.707 279.72 538.72 279.64 538.72C279.453 538.72 279.347 538.627 279.32 538.44C279.4 538.467 279.507 538.48 279.64 538.48C279.96 538.48 280.12 538.28 280.12 537.88C280.12 537.613 280.107 537.48 280.08 537.48L278.8 536L278.56 535.96C278.347 535.96 278 536.013 277.52 536.12C276.853 536.253 276.347 536.32 276 536.32C276 536.427 276.12 536.533 276.36 536.64C276.6 536.747 276.84 536.827 277.08 536.88C277.347 536.933 277.52 536.973 277.6 537L277.08 537.2ZM270.92 537C271.053 537 271.12 536.907 271.12 536.72C271.12 536.667 271.093 536.613 271.04 536.56C271.013 536.48 270.973 536.44 270.92 536.44C270.867 536.44 270.813 536.48 270.76 536.56C270.733 536.613 270.72 536.667 270.72 536.72C270.72 536.907 270.787 537 270.92 537ZM281.56 555C281.56 554.68 281.467 554.427 281.28 554.24H282.08C282.08 552.613 282 551.293 281.84 550.28C281.68 549.24 281.267 548.373 280.6 547.68C279.96 546.96 278.973 546.6 277.64 546.6C277.32 546.6 277.067 546.613 276.88 546.64C276.907 546.64 277.093 546.6 277.44 546.52C277.787 546.44 278 546.293 278.08 546.08C277.92 545.92 277.827 545.84 277.8 545.84C277.64 545.84 277.52 545.88 277.44 545.96C277.387 546.013 277.347 546.053 277.32 546.08L275.84 545.6C276.64 545.413 277.467 545.013 278.32 544.4C279.173 543.787 279.6 543.12 279.6 542.4C279.6 542.213 279.453 542.027 279.16 541.84C278.867 541.653 278.613 541.56 278.4 541.56C278.4 542.68 277.64 543.533 276.12 544.12C276.253 544.227 276.32 544.387 276.32 544.6C276.32 544.733 276.24 544.84 276.08 544.92C275.92 545 275.68 545.093 275.36 545.2C274.88 545.36 274.547 545.493 274.36 545.6L274.6 545.84H273.12L273.4 545.6H272.4L272.88 545.08H271.64V544.68C270.307 544.68 269.64 544.947 269.64 545.48C269.64 545.827 269.92 546.053 270.48 546.16C271.04 546.24 271.613 546.293 272.2 546.32C272.787 546.32 273.187 546.333 273.4 546.36C273.96 546.493 274.587 546.747 275.28 547.12C275.813 547.387 276.267 547.587 276.64 547.72C277.013 547.853 277.4 547.92 277.8 547.92C277.8 548.133 277.76 548.28 277.68 548.36C277.627 548.44 277.6 548.507 277.6 548.56C277.6 548.64 277.627 548.733 277.68 548.84C277.733 548.92 277.773 548.987 277.8 549.04L278.32 548.84L278.08 548.56H279.8C279.773 548.693 279.707 548.773 279.6 548.8C279.52 548.827 279.4 548.84 279.24 548.84H279.12C278.693 548.84 278.427 549 278.32 549.32C278.48 549.347 278.653 550 278.84 551.28C278.92 551.973 279 552.387 279.08 552.52C279.133 552.653 279.307 552.827 279.6 553.04C279.893 553.253 280.12 553.4 280.28 553.48H279.32V555.72C279.16 555.853 278.893 556.187 278.52 556.72V556.2C278.307 556.333 277.88 556.6 277.24 557C276.6 557.4 276.133 557.8 275.84 558.2V557.64C275.6 557.64 275.32 557.693 275 557.8C274.68 557.907 274.427 557.96 274.24 557.96C274.107 557.933 273.867 557.893 273.52 557.84C273.173 557.76 272.88 557.707 272.64 557.68C272.32 557.68 271.933 557.84 271.48 558.16C271.053 558.48 270.84 558.827 270.84 559.2C271.027 559.2 271.227 559.16 271.44 559.08C271.653 559 271.787 558.947 271.84 558.92C272.213 558.76 272.48 558.68 272.64 558.68V559.48C273.2 559.48 273.733 559.387 274.24 559.2C274.773 559.013 275.067 558.68 275.12 558.2C275.2 558.28 275.253 558.427 275.28 558.64C275.307 558.853 275.347 559.04 275.4 559.2C275.453 559.333 275.56 559.4 275.72 559.4C276.173 559.4 276.48 559.347 276.64 559.24C276.8 559.107 276.92 558.907 277 558.64C277.107 558.347 277.213 558.12 277.32 557.96L277.6 558.2C277.813 557.987 278.053 557.653 278.32 557.2V557.44C278.213 557.68 278.107 557.893 278 558.08C277.92 558.24 277.853 558.387 277.8 558.52C277.773 558.627 277.76 558.827 277.76 559.12C278.187 559.12 278.693 558.893 279.28 558.44C279.893 557.96 280.427 557.413 280.88 556.8C281.333 556.187 281.56 555.667 281.56 555.24V555ZM274.76 544.6C274.547 544.6 274.373 544.613 274.24 544.64C274.133 544.667 274.013 544.747 273.88 544.88H274.2C274.627 544.88 274.933 544.787 275.12 544.6H274.76ZM280.8 550.28C280.747 550.467 280.533 550.56 280.16 550.56L279.8 550.52C279.8 550.387 279.84 550.253 279.92 550.12C280.027 549.987 280.147 549.92 280.28 549.92V550.28H280.8ZM279.56 551.28C279.693 551.307 279.92 551.373 280.24 551.48C280.587 551.56 280.853 551.653 281.04 551.76H280.48C280.213 551.76 279.987 551.733 279.8 551.68C279.613 551.6 279.453 551.467 279.32 551.28H279.56ZM279.56 552.28C279.987 552.28 280.307 552.44 280.52 552.76L280.28 553L279.56 552.28ZM266.48 558.32C266.48 558.56 266.787 558.68 267.4 558.68C267.587 558.68 267.813 558.56 268.08 558.32C268.373 558.08 268.573 557.827 268.68 557.56H267.96C268.013 557.373 268.173 557.213 268.44 557.08C268.707 556.947 268.88 556.827 268.96 556.72C268.853 556.533 268.64 556.373 268.32 556.24C268 556.08 267.8 555.987 267.72 555.96C267.347 555.96 267.04 556.253 266.8 556.84C266.587 557.4 266.48 557.893 266.48 558.32ZM279.56 555.96C279.933 556.52 280.12 556.813 280.12 556.84L280.08 556.92C279.867 556.84 279.72 556.747 279.64 556.64C279.56 556.533 279.52 556.387 279.52 556.2L279.56 555.96ZM270.44 558.92L271.64 557.68C271.507 557.627 271.307 557.547 271.04 557.44C270.8 557.307 270.6 557.227 270.44 557.2C270.067 557.2 269.627 557.44 269.12 557.92C268.613 558.4 268.36 558.827 268.36 559.2C269.133 559.2 269.76 558.88 270.24 558.24C270.16 558.427 270.12 558.653 270.12 558.92H270.44ZM270.44 557.96L270.24 558.24L270.44 557.96ZM268.44 559.92V559.68H267.48L268.44 559.92Z" fill="#783B01"/>
<circle cx="667" cy="467" r="20" fill="#FFFDF5"/>
<path d="M676.76 468.68C676.76 470.36 676.613 471.773 676.32 472.92C676.027 474.04 675.373 475.027 674.36 475.88C674.093 476.04 673.613 476.387 672.92 476.92C672.227 477.507 671.813 477.8 671.68 477.8C671.653 477.773 671.6 477.733 671.52 477.68C671.467 477.627 671.427 477.587 671.4 477.56C671.24 477.56 671.093 477.64 670.96 477.8C670.827 477.96 670.733 478.133 670.68 478.32L670.4 478.04C670.373 478.227 670.2 478.373 669.88 478.48C669.587 478.587 669.267 478.64 668.92 478.64C668.68 478.64 668.467 478.613 668.28 478.56C668.093 478.507 668 478.427 668 478.32C668 478.4 667.96 478.493 667.88 478.6C667.8 478.733 667.707 478.8 667.6 478.8H666.28C665.64 478.8 665.107 478.747 664.68 478.64C664.253 478.56 664.04 478.347 664.04 478L663.04 478.04C662.827 478.04 662.4 477.747 661.76 477.16C661.147 476.573 660.84 476.16 660.84 475.92C659.773 475.227 659 474.147 658.52 472.68C658.04 471.213 657.8 469.707 657.8 468.16C657.8 467.813 657.907 467.267 658.12 466.52C658.147 466.413 658.2 466.2 658.28 465.88C658.36 465.533 658.4 465.227 658.4 464.96L658.36 464.52C659.373 461.507 660.48 459.053 661.68 457.16C662.88 455.267 664.573 453.773 666.76 452.68C666.947 452.573 667.213 452.4 667.56 452.16C667.907 451.92 668.24 451.733 668.56 451.6C668.88 451.467 669.187 451.4 669.48 451.4C669.693 451.4 670.107 451.693 670.72 452.28C671.36 452.84 671.68 453.24 671.68 453.48C671.68 453.747 671.64 453.907 671.56 453.96C671.48 454.013 671.373 454.04 671.24 454.04C671.107 454.04 671 454.04 670.92 454.04V454.36L666.48 458.8L665 461.28V461.72C665.32 461.72 665.773 461.693 666.36 461.64C666.893 461.587 667.307 461.56 667.6 461.56C667.813 461.56 668.267 461.64 668.96 461.8C669.84 461.987 670.387 462.08 670.6 462.08C670.733 462.08 670.84 462.067 670.92 462.04C672.36 462.813 673.613 463.787 674.68 464.96C675.747 466.107 676.28 467.347 676.28 468.68H676.76ZM674.6 473.88C674.947 473.507 675.2 473.053 675.36 472.52C675.547 471.96 675.64 471.427 675.64 470.92C675.64 470.787 675.587 470.627 675.48 470.44C675.4 470.227 675.32 470.12 675.24 470.12L675.12 470.16C675.093 470.24 674.88 470.413 674.48 470.68C674.08 470.92 673.88 471.08 673.88 471.16C674.2 471.32 674.413 471.4 674.52 471.4C674.547 471.4 674.6 471.387 674.68 471.36C674.787 471.333 674.92 471.32 675.08 471.32C675.08 471.693 674.987 471.96 674.8 472.12C674.64 472.253 674.36 472.387 673.96 472.52C673.613 472.627 673.347 472.747 673.16 472.88C672.973 472.987 672.813 473.16 672.68 473.4L672.88 473.64L671.92 474.12C672.053 474.173 672.133 474.24 672.16 474.32C672.187 474.373 672.2 474.467 672.2 474.6L672.16 474.84C671.52 475.107 670.92 475.387 670.36 475.68C669.667 476.053 669.04 476.307 668.48 476.44C667.92 476.547 666.92 476.6 665.48 476.6L666 476.04C665.813 475.987 665.48 475.867 665 475.68C664.547 475.493 664.147 475.373 663.8 475.32C663.827 475.293 663.84 475.24 663.84 475.16C663.84 474.973 663.653 474.8 663.28 474.64C662.933 474.48 662.68 474.4 662.52 474.4L662.76 474.12C662.387 473.613 662.08 473.133 661.84 472.68C661.84 472.627 661.747 472.44 661.56 472.12C661.4 471.773 661.32 471.533 661.32 471.4C661.347 471.32 661.387 471.24 661.44 471.16C661.493 471.053 661.533 470.973 661.56 470.92C661.56 470.787 661.507 470.573 661.4 470.28C661.32 469.96 661.28 469.587 661.28 469.16C661.28 468.707 661.293 468.373 661.32 468.16C661.373 467.947 661.453 467.72 661.56 467.48C661.56 467.427 661.533 467.373 661.48 467.32C661.427 467.24 661.373 467.2 661.32 467.2L661.8 466.56H660.32C660.4 466.453 660.52 466.293 660.68 466.08C660.867 465.84 661.053 465.667 661.24 465.56C661.427 465.427 661.693 465.32 662.04 465.24C661.96 465.347 661.813 465.453 661.6 465.56C661.413 465.667 661.253 465.773 661.12 465.88C661.013 465.987 660.96 466.133 660.96 466.32C661.413 466.32 661.96 466.187 662.6 465.92C663.24 465.627 663.56 465.28 663.56 464.88H662.84C662.84 464.827 662.827 464.733 662.8 464.6C662.773 464.44 662.76 464.28 662.76 464.12L663.04 462.6H662.04C663.027 462.6 663.52 462.293 663.52 461.68C663.52 461.627 663.493 461.547 663.44 461.44C663.413 461.333 663.36 461.28 663.28 461.28L664 460.56C664 460.427 663.88 460.333 663.64 460.28C663.427 460.2 663.213 460.147 663 460.12C662.813 460.093 662.653 460.067 662.52 460.04C663.293 460.04 663.853 459.947 664.2 459.76C664.547 459.573 664.893 459.187 665.24 458.6L665 458.56L663.04 459.08C663.147 458.84 663.32 458.667 663.56 458.56C663.827 458.427 664.187 458.307 664.64 458.2C665.093 458.12 665.453 458 665.72 457.84L665.48 457.6C665.853 457.547 666.133 457.453 666.32 457.32C666.507 457.16 666.653 456.92 666.76 456.6C666.52 456.6 666.28 456.533 666.04 456.4C665.827 456.267 665.72 456.08 665.72 455.84C665.88 455.84 666.013 455.893 666.12 456C666.227 456.107 666.333 456.16 666.44 456.16C667.027 456.16 667.72 455.853 668.52 455.24C669.347 454.6 669.973 453.987 670.4 453.4C669.92 453.053 669.52 452.88 669.2 452.88C669.2 452.907 668.853 453.053 668.16 453.32C666.587 453.987 665.613 454.427 665.24 454.64C665.053 454.8 664.787 455.053 664.44 455.4C664.093 455.72 663.787 456.04 663.52 456.36C663.36 456.547 663.027 457.067 662.52 457.92C662.013 458.747 661.76 459.187 661.76 459.24C661.787 459.347 661.827 459.453 661.88 459.56C661.96 459.667 662.013 459.747 662.04 459.8H661.56L660.32 461.04V461.28H660.56C660.56 461.6 660.44 462.013 660.2 462.52C659.96 463.027 659.667 463.533 659.32 464.04C659.373 464.04 659.427 464.067 659.48 464.12C659.533 464.147 659.56 464.173 659.56 464.2C659.56 464.76 659.387 465.533 659.04 466.52C658.72 467.587 658.56 468.347 658.56 468.8C658.56 468.933 658.613 469.093 658.72 469.28C658.827 469.467 658.88 469.72 658.88 470.04L658.84 470.64C659.053 470.64 659.213 470.733 659.32 470.92C659.453 471.107 659.52 471.307 659.52 471.52H660.32C660 471.52 659.787 471.587 659.68 471.72C659.6 471.827 659.56 472 659.56 472.24C659.56 472.453 659.627 472.72 659.76 473.04C659.92 473.36 660.093 473.52 660.28 473.52C660.387 473.52 660.48 473.48 660.56 473.4C660.373 473.587 660.28 473.693 660.28 473.72C660.28 473.8 660.347 473.933 660.48 474.12C660.613 474.28 660.733 474.373 660.84 474.4C661 474.4 661.133 474.547 661.24 474.84C661.373 475.133 661.56 475.453 661.8 475.8C662.04 476.147 662.453 476.573 663.04 477.08C663.173 477.08 663.44 477.013 663.84 476.88C664.587 476.693 664.973 476.6 665 476.6C664.92 476.733 664.747 476.867 664.48 477C664.24 477.107 664.08 477.213 664 477.32L664.28 477.56H666.24C666.267 477.747 666.467 477.84 666.84 477.84C667.64 477.84 668.36 477.72 669 477.48C669.667 477.24 670.227 476.973 670.68 476.68C671.133 476.387 671.867 475.867 672.88 475.12H673.4C673.507 475.04 673.68 474.88 673.92 474.64C674.187 474.373 674.413 474.12 674.6 473.88ZM665.12 456.72C664.88 456.72 664.76 456.667 664.76 456.56C664.76 456.507 664.88 456.48 665.12 456.48C665.36 456.48 665.48 456.507 665.48 456.56V456.6C665.453 456.68 665.333 456.72 665.12 456.72ZM664.52 457.44C664.173 457.44 664 457.4 664 457.32C664 457.24 664.16 457.2 664.48 457.2C664.827 457.2 665 457.24 665 457.32C664.92 457.4 664.76 457.44 664.52 457.44ZM661.56 462.88C660.973 462.88 660.64 462.773 660.56 462.56H661.56V462.88ZM668.04 463C667.373 463 666.893 463.04 666.6 463.12C666.333 463.173 666.04 463.387 665.72 463.76C666.013 463.573 666.36 463.48 666.76 463.48L666 464.2C666.587 464.2 667.067 464.173 667.44 464.12C667.813 464.04 668.067 463.827 668.2 463.48C668.307 463.693 668.4 463.84 668.48 463.92C668.56 463.973 668.653 464 668.76 464C669.453 464 670.067 464.227 670.6 464.68C671.133 465.107 671.68 465.68 672.24 466.4C672.293 466.48 672.413 466.627 672.6 466.84C672.787 467.053 672.933 467.213 673.04 467.32C673.173 467.427 673.293 467.48 673.4 467.48C673.16 467.507 673.04 467.827 673.04 468.44H673.6C673.6 468.573 673.56 468.72 673.48 468.88C673.4 469.013 673.36 469.147 673.36 469.28H673.76C674.613 469.28 675.147 469.16 675.36 468.92C675.36 468.653 675.28 468.36 675.12 468.04C674.987 467.72 674.907 467.533 674.88 467.48C673.973 465.96 673 464.84 671.96 464.12C670.947 463.373 669.64 463 668.04 463ZM665.24 463.24C664.973 463.24 664.693 463.4 664.4 463.72C664.133 464.04 664 464.307 664 464.52L665.48 463.28L665.24 463.24ZM668.04 465.24C667.827 465.293 667.427 465.373 666.84 465.48C666.253 465.56 665.72 465.64 665.24 465.72C665.133 465.747 664.813 465.973 664.28 466.4C663.56 466.96 663.093 467.24 662.88 467.24C662.827 467.24 662.787 467.227 662.76 467.2C662.653 467.6 662.587 468 662.56 468.4C662.533 468.8 662.52 469.213 662.52 469.64C662.52 470.147 662.573 470.587 662.68 470.96C662.813 471.333 663.013 471.76 663.28 472.24C663.333 472.373 663.4 472.533 663.48 472.72C663.587 472.907 663.693 473.133 663.8 473.4C663.933 473.48 664.293 473.693 664.88 474.04C665.467 474.36 665.987 474.627 666.44 474.84C666.893 475.027 667.24 475.12 667.48 475.12C669.027 475.12 670.2 474.587 671 473.52C671.8 472.453 672.2 471.133 672.2 469.56C672.2 468.253 671.827 467.213 671.08 466.44C670.36 465.64 669.347 465.24 668.04 465.24ZM673.4 469.68V470.44C673.693 470.44 674.013 470.333 674.36 470.12C674.707 469.907 674.96 469.68 675.12 469.44L673.4 469.68ZM674 471.84C673.413 471.84 673.12 471.973 673.12 472.24L673.16 472.4C673.72 472.32 674 472.133 674 471.84ZM674.12 473.64C674.04 473.747 673.827 473.853 673.48 473.96C673.133 474.067 672.867 474.12 672.68 474.12C672.84 473.96 673.093 473.8 673.44 473.64C673.787 473.48 674.013 473.373 674.12 473.32V473.64Z" fill="#783B01"/>
<circle cx="686" cy="273" r="20" fill="#FFFDF5"/>
<path d="M690.6 269.44C691.48 270.107 692.12 270.947 692.52 271.96C692.92 272.973 693.12 274.053 693.12 275.2C693.12 275.733 693.067 276.213 692.96 276.64C692.853 277.04 692.693 277.573 692.48 278.24C692.427 278.427 692.36 278.627 692.28 278.84C692.227 279.053 692.16 279.293 692.08 279.56L689.36 282.28H689.16V282.76C689.027 282.867 688.787 283.027 688.44 283.24C688.093 283.427 687.76 283.6 687.44 283.76C686.693 284.107 685.667 284.4 684.36 284.64C683.08 284.907 682.027 285.04 681.2 285.04V284.64L679.52 284.72C679.333 284.72 678.987 284.52 678.48 284.12C677.973 283.72 677.52 283.28 677.12 282.8C676.72 282.32 676.52 281.947 676.52 281.68C676.52 281.227 676.613 280.68 676.8 280.04C677.013 279.4 677.293 279.08 677.64 279.08C678.307 279.08 679.24 279.28 680.44 279.68C681.107 279.893 681.667 280.053 682.12 280.16C682.573 280.267 683.027 280.32 683.48 280.32C684.28 280.32 684.893 280.253 685.32 280.12C685.773 279.987 686.147 279.76 686.44 279.44C686.76 279.12 687.173 278.587 687.68 277.84V277.72C687.68 277.64 687.613 277.507 687.48 277.32C687.373 277.133 687.267 276.973 687.16 276.84C687.427 276.813 687.653 276.667 687.84 276.4C688.053 276.133 688.16 275.867 688.16 275.6C688.16 275.467 688.107 275.347 688 275.24C687.893 275.107 687.84 275 687.84 274.92H688.12C688.12 273.853 687.707 273.04 686.88 272.48C686.08 271.92 685.107 271.64 683.96 271.64C683.907 271.667 683.827 271.72 683.72 271.8C683.64 271.853 683.547 271.893 683.44 271.92C683.413 271.893 683.373 271.853 683.32 271.8C683.293 271.72 683.267 271.667 683.24 271.64L682.68 271.68L679.52 270.92C679.387 270.787 679.293 270.707 679.24 270.68C679.027 270.68 678.773 270.76 678.48 270.92C678.187 270.92 677.987 270.84 677.88 270.68C677.8 270.493 677.76 270.24 677.76 269.92C677.76 269.2 677.893 268.147 678.16 266.76C678.187 266.573 678.253 266.16 678.36 265.52C678.467 264.853 678.52 264.227 678.52 263.64C678.52 263.48 678.507 263.307 678.48 263.12C678.453 262.907 678.427 262.747 678.4 262.64C678.32 262.32 678.28 262 678.28 261.68C678.28 261.253 678.333 260.507 678.44 259.44C678.573 258.373 678.68 257.84 678.76 257.84H682L682.2 258.08L682.48 257.84C683.467 257.84 684.613 257.747 685.92 257.56C687.36 257.4 688.48 257.32 689.28 257.32L690.6 257.36L690.4 257.6L690.6 257.56C690.973 257.56 691.187 257.893 691.24 258.56C691.32 259.227 691.36 259.947 691.36 260.72C691.36 261.04 691.013 261.24 690.32 261.32C689.627 261.373 688.667 261.4 687.44 261.4V261.08L686.92 261.28H682.72V266.24C682.72 266.4 683.067 266.48 683.76 266.48C683.973 266.48 684.107 266.507 684.16 266.56C684.213 266.587 684.253 266.653 684.28 266.76C684.307 266.867 684.373 266.947 684.48 267C684.773 267.187 685.107 267.293 685.48 267.32C685.853 267.347 686.16 267.387 686.4 267.44C686.693 267.547 687.16 267.72 687.8 267.96C688.44 268.173 688.893 268.32 689.16 268.4C689.267 268.453 689.467 268.627 689.76 268.92C690.133 269.293 690.373 269.48 690.48 269.48C690.533 269.48 690.573 269.467 690.6 269.44ZM688.4 260.04C688.587 260.173 688.707 260.253 688.76 260.28C688.84 260.307 688.973 260.32 689.16 260.32C689.347 260.32 689.6 260.28 689.92 260.2C690.24 260.093 690.4 259.973 690.4 259.84C690.4 259.44 690.147 259.093 689.64 258.8L688.4 260.04ZM680.64 259.04C679.893 259.04 679.427 259.227 679.24 259.6L679.76 259.64C680.32 259.64 680.733 259.453 681 259.08L680.64 259.04ZM679.64 262.32C679.72 262.32 679.813 262.267 679.92 262.16C680.027 262.053 680.08 261.973 680.08 261.92L680.04 261.76L679.52 262.28L679.64 262.32ZM679.88 264C679.827 264 679.747 264.053 679.64 264.16C679.56 264.24 679.52 264.373 679.52 264.56L680.04 264.04L679.88 264ZM680.48 265.52C680.24 265.52 679.96 265.613 679.64 265.8C679.347 265.96 679.2 266.16 679.2 266.4L679.24 266.48C679.773 266.213 680.187 265.893 680.48 265.52ZM681.2 266.44C681.013 266.44 680.867 266.533 680.76 266.72H681.2V266.44ZM682.72 270.16C682.933 270.08 683.227 269.88 683.6 269.56C684 269.24 684.2 269.027 684.2 268.92V268.72C683.773 268.907 683.32 269.027 682.84 269.08C682.36 269.133 681.773 269.16 681.08 269.16C681.08 269.133 681.067 269.107 681.04 269.08C681.013 269.053 681 269.013 681 268.96L681.52 268.4V268.44C681.52 268.12 681.347 267.867 681 267.68C680.387 267.68 679.907 267.867 679.56 268.24C679.213 268.613 679.04 269.093 679.04 269.68C679.627 269.867 680.133 270 680.56 270.08C680.987 270.16 681.493 270.2 682.08 270.2L682.72 270.16ZM685.56 268.68C685.213 268.68 684.933 268.747 684.72 268.88C684.533 269.013 684.28 269.28 683.96 269.68L684.32 269.72C684.773 269.72 685.2 269.667 685.6 269.56C686 269.427 686.267 269.213 686.4 268.92C686.267 268.813 686.133 268.747 686 268.72C685.867 268.693 685.72 268.68 685.56 268.68ZM687.4 269.44C687.16 269.467 686.84 269.68 686.44 270.08C686.04 270.453 685.8 270.653 685.72 270.68C686.04 270.627 686.587 270.507 687.36 270.32C688.133 270.107 688.573 269.987 688.68 269.96L688.84 269.68C688.813 269.653 688.653 269.613 688.36 269.56C688.067 269.48 687.84 269.44 687.68 269.44H687.4ZM683.96 270.68C684.173 270.68 684.48 270.627 684.88 270.52C685.28 270.387 685.48 270.24 685.48 270.08L685.44 269.96C685.013 270.04 684.653 270.133 684.36 270.24C684.067 270.32 683.853 270.467 683.72 270.68H683.96ZM686.84 271.28C687.32 271.28 687.707 271.227 688 271.12C688.293 270.987 688.68 270.76 689.16 270.44H688.76C688.333 270.44 687.907 270.507 687.48 270.64C687.053 270.747 686.84 270.96 686.84 271.28ZM689.88 270.64C689.533 270.64 689.2 270.8 688.88 271.12C688.587 271.44 688.427 271.613 688.4 271.64H688.68C688.867 271.613 689.187 271.56 689.64 271.48C690.12 271.373 690.44 271.28 690.6 271.2C690.52 270.96 690.427 270.813 690.32 270.76C690.213 270.68 690.067 270.64 689.88 270.64ZM691.12 271.92C690.267 272.187 689.84 272.52 689.84 272.92C690.027 272.92 690.32 272.867 690.72 272.76C691.147 272.653 691.36 272.533 691.36 272.4C691.333 272.32 691.293 272.24 691.24 272.16C691.187 272.053 691.147 271.973 691.12 271.92ZM688.84 272.44C688.947 272.44 689.053 272.427 689.16 272.4C689.267 272.373 689.333 272.307 689.36 272.2H689.28C689.013 272.2 688.813 272.267 688.68 272.4L688.84 272.44ZM689.36 273.88C689.52 273.88 689.707 273.84 689.92 273.76C690.16 273.653 690.32 273.52 690.4 273.36C689.92 273.36 689.507 273.453 689.16 273.64C689.16 273.693 689.187 273.747 689.24 273.8C689.293 273.853 689.333 273.88 689.36 273.88ZM691.24 275.36C691.56 275.36 691.773 275.333 691.88 275.28C692.013 275.2 692.08 275.027 692.08 274.76L691.84 273.64C691.307 273.64 690.8 273.707 690.32 273.84C689.84 273.973 689.6 274.24 689.6 274.64C689.6 274.933 689.72 275.133 689.96 275.24C690.227 275.32 690.573 275.36 691 275.36H691.24ZM689.96 275.56C689.613 275.56 689.413 275.667 689.36 275.88L689.88 275.92H690C690.373 275.92 690.573 275.813 690.6 275.6L690.12 275.56H689.96ZM691.24 277.84C691.453 277.68 691.613 277.44 691.72 277.12C691.853 276.773 691.92 276.427 691.92 276.08C690.56 276.08 689.533 276.333 688.84 276.84C689.027 277.187 689.373 277.44 689.88 277.6C690.387 277.76 690.84 277.84 691.24 277.84ZM690.2 279.88C690.36 279.88 690.56 279.68 690.8 279.28C691.04 278.853 691.16 278.52 691.16 278.28C690.44 278.28 689.853 278.307 689.4 278.36C688.973 278.413 688.733 278.573 688.68 278.84C688.893 279 689.16 279.2 689.48 279.44C689.8 279.653 690.04 279.8 690.2 279.88ZM688.36 281.04C688.813 281.04 689.24 280.88 689.64 280.56C689.48 280.48 689.32 280.307 689.16 280.04C689 279.773 688.84 279.573 688.68 279.44C688.547 279.307 688.32 279.24 688 279.24C688 279.507 688.08 279.72 688.24 279.88C688.4 280.04 688.6 280.133 688.84 280.16H687.68C687.733 280.533 687.8 280.773 687.88 280.88C687.96 280.987 688.12 281.04 688.36 281.04ZM678.48 282C678.693 281.92 678.867 281.72 679 281.4C679.133 281.08 679.213 280.893 679.24 280.84C679.187 280.76 679.107 280.693 679 280.64C678.92 280.587 678.84 280.56 678.76 280.56C678.413 280.56 678.12 280.693 677.88 280.96C677.64 281.2 677.52 281.507 677.52 281.88C677.52 281.987 677.56 282.093 677.64 282.2C677.72 282.28 677.8 282.32 677.88 282.32C677.987 282.32 678.067 282.253 678.12 282.12C678.173 281.96 678.227 281.853 678.28 281.8L678.48 282ZM687.48 282C687.56 282 687.653 281.96 687.76 281.88C687.867 281.8 687.92 281.733 687.92 281.68C687.92 281.467 687.813 281.293 687.6 281.16C687.387 281.027 687.16 280.96 686.92 280.96C686.653 280.96 686.4 281.067 686.16 281.28C686.293 281.333 686.507 281.467 686.8 281.68C687.12 281.893 687.347 282 687.48 282ZM685.72 282.76C685.88 282.76 686.2 282.693 686.68 282.56C686.44 282.133 686.227 281.853 686.04 281.72C685.88 281.587 685.653 281.52 685.36 281.52C685.093 281.52 684.747 281.573 684.32 281.68C683.893 281.787 683.533 281.84 683.24 281.84V282.84C683.08 282.84 682.973 282.813 682.92 282.76C682.893 282.707 682.853 282.587 682.8 282.4C682.773 282.213 682.667 282.08 682.48 282L682.52 282.56C682.52 283.013 682.413 283.253 682.2 283.28C682.12 283.04 682.013 282.707 681.88 282.28C681.747 281.853 681.56 281.533 681.32 281.32C681.08 281.107 680.72 281 680.24 281C679.92 281 679.587 281.24 679.24 281.72C678.92 282.2 678.76 282.573 678.76 282.84C678.76 283.267 679.053 283.573 679.64 283.76C680.253 283.92 680.827 284 681.36 284C681.787 284 682.413 283.88 683.24 283.64C684.093 283.4 684.667 283.187 684.96 283V282.28C685.04 282.36 685.16 282.467 685.32 282.6C685.507 282.707 685.64 282.76 685.72 282.76Z" fill="#783B01"/>
<circle cx="622" cy="150" r="20" fill="#FFFDF5"/>
<path d="M621.56 158.8C621.56 157.52 621.493 156.573 621.36 155.96C621.253 155.347 621.04 154.933 620.72 154.72C620.4 154.48 619.907 154.36 619.24 154.36V154.08C619.213 154.133 619.147 154.2 619.04 154.28C618.933 154.333 618.84 154.36 618.76 154.36L618.56 154.08C618.453 154.08 618.32 154.133 618.16 154.24C618 154.347 617.853 154.4 617.72 154.4C617.347 154.4 617.12 154.293 617.04 154.08C617.04 154.213 616.413 154.347 615.16 154.48C613.933 154.587 613.067 154.64 612.56 154.64V154.36C612.533 154.413 612.467 154.467 612.36 154.52C612.28 154.573 612.2 154.6 612.12 154.6C612.093 154.547 612.04 154.493 611.96 154.44C611.907 154.387 611.853 154.36 611.8 154.36C611.667 154.36 611.547 154.4 611.44 154.48C611.333 154.533 611.227 154.573 611.12 154.6V154.28C610.8 154.28 610.56 154.24 610.4 154.16C610.24 154.053 610.16 153.827 610.16 153.48C610.16 153.187 610.653 152.493 611.64 151.4C612.307 150.627 612.707 150.12 612.84 149.88C613.027 149.693 613.253 149.373 613.52 148.92C613.627 148.787 613.733 148.64 613.84 148.48C613.973 148.293 614.067 148.187 614.12 148.16C614.493 147.2 614.867 146.373 615.24 145.68C615.64 144.96 616.12 144.187 616.68 143.36C617.427 142.293 618.053 141.267 618.56 140.28L618.6 140.04L618.56 139.8C619.04 138.413 619.6 137.12 620.24 135.92C620.907 134.72 621.453 134.12 621.88 134.12C622.147 134.12 622.4 134.16 622.64 134.24C622.907 134.32 623.08 134.373 623.16 134.4C623.64 134.587 624.053 134.68 624.4 134.68C624.4 134.813 624.493 135.04 624.68 135.36C624.867 135.68 624.96 136 624.96 136.32C624.96 137.733 624.947 139.027 624.92 140.2C624.893 141.347 624.867 142.333 624.84 143.16C624.733 146.307 624.68 148.64 624.68 150.16L624.96 150.6H627.64C627.747 150.6 627.853 151 627.96 151.8C628.067 152.573 628.133 153.107 628.16 153.4C628.16 153.827 627.093 154.04 624.96 154.04V161.24H621.76L621.52 161.04L621.56 158.8ZM623.72 139.8V135.88C623.72 135.667 623.533 135.56 623.16 135.56C622.573 135.56 622.067 135.773 621.64 136.2C621.213 136.627 621 137.16 621 137.8C621.187 137.8 621.387 137.76 621.6 137.68C621.813 137.6 621.96 137.547 622.04 137.52C622.52 137.36 622.867 137.28 623.08 137.28L623.48 137.32C623.32 137.48 622.573 137.813 621.24 138.32L622.48 138.56L622.84 138.52C622.84 138.76 622.747 138.933 622.56 139.04C622.4 139.12 622.16 139.187 621.84 139.24C621.787 139.24 621.667 139.267 621.48 139.32C621.32 139.373 621.173 139.44 621.04 139.52C620.933 139.6 620.853 139.693 620.8 139.8L623.24 140.04L623.72 139.8ZM620.64 139C620.187 139 619.96 139.2 619.96 139.6C620.12 139.6 620.307 139.52 620.52 139.36C620.733 139.2 620.893 139.093 621 139.04L620.64 139ZM617.76 143.72C617.547 143.72 617.4 143.773 617.32 143.88C617.267 143.96 617.24 144.173 617.24 144.52C617.747 144.52 618.16 144.387 618.48 144.12C618.827 143.827 619.227 143.36 619.68 142.72C620.08 142.16 620.44 141.72 620.76 141.4C621.107 141.08 621.507 140.88 621.96 140.8V140.52H619.8C619.64 140.52 619.467 140.68 619.28 141C619.12 141.32 619.04 141.56 619.04 141.72C619.04 141.88 619.107 141.96 619.24 141.96L618.76 142.52L618.56 142.24C618.453 142.56 618.28 142.813 618.04 143C618.2 143.053 618.28 143.133 618.28 143.24C618.28 143.267 618.267 143.32 618.24 143.4C618.213 143.48 618.2 143.587 618.2 143.72H617.76ZM621.96 143C622.12 143.16 622.387 143.24 622.76 143.24C623.213 143.24 623.493 143.16 623.6 143C623.733 142.84 623.8 142.573 623.8 142.2C623.8 142.013 623.787 141.813 623.76 141.6C623.733 141.36 623.72 141.16 623.72 141L623.48 140.8L622.2 141.28C622.227 141.493 622.453 141.6 622.88 141.6C623.013 141.6 623.133 141.587 623.24 141.56C623.373 141.533 623.453 141.52 623.48 141.52C623.453 141.733 623.36 141.92 623.2 142.08C623.067 142.213 622.853 142.373 622.56 142.56C622.267 142.72 622.067 142.867 621.96 143ZM621.16 141.96C621.16 142.52 621.307 142.8 621.6 142.8C621.653 142.8 621.76 142.707 621.92 142.52C622.107 142.333 622.2 142.147 622.2 141.96H621.16ZM621.88 144.28C622.52 144.28 622.84 144.12 622.84 143.8L622.76 143.76L621.76 143.52L621.52 144.24L621.88 144.28ZM616.8 149.64C617.52 150.173 618.48 150.44 619.68 150.44C620.24 150.44 620.573 150.2 620.68 149.72C620.787 149.24 620.84 148.507 620.84 147.52C620.84 146.747 620.8 146.08 620.72 145.52C620.64 144.96 620.48 144.44 620.24 143.96C620.107 144.04 619.467 145.067 618.32 147.04C617.627 148.32 617.12 149.187 616.8 149.64ZM621.92 144.96C621.92 145.227 622.093 145.413 622.44 145.52C622.787 145.627 623.133 145.68 623.48 145.68V144.2C623.267 144.2 622.947 144.293 622.52 144.48C622.12 144.667 621.92 144.827 621.92 144.96ZM616.84 146.12C616.84 146.173 616.733 146.24 616.52 146.32C616.333 146.4 616.187 146.44 616.08 146.44L616.44 146.48C616.947 146.48 617.427 146.28 617.88 145.88C618.333 145.453 618.56 144.987 618.56 144.48C618.453 144.533 618.133 144.667 617.6 144.88C617.093 145.093 616.747 145.36 616.56 145.68C616.64 145.68 616.707 145.733 616.76 145.84C616.813 145.947 616.84 146.04 616.84 146.12ZM621.72 146.72C621.72 147.067 621.88 147.24 622.2 147.24C622.44 147.24 622.707 147.133 623 146.92C623.32 146.707 623.48 146.493 623.48 146.28C623.48 146.04 623.147 145.92 622.48 145.92C622.187 145.92 621.987 145.987 621.88 146.12C621.773 146.227 621.72 146.427 621.72 146.72ZM617.32 146.72C616.92 146.773 616.6 146.867 616.36 147C616.12 147.107 616 147.307 616 147.6C616.293 147.6 616.587 147.533 616.88 147.4C617.173 147.267 617.32 147.04 617.32 146.72ZM622.76 148.48C622.467 148.48 622.213 148.547 622 148.68C621.813 148.813 621.72 149.013 621.72 149.28C621.72 149.413 621.853 149.48 622.12 149.48C622.68 149.48 623.093 149.227 623.36 148.72C623.653 148.213 623.8 147.667 623.8 147.08C623.507 147.08 623.16 147.187 622.76 147.4C622.387 147.587 622.2 147.8 622.2 148.04C622.2 148.093 622.267 148.187 622.4 148.32C622.533 148.427 622.653 148.48 622.76 148.48ZM616.28 147.84C615.933 147.84 615.667 147.893 615.48 148C615.32 148.107 615.187 148.32 615.08 148.64C615.213 148.613 615.44 148.547 615.76 148.44C616.107 148.333 616.28 148.24 616.28 148.16V147.84ZM615.64 149.16C614.84 149.16 614.44 149.347 614.44 149.72C615.24 149.72 615.64 149.533 615.64 149.16ZM623.48 149.6C623.293 149.6 623.107 149.653 622.92 149.76C622.733 149.867 622.587 150 622.48 150.16H623.48V149.6ZM615.16 150.36C614.573 150.36 614.2 150.413 614.04 150.52C613.88 150.6 613.64 150.893 613.32 151.4C613.72 151.4 614.12 151.32 614.52 151.16C614.947 151 615.16 150.733 615.16 150.36ZM621.76 150.92C621.707 151.24 621.547 151.453 621.28 151.56C621.04 151.64 620.707 151.68 620.28 151.68C619.88 151.68 619.56 151.733 619.32 151.84C619.107 151.92 619 152.107 619 152.4C619.507 152.4 620.227 152.253 621.16 151.96C622.093 151.667 622.68 151.32 622.92 150.92H621.76ZM623.24 151.4C623.053 151.4 622.48 151.72 621.52 152.36L621.96 152.4C622.52 152.4 623.107 152.227 623.72 151.88C623.72 151.8 623.653 151.707 623.52 151.6C623.413 151.467 623.32 151.4 623.24 151.4ZM613.88 152.12C613.48 152.12 613.027 152.253 612.52 152.52C612.04 152.76 611.8 153.067 611.8 153.44C611.933 153.44 612.213 153.44 612.64 153.44C613.093 153.44 613.467 153.387 613.76 153.28C614.08 153.147 614.347 152.933 614.56 152.64C614.48 152.747 614.44 152.84 614.44 152.92C614.44 153.213 614.88 153.36 615.76 153.36C616.293 153.36 616.68 153.333 616.92 153.28C617.187 153.2 617.413 153.08 617.6 152.92C617.787 152.733 618.107 152.387 618.56 151.88C618.32 151.88 617.827 152.04 617.08 152.36C616.333 152.68 615.92 152.853 615.84 152.88L615.6 152.84C615.68 152.76 615.827 152.653 616.04 152.52C616.253 152.36 616.44 152.213 616.6 152.08C616.787 151.92 616.88 151.76 616.88 151.6C616.48 151.6 616.107 151.667 615.76 151.8C615.44 151.907 615.053 152.067 614.6 152.28L613.84 152.64H613.6C613.787 152.48 613.88 152.307 613.88 152.12ZM625.8 151.88C625.64 151.907 625.4 151.987 625.08 152.12C624.787 152.227 624.587 152.307 624.48 152.36V152.64H626.84C626.84 152.133 626.493 151.88 625.8 151.88ZM618.76 153.12C619.053 153.2 619.48 153.267 620.04 153.32C620.627 153.347 621.027 153.36 621.24 153.36V153.12C621 153.067 620.747 152.987 620.48 152.88C620.24 152.773 620.08 152.693 620 152.64C619.92 152.64 619.733 152.693 619.44 152.8C619.173 152.907 618.947 153.013 618.76 153.12ZM622.76 153.36C622.6 153.36 622.453 153.373 622.32 153.4C622.213 153.427 622.093 153.493 621.96 153.6L622.2 153.64C622.493 153.64 622.733 153.547 622.92 153.36H622.76ZM623.24 153.84C623.053 153.84 622.88 153.88 622.72 153.96C622.587 154.04 622.413 154.173 622.2 154.36L622.68 154.4C623.213 154.4 623.48 154.28 623.48 154.04C623.48 153.907 623.4 153.84 623.24 153.84ZM621.96 155.32C622.013 155.453 622.08 155.533 622.16 155.56C622.24 155.587 622.347 155.6 622.48 155.6C622.72 155.6 622.933 155.533 623.12 155.4C623.307 155.267 623.4 155.067 623.4 154.8C622.627 154.8 622.147 154.973 621.96 155.32ZM623.48 155.8C623.213 155.8 622.987 155.88 622.8 156.04C622.64 156.173 622.533 156.347 622.48 156.56H623.48V155.8ZM622.48 158.84C622.48 159.667 622.733 160.08 623.24 160.08C623.72 160.08 623.96 159.933 623.96 159.64C623.96 159.48 623.907 159.373 623.8 159.32C623.72 159.267 623.547 159.227 623.28 159.2C623.04 159.147 622.92 159.027 622.92 158.84C622.92 158.627 623.027 158.36 623.24 158.04C623.267 157.987 623.32 157.893 623.4 157.76C623.48 157.6 623.52 157.44 623.52 157.28H622.76C622.707 157.28 622.64 157.48 622.56 157.88C622.507 158.28 622.48 158.6 622.48 158.84Z" fill="#783B01"/>
</svg>
