<svg xmlns="http://www.w3.org/2000/svg" viewBox="0 0 174.03 85.52"><defs><style>.cls-1{fill:#fff;}</style></defs><g id="圖層_2" data-name="圖層 2"><g id="圖層_1-2" data-name="圖層 1"><line class="cls-1" x1="166.55" y1="7.45" x2="87.67" y2="78.07"/><path class="cls-1" d="M161.25,2.15l-7.83,7L134.53,26.07,111.77,46.45,92.09,64.07c-3.19,2.85-6.49,5.63-9.59,8.58l-.13.12c-2.94,2.63-2.88,8,0,10.61a7.67,7.67,0,0,0,10.6,0l7.83-7,18.89-16.91,22.76-20.38,19.68-17.62c3.19-2.86,6.48-5.63,9.58-8.58l.14-.13c2.93-2.62,2.87-8,0-10.6a7.66,7.66,0,0,0-10.6,0Z"/><line class="cls-1" x1="86.34" y1="78.07" x2="7.46" y2="7.45"/><path class="cls-1" d="M91.64,72.77l-7.82-7L64.93,48.85,42.16,28.47,22.48,10.85C19.29,8,16.13,5.09,12.9,2.27l-.13-.12C9.84-.47,5-.95,2.16,2.15-.47,5-1,10,2.16,12.75l7.82,7L28.87,36.67,51.64,57.05,71.32,74.67c3.19,2.86,6.35,5.76,9.58,8.58l.14.13c2.92,2.61,7.76,3.09,10.6,0,2.63-2.86,3.13-7.81,0-10.61Z"/></g></g></svg>