<svg xmlns="http://www.w3.org/2000/svg" viewBox="0 0 673.16 452.76"><defs><style>.cls-1{fill:#a0c795;}.cls-2{fill:#9ace8f;}.cls-21,.cls-3,.cls-7,.cls-8{fill:none;}.cls-3,.cls-7{stroke:#eae5d8;}.cls-12,.cls-15,.cls-20,.cls-21,.cls-3,.cls-7,.cls-8{stroke-miterlimit:10;}.cls-3{stroke-width:12px;}.cls-4{fill:#9bcaed;}.cls-5{fill:#876e51;}.cls-6{fill:#c0ddf4;}.cls-7{stroke-width:10px;}.cls-8{stroke:#dfd7c4;stroke-width:3px;}.cls-9{fill:#739971;}.cls-10{fill:#6bbc7d;}.cls-11{fill:#ad9670;}.cls-12{fill:#ac9983;stroke:#ac9983;stroke-width:2px;}.cls-13{fill:#40220f;}.cls-14{fill:#7f4f21;}.cls-15{fill:#7a6a56;stroke:#7a6a56;}.cls-16{fill:#efefef;}.cls-17{fill:#c9caca;}.cls-18{fill:#f7f8f8;}.cls-19{fill:#fac55e;}.cls-20{fill:#3e3a39;stroke:#3e3a39;}.cls-21{stroke:#fde3b3;}.cls-22{fill:#fcd7a1;}.cls-23{fill:#fff;}.cls-24{fill:#6cbb5a;}.cls-25{fill:#8d8e7f;}</style></defs><g id="圖層_2" data-name="圖層 2"><g id="圖層_1-2" data-name="圖層 1"><path class="cls-1" d="M242.77,254.93c9.19-11.51,18.56-23,30.26-32.05l-15.18,11.73a80.89,80.89,0,0,1,15.24-9.07l-17.92,7.56A93.8,93.8,0,0,1,278.9,227L259,229.7c13.67-1.69,27.5-2.06,41.23-3,14.41-1,28.82-2.16,43.24-3,28.25-1.66,56.66-2.18,84.78,1.53l-19.94-2.67c17,2.36,34.15,6.07,50.09,12.58l-17.91-7.56a41.42,41.42,0,0,1,6.85,3.76l-15.18-11.73a30,30,0,0,1,4.29,4.07l-11.73-15.17a34.28,34.28,0,0,1,4.32,7.46L421.44,198a60.83,60.83,0,0,1,3.24,13L422,191.1c3.82,28.88,2.72,58.78-1.11,87.59l2.68-19.94c-.88,6.33-1.76,12.62-4.17,18.58L427,259.41a34.76,34.76,0,0,1-3.11,5.39l11.73-15.17a36,36,0,0,1-6,6l15.18-11.72a52.55,52.55,0,0,1-10.1,5.7l17.92-7.56c-13.4,5.48-28.1,7.58-42.36,9.51l19.93-2.68c-66.52,8.75-134.28,12.56-201,3.7l19.94,2.68c-5.44-.74-11.52-1-16.64-3l17.91,7.56-1.11-.66,15.18,11.73-1-.85,11.73,15.18a7.32,7.32,0,0,1-1.48-2.43l7.56,17.91a13.83,13.83,0,0,1-.72-2.83l2.68,19.94a69.64,69.64,0,0,1-.08-17.49l-2.68,19.93a70.16,70.16,0,0,1,4.49-16.88l-7.56,17.92a62.38,62.38,0,0,1,7.15-12.46L272.8,324a54.79,54.79,0,0,1,9.06-9.14l-15.18,11.73A57.68,57.68,0,0,1,278,320l-17.92,7.56c8-3.28,16.41-5,25-6.14l-19.94,2.68c37.62-4.71,75.58-1.69,113,3.27l-19.94-2.68c13.66,1.84,27.29,3.93,40.91,6A56.91,56.91,0,0,0,429,332.09a55.86,55.86,0,0,0,27.88-8.9A56.74,56.74,0,0,0,478,303.87a56.46,56.46,0,0,0,13.42-25.51c4.37-19.2,3.43-40.75-7.56-57.79l-11.73-15.18A74.9,74.9,0,0,0,439,186.11c-43.42-6.7-87.28-14-131.32-14.35a356.85,356.85,0,0,0-71.84,6.56,84.68,84.68,0,0,0-11.62,3.1c-9.46,3.31-19.27,7.05-28,12.12-8.1,4.71-15.65,11-22.65,17.06-5,4.33-8.69,9.71-12.7,14.9S153,235.33,150,241a188,188,0,0,0-11.26,26.57,66.29,66.29,0,0,0-2.51,9.91c-1.62,9.43-3.21,19.09-3.6,28.68a71,71,0,0,0,.37,10.2c.82,7.69,1.47,16,3.38,23.53,3.57,14,7.47,18.71,15.12,28.63,7.12,9.21,5.23,7.18,14.44,14.3,3.28,2.53,5.49,4.7,8.7,6.52a120.9,120.9,0,0,0,19.13,8.05c.65.2,1.29.36,1.94.51,4.42,1,9,1.43,13.49,2,43.1,5.92,85.8,8.86,129.3,7.11,18.78-.75,37.53-2.16,56.23-4,24.33-2.44,48.86-5,72.89-9.52a131.84,131.84,0,0,0,23.46-6.2c18.48-7.16,33.42-14,47.77-28.35,3.2-3.19,6-7.43,8.66-10.81,3-3.82,6-7.26,8.26-11.46,4.46-8.33,9-18.59,10.91-28.31,3-14.82,4.58-30.06,6-45.13a361.75,361.75,0,0,0,.78-56.44c-.89-13.84-2.11-28-5.17-41.53-2.08-9.13-6.34-18-10.31-26.34a32.17,32.17,0,0,0-2.47-4.4c-4.29-6.27-9.13-13.09-14.46-18.52s-11.9-10.06-18-14.19A37.08,37.08,0,0,0,518.3,99a236.66,236.66,0,0,0-27.92-11.44A214.73,214.73,0,0,0,465,80.74a410.37,410.37,0,0,0-70.25-8.19c-35.27-1-70.44,2.58-105.59,4.87-8.62.56-17.26.89-25.85,1.77-14.11,1.45-29.5,2.67-43.14,7.37a164.87,164.87,0,0,0-68.16,44.07c-5.4,5.83-10.39,12-15.35,18.24A56.31,56.31,0,0,0,121.19,173a56.55,56.55,0,0,0-6.46,28.9,56.55,56.55,0,0,0,6.46,28.9,56.31,56.31,0,0,0,15.51,24.13c14.29,13.12,33.06,22.86,53,22l19.94-2.68a74.86,74.86,0,0,0,33.1-19.29Z"/><path class="cls-2" d="M170.29,287.16c-6.36-7.93-12.86-16.13-15.79-25.86-2.1-7-2.24-14.38-2.37-21.68l-.72-41.16c-.24-14.17-.46-28.55,3.14-42.26s11.61-26.89,24.12-33.55c7.43-4,15.9-5.38,24.23-6.59a713,713,0,0,1,296,19.33c16.85,4.76,34.82,11.09,44.5,25.67,6,9,8,20,9.37,30.68a397.47,397.47,0,0,1,2.52,78.55c-.5,7.39-1.22,14.86-3.8,21.8-5.91,15.9-20.56,26.72-35,35.56-16.81,10.27-34.53,19.21-53.34,25.05-41.84,13-86.73,10.11-130.44,7.08-47.51-3.29-95.41-6.65-141.27-19.49-20.59-5.77-42.53-15-51.91-34.26-6.81-13.95-5.56-30.3-4.14-45.75l2-22.07c1.39-15.24,2.84-30.72,8.43-45s16-27.35,30.36-32.58"/><path class="cls-1" d="M223.33,234.12c-1.42-1.77-2.83-3.54-4.22-5.34L230.83,244A82.67,82.67,0,0,1,221,228.19l7.56,17.92a51.33,51.33,0,0,1-3.27-11.85L228,254.2c-1.82-14.46-1.11-29.42-1.36-44-.25-14.38-1-28.86.82-43.17L224.77,187a82.75,82.75,0,0,1,5-19.53l-7.56,17.91a62.54,62.54,0,0,1,7.58-13.18l-11.73,15.18a50.52,50.52,0,0,1,8.53-8.45l-15.18,11.72a46.68,46.68,0,0,1,8.11-4.68l-17.92,7.56c9.13-3.74,19-4.87,28.7-6.19L210.39,190a719.57,719.57,0,0,1,190.47.05l-19.94-2.68q30.93,4.2,61.41,11c18.58,4.19,37.75,8.37,55.42,15.61l-17.92-7.56a76.13,76.13,0,0,1,15.64,8.74l-15.18-11.73a52,52,0,0,1,8.37,8.21L476.93,196.5a48.83,48.83,0,0,1,5.69,9.89l-7.56-17.92c3,7.47,4.35,15.28,5.42,23.21l-2.68-19.94c3.73,28.83,5.19,58.85,1.66,87.79l2.68-19.94a61.92,61.92,0,0,1-3.51,14l7.56-17.92a54.29,54.29,0,0,1-7,11.71L491,252.2A82.13,82.13,0,0,1,477.66,265l15.18-11.72c-14.91,11.34-31.92,20.45-49.09,27.85l17.91-7.56a203.81,203.81,0,0,1-50.79,13.89l19.94-2.68c-29.18,3.92-58.64,2.64-87.92.69-30-2-60.09-4-89.93-7.93l19.93,2.68c-26.78-3.63-54.61-8.16-79.76-18.45l17.92,7.56a89.8,89.8,0,0,1-19.12-10.73l15.18,11.73a59.13,59.13,0,0,1-10.05-10l11.73,15.18a51.82,51.82,0,0,1-5.23-8.89l7.56,17.92a59,59,0,0,1-3.92-14.76l2.68,19.94c-1.29-11.36-.11-22.7.93-34,1.09-11.93,2-23.9,3.55-35.78l-2.68,19.94a119.11,119.11,0,0,1,7-28l-7.56,17.91a72.15,72.15,0,0,1,9-15.45l-11.72,15.18a58.89,58.89,0,0,1,9.36-9.38L202.55,231.8A48.74,48.74,0,0,1,212.66,226l-17.91,7.56,1.38-.53a56.44,56.44,0,0,0,25.5-13.43,56.55,56.55,0,0,0,19.32-21,55.79,55.79,0,0,0,8.9-27.88,56.8,56.8,0,0,0-1.34-29.91c-5.87-18.15-17.12-35.66-34.47-44.82l-17.91-7.56a75.38,75.38,0,0,0-39.88,0c-20,7.7-38.86,17.06-53,33.89C88.39,139.87,79.3,155.5,72,177.62c-5.46,16.43-6.91,34.37-8.68,51.43-1.2,11.54-2.21,23.11-3.2,34.67-1.46,17-.16,33.26,3.15,50.14C67.38,335,79.52,354,93.71,369.66c6.77,7.49,15.6,13.49,23.66,19.32a82.57,82.57,0,0,0,12.55,7.44,255,255,0,0,0,41.59,16.19c28.77,8.11,58.45,12.12,88.06,15.78,23.66,2.92,47.46,4.61,71.24,6.26,22.87,1.58,45.8,3.19,68.75,2.58,17.8-.48,35.4-2.73,53-5.38a203.93,203.93,0,0,0,33.08-7.64c26.17-8.57,52.24-20.67,75.25-36,12.48-8.3,25.32-17.35,35.16-28.8,6.06-7.06,13.94-16.28,18.39-25.29,5.12-10.34,10.18-21.36,12.07-32.86a368.89,368.89,0,0,0,3.37-90c-1.45-17.68-3-35.74-7.12-53-2.53-10.61-7.18-21.05-12-30.7s-11.92-18.3-19.41-25.87c-22.6-22.79-53.09-33.63-83.4-41.67q-33.81-9-68.42-14.57C387.06,37,334.18,32.24,281,34.05c-23.64.81-47.21,2.84-70.65,6-11.35,1.51-22.82,2.76-34.1,4.8-8.41,1.52-15.56,4.51-23.49,7.86-14.18,6-21.33,11-34,21.59C110.68,81,104.38,90.4,98.51,98.93s-9.76,19.55-13.35,28.65a79.71,79.71,0,0,0-4.48,15.89,274.07,274.07,0,0,0-4.33,51.29c.18,12.34.43,24.68.64,37,.3,17.15,0,35.67,6,51.86,3.72,10.1,7.77,20.74,13.83,29.82,6.23,9.32,13.44,18,20.44,26.73A56.28,56.28,0,0,0,141.4,355.7a56.53,56.53,0,0,0,28.89,6.46,56.55,56.55,0,0,0,28.9-6.46,56.34,56.34,0,0,0,24.14-15.51c13.12-14.29,22.86-33.06,22-53l-2.68-19.94a74.93,74.93,0,0,0-19.28-33.1Z"/><path class="cls-3" d="M597.64,107c-17.85,19.82-35.79,39.78-49.94,62.4-12.5,20-21.84,41.77-32.58,62.77-35.83,70.1-87.67,132.38-112.79,207"/><path class="cls-4" d="M62.4,262l46.22,21.07c15.21,6.94,30.33,14.19,45.72,20.73,8.46,3.59,16.9,6.71,26,8.24a175.29,175.29,0,0,0,27.06,2.36c16.6.22,33.25-.42,49.83-1q25.2-.9,50.35-2.49c9.19-.58,18.58-1,27.54-3.28,8.35-2.11,16.3-6.12,23.6-10.64A299,299,0,0,0,394,271.19,202.26,202.26,0,0,0,421.83,243c8.77-11,16.53-22.6,22.05-35.57a133.55,133.55,0,0,0,7.39-21.45,170.2,170.2,0,0,0,3.55-25c.35-4.05.69-8.11,1.21-12.15l-.54,4c1.45-10.7,4.93-20.74,9.11-30.65l-1.52,3.58c4.89-11.54,10.45-22.9,14-35,3.86-13.13,5.11-26.9,2.11-40.33-1.71-7.67-11-12.89-18.45-10.48a15.34,15.34,0,0,0-10.48,18.45c.32,1.41.57,2.82.78,4.25l-.53-4a60.31,60.31,0,0,1-.15,15.71l.53-4C449.42,80.46,446,90.08,442,99.46l1.52-3.58c-5,11.82-10.75,23.47-14.27,35.86-3.69,13-3.77,26.5-5.51,39.79l.54-4a112.66,112.66,0,0,1-7.69,28L418.1,192a139.65,139.65,0,0,1-18.33,30.9l2.35-3c-11,14.12-24.11,26.41-38.25,37.33l3-2.34q-7.94,6.09-16.26,11.65c-6.27,4.18-12.65,8.26-19.61,11.2l3.58-1.51a61.69,61.69,0,0,1-14.82,3.89l4-.53c-8.72,1.16-17.58,1.46-26.36,2q-13.46.78-26.93,1.36c-17.9.77-35.82,1.31-53.74,1.52a201,201,0,0,1-29.13-1.3l4,.53a103.68,103.68,0,0,1-25.72-7.24l3.58,1.52c-11.89-5-23.57-10.64-35.33-16L98,245.39l-20.42-9.31c-3.77-1.72-7.41-2.65-11.56-1.51a15.29,15.29,0,0,0-9,6.89c-1.84,3.48-2.76,7.7-1.51,11.56,1.13,3.5,3.4,7.37,6.89,9Z"/><path class="cls-4" d="M90.19,242.6q1-12.6,2.71-25.15l-.53,4q3.19-23.74,8.68-47.1c3.43-14.57,7.54-29,13.35-42.83l-1.51,3.59a143,143,0,0,1,17.89-31.27l-2.34,3a108.19,108.19,0,0,1,18.79-19l-3,2.35a88.84,88.84,0,0,1,19.18-11.33l-3.58,1.52c13.52-5.69,28-8.13,42.41-10.62,15.44-2.67,30.91-5.23,46.45-7.32l-4,.54c25.34-3.39,50.92-5.5,76.5-4.53,24.77.94,49.23,5.77,74.06,5.74,12.41,0,24.87-.62,37.21,1l-4-.53a73,73,0,0,1,17.8,4.67l-3.58-1.51c1.63.7,3.23,1.46,4.8,2.3L455,42.18a193.51,193.51,0,0,0-38.42-1.09l10.6,25.61c.55-.48,1.11-.94,1.69-1.39l-3,2.35A30.49,30.49,0,0,1,432,64.15l-3.58,1.51a33.15,33.15,0,0,1,8.36-2.25l-4,.54a35.18,35.18,0,0,1,8.7,0l-4-.54a33.68,33.68,0,0,1,8.36,2.3l-3.58-1.51a31,31,0,0,1,6.07,3.54l-3-2.35c.72.56,1.41,1.15,2.08,1.76A15.31,15.31,0,0,0,461.94,71c4.66-1.28,9.63-5.48,10.48-10.48a21.74,21.74,0,0,0-.05-9.43,18.34,18.34,0,0,0-4.65-7.79,21.51,21.51,0,0,0-10.09-5.5c-6-1.4-12.66-1.17-18.82-1.34q-16.59-.45-33.18.24l4,29.47,2.24-.32-4,.53a165.09,165.09,0,0,1,42.89,0l-4-.53c2.75.36,5.48.8,8.2,1.3l4-29.47c-13.26.9-26.52,1.83-39.78,2.69s-26.34,1.26-39.46-.48l4,.54C373,39,362.37,36.75,351.6,35.52A272.87,272.87,0,0,0,323.3,34c-19.45-.18-38.91.06-58.37.11s-38.88-.28-58.29.28c-10.34.29-20.83,1.28-30.85,4s-19.56,6.92-29.06,11-18.45,8.46-26.5,15.14c-8.3,6.89-13.06,16.75-19.53,25.16l2.34-3c-7.7,9.82-17.32,17.9-24.13,28.47-6.62,10.26-10.36,22.33-12.9,34.19-2.59,12.08-4.59,24.31-6.82,36.46l-7,38.35c-1.76,9.62-4.73,20,.45,29.13,6.37,11.22,22.48,14.55,31.88,5.07,5.53-5.58,6-15.71,0-21.21s-15.31-6-21.22,0a3.35,3.35,0,0,1-.69.61l3-2.34a4,4,0,0,1-.79.41l3.58-1.52a4.25,4.25,0,0,1-.87.21l4-.53a7.84,7.84,0,0,1-1.37,0l4,.53a8,8,0,0,1-1.38-.38l3.58,1.51a8.67,8.67,0,0,1-1.68-1l3,2.35a8.43,8.43,0,0,1-1-1l2.34,3a9.46,9.46,0,0,1-.79-1.43l1.51,3.58a12.33,12.33,0,0,1-.62-2.55l.53,4a21,21,0,0,1,.12-4l-.53,4c1-7.2,2.57-14.34,3.88-21.49l4-21.85c2.54-13.83,4.81-27.75,7.74-41.51a118.19,118.19,0,0,1,6.21-20.91l-1.51,3.59a65.28,65.28,0,0,1,8.4-14.46l-2.35,3c4.88-6.2,10.66-11.6,15.81-17.56,5.87-6.8,10.26-14.5,15.68-21.61l-2.35,3a46.36,46.36,0,0,1,8-8l-3,2.35c8.06-6.14,17.66-9.88,26.92-13.8L163,74.76c10.5-4.43,21.13-8.25,32.48-9.79l-4,.54c10.34-1.33,20.79-1.23,31.19-1.26l32.45-.1c21.31-.06,42.62-.23,63.93-.16a283.41,283.41,0,0,1,35.55,1.9l-4-.53c14.58,2,28.94,5.29,43.7,5.71,13.74.39,27.49-.89,41.18-1.81L459,67.67c7.51-.51,13.7-5.32,14.73-13,.92-6.81-3.38-15.11-10.74-16.45a172.57,172.57,0,0,0-61.31-.93c-3.32.49-7.45,4-9,6.89a15.47,15.47,0,0,0-1.78,9.57c1,7.07,7.24,13.31,14.73,13q11.91-.48,23.81-.4c7.66.06,15.6-.14,23.21.77l-4-.53a13.88,13.88,0,0,1,2.46.63l-3.59-1.51a9.1,9.1,0,0,1,1.68.91l-3-2.34a3.9,3.9,0,0,1,.63.59l-2.35-3a2.75,2.75,0,0,1,.43.69l-1.51-3.59a2.36,2.36,0,0,1,.2.78l-.54-4v.42l.54-4-.08.45L468.56,46A46.63,46.63,0,0,0,406,45.48a14.65,14.65,0,0,0-3.1,16.39c2.17,5.15,7.8,9.64,13.71,9.22A193.51,193.51,0,0,1,455,72.18l4-.54a11.32,11.32,0,0,0,5.1-2.68,14.38,14.38,0,0,0,5.38-7.8c1.44-6.31-.88-13.74-6.9-16.94-15.76-8.38-33.43-10.16-51-10.18-7.83,0-15.66.25-23.49.05-8.81-.22-17.59-1.05-26.35-2-17.65-1.92-35.18-3.87-53-3.89a455,455,0,0,0-53.33,3.4c-18.83,2.22-37.57,5.17-56.25,8.37-8.37,1.43-16.76,2.8-25.05,4.62a142.55,142.55,0,0,0-26.58,8.64c-14.16,6.2-26.82,16.32-36.81,28.05a146,146,0,0,0-14.48,20.11,183.41,183.41,0,0,0-11.91,24.8c-6.27,15.49-10.49,31.74-14,48a526.42,526.42,0,0,0-8.91,55.41q-.7,6.48-1.24,13c-.3,3.65,1.89,8.11,4.39,10.61a15.25,15.25,0,0,0,10.61,4.39c3.88-.17,7.9-1.44,10.61-4.39a16.79,16.79,0,0,0,4.39-10.61Z"/><path class="cls-4" d="M109.52,246.26a224.79,224.79,0,0,1,1.4-50.13l-.53,4c1.38-10.24,3.28-20.4,5.54-30.48,2.14-9.52,4.57-19,8.33-28l-1.51,3.59a84.94,84.94,0,0,1,10.7-18.45l-2.34,3a96.35,96.35,0,0,1,17.28-17.14l-3,2.34A122.43,122.43,0,0,1,171.83,99.7l-3.58,1.51c13.75-5.78,28.33-9.15,43.09-11.14l-4,.54c23.53-3.1,47.36-2.84,71-3.07l74.43-.71c13.78-.13,27.58-.14,41.26,1.7l-4-.54a249.72,249.72,0,0,1,25.69,5.07c4.19,1,8.37,2.13,12.53,3.27,4,1.08,8.24,1.86,12,3.45l-3.58-1.52a4.59,4.59,0,0,1,.83.48l-3-2.35a3.55,3.55,0,0,1,.69.65l-2.34-3a3.52,3.52,0,0,1,.5.86l-1.52-3.58a3.54,3.54,0,0,1,.23,1l-.53-4a8.9,8.9,0,0,1-.05,1.55l.54-4a57.52,57.52,0,0,1-2.73,8.46l-3.18,9.15-6.23,18c-4,11.63-8,23.27-12.35,34.8-2.41,6.43-4.92,12.82-7.59,19.15l1.52-3.58c-3.56,8.42-7.4,16.72-11.66,24.8a153,153,0,0,1-13.78,22.22l2.34-3a75.91,75.91,0,0,1-13,13l3-2.35c-10.68,8.24-23.14,14.37-35.52,19.61l3.59-1.51a169.59,169.59,0,0,1-43.26,11.73l4-.54c-14.88,2-29.93,2.82-44.91,3.77-14.7.93-29.44,1.55-44.18,1.09-8.22-.25-16.43-.86-24.59-1.93l4,.53a176.34,176.34,0,0,1-45.26-12.26l3.58,1.51c-5.33-2.26-10.57-4.72-15.77-7.27-2.6-1.27-5.19-2.57-7.78-3.87a40.91,40.91,0,0,1-6.61-3.66l3,2.35a10.82,10.82,0,0,1-1.46-1.49l2.35,3a10.2,10.2,0,0,1-.81-1.4l1.51,3.59a17.67,17.67,0,0,1-1-4.24l.54,4a130.35,130.35,0,0,1,.15-33.95l-.54,4a138.85,138.85,0,0,1,9.57-34.88l-1.51,3.58a137.29,137.29,0,0,1,17.36-29.83l-2.34,3a119.44,119.44,0,0,1,20.92-21.35l-3,2.35A53.76,53.76,0,0,1,172,125.52L168.45,127a65.56,65.56,0,0,1,16-4.13l-4,.54c9.9-1.32,20-1.4,30-1.65,10.63-.26,21.27-.38,31.91-.49,21-.2,42.08-.35,63.09-1.42,12-.62,24-1.55,35.9-2.94,4.11-.48,7.57-1.36,10.61-4.4a15.23,15.23,0,0,0,4.39-10.6c-.17-3.88-1.45-7.91-4.39-10.61-2.73-2.51-6.75-4.84-10.61-4.39-44.83,5.24-90,3.68-135.06,5-11.59.33-23.26.62-34.67,2.88a70,70,0,0,0-17.25,6,75.1,75.1,0,0,0-15,10.41,140,140,0,0,0-20.74,22.5,135.68,135.68,0,0,0-13.83,22.4,155.49,155.49,0,0,0-15.7,58.19,126.47,126.47,0,0,0,1.44,30.29c1.35,7.77,6.82,13.68,13.66,17.15,4.77,2.42,9.56,4.82,14.38,7.13a233.46,233.46,0,0,0,33.18,13.4A203.14,203.14,0,0,0,186.17,289c21,2.53,42.2,2,63.26.7,10.8-.65,21.61-1.39,32.39-2.31,12.08-1,24.23-2.4,36.06-5.13a186.36,186.36,0,0,0,32.63-11.31,179.81,179.81,0,0,0,27.57-14.6,103.14,103.14,0,0,0,14.23-11.18A99.3,99.3,0,0,0,404.18,231a185.5,185.5,0,0,0,15.43-26.84c9.77-20,17.45-40.88,24.77-61.84q5.5-15.76,11-31.56c1.77-5.1,3.82-10.19,5.32-15.38a20.66,20.66,0,0,0-1.55-16.08c-2.79-4.78-7.43-7.57-12.62-9.07C424,63.7,401.07,58.14,377.57,57.07c-11.39-.52-22.81-.26-34.21-.15l-33.71.32c-22.55.22-45.12.14-67.66.81s-45.37,2.58-67,9A140.73,140.73,0,0,0,123,94.78a103.44,103.44,0,0,0-19.17,22c-5.9,9-10,19.25-13,29.55a303.42,303.42,0,0,0-7.2,31.7,317.72,317.72,0,0,0-4.56,36.38,206.64,206.64,0,0,0,.4,31.86c.38,4.06,1.42,7.64,4.39,10.61a15.23,15.23,0,0,0,10.61,4.39c3.88-.17,7.9-1.44,10.61-4.39,2.54-2.77,4.75-6.7,4.39-10.61Z"/><path class="cls-4" d="M202.68,112.44q12.73-2.32,25.55-4l-4,.53a552.22,552.22,0,0,1,114.15-3.31q16,1.2,32,3.34l-4-.54q12.39,1.67,24.7,3.89,6.08,1.09,12.13,2.34c3.86.79,8.07,1.29,11.77,2.68l-3.59-1.51a7.52,7.52,0,0,1,1.18.65l-3-2.35a3.82,3.82,0,0,1,.65.62l-2.34-3a3.59,3.59,0,0,1,.49.79l-1.51-3.58a7.33,7.33,0,0,1,.41,1.36l-.54-4a21.26,21.26,0,0,1-.16,5.52l.54-4a44.75,44.75,0,0,1-3.15,10.8l1.51-3.59c-3.39,7.9-7.92,15.26-11.45,23.11-4,9-7.57,18.15-11.38,27.22l1.51-3.59c-2.48,5.88-5.1,11.71-8.15,17.32a124.31,124.31,0,0,1-10.76,16.32l2.35-3c-4.75,6.13-9.84,12-14.95,17.84a111.79,111.79,0,0,1-15.44,15.17l3-2.34a54.33,54.33,0,0,1-11.39,6.7l3.58-1.51a78.3,78.3,0,0,1-19.71,4.95l4-.54c-17.36,2.31-35,3-52.47,3.68-17.28.62-34.6,1.13-51.9,1.14A216.13,216.13,0,0,1,184,235.92l4,.54a105.74,105.74,0,0,1-26.82-7l3.58,1.52a53.65,53.65,0,0,1-11.08-6.29l3,2.34a40.75,40.75,0,0,1-7.33-7.34l2.34,3A48.27,48.27,0,0,1,146,212.7l1.51,3.58a73.6,73.6,0,0,1-4.79-18.46l.54,4a126.31,126.31,0,0,1-.34-32.33l-.54,4a48.38,48.38,0,0,1,3.17-12.31L144,164.73a31.72,31.72,0,0,1,3.78-6.53l-2.35,3a28.91,28.91,0,0,1,5.09-5l-3,2.35a46,46,0,0,1,9.7-5.39l-3.58,1.51c11.74-4.9,24.27-7.49,36.84-9.19l-4,.54c8.92-1.19,17.88-2,26.84-2.76q15.18-1.37,30.26-3.49c18.43-2.6,36.69-6.19,55-9.46,10.36-1.84,20.75-3.58,31.18-5l-4,.53c8.23-1.1,16.49-2,24.78-2.55,4.1-.27,8.2-.47,12.31-.56a66,66,0,0,1,10.23.29l-4-.54a22.77,22.77,0,0,1,5.5,1.45L371,122.43a14.42,14.42,0,0,1,2.67,1.53l-3-2.34a11.53,11.53,0,0,1,1.89,1.87l-2.34-3a11,11,0,0,1,1.28,2.24l-1.52-3.59a15.79,15.79,0,0,1,.85,3.43l-.54-4c.34,3.06.27,6.18.31,9.25s.05,6.29,0,9.43a159.3,159.3,0,0,1-1.26,18.53l.53-4a81.77,81.77,0,0,1-5.37,20.53l1.52-3.58a59.49,59.49,0,0,1-5.81,10.55l27.42,11.56q10.56-34.26,22.43-68.11,3.36-9.62,6.84-19.18H387.93l.08.51-.54-4a61.15,61.15,0,0,1-.09,15.82l.53-4a79.75,79.75,0,0,1-5.59,19.78l1.51-3.58a130.14,130.14,0,0,1-17.1,28.27l2.34-3c-13.38,17.26-28.82,32.79-40.84,51.12-3,4.53-5.86,9.12-9.17,13.41l2.34-3a54.47,54.47,0,0,1-9.47,9.72l3-2.35a43.34,43.34,0,0,1-9.14,5.29l3.59-1.51a64.47,64.47,0,0,1-16.33,4.22l4-.54c-8.21,1.07-16.5,1.09-24.76,1.17l-28.7.28-58,.57-16.14.16a112.65,112.65,0,0,1-15.59-.57l4,.53a39.79,39.79,0,0,1-9.72-2.54l3.58,1.51a36.21,36.21,0,0,1-7.76-4.55l3,2.35a39.1,39.1,0,0,1-6.68-6.68l2.34,3a39.59,39.59,0,0,1-5-8.52l1.51,3.59a37.62,37.62,0,0,1-2.51-9.09l.54,4a36.84,36.84,0,0,1,.06-9.5l-.53,4a84,84,0,0,1,3-12.6,120.33,120.33,0,0,1,4-11.56l-1.51,3.58a41.89,41.89,0,0,1,5.06-8.9l-2.34,3a38,38,0,0,1,6.51-6.48l-3,2.34a48,48,0,0,1,10.43-6l-3.58,1.51a67.12,67.12,0,0,1,17.13-4.44l-4,.53c12.3-1.58,24.81-1,37.17-1.25q19.14-.33,38.26-1.45t38.44-3.24q11-1.23,22.06-2.8A112.17,112.17,0,0,0,321.93,158a117.86,117.86,0,0,0,20.92-9.31c5.69-3.1,11.31-6.34,17.28-8.89l-3.58,1.51a73,73,0,0,1,18.06-5l-4,.54a73.53,73.53,0,0,1,14.38-.49l-4-29.46a75.31,75.31,0,0,1-7.6,1.42l4-.54c-12.35,1.59-24.79.39-37.19.42-13.36,0-26.5,2-38.9,7-7.49,3.06-14.73,6.55-21.93,10.21l-3,2.34a11.33,11.33,0,0,0-3.1,4.83,14.42,14.42,0,0,0-.76,9.77c2,6.23,7.68,11.11,14.47,11q45.84-.67,91.68.13l12.84.26c3.94.09,8-.07,11.91.41l-4-.53a12.18,12.18,0,0,1,2.66.66l-3.59-1.51a7.6,7.6,0,0,1,1.29.69l-3-2.34a5.21,5.21,0,0,1,1,1l-2.34-3a4.33,4.33,0,0,1,.36.62l-1.51-3.58a5.4,5.4,0,0,1,.35,1.25l-.53-4a4.51,4.51,0,0,1,0,.9l.54-4a7.63,7.63,0,0,1-.34,1.33l1.52-3.58a10.39,10.39,0,0,1-1.22,2.09l2.35-3a28.11,28.11,0,0,1-4.75,4.43l3-2.35a73.93,73.93,0,0,1-16.34,9.06l3.59-1.51c-6.93,2.92-14,5.62-21.08,8.09a119.35,119.35,0,0,1-22.69,5.79l4-.54a65,65,0,0,1-16.66.14l4,.54-1.11-.17,10.47,18.46c.32-1,.67-1.91,1.07-2.85l-1.52,3.59a37.65,37.65,0,0,1,4.59-7.82l-2.34,3a40,40,0,0,1,7-7l-3,2.35a39.93,39.93,0,0,1,8.2-4.82L349.75,167a36.83,36.83,0,0,1,9.15-2.55l-4,.54.43-.06-15-15,0,.42.54-4a20.17,20.17,0,0,1-1.32,4.84l1.52-3.58a22.51,22.51,0,0,1-2.73,4.7l2.34-3a23.82,23.82,0,0,1-3.83,3.88l3-2.35a22.48,22.48,0,0,1-4.66,2.79l3.58-1.51a20.68,20.68,0,0,1-5.24,1.44l4-.54-.42.05,14.47,11c-.16-.66-.28-1.33-.38-2l.53,4a21.54,21.54,0,0,1,0-5.2l-.54,4a23.78,23.78,0,0,1,1.58-5.79l-1.51,3.58a27,27,0,0,1,3.26-5.6l-2.35,3a27.74,27.74,0,0,1,4.57-4.62l-3,2.34a25.28,25.28,0,0,1,5.54-3.26l-3.58,1.51a21.87,21.87,0,0,1,5.4-1.44l-4,.53a21.41,21.41,0,0,1,5.06,0l-4-.53a16.82,16.82,0,0,1,3.95,1.05l-3.58-1.51a12.76,12.76,0,0,1,2.54,1.5l-3-2.35a11.51,11.51,0,0,1,1.73,1.76l-2.34-3a13.08,13.08,0,0,1,1.45,2.48L357.34,151a14.73,14.73,0,0,1,1,3.62l-.53-4a17,17,0,0,1,0,4.22l.53-4a18.43,18.43,0,0,1-1.28,4.37l1.51-3.58a25.89,25.89,0,0,1-3,5l2.35-3a47.89,47.89,0,0,1-8.45,8.2l3-2.35a62.53,62.53,0,0,1-13.28,7.78l3.58-1.51A62.35,62.35,0,0,1,327,170l4-.54a21.88,21.88,0,0,1-5.42.23l4,.53a8.49,8.49,0,0,1-1.4-.37l3.58,1.52a9.23,9.23,0,0,1-1.23-.69l3,2.34a9.79,9.79,0,0,1-1.62-1.66l2.34,3a30.49,30.49,0,0,1-3.15-5.74l1.51,3.58a38.67,38.67,0,0,1-2.63-9.49l.54,4a32.94,32.94,0,0,1-.16-8.18l-.54,4a6.61,6.61,0,0,1,.36-1.32l-1.51,3.58a3,3,0,0,1,.48-.75l-2.34,3,.28-.27-3,2.35a2.81,2.81,0,0,1,.64-.39l-3.59,1.52a3.27,3.27,0,0,1,.72-.21l-4,.53a6.42,6.42,0,0,1,1.16,0l-4-.54a8.34,8.34,0,0,1,2,.52l-3.58-1.51a15.34,15.34,0,0,1,2.79,1.64l-3-2.34a17.15,17.15,0,0,1,2.85,2.8l-2.35-3a21.74,21.74,0,0,1,2.68,4.56l-1.51-3.58a30.93,30.93,0,0,1,2.05,7.74l-.54-4a45.4,45.4,0,0,1-.15,11.53l.54-4a54,54,0,0,1-3.62,13.21l1.51-3.58A53.82,53.82,0,0,1,308,201.47l2.35-3a43.74,43.74,0,0,1-7.45,7.69l3-2.34a24.43,24.43,0,0,1-4.93,3l3.58-1.51a17,17,0,0,1-4.09,1.15l4-.53a16.26,16.26,0,0,1-3.69,0l4,.53a17.44,17.44,0,0,1-3.94-1.08l3.58,1.51a21.07,21.07,0,0,1-4.37-2.57l3,2.35a25.06,25.06,0,0,1-4.25-4.3l2.35,3a38.63,38.63,0,0,1-4.49-8l1.51,3.58a73.53,73.53,0,0,1-5.28-17.49l.54,4a23,23,0,0,1-.08-5.68l-.54,4a14.94,14.94,0,0,1,1-3.61l-1.51,3.58a13.09,13.09,0,0,1,1.48-2.53l-2.34,3a13.7,13.7,0,0,1,1.85-1.88l-3,2.35a15,15,0,0,1,3.42-2l-3.58,1.51a29.36,29.36,0,0,1,7-1.71l-4,.53c3.64-.47,7.31-.75,11-.9a68.39,68.39,0,0,1,10.42.12l-4-.54a16,16,0,0,1,3.5.86L310.49,183a11.32,11.32,0,0,1,1.93,1.07l-3-2.34a9.37,9.37,0,0,1,1.63,1.64l-2.34-3a12.69,12.69,0,0,1,1.15,2.07l-1.51-3.58a19.29,19.29,0,0,1,1.14,4.56l-.53-4a24.46,24.46,0,0,1,0,5.8l.53-4a27.36,27.36,0,0,1-1.77,6.44l1.52-3.59a37.86,37.86,0,0,1-5,8.33l2.35-3a55.35,55.35,0,0,1-9.56,9.36l3-2.35a31.68,31.68,0,0,1-5.14,3.46l3.58-1.51a4.09,4.09,0,0,1-.92.28l4-.54-.47,0,4,.54a2.24,2.24,0,0,1-.88-.22l3.59,1.51-.37-.21,3,2.34a5.78,5.78,0,0,1-.92-.93l2.34,3a46.09,46.09,0,0,1-4.5-8.36l1.51,3.58a43.9,43.9,0,0,1-3.23-11l.54,4a28.19,28.19,0,0,1,0-6.93l-.53,4a20,20,0,0,1,1.34-5l-1.52,3.58a14.72,14.72,0,0,1,1.56-2.69l-2.34,3a11.38,11.38,0,0,1,1.88-1.92l-3,2.35a11,11,0,0,1,2.06-1.23L302,189.11a11,11,0,0,1,2.58-.73l-4,.54a11,11,0,0,1,2.5,0l-4-.54a12.53,12.53,0,0,1,2.42.65l-3.58-1.51a11.47,11.47,0,0,1,2.51,1.47l-3-2.34a11.34,11.34,0,0,1,1.47,1.47l-2.35-3a10.67,10.67,0,0,1,1.28,2.22l-1.51-3.59a11.52,11.52,0,0,1,.62,2.51l-.53-4a12.55,12.55,0,0,1,0,2.6l.53-4a11.36,11.36,0,0,1-.69,2.49l1.51-3.58a11.58,11.58,0,0,1-1.07,1.87l2.35-3a9.67,9.67,0,0,1-1.62,1.64l3-2.35a7.26,7.26,0,0,1-1.21.69l3.59-1.51a6.65,6.65,0,0,1-1.22.32l4-.53a5.31,5.31,0,0,1-1.26,0l4,.54a6.42,6.42,0,0,1-.86-.23l3.59,1.51a5.75,5.75,0,0,1-1-.57l3,2.34a6.56,6.56,0,0,1-1.1-1.07l2.34,3a10.51,10.51,0,0,1-1.19-2l1.51,3.58a15.86,15.86,0,0,1-1-3.89l.53,4a17.61,17.61,0,0,1-.07-3.63l-29.46,4a41.22,41.22,0,0,1,2.52,9.45l-.53-4a43.75,43.75,0,0,1,0,11.26l.54-4a42.51,42.51,0,0,1-2.81,10.39l1.51-3.58a38.56,38.56,0,0,1-4.78,8.31l2.34-3a26.6,26.6,0,0,1-4.23,4.32l3-2.34a20.52,20.52,0,0,1-4.25,2.54l3.58-1.51a18.09,18.09,0,0,1-4.15,1.13l4-.53a19.56,19.56,0,0,1-5.07,0l4,.54a22.91,22.91,0,0,1-5.33-1.47l3.58,1.51a23.85,23.85,0,0,1-5.16-3l3,2.34a23.1,23.1,0,0,1-3.67-3.66l2.34,3a21.57,21.57,0,0,1-2.7-4.62l1.51,3.59a25,25,0,0,1-1.61-6.12l.54,4a27.63,27.63,0,0,1,.05-6.8l-.54,4a31.51,31.51,0,0,1,2.06-7.52l-1.51,3.58a32.12,32.12,0,0,1,3.94-6.75l-2.34,3a35.2,35.2,0,0,1,6-5.91l-3,2.34a42.19,42.19,0,0,1,8.95-5.17l-3.59,1.52a51.24,51.24,0,0,1,12.8-3.43l-4,.53a18.28,18.28,0,0,1,3.91-.13l-4-.53a10,10,0,0,1,1.86.43l-3.59-1.51a7.32,7.32,0,0,1,1.59.9l-3-2.34a7.93,7.93,0,0,1,.82.82l-2.34-3a8.19,8.19,0,0,1,.79,1.3L286,180.66a10,10,0,0,1,.63,2.28l-.54-4a15.76,15.76,0,0,1,0,3.76l.54-4a47.8,47.8,0,0,1-3.58,11.83l1.52-3.59a64.72,64.72,0,0,1-8.16,13.91l2.35-3a66.12,66.12,0,0,1-11.37,11.43l3-2.34a60.3,60.3,0,0,1-12.92,7.7l3.58-1.51a20.14,20.14,0,0,1-4.63,1.34l4-.53a13,13,0,0,1-2.65,0l4,.54a14.15,14.15,0,0,1-2.93-.81l3.58,1.51a59.06,59.06,0,0,1-11.9-7.57l3,2.34a51.31,51.31,0,0,1-9.31-9.08l2.34,3a31.11,31.11,0,0,1-3.71-6.26l1.51,3.59a24.06,24.06,0,0,1-1.68-6.12l.53,4a22.49,22.49,0,0,1,0-5.56l-.54,4a23.34,23.34,0,0,1,1.45-5.2l-1.51,3.58a26.79,26.79,0,0,1,3.16-5.4l-2.34,3a32.3,32.3,0,0,1,5.44-5.46l-3,2.35a36.2,36.2,0,0,1,7.9-4.63l-3.58,1.51a33.67,33.67,0,0,1,8-2.26l-4,.53a23.23,23.23,0,0,1,5.4-.1l-4-.53a15.09,15.09,0,0,1,3.38.85l-3.58-1.52a12.08,12.08,0,0,1,2.6,1.51l-3-2.35a11.94,11.94,0,0,1,1.58,1.6l-2.34-3a13.55,13.55,0,0,1,1.59,2.76l-1.51-3.59a21.21,21.21,0,0,1,1.28,4.95l-.54-4a44,44,0,0,1-.05,11.12l.54-4a54.39,54.39,0,0,1-3.66,13.38l1.52-3.58a65.37,65.37,0,0,1-8.3,14.17l2.34-3a97.85,97.85,0,0,1-17.76,17.34l3-2.34c-2.37,1.82-4.81,3.92-7.54,5.19l3.59-1.51a7.86,7.86,0,0,1-1.43.43l4-.53a6.74,6.74,0,0,1-1.42,0l4,.53a6.24,6.24,0,0,1-1.19-.35l3.58,1.51a8.83,8.83,0,0,1-1.07-.63l3,2.34a10.8,10.8,0,0,1-1.83-1.87l2.34,3a78.22,78.22,0,0,1-5.43-9.07,109.33,109.33,0,0,1-5-10l1.52,3.59a59.47,59.47,0,0,1-4.26-14.71l.53,4a43.73,43.73,0,0,1-.11-11.14l-.54,4a35,35,0,0,1,2.32-8.71l-1.51,3.58a28.83,28.83,0,0,1,3.53-6l-2.34,3a28.22,28.22,0,0,1,4.75-4.71l-3,2.34a27.26,27.26,0,0,1,5.34-3.15L231,187.89a23.66,23.66,0,0,1,5.89-1.64l-4,.53a20.88,20.88,0,0,1,5.24,0l-4-.54a20.09,20.09,0,0,1,4.39,1.2L235,186a21.33,21.33,0,0,1,4.59,2.69l-3-2.34a23.43,23.43,0,0,1,3.79,3.79l-2.34-3a24.64,24.64,0,0,1,3.13,5.37l-1.51-3.58A23.41,23.41,0,0,1,241,194l-.54-4a21,21,0,0,1,0,5.37l.54-4a24.43,24.43,0,0,1-1.56,5.82l1.51-3.59a26.91,26.91,0,0,1-3.41,5.81l2.35-3a35.11,35.11,0,0,1-6.12,6l3-2.34a49.63,49.63,0,0,1-10.72,6.1l3.58-1.51a71,71,0,0,1-17.7,4.5l4-.53a92.8,92.8,0,0,1-23.84,0l4,.54a42.68,42.68,0,0,1-10.76-2.52l3.58,1.52a18.64,18.64,0,0,1-3.46-2l3,2.34a17.44,17.44,0,0,1-2.88-2.88l2.34,3a22.18,22.18,0,0,1-2.71-4.76l1.51,3.58a35.18,35.18,0,0,1-2.13-8.21l.54,4a42,42,0,0,1,0-10.69l-.53,4a35.13,35.13,0,0,1,2.38-8.78l-1.51,3.58a30,30,0,0,1,3.65-6.24l-2.35,3a29,29,0,0,1,4.82-4.84l-3,2.35a27.35,27.35,0,0,1,5.85-3.45l-3.59,1.51a24.67,24.67,0,0,1,6.08-1.65l-4,.54a21.75,21.75,0,0,1,5.1,0l-4-.53a16.53,16.53,0,0,1,3.65,1l-3.58-1.51a13.71,13.71,0,0,1,2.44,1.39l-3-2.35a13.24,13.24,0,0,1,2,2l-2.35-3a21.28,21.28,0,0,1,2.61,4.56l-1.51-3.58a42,42,0,0,1,2.91,10.71l-.54-4a42.41,42.41,0,0,1,0,10.62l.54-4a39.07,39.07,0,0,1-2.64,9.73l1.52-3.58a35.74,35.74,0,0,1-4.39,7.51l2.34-3a32.06,32.06,0,0,1-5.47,5.45l3-2.35a34.89,34.89,0,0,1-7.4,4.31l3.59-1.52a34.57,34.57,0,0,1-8.22,2.26l4-.53a31.66,31.66,0,0,1-8,0l4,.54a28.68,28.68,0,0,1-6.93-1.88l3.58,1.51a26.35,26.35,0,0,1-5.51-3.25l3,2.34a28.27,28.27,0,0,1-4.73-4.8l2.35,3a30.08,30.08,0,0,1-3.59-6.19l1.51,3.59a29.16,29.16,0,0,1-1.9-6.85l.54,4a25.89,25.89,0,0,1,0-6.64l-.54,4a23.72,23.72,0,0,1,1.53-5.66l-1.51,3.58a20.76,20.76,0,0,1,2.61-4.46l-2.34,3a23,23,0,0,1,3.84-3.8l-3,2.34a25.35,25.35,0,0,1,5.34-3.09L170.15,195a27.08,27.08,0,0,1,6.31-1.73l-4,.54a24.59,24.59,0,0,1,6.47,0l-4-.53a21.22,21.22,0,0,1,5.13,1.41l-3.58-1.51a20,20,0,0,1,4,2.34l-3-2.34a21.86,21.86,0,0,1,3.55,3.58l-2.35-3a26,26,0,0,1,3.13,5.41l-1.52-3.58a34.13,34.13,0,0,1,2.21,8.37l-.54-4a45.38,45.38,0,0,1,0,11.29l.54-4a25.55,25.55,0,0,1-1.46,5.83l1.51-3.59a15.82,15.82,0,0,1-1.92,3.4l2.35-3a13.31,13.31,0,0,1-2.16,2.15l3-2.34a13,13,0,0,1-2.63,1.52l3.59-1.52a11.25,11.25,0,0,1-2.47.65l4-.53a10.53,10.53,0,0,1-2.1,0l4,.53a9.11,9.11,0,0,1-2.11-.61l3.58,1.51a12.19,12.19,0,0,1-2-1.19l3,2.34a20.33,20.33,0,0,1-3.23-3.39l2.35,3a37.26,37.26,0,0,1-4.58-7.71l1.51,3.59a24.8,24.8,0,0,1-1.76-6.24l.53,4a16.84,16.84,0,0,1,0-4l-.54,4a13.36,13.36,0,0,1,.8-2.91l-1.52,3.58a13.09,13.09,0,0,1,1.6-2.69l-2.35,3a14.45,14.45,0,0,1,2-2l-3,2.34a19.23,19.23,0,0,1,4-2.35L183,206.21a47.93,47.93,0,0,1,12.18-3.05l-4,.54a62.54,62.54,0,0,1,16.23,0l-4-.53c1.3.18,2.58.4,3.87.66a16,16,0,0,0,11.56-1.51,15.27,15.27,0,0,0,6.89-9c.87-3.84.69-8.15-1.51-11.55-2-3.16-5.16-6.13-9-6.9a78,78,0,0,0-19.33-1.68,71.48,71.48,0,0,0-18.69,3.18,34.72,34.72,0,0,0-9.27,4.28c-3.64,2.63-7,5.57-9.12,9.65a30.18,30.18,0,0,0-2,22.57c2,6.65,5.48,12.23,9.78,17.58a24.17,24.17,0,0,0,7.72,6.47,23,23,0,0,0,5.9,2.22,25.83,25.83,0,0,0,10.29,0,25.16,25.16,0,0,0,6-2.21,26.67,26.67,0,0,0,5.47-3.78,14.23,14.23,0,0,0,2.16-2.16,28.57,28.57,0,0,0,3.86-5.53A45.3,45.3,0,0,0,212.31,205a49.53,49.53,0,0,0-2.69-16.38c-2.26-6-5.38-12-10.39-16.21-4.39-3.7-9.37-6.71-15.07-7.86a41.44,41.44,0,0,0-17.46.11,41.94,41.94,0,0,0-8.27,3,24.39,24.39,0,0,0-4.59,2.59c-4.7,3.38-8.94,7.3-11.68,12.51a38.84,38.84,0,0,0-1.91,32.09,45.73,45.73,0,0,0,9.59,15.4,41.9,41.9,0,0,0,15.57,9.83,38.65,38.65,0,0,0,15.4,2.3,55,55,0,0,0,9.47-1.28,52.56,52.56,0,0,0,9.07-3.28,44.61,44.61,0,0,0,12.87-8.74,50.7,50.7,0,0,0,6.21-7.5,33.64,33.64,0,0,0,3.19-5.56,58.79,58.79,0,0,0,3.58-9.41,64,64,0,0,0,1.63-10.11,54.61,54.61,0,0,0-1.27-16.66,40.64,40.64,0,0,0-1.88-6.2,38.34,38.34,0,0,0-4.56-9.23c-2.7-3.59-5.67-6.86-9.85-8.76a32.42,32.42,0,0,0-13.36-3.19,38.46,38.46,0,0,0-19,5,43.89,43.89,0,0,0-14.29,13.39,44.63,44.63,0,0,0-4.67,9.38,33.86,33.86,0,0,0-2,7.06,61.61,61.61,0,0,0-1.07,10.58A65.81,65.81,0,0,0,156,208.76a37.88,37.88,0,0,0,7.29,16.56A32.38,32.38,0,0,0,181.78,237c12.78,3,25.85,2.86,38.76,1.05,9.84-1.39,19.69-4.46,28.15-9.77,9.49-5.95,17.4-14.55,20.57-25.49,3.62-12.49-.19-25.68-8.81-35.16a35.14,35.14,0,0,0-15.67-9.69,34.36,34.36,0,0,0-19.28.14,41.34,41.34,0,0,0-16.63,9.81c-4.94,4.73-8.15,10.53-10.49,16.88a34.35,34.35,0,0,0-1.73,7.06,60.32,60.32,0,0,0-.86,10.81A64.79,64.79,0,0,0,199,220.56a109.07,109.07,0,0,0,7.57,17.23c1.24,2.32,2.56,4.61,3.9,6.88a38.3,38.3,0,0,0,5.82,8.06c3.91,3.85,9.51,6.51,15.09,6.08a24.65,24.65,0,0,0,12.86-4.94,159.79,159.79,0,0,0,14.13-11.28,86.35,86.35,0,0,0,9.88-10.54,82.3,82.3,0,0,0,9.84-15c5.15-10.74,8.51-22.91,7-34.91A38.07,38.07,0,0,0,281.47,169a25.13,25.13,0,0,0-9-9.62,28,28,0,0,0-5.69-2.58,15.6,15.6,0,0,0-3.17-.77,40.42,40.42,0,0,0-6.67-.66,53.05,53.05,0,0,0-6.93.79,46,46,0,0,0-14.9,5.47,57.56,57.56,0,0,0-7.74,5.52,30.44,30.44,0,0,0-4.44,4.35c-4,4.86-7.4,10.17-8.83,16.41a36.52,36.52,0,0,0,.58,19.32,47.74,47.74,0,0,0,9.57,16.39c3.52,4.14,7.86,7.48,12.2,10.71a60.82,60.82,0,0,0,14.63,8.35c8.23,3.11,16.77.3,24.22-3.41a79.36,79.36,0,0,0,13.45-8.94A64.84,64.84,0,0,0,298,221.5a81.45,81.45,0,0,0,15.95-28.22c2-6.21,2.95-12.67,1.51-19.11a12.46,12.46,0,0,0-.42-1.31,26.09,26.09,0,0,0-1.94-4.44,21.4,21.4,0,0,0-6.8-6.95,8.66,8.66,0,0,0-1.43-.79,24.84,24.84,0,0,0-4.49-1.78,25.51,25.51,0,0,0-7.13-.74,58.11,58.11,0,0,0-16.73,3.44,70.12,70.12,0,0,0-9.38,4.17,59.83,59.83,0,0,0-8.32,5.84,34.49,34.49,0,0,0-4.73,4.55,44.26,44.26,0,0,0-11.43,27.31c-.58,6.76,1.15,13.23,3.85,19.33,2.53,5.73,7.05,10,12,13.71a30.67,30.67,0,0,0,6.64,3.54,29.88,29.88,0,0,0,7.12,2.23,33.27,33.27,0,0,0,9.06.54,40.49,40.49,0,0,0,6.28-1,39.75,39.75,0,0,0,6-2.41,33.42,33.42,0,0,0,8-5.7,45.26,45.26,0,0,0,6.45-7.82,37.57,37.57,0,0,0,3.39-6.11,66.09,66.09,0,0,0,3.61-9.6,55.86,55.86,0,0,0,1.84-16.88,53.37,53.37,0,0,0-3.39-16.86,16.8,16.8,0,0,0-6.9-9,15.44,15.44,0,0,0-9.56-1.78,14.26,14.26,0,0,0-8.62,4.12l-2.34,3a14.91,14.91,0,0,0-2,7.57,27.77,27.77,0,0,0,4.07,16.74,21.14,21.14,0,0,0,11.52,9,20,20,0,0,0,15.57-2.07c4.94-2.94,7.93-7.51,10-12.73,1.66-4.26,1.4-8.67.73-13.06s-3-8.23-5.89-11.5-6.69-5.27-10.67-6.72c-4.21-1.54-8.58-1.3-12.9-.56a30.82,30.82,0,0,0-8,3.42,27.77,27.77,0,0,0-8,8.44,29.58,29.58,0,0,0-3.22,7.9c-2.95,11.94.32,23.87,5.68,34.6a34.89,34.89,0,0,0,5.77,8.82,17.69,17.69,0,0,0,8.51,4.87,18.86,18.86,0,0,0,13.4-2,63.38,63.38,0,0,0,8.29-6,57.66,57.66,0,0,0,5-4.45c8.63-8.63,14.92-19.85,15.27-32.27.21-7.64-2.13-16-7.63-21.5-5.82-5.84-13.83-7.27-21.74-7.29a127.36,127.36,0,0,0-16.33,1,54.19,54.19,0,0,0-9.78,1.74,32.31,32.31,0,0,0-11.51,6.38,31.71,31.71,0,0,0-5.69,7.44A32.4,32.4,0,0,0,263.27,183a43.19,43.19,0,0,0,1,9.95,52.43,52.43,0,0,0,1.57,6.19,104.42,104.42,0,0,0,6.49,16.58,41.58,41.58,0,0,0,13.35,15,29.64,29.64,0,0,0,20.82,4.88c7.56-1,13.9-4.74,19.5-9.81a62.7,62.7,0,0,0,10.72-13.19,68.08,68.08,0,0,0,7.11-15.81,66.81,66.81,0,0,0,2.81-17.24,48.33,48.33,0,0,0-1.92-15.82c-1.77-5.73-4.76-11.54-9.24-15.65a29.94,29.94,0,0,0-10.86-6.55,19.4,19.4,0,0,0-6.17-.92,18.25,18.25,0,0,0-9.5,2.68,18.46,18.46,0,0,0-7.82,10.4,29.08,29.08,0,0,0-.88,6.84,56.9,56.9,0,0,0,1,11,36.92,36.92,0,0,0,1.84,7,54.22,54.22,0,0,0,4.54,9.85,23.65,23.65,0,0,0,12.62,10.42,23.35,23.35,0,0,0,10.31.74,75.92,75.92,0,0,0,17.27-3.73,77.85,77.85,0,0,0,15.82-7.61,71.83,71.83,0,0,0,13.33-10.82,48.07,48.07,0,0,0,6.32-8.24,24.17,24.17,0,0,0,1.39-2.79,35.85,35.85,0,0,0,2.42-6.48,30.67,30.67,0,0,0,.48-11.24A26.77,26.77,0,0,0,384,138a26.34,26.34,0,0,0-9-9c-4.21-2.5-8.61-3.34-13.39-3.85-6.33-.68-12.39,1.21-18.07,3.75a25.25,25.25,0,0,0-5,3,41.2,41.2,0,0,0-6.83,6,42.22,42.22,0,0,0-8.82,15.83,36.45,36.45,0,0,0-.27,18.32l1.51,3.58a11.34,11.34,0,0,0,3.86,4.21c2.4,1.85,6,3.57,9.09,3.22a45.06,45.06,0,0,0,7.28-1.17,44.41,44.41,0,0,0,6.71-2.71,36.3,36.3,0,0,0,15.24-15.08,42.71,42.71,0,0,0,2.76-6.68,43.13,43.13,0,0,0,1.26-7.48c.41-3.4-1.94-8.35-4.39-10.6-2.72-2.49-6.77-4.89-10.61-4.4a63.11,63.11,0,0,0-9.08,1.56,61.54,61.54,0,0,0-8.07,3.09,52.29,52.29,0,0,0-12.09,7.83c-7.43,6.06-12.71,14.61-15.7,23.64a15.13,15.13,0,0,0,1.52,11.56c2,3,5.2,6.33,9,6.89a80.79,80.79,0,0,0,14.56,1.16A101,101,0,0,0,350,189.05a129.74,129.74,0,0,0,21.26-5.94c7.83-2.8,15.6-5.85,23.25-9.13a82.64,82.64,0,0,0,19.69-11.83c4.24-3.44,8-8,9.28-13.41A19.08,19.08,0,0,0,414,127c-4.78-2.43-9.74-3-15-3.09q-5.82-.15-11.64-.27-23.6-.5-47.18-.59-26.58-.11-53.16.29l7.57,28c5.55-2.82,11.1-5.62,16.83-8.06l-3.58,1.51a86.8,86.8,0,0,1,22.05-6.31l-4,.54c10-1.28,20-.75,30-.51,11.11.27,22.31-.06,33.17-2.69a15.17,15.17,0,0,0,9-6.9,15.44,15.44,0,0,0,1.78-9.56,14.22,14.22,0,0,0-4.13-8.61,16.49,16.49,0,0,0-10.6-4.4,82.12,82.12,0,0,0-36.43,6,178.46,178.46,0,0,0-17.36,8.48,162.41,162.41,0,0,1-14.71,7.47l3.59-1.51c-8.47,3.54-17.47,5.08-26.52,6.31l4-.54c-34.7,4.66-69.72,6.51-104.72,6.72a217.48,217.48,0,0,0-28.41,1.64,74.43,74.43,0,0,0-24.32,7.64A54.31,54.31,0,0,0,120,166.7a64.94,64.94,0,0,0-6.35,13.49c-1.37,3.71-2.52,7.52-3.62,11.32a84.61,84.61,0,0,0-3,15.56,48.61,48.61,0,0,0,.94,13.5c1.6,8.56,6,16.18,11.36,22.87a52.34,52.34,0,0,0,9.45,8.69,48.78,48.78,0,0,0,11.54,6.14c8.38,3.4,17.9,3.66,26.83,3.59,35.14-.26,70.28-.69,105.42-1a222.27,222.27,0,0,0,22.5-.93,109.56,109.56,0,0,0,14.08-2.29,73.83,73.83,0,0,0,13.09-4.79c15.57-7.22,24.32-22,33.49-35.69,2.17-3.25,4.47-6.4,6.85-9.5l-2.34,3c10.36-13.4,22-25.72,32.35-39.15,10-13,18.49-27.6,22.62-43.6a89.45,89.45,0,0,0,2.55-16.08,77.08,77.08,0,0,0-.94-16.26L415.35,92a11.34,11.34,0,0,0-3.86-4.21,14.32,14.32,0,0,0-9.09-3.22,17.72,17.72,0,0,0-7.57,2c-3.51,1.85-5.6,5.4-6.9,9q-12.23,33.71-23.17,67.87-3.11,9.69-6.1,19.43a15.17,15.17,0,0,0,1.51,11.56,15.57,15.57,0,0,0,7.17,6.13,14.42,14.42,0,0,0,9.77.76,16.82,16.82,0,0,0,9-6.89c9.34-13.48,12.76-30,14-46,.55-7.1.58-14.22.48-21.34-.06-4.76,0-9.59-1.15-14.25-1.55-6.46-5.78-11.6-11.21-15.2-7.18-4.76-16.46-5.07-24.77-4.89s-16.41.73-24.58,1.57c-17.42,1.78-34.71,4.64-51.94,7.75-18.21,3.28-36.39,6.79-54.74,9.26l4-.54c-18.94,2.53-38,3.45-57,6.24a155,155,0,0,0-25.53,5.75c-9.84,3.22-20,7.35-27.39,14.88-13.07,13.34-14.56,32.91-14.1,50.59a129.86,129.86,0,0,0,2.95,25.32,66.14,66.14,0,0,0,3.23,10.3,63.84,63.84,0,0,0,6.22,12.32,57.33,57.33,0,0,0,21.79,19.27,104.45,104.45,0,0,0,27.66,9c18.85,3.41,37.86,3.15,56.93,2.76s38.24-.83,57.33-2c9.3-.59,18.63-1.25,27.88-2.45a127.59,127.59,0,0,0,16.14-2.82,74.5,74.5,0,0,0,15.07-5.83c8.08-4.17,15.17-10.42,21.38-17,5.79-6.14,11.28-12.63,16.61-19.17,6.22-7.61,12.11-15.47,16.78-24.14,4.57-8.48,8.22-17.44,11.86-26.34,1.62-4,3.22-7.92,4.88-11.85l-1.52,3.58c3.39-8,7.41-15.58,11.33-23.31A85.8,85.8,0,0,0,435,120.78a57.92,57.92,0,0,0,1.6-9,25,25,0,0,0-.47-10,19,19,0,0,0-9.52-11.93A38,38,0,0,0,417.41,87q-7-1.51-14.08-2.85-13.56-2.57-27.23-4.45a570.27,570.27,0,0,0-115.25-4.44,583.39,583.39,0,0,0-66.14,8.23c-3.51.64-7.23,3.92-9,6.89A15.36,15.36,0,0,0,184.23,102c1.18,3.63,3.43,7.13,6.9,9l3.58,1.51a15.18,15.18,0,0,0,8,0Z"/><path class="cls-3" d="M459.21,326.69c45.88-7.46,91.65-17.24,136-31.71,12.27-4,24.51-8.08,36.87-11.74"/><path class="cls-5" d="M121.77,310.74a253.73,253.73,0,0,0-16.6,33.44,2.51,2.51,0,0,0,1.74,3.08,2.57,2.57,0,0,0,3.08-1.75,244.27,244.27,0,0,1,16.1-32.25c1.64-2.77-2.68-5.29-4.32-2.52Z"/><path class="cls-5" d="M124.14,314.32c-.49,0-.43-.42-.13.11.13.22.31.42.46.63l1.57,2.22,3.15,4.44,6.25,8.82c3.89,5.49,7.73,11,10.46,17.23a2.53,2.53,0,0,0,3.42.9,2.56,2.56,0,0,0,.9-3.42c-3-6.77-7.3-12.79-11.56-18.79l-6.87-9.69c-1.1-1.54-2.19-3.1-3.29-4.64s-2.35-2.86-4.36-2.81c-3.21.09-3.23,5.09,0,5Z"/><path class="cls-5" d="M106.89,348.47a302.89,302.89,0,0,1,40.52,1.16,2.52,2.52,0,0,0,2.5-2.5,2.56,2.56,0,0,0-2.5-2.5,302.89,302.89,0,0,0-40.52-1.16c-3.21.13-3.23,5.13,0,5Z"/><path class="cls-5" d="M114.31,344.73c2.64-4.47,5-9.13,7.41-13.7,2.37-4.42,5.38-8.88,5.93-14a2.5,2.5,0,0,0-1.84-2.41A2.6,2.6,0,0,0,123,315.8a34,34,0,0,0-5.12,11.32c-.78,3.12,4,4.45,4.82,1.32a30,30,0,0,1,4.62-10.11l-4.66-1.26a16.73,16.73,0,0,1-2.24,5.83q-1.72,3.24-3.47,6.47c-2.3,4.28-4.48,8.65-6.94,12.84-1.64,2.77,2.68,5.29,4.31,2.52Z"/><path class="cls-5" d="M124.46,320.49c5.84,8.2,9.14,18.42,17.19,24.91l2.43-4.18A103.72,103.72,0,0,0,128.89,339q-3.72-.25-7.46-.23c-2.26,0-4.94-.22-6.9,1.1a2.57,2.57,0,0,0-1.15,2.82,2.51,2.51,0,0,0,2.41,1.84,5,5,0,0,0,4.47-4.46,8.44,8.44,0,0,1,.61-2.67c.43-.84,1-1.59,1.47-2.41a39.26,39.26,0,0,0,2.1-4.9,8.42,8.42,0,0,1,2.26-3.7L123,324.93a45.09,45.09,0,0,0,10.05,17.47l1.77-4.27a18.75,18.75,0,0,1-5.9-1.52,20.25,20.25,0,0,0-3.07-.86,16.07,16.07,0,0,0-1.83-.24c-.27,0-.53,0-.8,0-.57,0-.4.08.49.32l.65,1.11c.22.88.23-.14.35-.51l.54-1.61,1-3-4.91-.67a13.24,13.24,0,0,0,2.62,7.49,2.59,2.59,0,0,0,3.42.9,2.51,2.51,0,0,0,.9-3.42,8.72,8.72,0,0,1-1.94-5,2.51,2.51,0,0,0-4.91-.66l-1.08,3.22a13.51,13.51,0,0,0-.94,3.28,3.16,3.16,0,0,0,1.44,3,5.63,5.63,0,0,0,3,.56,18.06,18.06,0,0,1,5.11,1.4,18.26,18.26,0,0,0,5.89,1.22,2.53,2.53,0,0,0,1.77-4.27,39.44,39.44,0,0,1-8.77-15.26c-.43-1.38-2.33-2.51-3.67-1.5-3,2.26-4,5.4-5.35,8.72-.61,1.46-1.54,2.69-2.28,4.08a9.23,9.23,0,0,0-1,3c-.07.44-.09.91-.19,1.35-.18.76-.31.43.43.34l1.26,4.66a3.5,3.5,0,0,1,2-.38c1.12,0,2.25,0,3.37,0q3.49,0,7,.27a94.6,94.6,0,0,1,13.39,2c2.21.48,4.52-2.49,2.43-4.18-7.7-6.2-10.82-16-16.42-23.89a2.56,2.56,0,0,0-3.42-.9,2.52,2.52,0,0,0-.89,3.42Z"/><path class="cls-5" d="M216.36,364a253.73,253.73,0,0,0-16.6,33.44,2.52,2.52,0,0,0,1.75,3.08,2.56,2.56,0,0,0,3.07-1.75,246.75,246.75,0,0,1,16.1-32.25c1.65-2.78-2.67-5.29-4.32-2.52Z"/><path class="cls-5" d="M218.73,367.58c-.49,0-.43-.42-.12.11.12.21.3.42.45.63l1.57,2.22,3.15,4.44c2.09,2.94,4.17,5.87,6.25,8.82,3.9,5.49,7.73,11.05,10.47,17.23a2.52,2.52,0,0,0,3.42.9,2.56,2.56,0,0,0,.89-3.42c-3-6.77-7.3-12.79-11.56-18.79L226.38,370c-1.1-1.54-2.18-3.1-3.29-4.64s-2.34-2.86-4.36-2.81c-3.21.09-3.22,5.09,0,5Z"/><path class="cls-5" d="M201.48,401.73A302.79,302.79,0,0,1,242,402.89a2.51,2.51,0,0,0,2.5-2.5,2.55,2.55,0,0,0-2.5-2.5,302.79,302.79,0,0,0-40.52-1.16c-3.21.13-3.22,5.13,0,5Z"/><path class="cls-5" d="M208.91,398c2.63-4.47,5-9.13,7.4-13.7s5.39-8.88,5.93-14a2.49,2.49,0,0,0-1.83-2.41,2.61,2.61,0,0,0-2.83,1.14,34.2,34.2,0,0,0-5.12,11.32c-.77,3.12,4,4.45,4.82,1.32a30.24,30.24,0,0,1,4.62-10.11l-4.66-1.26a16.54,16.54,0,0,1-2.24,5.83q-1.73,3.24-3.47,6.47c-2.29,4.28-4.47,8.65-6.94,12.84-1.64,2.77,2.68,5.29,4.32,2.52Z"/><path class="cls-5" d="M219.05,373.75c5.85,8.2,9.14,18.42,17.2,24.91l2.43-4.18a103.85,103.85,0,0,0-15.2-2.19q-3.72-.26-7.46-.23c-2.25,0-4.93-.22-6.9,1.1A2.6,2.6,0,0,0,208,396a2.51,2.51,0,0,0,2.42,1.84,5,5,0,0,0,4.46-4.46,8.72,8.72,0,0,1,.61-2.67c.43-.84,1-1.59,1.47-2.41a37.88,37.88,0,0,0,2.11-4.9,8.4,8.4,0,0,1,2.25-3.7l-3.67-1.49a45.34,45.34,0,0,0,10,17.47l1.77-4.27a18.69,18.69,0,0,1-5.89-1.52,20.58,20.58,0,0,0-3.07-.86,16.55,16.55,0,0,0-1.84-.24c-.26,0-.53,0-.79,0-.57,0-.41.08.49.32l.64,1.11c.22.88.23-.14.36-.51l.53-1.61,1-3-4.91-.67a13.25,13.25,0,0,0,2.63,7.49,2.58,2.58,0,0,0,3.42.9,2.51,2.51,0,0,0,.89-3.42,8.72,8.72,0,0,1-1.94-5,2.51,2.51,0,0,0-4.91-.66L215,387a13.53,13.53,0,0,0-.95,3.28,3.19,3.19,0,0,0,1.45,3,5.59,5.59,0,0,0,3,.56,18,18,0,0,1,5.11,1.4,18.37,18.37,0,0,0,5.89,1.22,2.53,2.53,0,0,0,1.77-4.27,39.44,39.44,0,0,1-8.77-15.26c-.42-1.38-2.33-2.51-3.67-1.5-3,2.26-4,5.4-5.34,8.72-.61,1.46-1.55,2.69-2.28,4.08a9,9,0,0,0-1,3c-.07.44-.09.91-.19,1.35-.17.76-.31.43.44.34l1.26,4.66a3.46,3.46,0,0,1,2-.38c1.13,0,2.25-.05,3.37,0q3.5,0,7,.27a94.6,94.6,0,0,1,13.39,2c2.21.48,4.53-2.49,2.43-4.18-7.7-6.2-10.82-16-16.41-23.89a2.57,2.57,0,0,0-3.42-.9,2.51,2.51,0,0,0-.9,3.42Z"/><path class="cls-5" d="M324.05,350.45a252.68,252.68,0,0,0-16.61,33.45,2.51,2.51,0,0,0,1.75,3.07,2.55,2.55,0,0,0,3.07-1.74A246.87,246.87,0,0,1,328.36,353c1.65-2.77-2.67-5.29-4.31-2.52Z"/><path class="cls-5" d="M326.41,354c-.49,0-.43-.41-.12.11a5.55,5.55,0,0,0,.45.63l1.57,2.22,3.15,4.44,6.26,8.82c3.89,5.49,7.73,11.05,10.46,17.23a2.51,2.51,0,0,0,3.42.9,2.56,2.56,0,0,0,.89-3.42c-3-6.76-7.3-12.79-11.56-18.79l-6.87-9.68c-1.09-1.55-2.18-3.1-3.29-4.64s-2.34-2.87-4.36-2.82c-3.21.09-3.22,5.09,0,5Z"/><path class="cls-5" d="M309.16,388.19a299.5,299.5,0,0,1,40.52,1.16,2.51,2.51,0,0,0,2.5-2.5,2.55,2.55,0,0,0-2.5-2.5,299.5,299.5,0,0,0-40.52-1.16c-3.2.12-3.22,5.12,0,5Z"/><path class="cls-5" d="M316.59,384.44c2.63-4.46,5-9.13,7.41-13.7s5.38-8.87,5.92-14a2.51,2.51,0,0,0-1.83-2.41,2.6,2.6,0,0,0-2.83,1.15,34.35,34.35,0,0,0-5.12,11.31c-.77,3.12,4.05,4.45,4.82,1.33A30.29,30.29,0,0,1,329.58,358l-4.66-1.26a16.46,16.46,0,0,1-2.24,5.83c-1.15,2.17-2.31,4.32-3.47,6.48-2.29,4.27-4.47,8.65-6.94,12.83-1.64,2.78,2.68,5.29,4.32,2.52Z"/><path class="cls-5" d="M326.73,360.2c5.85,8.21,9.14,18.42,17.2,24.91l2.43-4.18a106.63,106.63,0,0,0-15.2-2.19q-3.72-.25-7.46-.23c-2.25,0-4.93-.21-6.89,1.1a2.58,2.58,0,0,0-1.15,2.83,2.49,2.49,0,0,0,2.41,1.83,5,5,0,0,0,4.46-4.46,8.45,8.45,0,0,1,.62-2.67c.42-.84,1-1.59,1.46-2.41a37.88,37.88,0,0,0,2.11-4.9,8.32,8.32,0,0,1,2.25-3.69l-3.67-1.5a45.24,45.24,0,0,0,10.06,17.47l1.76-4.27a19,19,0,0,1-5.89-1.51,20.62,20.62,0,0,0-3.07-.87,14.45,14.45,0,0,0-1.84-.23c-.26,0-.53,0-.79,0-.57,0-.41.08.49.33l.64,1.1c.22.89.23-.13.36-.5l.54-1.62,1-3-4.91-.67a13.27,13.27,0,0,0,2.63,7.49,2.58,2.58,0,0,0,3.42.9,2.53,2.53,0,0,0,.9-3.42,8.67,8.67,0,0,1-1.95-5,2.51,2.51,0,0,0-4.91-.66l-1.07,3.22a13.66,13.66,0,0,0-1,3.28,3.2,3.2,0,0,0,1.45,3,5.68,5.68,0,0,0,3,.55,17.88,17.88,0,0,1,5.11,1.4,18.37,18.37,0,0,0,5.89,1.22,2.53,2.53,0,0,0,1.77-4.27,39.36,39.36,0,0,1-8.77-15.26c-.42-1.38-2.33-2.51-3.67-1.49-3,2.25-4,5.4-5.34,8.71-.61,1.46-1.54,2.7-2.28,4.08a9,9,0,0,0-1,3c-.06.44-.09.91-.19,1.35-.17.76-.31.44.44.34l1.26,4.66a3.46,3.46,0,0,1,2-.37c1.13,0,2.25-.05,3.38-.05q3.48,0,7,.27a96.14,96.14,0,0,1,13.38,2c2.21.49,4.53-2.49,2.43-4.17-7.7-6.21-10.82-16.05-16.41-23.9a2.57,2.57,0,0,0-3.42-.9,2.52,2.52,0,0,0-.9,3.42Z"/><path class="cls-6" d="M140.37,88.26c4-.85,7.42-3.16,11.27-4.41a8.6,8.6,0,0,1,5.21-.32,14.28,14.28,0,0,1,4.39,2.68,25.15,25.15,0,0,0,5,3.36,14.75,14.75,0,0,0,6.81,1.28c4.8-.26,9.24-2.32,13.47-4.45,2.87-1.45.34-5.76-2.52-4.32-3.84,1.94-8,4-12.42,3.77-4-.17-6.63-3.29-9.72-5.35A13,13,0,0,0,150.31,79C146.46,80.28,143,82.6,139,83.44c-3.14.67-1.81,5.49,1.33,4.82Z"/><path class="cls-6" d="M246.79,87.61c6.06-3.15,14.17-6,20.79-2.83a46.6,46.6,0,0,1,4.9,3.12,19.47,19.47,0,0,0,5.29,2.41A19.71,19.71,0,0,0,289.59,90a2.57,2.57,0,0,0,1.75-3.07,2.53,2.53,0,0,0-3.08-1.75A15,15,0,0,1,277.54,85a28.62,28.62,0,0,1-4.87-3,20.27,20.27,0,0,0-5.42-2.67c-7.72-2.39-16.1.4-23,4-2.85,1.48-.33,5.8,2.53,4.32Z"/><path class="cls-6" d="M85.43,159.17l10.74-4.59,5.37-2.3a7.62,7.62,0,0,1,2.35-.84,1.83,1.83,0,0,1,1.36.59,52.7,52.7,0,0,0,8.1,6.05A39.14,39.14,0,0,0,123,161.9c3.13.77,4.46-4.05,1.33-4.82a34.4,34.4,0,0,1-9.74-4.05,32,32,0,0,1-4.19-3.05c-1.32-1.15-2.52-2.49-4.18-3.14a7.53,7.53,0,0,0-5.73.49c-2,.84-4,1.7-6,2.55l-11.64,5a2.52,2.52,0,0,0-.89,3.42,2.56,2.56,0,0,0,3.42.89Z"/><path class="cls-6" d="M348.08,98.43,361,94.73c4-1.15,8.18-2.74,12.39-2.88,7.06-.25,11.84,6.23,18.76,6.77a13.36,13.36,0,0,0,5.94-1.13c1.82-.74,3.7-1.76,5.69-1.89a2.56,2.56,0,0,0,2.5-2.5,2.51,2.51,0,0,0-2.5-2.5,16.68,16.68,0,0,0-5.5,1.43,15.45,15.45,0,0,1-5.08,1.61c-3.05.12-5.76-1.74-8.28-3.21-3.32-1.93-6.69-3.51-10.6-3.59-4.35-.09-8.61,1.34-12.74,2.52l-14.79,4.25c-3.09.88-1.77,5.71,1.33,4.82Z"/><path class="cls-6" d="M179.15,170.47a125.27,125.27,0,0,1,13.25-6.41c2.3-.94,4.62-1.82,7-2.62q1.77-.62,3.54-1.17a8.79,8.79,0,0,1,3.15-.62c1.89.14,3.45,2,5,2.94a21.64,21.64,0,0,0,6.07,2.56,22.25,22.25,0,0,0,13.07-.63,2.56,2.56,0,0,0,1.75-3.07,2.53,2.53,0,0,0-3.08-1.75,17.34,17.34,0,0,1-9.24.89c-3.39-.65-5.9-2.25-8.68-4.2a8.75,8.75,0,0,0-5.33-1.74,22.32,22.32,0,0,0-6,1.44c-3.75,1.24-7.43,2.66-11.05,4.22a131.24,131.24,0,0,0-11.91,5.84c-2.82,1.56-.3,5.88,2.52,4.32Z"/><path class="cls-6" d="M284.88,176.43a46.63,46.63,0,0,1,9.05-7.59c2.86-1.81,6.59-4.32,10.15-3.93s6.55,2.94,9.65,4.5c3.85,2,7.92,2.89,12,1.15a2.51,2.51,0,0,0,.9-3.42,2.57,2.57,0,0,0-3.42-.9c-3.27,1.39-7.2-1.22-9.89-2.79-3.45-2-7.2-4-11.33-3.48s-8,2.8-11.31,5a52,52,0,0,0-9.35,7.9c-2.19,2.36,1.34,5.9,3.54,3.54Z"/><path class="cls-6" d="M373.5,177.5A102,102,0,0,1,385,174.09a35.94,35.94,0,0,1,5.62-1.07,10.6,10.6,0,0,1,5,1.22,28.81,28.81,0,0,0,21.81.75,2.57,2.57,0,0,0,1.75-3.07,2.53,2.53,0,0,0-3.08-1.75,24.45,24.45,0,0,1-10.4,1.6c-3.69-.24-6.8-1.68-10.2-3-3.89-1.47-7.88-.44-11.78.46a102,102,0,0,0-11.47,3.41,2.56,2.56,0,0,0-1.74,3.08,2.52,2.52,0,0,0,3.07,1.74Z"/><path class="cls-6" d="M118.26,229.7c3.51.26,6.86-.93,10.1-2.12,2.78-1,6-2.38,9-1.56,3.34.92,5.74,3.91,9,5.12,4.08,1.5,8.47.33,12.44-.92,3.06-1,1.75-5.79-1.33-4.82-3.58,1.13-7.42,2.36-10.9.32-3-1.72-5.42-4.18-8.94-4.74s-6.67.37-9.84,1.52-6.16,2.45-9.49,2.2a2.52,2.52,0,0,0-2.5,2.5,2.56,2.56,0,0,0,2.5,2.5Z"/><path class="cls-6" d="M251.75,230.3c7.19-2.67,16.33-6.16,23.81-2.55,2,.94,3.69,2.25,5.71,3.08a17.85,17.85,0,0,0,6.68,1.08,124.19,124.19,0,0,0,14.69-.76,2.57,2.57,0,0,0,2.5-2.5,2.51,2.51,0,0,0-2.5-2.5,119.42,119.42,0,0,1-15.13.76,11.71,11.71,0,0,1-5.8-1.4,38.65,38.65,0,0,0-5.75-3c-8.35-3.08-17.62,0-25.54,2.95a2.57,2.57,0,0,0-1.75,3.08,2.52,2.52,0,0,0,3.08,1.74Z"/><path class="cls-6" d="M178.88,285.89c3.93,1.05,7.7-.2,11.44-1.39a18.41,18.41,0,0,1,5.17-1.13,9.38,9.38,0,0,1,5.07,1.65c3.47,2.07,6.74,4.09,10.95,3.8a14.18,14.18,0,0,0,10.07-5,2.57,2.57,0,0,0,0-3.53,2.52,2.52,0,0,0-3.54,0,9.37,9.37,0,0,1-7.75,3.55c-3.55-.13-6.21-2.86-9.3-4.25-3.66-1.66-7.33-1.34-11.09-.2-3.07.93-6.44,2.55-9.69,1.68s-4.44,4-1.33,4.82Z"/><path class="cls-6" d="M315.93,289.54a35.81,35.81,0,0,1,8.9-4.12c3.12-.93,6.35-1.59,9.57-.82,3.5.83,6.77,2,10.39,2.32a32.6,32.6,0,0,0,10.73-.93c3.12-.79,1.8-5.61-1.33-4.82a27.6,27.6,0,0,1-10.32.65c-3.64-.47-7-2.05-10.64-2.47a25.22,25.22,0,0,0-10.35,1.45,40.86,40.86,0,0,0-9.47,4.42c-2.71,1.72-.21,6,2.52,4.32Z"/><path class="cls-6" d="M367.32,233.4a19.34,19.34,0,0,0,8.53-2.88c2.41-1.4,4.71-3.13,7.32-4.14,3.32-1.29,6.77-.75,10.17-.08l11.73,2.37a2.58,2.58,0,0,0,3.08-1.75,2.52,2.52,0,0,0-1.75-3.07c-4-.81-8-1.62-12-2.41-3.8-.76-7.78-1.36-11.58-.22a34,34,0,0,0-8,4.05c-2.31,1.42-4.78,3-7.56,3.13-3.2.2-3.22,5.2,0,5Z"/><path class="cls-7" d="M52.12,267.15c9.11,12.38,24.63,18.17,39.61,21.59S122.38,294,136,301.15c7.13,3.75,13.5,8.88,20.81,12.26,10.2,4.7,21.64,5.75,32.82,6.73,44.33,3.89,88.93,7.77,133.26,3.87,10.07-.89,20.31-2.23,29.42-6.61,11.12-5.34,19.72-14.78,30.23-21.23,7.52-4.62,16.1-7.77,22.37-14,7-6.94,10.16-16.74,14.64-25.52,5.69-11.14,13.7-20.91,20.34-31.52,30.81-49.28,30.14-113.34,61-162.62"/><path class="cls-8" d="M47.12,270.68c9.32,12.38,25.22,18.16,40.56,21.59s31.38,5.25,45.31,12.41c7.3,3.75,13.82,8.88,21.31,12.26,10.44,4.7,22.16,5.75,33.61,6.73,45.39,3.88,91.07,7.77,136.46,3.87,10.31-.89,20.8-2.23,30.13-6.61,11.38-5.34,20.18-14.78,30.95-21.23,7.7-4.62,16.49-7.78,22.91-14,7.17-6.94,10.4-16.74,15-25.52,5.83-11.15,14-20.92,20.82-31.52C475.73,179.38,475,115.32,506.6,66"/><path class="cls-9" d="M487.39,16.66,476.1,46.33l-5.56,14.6c-.91,2.4-1.87,4.78-2.73,7.2a15.36,15.36,0,0,0-1,6.21,9.09,9.09,0,0,0,4.48,7.46c2.48,1.39,5.34,1.34,8.08,1.2,5.44-.26,10.85-.84,16.23-1.63,2.63-.38,5.55-.51,7.51-2.55,2.41-2.51,1.65-6,1.41-9.12q-.61-7.9-1.37-15.79-1.72-18.06-4.17-36c-.51-3.74-6.06-4.77-8.36-2.21-7,7.75-10.36,17.57-13.33,27.39-1.4,4.63-2.76,9.28-4.55,13.78-.12.3-.24.61-.37.91s-.37.88,0,0l-1.11,2.63a39.79,39.79,0,0,0-1.46,4,17.42,17.42,0,0,0-.5,9.3,7.71,7.71,0,0,0,4.37,5.16,14.65,14.65,0,0,0,5.89.69l10.26,0a5.12,5.12,0,0,0,5-5,262.57,262.57,0,0,0,.3-34.81A5.05,5.05,0,0,0,492,35.09a5,5,0,0,0-5.46,1c-6.46,7.24-13.3,15.59-12.7,25.93a20.74,20.74,0,0,0,1.94,7.74c1.45,3.1,4.64,5.67,8.25,4.6,4-1.19,4.61-5.58,4.63-9.17a24.86,24.86,0,0,0-1.3-8c-.84-2.47-3.47-4.35-6.15-3.49-2.45.8-4.39,3.5-3.49,6.15a22.07,22.07,0,0,1,.68,2.41c.07.37.14.74.2,1.11-.18-1.1,0,.35,0,.48a21.46,21.46,0,0,1,0,2.27c0,.45-.06.91-.12,1.35l.05-.43c-.13.56-.1.51.07-.17l1.79-1.79,4.41.51c-.31-.32-.33-.33-.06,0,.49.41-.07-.25-.19-.48-.27-.5-.11-.3,0,.09-.11-.32-.23-.62-.33-.94s-.58-1.57-.41-1.75c-.17.19.08.93,0-.06,0-.27,0-.53,0-.8a17.2,17.2,0,0,1,0-2c0-.12.1-1,0-.34s.08-.4.11-.55A29.87,29.87,0,0,1,485.11,55c.23-.69-.37.74,0,.05.16-.32.31-.66.47-1,.29-.59.61-1.16.94-1.72.7-1.2,1.48-2.33,2.29-3.45.26-.36.31-.42,0,0,.22-.29.45-.57.68-.86.41-.51.83-1,1.26-1.52.95-1.11,1.92-2.2,2.9-3.3l-8.54-3.53a262.57,262.57,0,0,1-.3,34.81l5-5-8.3,0c-1.3,0-2.61,0-3.91,0a3.21,3.21,0,0,1-.83,0c.78.62.15-.89,1.72.81.2.22.4.92.55,1-.08-.07-.37-1.25-.15-.39s0-.12,0-.35,0-.57,0-.86,0-.58.06-.87c.05-.75-.21.77,0,.05.36-1.2.6-2.41,1-3.59.21-.55.42-1.1.65-1.65.11-.28.23-.55.34-.83-.35.85-.05.13,0,0,.6-1.41,1.19-2.82,1.74-4.25,3.13-8.16,5-16.73,8.26-24.84.35-.87,0,0-.05.12a9.15,9.15,0,0,1,.47-1.07c.24-.53.49-1.05.75-1.58.53-1.09,1.11-2.17,1.73-3.23s1.22-2,1.89-2.91l.45-.63c.77-1.05-.67.78.17-.22.42-.5.84-1,1.28-1.48l-8.36-2.21c-.07-.51-.06-.46,0,.15,0,.33.09.65.13,1,.07.49.13,1,.19,1.47l.45,3.44c.29,2.3.57,4.59.84,6.89q.82,7,1.55,14t1.31,13.81c.21,2.3.4,4.61.58,6.91l.27,3.46c0,.58.09,1.15.13,1.73,0,.27,0,.55,0,.82q.29-1.17,0-.39l1.28-2.21c-.76,1,2-.62,1.08-.6a4.22,4.22,0,0,0-.69.14l-2.14.35-1.92.28c.08,0-1.48.2-.77.11l-1,.13q-4.32.52-8.65.81c-1.37.09-2.74.17-4.11.22-.39,0-1.58.2-1.93,0,.19.12,1.08,0,.2,0l-.36-.1c.61.29.67.29.19,0,.1.07.82.67.24.1.67.66.48.6.28.23.5.89.33.7.2.32-.32-.88-.14.71,0,.22a7.41,7.41,0,0,1,0-.84s-.26,1.3,0,.31a16.44,16.44,0,0,1,.43-1.71c.81-2.64,1.94-5.21,2.92-7.79l3.26-8.57,6.44-16.92,7.23-19c.94-2.45-1-5.59-3.49-6.15a5.14,5.14,0,0,0-6.15,3.49Z"/><path class="cls-5" d="M486,60.75a240.41,240.41,0,0,1-4.92,33c-.69,3.14,4.13,4.48,4.83,1.33A251.81,251.81,0,0,0,491,60.75a2.5,2.5,0,0,0-5,0Z"/><path class="cls-9" d="M526.66,3.64,515.37,33.31l-5.56,14.6c-.91,2.4-1.87,4.78-2.73,7.2a15.12,15.12,0,0,0-1,6.2,9.11,9.11,0,0,0,4.48,7.47c2.47,1.39,5.34,1.33,8.08,1.2,5.43-.26,10.84-.84,16.23-1.63,2.63-.38,5.55-.51,7.51-2.55,2.41-2.51,1.65-6,1.4-9.12q-.62-7.91-1.36-15.8c-1.15-12-2.57-24-4.18-36-.5-3.74-6.05-4.76-8.36-2.2-7,7.75-10.35,17.57-13.32,27.39-1.41,4.63-2.77,9.28-4.55,13.78-.12.3-.25.6-.37.91s-.37.88,0,0l-1.11,2.63a38.89,38.89,0,0,0-1.46,4,17.32,17.32,0,0,0-.51,9.3,7.77,7.77,0,0,0,4.37,5.16,14.88,14.88,0,0,0,5.9.69l10.25,0a5.11,5.11,0,0,0,5-5,260.88,260.88,0,0,0,.31-34.81,5.06,5.06,0,0,0-3.07-4.57,5,5,0,0,0-5.47,1c-6.46,7.24-13.29,15.59-12.69,25.93a20.59,20.59,0,0,0,1.94,7.74c1.45,3.09,4.63,5.67,8.25,4.6,4-1.19,4.61-5.58,4.63-9.17a24.86,24.86,0,0,0-1.3-8c-.84-2.47-3.48-4.35-6.15-3.49-2.46.79-4.39,3.5-3.49,6.15a22.5,22.5,0,0,1,.67,2.4c.08.37.15.75.21,1.12-.19-1.1,0,.34,0,.48a19.09,19.09,0,0,1,0,2.27c0,.45,0,.91-.11,1.35l0-.43c-.12.56-.1.5.07-.17l1.8-1.79,4.4.51c-.31-.32-.33-.33-.06,0,.49.42-.06-.25-.19-.48-.26-.49-.11-.3,0,.1-.1-.32-.22-.63-.32-.94s-.58-1.57-.41-1.75c-.18.19.08.93,0-.06,0-.27,0-.54,0-.81a19.53,19.53,0,0,1,0-2c0-.12.1-1,0-.35s.08-.4.1-.54A28.44,28.44,0,0,1,524.38,42c.23-.69-.37.75,0,.06.16-.32.3-.66.47-1,.29-.58.6-1.15.93-1.72.7-1.19,1.49-2.32,2.3-3.45.25-.35.31-.42,0,0,.23-.29.46-.57.68-.86.42-.51.84-1,1.27-1.52q1.43-1.66,2.9-3.3l-8.54-3.53a260.88,260.88,0,0,1-.31,34.81l5-5-8.3,0c-1.3,0-2.6,0-3.9,0a3.24,3.24,0,0,1-.83,0c.78.62.14-.89,1.71.81.2.21.41.91.55,1-.07-.06-.37-1.24-.15-.38s0-.12,0-.35,0-.58,0-.87,0-.57.06-.86c0-.75-.21.77,0,0,.36-1.19.6-2.4,1-3.58.2-.55.42-1.11.65-1.66.11-.27.22-.55.34-.82-.36.85-.06.13,0,0,.6-1.41,1.2-2.81,1.75-4.24,3.12-8.16,5-16.73,8.26-24.84.35-.87,0,0,0,.12a6.81,6.81,0,0,1,.47-1.07c.24-.53.49-1.06.74-1.58.54-1.1,1.12-2.18,1.74-3.23S534.37,13,535,12l.46-.62c.76-1.06-.67.78.17-.22.42-.5.84-1,1.28-1.48l-8.36-2.21c-.07-.51-.06-.46,0,.15,0,.32.08.65.13,1,.06.49.13,1,.19,1.47.15,1.15.3,2.3.44,3.44.29,2.3.57,4.59.85,6.89q.82,7,1.55,14t1.31,13.82q.3,3.45.58,6.91l.27,3.46.12,1.73c0,.27.05.54.06.82.19-.78.18-.91,0-.39l1.29-2.21c-.77,1,2-.62,1.08-.6a4.19,4.19,0,0,0-.69.13c-.72.13-1.43.24-2.15.35l-1.91.29c.08,0-1.49.2-.77.11.5-.07-.84.1-1,.12q-4.32.54-8.66.82c-1.36.09-2.73.17-4.1.21a5.43,5.43,0,0,1-1.93,0c.18.11,1.08,0,.19,0l-.36-.1c.62.28.68.29.19,0,.11.08.83.68.25.11.67.66.48.59.27.23.51.89.34.7.2.32-.31-.88-.13.71,0,.22,0-.09,0-.84,0-.84s-.26,1.3,0,.3c.12-.57.25-1.14.42-1.7.82-2.64,1.94-5.21,2.92-7.79l3.27-8.58,6.44-16.91,7.23-19c.93-2.45-1-5.59-3.49-6.15a5.14,5.14,0,0,0-6.15,3.49Z"/><path class="cls-5" d="M525.27,47.73a242.18,242.18,0,0,1-4.92,33c-.69,3.13,4.13,4.47,4.82,1.33a252.06,252.06,0,0,0,5.1-34.35,2.5,2.5,0,0,0-5,0Z"/><path class="cls-10" d="M504.92,38.54,493.63,68.2l-5.56,14.6c-.91,2.4-1.87,4.79-2.73,7.2a15.19,15.19,0,0,0-1,6.21,9.08,9.08,0,0,0,4.48,7.46c2.47,1.39,5.34,1.34,8.08,1.21,5.44-.27,10.85-.84,16.23-1.63,2.63-.39,5.55-.52,7.51-2.56,2.41-2.51,1.65-6,1.4-9.11q-.6-7.9-1.36-15.8-1.73-18.06-4.18-36c-.5-3.74-6.05-4.77-8.35-2.21-7,7.76-10.36,17.58-13.33,27.39-1.4,4.63-2.76,9.28-4.55,13.78-.12.31-.25.61-.37.91s-.37.89,0,0l-1.11,2.63a40,40,0,0,0-1.46,4,17.31,17.31,0,0,0-.51,9.3,7.74,7.74,0,0,0,4.37,5.15,14.7,14.7,0,0,0,5.9.69l10.25,0a5.11,5.11,0,0,0,5-5,261,261,0,0,0,.31-34.82A5.08,5.08,0,0,0,509.56,57a5,5,0,0,0-5.47,1c-6.46,7.24-13.29,15.58-12.69,25.92a20.5,20.5,0,0,0,1.94,7.74c1.45,3.1,4.63,5.67,8.25,4.6,4-1.19,4.61-5.58,4.63-9.17a24.8,24.8,0,0,0-1.3-8c-.84-2.47-3.48-4.36-6.15-3.49-2.46.79-4.39,3.49-3.49,6.15a21.86,21.86,0,0,1,.67,2.4c.08.37.15.74.21,1.12-.19-1.11,0,.34,0,.47a19.11,19.11,0,0,1,0,2.27c0,.45-.05.91-.11,1.36l0-.43c-.12.56-.1.5.08-.17L498,87l4.4.52c-.31-.33-.33-.33-.06,0,.49.41-.06-.25-.19-.48-.26-.49-.1-.3,0,.09-.1-.31-.22-.62-.32-.94s-.58-1.56-.41-1.74c-.18.18.08.93,0-.07,0-.26,0-.53-.05-.8a19.46,19.46,0,0,1,.05-2c0-.12.1-1,0-.35s.08-.4.1-.55a28.75,28.75,0,0,1,1.09-3.72c.23-.69-.37.74,0,.06l.47-1c.29-.58.61-1.16.94-1.72.7-1.2,1.48-2.33,2.29-3.45.25-.35.31-.42,0,0l.69-.86c.41-.52.83-1,1.26-1.52,1-1.12,1.92-2.21,2.9-3.3l-8.54-3.54a261,261,0,0,1-.31,34.82l5-5-8.3,0c-1.3,0-2.6,0-3.9,0a3.21,3.21,0,0,1-.83,0c.78.63.14-.89,1.71.81.2.22.41.92.55,1-.07-.06-.36-1.25-.15-.39s0-.12,0-.34,0-.58,0-.87,0-.58.06-.86c0-.76-.21.76,0,0,.36-1.19.6-2.4,1-3.58.2-.56.42-1.11.65-1.66.11-.28.22-.55.34-.83-.35.85-.05.13,0,0,.59-1.41,1.19-2.82,1.74-4.25,3.12-8.15,5-16.72,8.26-24.83.35-.88,0,0,0,.11a7.13,7.13,0,0,1,.47-1.06c.24-.53.49-1.06.74-1.58q.81-1.65,1.74-3.24c.59-1,1.21-2,1.88-2.91l.46-.63c.76-1.05-.67.79.17-.21.42-.5.84-1,1.28-1.49l-8.36-2.2c-.07-.51-.06-.46,0,.14,0,.33.09.66.13,1,.06.5.13,1,.19,1.48.15,1.14.3,2.29.44,3.44.29,2.29.58,4.59.85,6.88q.82,7,1.55,14t1.31,13.81c.2,2.3.4,4.61.58,6.91l.27,3.46c0,.58.08,1.16.13,1.73,0,.28,0,.55,0,.82.19-.77.18-.9,0-.39l1.29-2.2c-.77,1,2-.63,1.08-.61A5.63,5.63,0,0,0,514,93l-2.15.35-1.91.28-.77.11-1,.13q-4.32.53-8.66.81c-1.36.09-2.73.17-4.1.22a5.67,5.67,0,0,1-1.93,0c.18.11,1.08,0,.2,0l-.37-.11c.62.29.68.3.19,0,.11.07.83.67.25.1.67.66.48.6.27.24.51.89.34.7.2.32-.31-.89-.13.71,0,.21,0-.08,0-.83,0-.83s-.26,1.29,0,.3c.12-.58.25-1.14.42-1.71.82-2.64,1.94-5.2,2.92-7.78l3.27-8.58,6.44-16.92,7.23-19c.93-2.45-1-5.59-3.49-6.15a5.13,5.13,0,0,0-6.15,3.49Z"/><path class="cls-5" d="M503.53,82.62a242,242,0,0,1-4.92,33c-.69,3.14,4.13,4.48,4.82,1.33a251.83,251.83,0,0,0,5.1-34.35,2.5,2.5,0,0,0-5,0Z"/><path class="cls-9" d="M565.33,19.35,554,49l-5.56,14.6c-.91,2.4-1.87,4.78-2.73,7.2a15.12,15.12,0,0,0-1,6.2,9.11,9.11,0,0,0,4.48,7.47c2.47,1.39,5.34,1.33,8.08,1.2,5.43-.26,10.84-.84,16.23-1.63,2.63-.38,5.55-.51,7.51-2.55,2.41-2.51,1.65-6,1.4-9.12q-.62-7.9-1.36-15.8c-1.15-12-2.57-24-4.18-36-.5-3.74-6-4.76-8.36-2.2-7,7.75-10.35,17.57-13.32,27.39-1.41,4.63-2.77,9.28-4.55,13.78-.12.3-.25.6-.37.91s-.37.88,0,0l-1.11,2.63a38.89,38.89,0,0,0-1.46,3.95,17.32,17.32,0,0,0-.51,9.3,7.75,7.75,0,0,0,4.37,5.16,14.7,14.7,0,0,0,5.9.69l10.25,0a5.11,5.11,0,0,0,5-5A260.88,260.88,0,0,0,573,42.35,5.06,5.06,0,0,0,570,37.78a5,5,0,0,0-5.47,1C558,46.05,551.21,54.4,551.81,64.74a20.59,20.59,0,0,0,1.94,7.74c1.45,3.09,4.63,5.67,8.25,4.6,4-1.19,4.61-5.58,4.63-9.17a24.86,24.86,0,0,0-1.3-8c-.84-2.47-3.48-4.35-6.15-3.49-2.46.8-4.39,3.5-3.49,6.15a22.5,22.5,0,0,1,.67,2.4c.08.37.15.75.21,1.12-.19-1.1,0,.35,0,.48a19.09,19.09,0,0,1,0,2.27c0,.45-.05.91-.11,1.35l0-.43c-.12.56-.1.5.07-.17l1.8-1.79,4.4.51c-.31-.32-.33-.33-.06,0,.49.41-.06-.26-.19-.49-.26-.49-.11-.3,0,.1-.1-.32-.22-.63-.32-.94s-.58-1.57-.41-1.75c-.18.19.08.93,0-.06,0-.27,0-.54-.05-.8a19.65,19.65,0,0,1,.05-2c0-.12.1-1,0-.35s.08-.4.1-.54a28.44,28.44,0,0,1,1.09-3.73c.23-.69-.37.75,0,.06.16-.32.3-.66.47-1,.29-.59.6-1.16.93-1.73.7-1.19,1.49-2.32,2.3-3.45.25-.35.31-.41,0,0,.23-.29.46-.57.68-.86.42-.51.84-1,1.27-1.52q1.43-1.66,2.9-3.3L563,42.35a260.88,260.88,0,0,1-.31,34.81l5-5-8.3,0c-1.3,0-2.6,0-3.9,0a3.24,3.24,0,0,1-.83,0c.78.62.14-.89,1.71.81.2.22.41.92.55,1-.07-.07-.37-1.25-.15-.39s0-.12,0-.35,0-.58,0-.87,0-.57.06-.86c0-.75-.21.77,0,0,.36-1.19.6-2.4,1-3.58.2-.55.42-1.11.65-1.66.11-.27.22-.55.34-.82-.36.85-.06.13,0,0,.6-1.4,1.2-2.81,1.75-4.24,3.12-8.16,5-16.73,8.26-24.84.35-.87,0,0,0,.12a6.81,6.81,0,0,1,.47-1.07c.24-.53.49-1.06.74-1.58.54-1.1,1.12-2.18,1.74-3.23s1.21-2,1.88-2.92l.46-.62c.76-1.05-.67.78.17-.22.42-.5.84-1,1.28-1.48l-8.36-2.21c-.07-.51-.06-.46,0,.15,0,.32.08.65.13,1,.06.49.13,1,.19,1.47.15,1.15.3,2.3.44,3.44.29,2.3.57,4.59.85,6.89q.83,7,1.55,14T571.75,64q.3,3.45.58,6.91l.27,3.46.12,1.73c0,.27,0,.54.06.82.19-.78.18-.91,0-.39l1.29-2.21c-.77,1,2-.62,1.08-.6a4.19,4.19,0,0,0-.69.13c-.72.13-1.43.24-2.15.35l-1.91.29c.08,0-1.49.2-.77.11.5-.07-.84.1-1,.12q-4.32.54-8.66.82c-1.36.09-2.73.17-4.1.21-.4,0-1.59.21-1.93,0,.18.12,1.08,0,.19,0l-.36-.1c.62.28.68.29.19,0,.11.08.83.68.25.11.67.66.48.6.27.23.51.89.34.7.2.32-.31-.88-.13.71,0,.22,0-.09,0-.84,0-.84s-.26,1.3,0,.3c.12-.57.25-1.14.42-1.7.82-2.64,1.94-5.21,2.92-7.79l3.27-8.58L567.74,41,575,22c.93-2.45-1-5.59-3.49-6.15a5.14,5.14,0,0,0-6.15,3.49Z"/><path class="cls-5" d="M563.94,63.44a242.18,242.18,0,0,1-4.92,33c-.69,3.14,4.13,4.47,4.82,1.33a252.06,252.06,0,0,0,5.1-34.35,2.5,2.5,0,0,0-5,0Z"/><path class="cls-10" d="M540.7,38,529.41,67.71l-5.56,14.6c-.91,2.4-1.87,4.78-2.73,7.2a15.12,15.12,0,0,0-1,6.2,9.11,9.11,0,0,0,4.48,7.47c2.47,1.39,5.34,1.33,8.08,1.2,5.44-.26,10.85-.84,16.23-1.63,2.63-.38,5.55-.51,7.51-2.55,2.41-2.51,1.65-6,1.4-9.12q-.6-7.9-1.36-15.8-1.73-18-4.18-36c-.5-3.74-6-4.76-8.35-2.2-7,7.75-10.36,17.57-13.33,27.39-1.4,4.63-2.76,9.28-4.55,13.78-.12.3-.25.6-.37.91s-.37.88,0,0l-1.11,2.63a38.89,38.89,0,0,0-1.46,3.95,17.32,17.32,0,0,0-.51,9.3A7.75,7.75,0,0,0,527,100.2a14.7,14.7,0,0,0,5.9.69l10.25,0a5.11,5.11,0,0,0,5-5A260.88,260.88,0,0,0,548.41,61a5.06,5.06,0,0,0-3.07-4.57,5,5,0,0,0-5.47,1c-6.46,7.24-13.29,15.59-12.69,25.93a20.59,20.59,0,0,0,1.94,7.74c1.45,3.09,4.63,5.67,8.25,4.6,4-1.19,4.61-5.58,4.63-9.17a24.86,24.86,0,0,0-1.3-8c-.84-2.47-3.48-4.35-6.15-3.49-2.46.8-4.39,3.5-3.49,6.15a22.5,22.5,0,0,1,.67,2.4c.08.37.15.75.21,1.12-.18-1.1,0,.35,0,.48a19.09,19.09,0,0,1,0,2.27c0,.45-.05.91-.11,1.35l0-.43c-.12.56-.1.5.08-.17l1.79-1.79,4.4.51c-.31-.32-.33-.33-.06,0,.5.41-.06-.25-.19-.49-.26-.49-.1-.3,0,.1-.1-.32-.22-.63-.32-.94s-.58-1.57-.41-1.75c-.18.19.08.93,0-.06,0-.27,0-.54-.05-.8a19.65,19.65,0,0,1,.05-2c0-.12.1-1,0-.34s.08-.41.1-.55a28.44,28.44,0,0,1,1.09-3.73c.23-.68-.37.75,0,.06.16-.32.31-.66.47-1,.29-.59.61-1.16.94-1.73.7-1.19,1.48-2.32,2.29-3.45.25-.35.31-.41,0,0l.69-.86c.41-.51.83-1,1.26-1.52q1.43-1.66,2.9-3.3L538.41,61a260.88,260.88,0,0,1-.31,34.81l5-5-8.3,0c-1.3,0-2.6,0-3.9,0a3.72,3.72,0,0,1-.83,0c.78.62.14-.89,1.71.81.21.22.41.92.55,1-.07-.07-.36-1.25-.15-.39s0-.12,0-.35,0-.58,0-.87,0-.57.06-.86c0-.75-.21.77,0,0,.36-1.2.6-2.41,1-3.59.2-.55.42-1.11.65-1.66.11-.27.22-.55.34-.82-.35.85,0,.13,0,0,.59-1.4,1.19-2.81,1.74-4.24,3.12-8.16,5-16.73,8.26-24.84.35-.87,0,0,0,.12a6.81,6.81,0,0,1,.47-1.07c.24-.53.49-1.06.74-1.58.54-1.1,1.12-2.18,1.74-3.23s1.21-2,1.88-2.92l.46-.62c.76-1-.67.78.17-.22.42-.5.84-1,1.28-1.48l-8.36-2.21c-.07-.51-.06-.46,0,.15,0,.32.09.65.13,1,.06.49.13,1,.19,1.47.15,1.15.3,2.3.44,3.44.29,2.3.58,4.59.85,6.89q.82,7,1.55,14t1.31,13.82c.2,2.3.4,4.6.58,6.91l.27,3.46c0,.57.09,1.15.13,1.73,0,.27,0,.54,0,.82.19-.78.19-.91,0-.39L549.43,93c-.76,1,2-.62,1.08-.6a4.19,4.19,0,0,0-.69.13c-.71.13-1.43.24-2.15.35l-1.91.29c.08,0-1.49.2-.77.11.5-.07-.84.1-1,.12-2.88.36-5.76.63-8.66.82-1.36.09-2.73.17-4.1.21-.4,0-1.59.21-1.93,0,.18.12,1.08,0,.2,0l-.37-.1c.62.28.68.29.19,0,.11.08.83.68.25.11.67.66.48.6.27.23.51.89.34.7.2.32-.31-.88-.13.71.05.22,0-.09-.05-.83,0-.84s-.26,1.3,0,.3c.12-.57.25-1.14.42-1.7.82-2.64,1.94-5.21,2.93-7.79l3.26-8.58,6.44-16.91,7.23-19c.93-2.45-1-5.59-3.49-6.15A5.14,5.14,0,0,0,540.7,38Z"/><path class="cls-5" d="M539.31,82.13a242.18,242.18,0,0,1-4.92,33c-.69,3.14,4.13,4.47,4.82,1.33a252.06,252.06,0,0,0,5.1-34.35,2.5,2.5,0,0,0-5,0Z"/><path class="cls-11" d="M219.13,315.82l2.48-9.14c.39-1.43.91-2.89,1.19-4.35.09-.42-.4.69-.58.84s-2.06.84-.9.6c-1,.22-.43.05-.14.07.57,0,1.16,0,1.73-.06q9.38-.27,18.75.18c1.57.07,3.13.16,4.69.26.33,0,.66.06,1,.07,1,0,0-.07-.14-.05.28-.05,1,.48.52.1a1.54,1.54,0,0,1-.76-.44c-.4-.57-.5-.69-.31-.37.33.56-.28-1.18-.08-.13a3.7,3.7,0,0,1,.15.67c.11-.1-.11-1.15-.06-.12,0,.28,0,.57,0,.86,0,1.66,0,3.32.06,5,0,.66,0,1.33,0,2,0,.31,0,.63,0,.94,0,.55.17-.76.27-.91a2.59,2.59,0,0,1,.92-.88c-.85.55.8-.14.16-.06-.94.12,0,.34.16,0,0,.1-.94.05-1,.05-3,0-6.09-.18-9.13-.28L216.7,310l4.82,6.33a12.45,12.45,0,0,0,.3-3.1c0-.3-.06-.6-.09-.9l-.18-1.33q-.11-.78,0-.24c0,.61,0-.5,0-.56s0-.66,0-.66c.16,0-.37,1.25,0,.2.14-.36-.31.58-.41.71a2.28,2.28,0,0,1-1.3.82c-.67.14-.44,0,.12,0h2.21c1.57,0,3.15,0,4.73,0q9.33,0,18.67.17a5,5,0,0,0,5-5,5.1,5.1,0,0,0-5-5c-7.06-.12-14.11-.19-21.16-.17-1.69,0-3.4-.08-5.08,0a7.93,7.93,0,0,0-6.06,3.07,9.19,9.19,0,0,0-1.76,5.49,18.62,18.62,0,0,0,.29,2.89c.19,1.43,0-1,0,.47,0,.28-.15,1.5.06.44A5.08,5.08,0,0,0,216.7,320l22.38.71c3.62.12,7.44.62,11-.05a8.28,8.28,0,0,0,4.59-2.52c1.75-1.93,2.09-4.36,2.07-6.86,0-3.41.35-7.23-.55-10.56a8.58,8.58,0,0,0-3.7-5.11c-2-1.22-4.36-1.29-6.65-1.44q-10.85-.69-21.72-.44c-2.47.06-5.18-.11-7.41,1.12s-3.21,3.47-3.84,5.79c-1.15,4.17-2.27,8.34-3.41,12.5a5,5,0,0,0,9.65,2.66Z"/><path class="cls-12" d="M125.15,334h0a3.73,3.73,0,0,1,3.73,3.73v9.46a0,0,0,0,1,0,0h-7.45a0,0,0,0,1,0,0v-9.46A3.73,3.73,0,0,1,125.15,334Z"/><path class="cls-12" d="M220.47,386.51h0a3.73,3.73,0,0,1,3.73,3.73v9.46a0,0,0,0,1,0,0h-7.45a0,0,0,0,1,0,0v-9.46A3.73,3.73,0,0,1,220.47,386.51Z"/><path class="cls-12" d="M329.42,373.66h0a3.73,3.73,0,0,1,3.73,3.73v9.46a0,0,0,0,1,0,0H325.7a0,0,0,0,1,0,0v-9.46A3.73,3.73,0,0,1,329.42,373.66Z"/><line class="cls-13" x1="214.92" y1="296.63" x2="255.09" y2="299.53"/><path class="cls-14" d="M214,297.22l35.24,2.54,4.93.36a3.36,3.36,0,0,0,2-.55c.4-.33.45-.59-.17-.63L220.8,296.4l-4.94-.36a3.36,3.36,0,0,0-2.05.55c-.4.33-.44.59.17.63Z"/><line class="cls-13" x1="214.58" y1="301.3" x2="254.76" y2="304.2"/><path class="cls-14" d="M213.67,302l35.24,2.54,4.94.36a2.89,2.89,0,0,0,2.05-.55c.38-.35.41-.81-.23-.85L220.43,301l-4.94-.36a2.89,2.89,0,0,0-2.05.55c-.38.35-.42.81.23.85Z"/><line class="cls-13" x1="214.25" y1="305.97" x2="254.42" y2="308.87"/><path class="cls-14" d="M213.3,306.55l35.24,2.54,4.94.36a3.38,3.38,0,0,0,2.05-.55c.4-.32.44-.57-.17-.61l-35.23-2.54-4.94-.36a3.43,3.43,0,0,0-2.05.55c-.41.33-.44.57.16.61Z"/><line class="cls-13" x1="213.91" y1="310.64" x2="254.08" y2="313.54"/><path class="cls-14" d="M213.37,311.56l35.24,2.54,4.93.36a2.1,2.1,0,0,0,1.91-.83c.28-.63-.25-1-.83-1l-35.24-2.55-4.93-.35a2.05,2.05,0,0,0-1.9.83c-.28.62.24,1,.82,1Z"/><line class="cls-13" x1="213.57" y1="315.32" x2="253.75" y2="318.21"/><path class="cls-14" d="M212.66,316l35.23,2.54,4.94.36a3,3,0,0,0,2-.55c.37-.36.44-.78-.22-.82L219.42,315l-4.93-.36a2.93,2.93,0,0,0-2.05.55c-.37.35-.44.77.22.82Z"/><path class="cls-15" d="M503,338.7l-28.11,39.65a2.07,2.07,0,0,0,1.51,3.26l48.92,4.21a2.08,2.08,0,0,0,2.05-2.95L506.54,339A2.07,2.07,0,0,0,503,338.7Z"/><path class="cls-15" d="M512,353.71l-2.81-6.39,1.54-7.85c.07-.35.29-.6.51-.56l3.37.65c.22,0,.34.37.27.72Z"/><path class="cls-12" d="M506.45,383.23l-11.06-1a.31.31,0,0,1-.28-.33l1.23-14a4.19,4.19,0,0,1,4.56-3.77l3.27.28a4.17,4.17,0,0,1,3.84,4.49l-1.23,14A.31.31,0,0,1,506.45,383.23Z"/><path class="cls-16" d="M517.2,338.16a1.8,1.8,0,0,1,.31-2.4c.78-.63,2.37-.13,3.27.09a3,3,0,0,1,1.43.75l.06.3c1,.26,1.12.26.34,0a3.07,3.07,0,0,1-1.63-2.33,3.58,3.58,0,0,1,3.29-4c1.12,0,2.53.66,2.67,1.91a1.21,1.21,0,0,1-.15.83c-.4.35-.38.45.08.32a3.12,3.12,0,0,1-1.58-.54c-1.67-1-3.37-4.07-.49-4.69a15.35,15.35,0,0,1,3.58-.33c1,0,2.53,0,3.39.68.58.46.35.61.45,1.19-.34.38-.23.36.32-.06a2.85,2.85,0,0,1-.63-.38,3.93,3.93,0,0,1-1.24-2.35c0-1.38,2.25-1.45,3.27-1.57.79-.09,3.32-.39,2.91,1.17l1.32-.67c-2,.55-4.93,1.06-6.29-1.12-1-1.52.39-3.5,2-3.78a5.22,5.22,0,0,1,4.16,1.35,2.49,2.49,0,0,1,.89,2.32c-.3.88-1.8.44-2.53.25-1.54-.4-4.54-2-3.7-4.09.7-1.7,3.76-2.31,5.36-2.72,1.77-.46,4-1,5.62.2a2.11,2.11,0,0,1,.66.67.91.91,0,0,1,.1.7c-.24.32-.11.35.38.09l-.43-.18a7.63,7.63,0,0,1-1.83-2.2c-.36-.66-3.1.41-2.9.77a5,5,0,0,0,2.31,2.54,5.08,5.08,0,0,0,3.35-.18c.76-.26,1.87-.72,2-1.61.19-1.09-1.18-1.81-2-2.08-2.57-.85-5.63-.05-8.13.67a31.11,31.11,0,0,0-4.28,1.52,6.26,6.26,0,0,0-2.91,2.06c-1.44,2.36,2,4.36,3.82,4.87,2.17.6,5.75.5,7.5-1.14s-.79-3.92-2.32-4.48a9.82,9.82,0,0,0-6.65.26c-2.08.77-5.16,3.1-3,5.45s6.28,1.38,9,.66c.28-.08,1.22-.3,1.32-.67.88-3.29-7.44-1.24-8.73-.85s-3.31.85-3.22,2.4a3.65,3.65,0,0,0,2.64,3.25,5.8,5.8,0,0,0,4-.93c1.2-.85.76-2.07-.48-2.59a12.48,12.48,0,0,0-5.4-.49,19.29,19.29,0,0,0-6,1.21c-1.31.54-2.45,1.45-2.2,3a4.56,4.56,0,0,0,3.12,3.27c1.91.64,8.23-.63,5.91-3.72-1.95-2.61-7-1-9.17.45a4.55,4.55,0,0,0-2.18,3.33,3.42,3.42,0,0,0,2.23,3.51c1.32.45,3.81.06,4.64-1.2,1.19-1.8-2.26-2.18-3.25-2.32a9.56,9.56,0,0,0-5.77.83c-1.26.67-2.56,2.15-1.61,3.6.44.66,3.08-.5,2.9-.78Z"/><path class="cls-16" d="M528.2,327.6a1.09,1.09,0,0,1,.1-.44l-.1.22a1.28,1.28,0,0,1,.11-.2c.16-.22-.15.12,0,0l.08-.07c.07-.06,0,0-.13.09a.93.93,0,0,0,.19-.11l-.12.06.15-.05-.23.08.15-.05.5-.13,1.1-.27.28-.06-.23,0h-.13c.27,0-.25-.05,0,0-.3-.08-.08,0,0,.05l-.2-.14a.55.55,0,0,1,.16.18l-.1-.19a.94.94,0,0,1,.06.24v-.22a1,1,0,0,1-.06.25l.1-.22a.75.75,0,0,1-.07.12l.1-.12c-.17.15,0,.08.37-.21l0,0a1.18,1.18,0,0,1,.37-.09h0c.27,0-.05,0-.1,0a2.61,2.61,0,0,0-1.14.22,1.65,1.65,0,0,0-.77.58c-.34.61.29.86.79.9a4,4,0,0,0,2-.36c.54-.25,1.19-.72,1.24-1.38a1.12,1.12,0,0,0-.68-1.07,3.4,3.4,0,0,0-2.16-.07,17.36,17.36,0,0,0-2.63.72c-.84.33-1.92,1.07-2,2.08a.54.54,0,0,0,.31.55,1.75,1.75,0,0,0,1,.12,2.63,2.63,0,0,0,1.09-.38c.2-.13.54-.36.55-.63Z"/><rect class="cls-17" x="575.19" y="234.67" width="40.59" height="52.97"/><rect class="cls-18" x="582.24" y="240.78" width="11.29" height="11.29"/><rect class="cls-18" x="582.24" y="257.61" width="11.29" height="11.29"/><rect class="cls-18" x="597.43" y="257.61" width="11.29" height="11.29"/><rect class="cls-18" x="597.43" y="240.78" width="11.29" height="11.29"/><path class="cls-19" d="M276.74,199.6a75.69,75.69,0,0,0-9.12-7.59,23.08,23.08,0,0,0-6.62-3.54c-4.54-1.37-9.47-.4-14.12.58-2.24.47-4.56,1-6.34,2.29-3.13,2.3-3.76,6.34-4.17,10a2.23,2.23,0,0,0,.25,1.65,2.68,2.68,0,0,0,1.7.78c8.51,1.59,17.36.51,25.82-1.32s16.73-4.37,25.29-5.76a17.48,17.48,0,0,1-6,9.24,1.85,1.85,0,0,1-1.32.55c-.58-.07-.94-.61-1.21-1.09l-2.76-4.9"/><path class="cls-19" d="M278.07,199a82.33,82.33,0,0,0-8.58-7.24c-2.91-2.11-5.95-4-9.53-4.65-3.75-.69-7.59-.11-11.29.61-3.38.66-7.12,1.24-9.78,3.61-2.26,2-3.21,4.93-3.68,7.83-.2,1.25-.75,3.17,0,4.33s2.69,1.35,4,1.55c7.77,1.18,15.69.29,23.34-1.24,9-1.8,17.71-4.59,26.74-6.08L288,196.8a16.37,16.37,0,0,1-4.1,7.21c-.47.49-1.14.89-1.55,1.41-.22.14-.2.15.06,0s.28-.18,0-.38a4.36,4.36,0,0,0-.52-.91l-2.41-4.28c-.6-1.07-3.38,0-2.66,1.25l1.84,3.26a9.63,9.63,0,0,0,1.53,2.45c1.44,1.35,3.41.41,4.68-.68a19,19,0,0,0,6.06-9.59c.18-.67-.87-1-1.32-.88-13.81,2.27-27.14,7.56-41.25,7.84a48.94,48.94,0,0,1-5.28-.18q-1.18-.11-2.34-.27a6.59,6.59,0,0,1-2.5-.49c-.86-.61-.18-3,0-3.87a15.87,15.87,0,0,1,1.1-3.89c1.38-3,4-4,7-4.64a40.22,40.22,0,0,1,10.16-1.35c3.83.15,7,1.83,10,4a75.16,75.16,0,0,1,8.92,7.4c.89.87,3.63-.3,2.66-1.25Z"/><path class="cls-19" d="M242.21,197.74c3.22,0,3.22-5,0-5s-3.22,5,0,5Z"/><path class="cls-18" d="M240.82,197.85c3.22,0,3.23-5,0-5s-3.22,5,0,5Z"/><ellipse class="cls-20" cx="240.34" cy="195.35" rx="2.27" ry="2.07"/><ellipse class="cls-18" cx="241.11" cy="194.2" rx="1.26" ry="1.15"/><path class="cls-21" d="M247.35,188c2.15,2.33,2.61,5.49,2.29,8.45a13.82,13.82,0,0,1-1.4,4.9,10.49,10.49,0,0,1-3.59,4"/><path class="cls-22" d="M253.23,188.46a2.65,2.65,0,0,1,.93,2.51,3.75,3.75,0,0,1-.39,1.35,3.2,3.2,0,0,1-.34.53c-.37.47-.76.4.27.19-.18,0-2.12.56-1.66,1a4.55,4.55,0,0,1,1.63,2,2.1,2.1,0,0,1,0,1.24,2.56,2.56,0,0,1-.29.6c-.4.57-.76.22.71,0-.16,0-2.38.57-2.1.92a3.63,3.63,0,0,1,.87,2.35,2.66,2.66,0,0,1-.3,1.23,2.27,2.27,0,0,1-.3.46c-.13.15-.57.38-.06.19-.23.08-1.19.38-.89.74s1.59-.1,1.86-.21a3.35,3.35,0,0,0,1.72-5.54l-2.09.92c1.51-.18,3.37-.8,3.77-2.46.36-1.49-.78-2.61-1.82-3.49l-1.66,1c1.62-.34,3.13-1.06,3.71-2.71.44-1.27.37-3-.86-3.77-.46-.29-1.41.05-1.86.21-.14.05-1.27.49-.88.74Z"/><path class="cls-22" d="M259.51,189a2.33,2.33,0,0,1,.65,2.31c-.09.53-.39,1.49-.93,1.6-.36.08-1.79.88-1.11,1.45a4.78,4.78,0,0,1,1.56,1.82,1.66,1.66,0,0,1,.06,1.12c-.05.17-.17.3-.23.46s-.49.1.18,0c-.55.07-2.17.7-1.51,1.53a3,3,0,0,1,.74,2.14c-.05.52-.23,1.21-.77,1.42s-1.12.78-.73,1.32,1.44.31,1.94.12a3.91,3.91,0,0,0,1.5-6.21l-1.5,1.53a3.68,3.68,0,0,0,3.34-2.84c.25-1.54-.82-2.72-1.91-3.63l-1.1,1.45a4.39,4.39,0,0,0,3.29-3.16,3.55,3.55,0,0,0-1.2-4c-.92-.59-3.54.71-2.27,1.53Z"/><path class="cls-22" d="M266,192.38a1.34,1.34,0,0,1,.7,1.54,1.66,1.66,0,0,1-.41.8l-.16.15c.1,0,.07,0-.09,0l.14,0c-.49.07-2.4.82-1.37,1.43a3.23,3.23,0,0,1,1.45,1.28.8.8,0,0,1,0,.66s-.17.27-.19.24.67-.15.18-.11c-.32,0-2.27.7-1.56,1.31a1.8,1.8,0,0,1,.75,1.49,1.1,1.1,0,0,1-.24.61l-.09.11c-.08.11-.2.06,0,0-.41.11-1.4.48-1.27,1.07s1.29.38,1.64.29a4,4,0,0,0,2.77-2.08,2.37,2.37,0,0,0-.85-2.61l-1.56,1.31c1.27-.1,3.21-.88,3.41-2.34.18-1.27-1.18-2.05-2.1-2.59l-1.37,1.43a4.52,4.52,0,0,0,3.7-2.45,2.2,2.2,0,0,0-1.14-2.9,2.48,2.48,0,0,0-2.05.29c-.37.22-.9.78-.27,1.07Z"/><path class="cls-23" d="M234.28,202.3a14.09,14.09,0,0,0,3.83,1.35,7.79,7.79,0,0,0,2.18-.19,8,8,0,0,0,2.34-.82,7.65,7.65,0,0,0,1.8-1.43"/><path class="cls-19" d="M336.78,134.2a46.73,46.73,0,0,0-5.52-4.66,14,14,0,0,0-4-2.17c-2.74-.84-5.73-.25-8.54.36a9.5,9.5,0,0,0-3.83,1.4c-1.9,1.41-2.28,3.9-2.52,6.14a1.4,1.4,0,0,0,.14,1,1.63,1.63,0,0,0,1,.48c5.15,1,10.51.31,15.62-.81s10.12-2.69,15.29-3.54a10.79,10.79,0,0,1-3.64,5.68,1.11,1.11,0,0,1-.8.33c-.35,0-.57-.37-.73-.67l-1.67-3"/><path class="cls-19" d="M338.11,133.58c-3.06-3-6.85-6.63-11.21-7.44a18.83,18.83,0,0,0-7.09.37c-2.13.41-4.44.81-6.16,2.24a7.94,7.94,0,0,0-2.5,4.85,7.53,7.53,0,0,0-.24,2.58c.17.94.92,1.32,1.79,1.52,4.81,1.13,10.05.5,14.84-.42,5.64-1.09,11.11-2.9,16.77-3.86l-1.32-.89a9.72,9.72,0,0,1-2.33,4.18c-.06.06-.81.72-.8.76.84.23,1.12.17.84-.19a6.65,6.65,0,0,1-.33-.58l-1.43-2.58c-.59-1.07-3.37,0-2.66,1.25l1.19,2.15a4.32,4.32,0,0,0,1.11,1.59,2.84,2.84,0,0,0,3.18-.41,11.88,11.88,0,0,0,4.16-6.41c.18-.68-.87-1-1.32-.89-8.06,1.36-15.84,4.41-24.05,4.79a22.18,22.18,0,0,1-6-.35c-.62-.16-.73-.22-.67-.87,0-.36.08-.72.14-1.08a10.06,10.06,0,0,1,.58-2.36c.75-1.81,2.19-2.37,4-2.78a22.74,22.74,0,0,1,5.74-.77,10.59,10.59,0,0,1,5.83,2.37,46.27,46.27,0,0,1,5.31,4.48c.89.87,3.63-.3,2.66-1.25Z"/><path class="cls-19" d="M315.89,134c3.22,0,3.23-5,0-5s-3.22,5,0,5Z"/><path class="cls-18" d="M315.06,134.1c3.22,0,3.22-5,0-5s-3.22,5,0,5Z"/><ellipse class="cls-20" cx="314.76" cy="131.6" rx="1.37" ry="1.27"/><ellipse class="cls-18" cx="315.23" cy="130.89" rx="0.76" ry="0.7"/><path class="cls-21" d="M319,127.07a6.52,6.52,0,0,1,1.38,5.18,8.48,8.48,0,0,1-.85,3,6.45,6.45,0,0,1-2.17,2.46"/><path class="cls-22" d="M322.26,127.88a.54.54,0,0,1,.23.38,1.5,1.5,0,0,1,0,.73,1.64,1.64,0,0,1-.19.53c.05-.05,0,0-.06.08s-.11.12-.05.06.59-.22.21-.14c-.8.17-1.68,1.07-.87,1.76a2.2,2.2,0,0,1,.71.89.79.79,0,0,1,0,.43c-.08.27,0,.12,0,.09l-.09.1a1.09,1.09,0,0,1,.69-.3c-.62.07-2.17.77-1.47,1.64a1.55,1.55,0,0,1,.38,1.09,1.32,1.32,0,0,1-.13.47c0-.09,0,.07-.06.07s.38-.2.05-.07c-.52.2-1.12.89-.7,1.43s1.39.41,2,.19a2.84,2.84,0,0,0,1.16-4.44l-1.47,1.64a2.87,2.87,0,0,0,2.66-2.29,3.08,3.08,0,0,0-1.44-2.57l-.87,1.76a3.29,3.29,0,0,0,2.46-2.4,2.49,2.49,0,0,0-.87-2.75,2,2,0,0,0-2.07.19c-.47.35-.78,1-.18,1.43Z"/><path class="cls-22" d="M325.7,127.76a1.4,1.4,0,0,1,.5,1.38,2,2,0,0,1-.2.67c0,.09-.2.23-.22.31,0-.13.77-.28.37-.19s-1.78.71-1.17,1.23a2.72,2.72,0,0,1,.91,1.08,1,1,0,0,1,.05.64c-.17.61-.52.15.64,0-.43.06-2.14.59-1.56,1.31a2,2,0,0,1,.42,1.26,1.79,1.79,0,0,1-.16.59c-.1.18-.15.13.07.05-.34.13-1.23.64-.79,1.1s1.44.17,1.9,0a2.57,2.57,0,0,0,1.26-4.1l-1.57,1.31c1.11-.14,2.51-.8,2.7-2a2.56,2.56,0,0,0-1.17-2.3l-1.17,1.22a3.25,3.25,0,0,0,2.49-2.13,2.22,2.22,0,0,0-.61-2.48,2.09,2.09,0,0,0-1.9,0c-.22.09-1.34.75-.79,1.1Z"/><path class="cls-22" d="M329.81,130a.54.54,0,0,1,.26.26.75.75,0,0,1,.05.5.92.92,0,0,1-.09.28c.06-.13-.1.11-.11.14s0,0,0,0c-.1.09-.09.08.05,0-.13.08-.11.06.08,0a1.27,1.27,0,0,1,.39-.12,2.54,2.54,0,0,0-1.46.65c-.28.29-.26.57.09.78s.65.41.76.68c0,0,.05.22.05.14s-.07.24,0,.11c0,.09-.17.17,0,.07a1.35,1.35,0,0,1,.26-.15c.52-.12.65-.16.38-.13a2.59,2.59,0,0,0-1.36.55c-.19.17-.47.52-.19.76a1.08,1.08,0,0,1,.42.73,1.43,1.43,0,0,1,0,.22c0,.06,0,.06,0,0l0,.08c-.07.08-.08.1,0,0s0,0,0,0a1.75,1.75,0,0,1,.43-.22c-.39.11-1.42.49-1.27,1.07s1.27.38,1.63.29a3.06,3.06,0,0,0,2.19-1.65,1.6,1.6,0,0,0-.56-1.71l-1.56,1.31c1-.08,2.55-.67,2.72-1.8.13-.88-.75-1.4-1.38-1.78L330,132.51a3.52,3.52,0,0,0,2.9-1.87,1.5,1.5,0,0,0-.81-2,2.42,2.42,0,0,0-2,.28c-.37.23-.91.78-.28,1.07Z"/><path class="cls-23" d="M311.1,135.86a8,8,0,0,0,2.31.83,4.25,4.25,0,0,0,1.32-.12,4.74,4.74,0,0,0,1.42-.5,4.39,4.39,0,0,0,1.09-.88"/><path class="cls-19" d="M247.6,132.89a62.78,62.78,0,0,0-6.24-8,18.82,18.82,0,0,0-4.89-4.13c-3.55-1.91-7.85-1.85-11.93-1.74a13.8,13.8,0,0,0-5.73,1c-3,1.5-4.31,4.92-5.32,8a2.06,2.06,0,0,0-.1,1.48,2.19,2.19,0,0,0,1.28.94c6.84,2.74,14.45,3.2,21.86,3s14.81-1.15,22.23-1a16.07,16.07,0,0,1-6.74,7.09,1.6,1.6,0,0,1-1.2.27c-.48-.16-.68-.68-.82-1.14l-1.41-4.7"/><path class="cls-19" d="M248.93,132.26a64.84,64.84,0,0,0-6.24-8,17.75,17.75,0,0,0-7.27-5.26,26.78,26.78,0,0,0-9-1c-3,0-6.18,0-8.84,1.59a11.64,11.64,0,0,0-4.6,6,10.57,10.57,0,0,0-1.11,3.73c.06,1.35,1.32,1.86,2.42,2.29,6.15,2.39,12.86,2.95,19.41,2.91,8.21-.05,16.37-1.2,24.59-1.06l-.87-1.15a14.81,14.81,0,0,1-4.36,5.35c-.41.31-.89.55-1.28.87-.4.12-.47.2-.2.26s.2.08.07-.09a3.68,3.68,0,0,1-.23-.66c-.46-1.48-.9-3-1.34-4.46-.38-1.27-3.28-.48-2.9.78l1,3.28A7.66,7.66,0,0,0,249,140c1.09,1.4,3.06.59,4.28-.14a17.6,17.6,0,0,0,6.83-7.37c.29-.6-.26-1.14-.87-1.15-12.15-.2-24.42,2.37-36.51.19a39.59,39.59,0,0,1-4.27-1c-.88-.26-3.35-.7-3.66-1.65s.66-2.6,1-3.42a12.26,12.26,0,0,1,1.75-3.12c1.75-2.13,4.24-2.26,6.82-2.34a30.85,30.85,0,0,1,8.14.5c3.1.76,5.38,2.67,7.49,5a64.84,64.84,0,0,1,6.24,8c.68,1,3.46,0,2.66-1.25Z"/><path class="cls-19" d="M219.49,126.12c3.22,0,3.23-5,0-5s-3.22,5,0,5Z"/><path class="cls-18" d="M218.31,126c3.22,0,3.23-5,0-5s-3.22,5,0,5Z"/><ellipse class="cls-20" cx="217.91" cy="123.42" rx="1.94" ry="1.84"/><ellipse class="cls-18" cx="218.76" cy="122.54" rx="1.07" ry="1.02"/><path class="cls-21" d="M225.13,118.12a9.5,9.5,0,0,1,.37,7.71,12.83,12.83,0,0,1-2.08,4,9.35,9.35,0,0,1-3.74,2.92"/><path class="cls-22" d="M229.83,119.77a2.24,2.24,0,0,1,.31,2.18,3.41,3.41,0,0,1-.51,1c-.09.13-.2.24-.3.36-.37.41-.42,0,.8-.06a4.21,4.21,0,0,0-1.61.33c-.1,0-1,.42-.78.65a4.68,4.68,0,0,1,1,1.93,1.85,1.85,0,0,1-.11,1,1.69,1.69,0,0,1-.27.47c-.43.51-.43-.2.89-.11-.31,0-2.67.4-2.38,1a3.25,3.25,0,0,1,.32,2,2.75,2.75,0,0,1-.36.91,2.43,2.43,0,0,1-.24.32c-.35.36-.47.14.46,0-.4.08-1.58.29-1.7.79s1,.33,1.16.29a4.6,4.6,0,0,0,3.18-1.87,3.34,3.34,0,0,0,.07-3.19l-2.38,1a4.44,4.44,0,0,0,4-1.8c.71-1.23,0-2.49-.75-3.49l-2.39,1a5.13,5.13,0,0,0,4.3-2.07c.68-1,1-2.67,0-3.63-.52-.53-3.17.54-2.73,1Z"/><path class="cls-22" d="M234.85,120.92a2.25,2.25,0,0,1,.31,2.19,3.89,3.89,0,0,1-.5,1c-.1.13-.21.23-.31.35-.37.41-.41,0,.8-.06a4.51,4.51,0,0,0-1.61.34c-.09,0-.95.41-.78.64a4.54,4.54,0,0,1,1,1.94,1.81,1.81,0,0,1-.1,1,2.08,2.08,0,0,1-.28.48c-.43.51-.43-.2.9-.12-.31,0-2.68.41-2.39,1a3.18,3.18,0,0,1,.32,2,3,3,0,0,1-.35.91,2.09,2.09,0,0,1-.25.32c-.35.37-.47.15.46,0-.4.08-1.58.29-1.7.79s1,.32,1.16.28a4.58,4.58,0,0,0,3.18-1.87,3.33,3.33,0,0,0,.08-3.18l-2.39,1a4.44,4.44,0,0,0,4-1.8c.71-1.23,0-2.49-.75-3.48l-2.39,1a5.17,5.17,0,0,0,4.3-2.08c.68-1,1-2.67,0-3.63-.53-.52-3.18.54-2.74,1Z"/><path class="cls-22" d="M239.67,125.05a1.2,1.2,0,0,1,.38,1.49,1.35,1.35,0,0,1-.35.46c.1,0,.09,0,0,0,.14-.06.14-.06,0,0,.1,0,.54-.09.23-.1a2.84,2.84,0,0,0-1.6.48c-.22.17-.64.56-.33.85a3,3,0,0,1,1.05,1.4.65.65,0,0,1,0,.31,1.85,1.85,0,0,0-.1.2c0,.06,0,.06,0,0l.12-.06a1.24,1.24,0,0,1,.6-.12,2.91,2.91,0,0,0-1.78.37c-.33.19-.75.55-.46.94a1.5,1.5,0,0,1,.29,1.32,1.28,1.28,0,0,1-.17.32c-.13.17-.08,0,0,0s.44-.09.11-.06c-.52,0-1.51.36-1.65.95s.9.59,1.23.56a4.08,4.08,0,0,0,3.07-1.61,2.23,2.23,0,0,0-.24-2.59l-2.24,1.31c1.35.15,3.22-.27,3.92-1.58.59-1.09-.33-2.08-1.09-2.78l-1.92,1.33a4.66,4.66,0,0,0,3.88-1.72,2,2,0,0,0-.25-2.83,2.06,2.06,0,0,0-1.9,0c-.25.11-1.32.73-.79,1.11Z"/><path class="cls-23" d="M211.56,128.5a11.75,11.75,0,0,0,2.95,1.79,8,8,0,0,0,4-.17,6.56,6.56,0,0,0,1.77-1"/><path class="cls-24" d="M397.11,424a20,20,0,0,0-1.75,5.61,10.47,10.47,0,0,0,.89,5.65c.24.53,1.66.08,1.44-.39a10.13,10.13,0,0,1-.88-5.43,19,19,0,0,1,1.66-5.39c.29-.66-1.15-.52-1.36-.05Z"/><path class="cls-24" d="M400.63,424.09c-2.23,3.29-4.2,7-3.22,11.09.13.54,1.58.16,1.45-.39-.95-3.93,1-7.48,3.13-10.64.19-.29-.17-.44-.41-.46a1.11,1.11,0,0,0-.95.4Z"/><path class="cls-24" d="M403.89,424c-3.08,2.93-6.44,6.46-6.48,11,0,.64,1.45.35,1.46-.16,0-4.38,3.22-7.72,6.19-10.55.24-.22.14-.47-.14-.55a1.17,1.17,0,0,0-1,.27Z"/><path class="cls-24" d="M406.32,425.55a33.5,33.5,0,0,0-5.59,4.25,8.4,8.4,0,0,0-2.83,5.55c0,.63,1.45.34,1.46-.17A7.69,7.69,0,0,1,402,430a32.64,32.64,0,0,1,5.21-3.93c.23-.15.4-.43.12-.61a1.09,1.09,0,0,0-1,.13Z"/><path class="cls-24" d="M385.56,426.47a42.42,42.42,0,0,1,6.19,3.59c1.56,1.15,3.43,2.86,3.46,5,0,.64,1.46.35,1.45-.16,0-2.24-1.74-4-3.41-5.26a40.22,40.22,0,0,0-6.55-3.86,1.12,1.12,0,0,0-1,.13c-.2.13-.43.44-.11.6Z"/><path class="cls-24" d="M391.78,424.83c2.53,2.9,5,6.22,5.05,10.24,0,.64,1.46.35,1.45-.16,0-4.21-2.5-7.62-5.16-10.66-.35-.4-1.74.13-1.34.58Z"/><path class="cls-24" d="M389,425.67a30.56,30.56,0,0,1,4.92,4.08,8.24,8.24,0,0,1,2.5,5.27c0,.64,1.46.35,1.45-.16,0-4.5-4.43-7.58-7.72-9.92-.41-.29-1.74.31-1.15.73Z"/><path class="cls-24" d="M427.25,331.45a21,21,0,0,0-1.69,5.91,11.71,11.71,0,0,0,.88,5.85c.23.53,1.66.09,1.45-.39A11.28,11.28,0,0,1,427,337a22,22,0,0,1,1.67-5.72c.13-.32-.46-.36-.63-.34a1,1,0,0,0-.82.51Z"/><path class="cls-24" d="M430.77,331.43c-2.23,3.51-4.14,7.42-3.18,11.69.13.53,1.58.16,1.45-.39-.92-4.11.94-7.86,3.09-11.24.37-.59-1.09-.49-1.36-.06Z"/><path class="cls-24" d="M434,331.37c-3.11,3.16-6.36,6.89-6.39,11.59,0,.63,1.44.34,1.45-.17,0-4.53,3.1-8.09,6.11-11.14.22-.23.15-.47-.15-.56a1.19,1.19,0,0,0-1,.28Z"/><path class="cls-24" d="M436.39,333a34,34,0,0,0-5.52,4.48,9,9,0,0,0-2.79,5.85c0,.63,1.45.34,1.45-.17a8.34,8.34,0,0,1,2.63-5.52,32.15,32.15,0,0,1,5.14-4.16c.22-.15.4-.42.12-.6a1.09,1.09,0,0,0-1,.12Z"/><path class="cls-24" d="M415.9,333.92a40.13,40.13,0,0,1,6.15,3.81c1.57,1.27,3.34,3.06,3.37,5.23,0,.63,1.46.34,1.45-.17,0-2.3-1.67-4.15-3.36-5.54a39.72,39.72,0,0,0-6.47-4.06,1.11,1.11,0,0,0-1,.12c-.2.14-.42.44-.11.61Z"/><path class="cls-24" d="M422,332.19c2.55,3.12,5,6.63,5,10.82,0,.63,1.45.34,1.45-.17,0-4.36-2.43-8-5.1-11.23-.33-.41-1.72.11-1.34.58Z"/><path class="cls-24" d="M419.22,333c3.15,2.39,7.37,5.57,7.41,10,0,.63,1.46.34,1.46-.17,0-4.6-4.2-7.84-7.53-10.38a1,1,0,0,0-1,0c-.15.06-.65.41-.38.62Z"/><path class="cls-24" d="M445.61,222.13c-1,2.87-1.65,5.88-.53,8.82.21.54,1.64.11,1.45-.39-1.1-2.88-.47-5.79.53-8.6.12-.32-.45-.36-.63-.34a1,1,0,0,0-.82.51Z"/><path class="cls-24" d="M447.92,222.09c-1.5,2.71-2.71,5.63-2.09,8.79.11.53,1.56.17,1.45-.39-.58-3,.57-5.77,2-8.34.34-.63-1.11-.51-1.36-.06Z"/><path class="cls-24" d="M450.05,222c-2.13,2.48-4.19,5.29-4.22,8.71,0,.64,1.45.35,1.46-.16,0-3.25,1.9-5.91,3.93-8.28.57-.65-.83-.67-1.17-.27Z"/><path class="cls-24" d="M451.53,223.29c-2.38,1.9-5.35,4.37-5.38,7.7,0,.63,1.45.34,1.45-.17,0-3.18,2.83-5.45,5.1-7.25.26-.21.13-.48-.15-.56a1.22,1.22,0,0,0-1,.28Z"/><path class="cls-24" d="M438.26,224.05a25.17,25.17,0,0,1,4,2.86,5.69,5.69,0,0,1,2.15,3.82c0,.33.36.38.63.35s.82-.2.82-.51a6,6,0,0,0-2.18-4.16,26,26,0,0,0-4.28-3.09,1.09,1.09,0,0,0-1,.12c-.23.15-.41.43-.12.61Z"/><path class="cls-24" d="M442.23,222.74c1.7,2.38,3.21,5,3.23,8,0,.64,1.45.34,1.45-.17,0-3.19-1.53-5.91-3.34-8.45-.3-.42-1.7.08-1.34.59Z"/><path class="cls-24" d="M440.39,223.34c2.17,1.89,4.79,4.27,4.82,7.39,0,.33.37.38.63.35s.82-.2.82-.51c0-3.32-2.6-5.78-4.92-7.81a1,1,0,0,0-1,0c-.16.08-.63.39-.38.62Z"/><path class="cls-24" d="M512.64,159a21.4,21.4,0,0,0-1.7,5.91,11.72,11.72,0,0,0,.89,5.85c.23.53,1.66.1,1.45-.39a11.16,11.16,0,0,1-.86-5.82,22,22,0,0,1,1.67-5.72c.13-.31-.47-.36-.63-.34a1,1,0,0,0-.82.51Z"/><path class="cls-24" d="M516.16,159c-2.24,3.51-4.14,7.42-3.18,11.69.12.53,1.57.16,1.45-.39-.93-4.11.93-7.86,3.08-11.24.38-.59-1.08-.49-1.35-.06Z"/><path class="cls-24" d="M519.38,158.93c-3.12,3.16-6.36,6.9-6.4,11.59,0,.63,1.45.34,1.45-.17,0-4.53,3.11-8.09,6.12-11.14.22-.23.15-.46-.15-.55a1.15,1.15,0,0,0-1,.27Z"/><path class="cls-24" d="M521.77,160.54a32.91,32.91,0,0,0-5.51,4.48,9,9,0,0,0-2.8,5.84c0,.63,1.45.35,1.46-.17a8.36,8.36,0,0,1,2.63-5.52,32.71,32.71,0,0,1,5.14-4.16c.21-.15.4-.41.11-.6a1.09,1.09,0,0,0-1,.13Z"/><path class="cls-24" d="M501.28,161.48a39,39,0,0,1,6.15,3.82c1.58,1.26,3.35,3,3.38,5.22,0,.64,1.46.34,1.45-.17,0-2.3-1.67-4.15-3.36-5.53a39.52,39.52,0,0,0-6.47-4.07,1.12,1.12,0,0,0-1,.13c-.21.13-.43.43-.12.6Z"/><path class="cls-24" d="M507.42,159.75c2.55,3.12,4.95,6.63,5,10.82,0,.64,1.46.34,1.46-.17,0-4.36-2.43-8-5.1-11.23-.33-.41-1.73.11-1.34.58Z"/><path class="cls-24" d="M504.61,160.56c3.15,2.39,7.37,5.58,7.41,10,0,.64,1.46.34,1.45-.17,0-4.6-4.19-7.84-7.52-10.37a1,1,0,0,0-1,0c-.14.07-.65.41-.37.62Z"/><path class="cls-24" d="M528.81,223.45a7.45,7.45,0,0,0-1.29,2.87,3.9,3.9,0,0,0,.7,2.85c.3.43,1.7-.06,1.34-.58a3.42,3.42,0,0,1-.58-2.52,7.2,7.2,0,0,1,1.18-2.56c.19-.29-.16-.46-.4-.47a1.1,1.1,0,0,0-1,.41Z"/><path class="cls-24" d="M531.43,223.38c-1.46,1.46-3.22,3.42-2.42,5.65.11.31.58.27.83.2s.73-.28.62-.59c-.71-2,.84-3.68,2.14-5,.22-.22.16-.48-.14-.55a1.17,1.17,0,0,0-1,.27Z"/><path class="cls-24" d="M533.85,223.3a18.81,18.81,0,0,0-3.23,2.45A4.77,4.77,0,0,0,529,228.9c0,.33.37.37.63.34s.82-.19.82-.51a4.1,4.1,0,0,1,1.4-2.77,17.74,17.74,0,0,1,2.9-2.18c.21-.13.41-.44.11-.6a1.09,1.09,0,0,0-1,.12Z"/><path class="cls-24" d="M535.66,224a26.79,26.79,0,0,0-4,2.07c-1,.66-2.26,1.67-2.28,3,0,.33.38.37.64.34s.81-.19.81-.51c0-1.11,1.06-1.89,1.91-2.44a24.36,24.36,0,0,1,3.53-1.79c.21-.09.59-.36.38-.62s-.73-.14-1,0Z"/><path class="cls-24" d="M520.64,224.9a34.62,34.62,0,0,1,4.3,1.7c.92.45,2.45,1.2,2.48,2.41,0,.32.66.24.83.2s.63-.26.62-.59c0-1.31-1.68-2.19-2.68-2.7a35.38,35.38,0,0,0-4.67-1.84,1.15,1.15,0,0,0-1,.27c-.25.24-.14.46.14.55Z"/><path class="cls-24" d="M525,224a15,15,0,0,1,2.43,2.21,4.4,4.4,0,0,1,1.2,2.7c0,.33.37.38.63.35s.82-.2.82-.51c0-2.35-2-4-3.74-5.33a1,1,0,0,0-1,0c-.15.06-.65.4-.38.61Z"/><path class="cls-24" d="M523,224.46a24.53,24.53,0,0,1,3.4,1.89c.81.57,1.88,1.46,1.9,2.55,0,.33.36.37.63.34s.82-.19.82-.51a4,4,0,0,0-2-2.95,22.72,22.72,0,0,0-3.63-2.05,1.15,1.15,0,0,0-1,.13c-.19.13-.43.45-.11.6Z"/><path class="cls-24" d="M150.69,380.23a13.4,13.4,0,0,0-1.71,4.46,7,7,0,0,0,.92,4.48c.25.44,1.66,0,1.34-.59a6.37,6.37,0,0,1-.78-4.19,12.65,12.65,0,0,1,1.58-4.1c.34-.63-1.11-.51-1.35-.06Z"/><path class="cls-24" d="M154.08,380.3c-2,2.42-4.1,5.38-3.11,8.7.16.54,1.61.14,1.45-.39-.95-3.17,1.08-5.95,3-8.26.23-.27-.2-.45-.41-.46a1.15,1.15,0,0,0-.95.41Z"/><path class="cls-24" d="M157.36,380.12c-2.76,2.12-6.35,4.89-6.39,8.73,0,.64,1.45.35,1.46-.16,0-3.57,3.27-6.11,5.84-8.09.21-.16.42-.42.12-.6a1.08,1.08,0,0,0-1,.12Z"/><path class="cls-24" d="M159.74,381.3a34.16,34.16,0,0,0-5.42,3.31c-1.37,1.09-2.85,2.63-2.87,4.49,0,.64,1.44.35,1.45-.16,0-1.72,1.33-3.05,2.6-4.05a30.08,30.08,0,0,1,4.83-2.94c.21-.11.58-.34.38-.62s-.75-.15-1,0Z"/><path class="cls-24" d="M139.53,382.24a43.61,43.61,0,0,1,6,2.78c1.4.84,3.32,2.11,3.36,3.94,0,.5,1.46.21,1.45-.38,0-1.88-2-3.25-3.4-4.13a42.06,42.06,0,0,0-6.22-2.94,1.17,1.17,0,0,0-1,.12c-.18.12-.45.47-.12.61Z"/><path class="cls-24" d="M145.53,380.94c2.26,2.09,4.85,4.65,4.88,7.95,0,.64,1.46.34,1.45-.17,0-3.49-2.58-6.14-5-8.36-.4-.37-1.77.19-1.35.58Z"/><path class="cls-24" d="M142.88,381.61a29.18,29.18,0,0,1,4.62,3.07c1.21,1,2.51,2.47,2.53,4.17,0,.33.37.38.64.35s.82-.2.82-.51a6.38,6.38,0,0,0-2.55-4.51,30.55,30.55,0,0,0-4.91-3.3,1.12,1.12,0,0,0-1,.13c-.22.14-.42.43-.12.6Z"/><path class="cls-24" d="M474,373.64a12.45,12.45,0,0,0-1.57,4.15,6.57,6.57,0,0,0,.85,4.16c.25.44,1.66,0,1.34-.58a6,6,0,0,1-.71-3.87,11.87,11.87,0,0,1,1.45-3.8c.34-.63-1.12-.51-1.36-.06Z"/><path class="cls-24" d="M477.13,373.71c-1.88,2.25-3.77,5-2.86,8.08.16.54,1.61.14,1.45-.39-.87-2.93,1-5.5,2.77-7.63.23-.28-.2-.46-.41-.47a1.15,1.15,0,0,0-.95.41Z"/><path class="cls-24" d="M480,373.63c-2.51,1.95-5.72,4.51-5.76,8,0,.64,1.45.35,1.46-.16,0-3.35,3.07-5.71,5.48-7.57.25-.2.12-.48-.15-.55a1.24,1.24,0,0,0-1,.27Z"/><path class="cls-24" d="M482.2,374.7a30.46,30.46,0,0,0-4.89,3c-1.24,1-2.58,2.43-2.6,4.14,0,.63,1.44.34,1.45-.17,0-1.6,1.24-2.84,2.42-3.77a29.16,29.16,0,0,1,4.53-2.76c.24-.13.39-.43.12-.61a1.18,1.18,0,0,0-1,.13Z"/><path class="cls-24" d="M463.78,375.54a40.57,40.57,0,0,1,5.46,2.57c1.29.78,3.05,2,3.08,3.64,0,.5,1.46.21,1.45-.38,0-1.74-1.82-3-3.14-3.84a38.31,38.31,0,0,0-5.71-2.72,1.15,1.15,0,0,0-1,.12c-.18.12-.45.47-.11.61Z"/><path class="cls-24" d="M469.28,374.33c2.07,1.93,4.45,4.3,4.48,7.35,0,.33.36.37.63.34s.82-.19.82-.51c0-3.23-2.36-5.69-4.59-7.76a.94.94,0,0,0-1,0c-.17.08-.63.39-.38.62Z"/><path class="cls-24" d="M466.85,375a26.79,26.79,0,0,1,4.27,2.87c1.1.95,2.27,2.27,2.29,3.81,0,.33.37.38.63.35s.83-.2.82-.51a5.9,5.9,0,0,0-2.31-4.16,27.61,27.61,0,0,0-4.55-3.09,1.11,1.11,0,0,0-1,.12c-.22.14-.42.43-.12.61Z"/><path class="cls-24" d="M262.05,343.44a15.44,15.44,0,0,0-2.14,5.37,8.06,8.06,0,0,0,1.15,5.35c.26.44,1.67,0,1.34-.58a7.56,7.56,0,0,1-1-5.11,15.05,15.05,0,0,1,2-5c.35-.62-1.11-.51-1.36-.06Z"/><path class="cls-24" d="M266.43,343.41c-2.55,2.89-5.28,6.49-4,10.57.17.54,1.61.14,1.45-.39-1.2-3.83,1.33-7.18,3.72-9.9.57-.65-.82-.67-1.17-.28Z"/><path class="cls-24" d="M270.42,343.36A32.07,32.07,0,0,0,265,348a9.28,9.28,0,0,0-2.58,5.8c0,.64,1.45.35,1.45-.16,0-4.4,4.26-7.48,7.46-9.83.21-.15.4-.41.11-.6a1.09,1.09,0,0,0-1,.13Z"/><path class="cls-24" d="M273.39,344.79a41.52,41.52,0,0,0-6.76,4c-1.68,1.28-3.57,3.1-3.6,5.38,0,.63,1.44.34,1.45-.17,0-2.11,1.74-3.76,3.32-4.93a40.93,40.93,0,0,1,6.18-3.59c.21-.1.58-.34.37-.61s-.74-.15-1,0Z"/><path class="cls-24" d="M247.94,345.78a58.77,58.77,0,0,1,7.43,3.31c1.76,1,4.33,2.55,4.37,4.84,0,.5,1.46.21,1.45-.38,0-2.32-2.57-4-4.34-5a52.49,52.49,0,0,0-7.76-3.5,1.14,1.14,0,0,0-1,.12c-.18.12-.46.47-.12.6Z"/><path class="cls-24" d="M255.54,344.23c2.82,2.49,6.14,5.58,6.18,9.64,0,.64,1.45.34,1.45-.17,0-4.25-3.31-7.43-6.28-10.05-.41-.35-1.77.21-1.35.58Z"/><path class="cls-24" d="M252.17,345a37.72,37.72,0,0,1,5.92,3.76c1.49,1.24,3.13,3,3.15,5,0,.64,1.46.35,1.45-.16,0-2.21-1.54-4-3.14-5.35a37.87,37.87,0,0,0-6.24-4,1.12,1.12,0,0,0-1,.13c-.2.13-.42.43-.11.6Z"/><path class="cls-24" d="M281.85,408.89a18.21,18.21,0,0,0-2.25,6.2,9.76,9.76,0,0,0,1.21,6c.24.44,1.65,0,1.34-.58a9.16,9.16,0,0,1-1.07-5.76,17.87,17.87,0,0,1,2.13-5.8c.33-.63-1.13-.51-1.36-.05Z"/><path class="cls-24" d="M286.34,409c-2.71,3.36-5.39,7.39-4.1,11.91.16.54,1.61.15,1.45-.39-1.25-4.37,1.39-8.22,4-11.46.22-.28-.19-.45-.4-.46a1.15,1.15,0,0,0-1,.4Z"/><path class="cls-24" d="M290.48,408.92c-3.65,2.92-8.19,6.7-8.23,11.81,0,.63,1.44.35,1.45-.17.05-5,4.41-8.53,7.95-11.36.26-.2.13-.47-.14-.55a1.21,1.21,0,0,0-1,.27Z"/><path class="cls-24" d="M293.55,410.56a42.26,42.26,0,0,0-7.05,4.52c-1.77,1.49-3.6,3.55-3.63,6,0,.63,1.45.34,1.45-.17,0-2.36,1.77-4.24,3.49-5.66a41.45,41.45,0,0,1,6.65-4.21c.24-.13.39-.43.12-.61s-.76,0-1,.13Z"/><path class="cls-24" d="M267.05,411.51a58,58,0,0,1,7.81,3.79c1.94,1.19,4.53,3,4.57,5.54,0,.49,1.46.2,1.45-.39-.05-2.55-2.59-4.43-4.53-5.66a54.52,54.52,0,0,0-8.15-4,1.12,1.12,0,0,0-1,.13c-.18.12-.45.46-.12.6Z"/><path class="cls-24" d="M275,409.75c3.06,2.95,6.43,6.5,6.47,11,0,.64,1.46.35,1.45-.16,0-4.73-3.37-8.37-6.58-11.45-.39-.37-1.76.18-1.34.58Z"/><path class="cls-24" d="M271.48,410.65a38.51,38.51,0,0,1,6.2,4.3c1.64,1.48,3.3,3.46,3.32,5.78,0,.64,1.46.34,1.45-.17,0-2.44-1.57-4.49-3.3-6.08a38.89,38.89,0,0,0-6.52-4.56c-.43-.26-1.76.36-1.15.73Z"/><path class="cls-25" d="M197.94,296.81c-14.83-6.45-29.45-13.4-43.75-20.95s-28.35-15.71-41.93-24.55A436.5,436.5,0,0,1,73.38,223a372.58,372.58,0,0,1-35.16-32.72,318,318,0,0,1-30.1-37.1c-1.14-1.66-2.27-3.32-3.38-5C3,145.5-1.36,148,.42,150.69A324.77,324.77,0,0,0,30.34,189.1a363.16,363.16,0,0,0,34.73,33.44A438.86,438.86,0,0,0,104.17,252c13.51,9,27.48,17.41,41.77,25.16s29,14.94,43.94,21.57l5.53,2.44a2.59,2.59,0,0,0,3.43-.9,2.53,2.53,0,0,0-.9-3.42Z"/><path class="cls-25" d="M165.8,405.18a467.85,467.85,0,0,0-79.54,31.5q-10.73,5.43-21.15,11.41c-2.79,1.6-.27,5.92,2.53,4.32a460.85,460.85,0,0,1,76.62-35.06q11.34-4,22.87-7.35c3.08-.9,1.77-5.73-1.33-4.82Z"/><path class="cls-25" d="M543.47,380.28a323.52,323.52,0,0,1,88.62.09q12.6,1.77,25,4.51c3.13.69,4.47-4.13,1.33-4.82a330.33,330.33,0,0,0-90.82-7.15c-8.53.51-17,1.38-25.49,2.55-1.34.18-2.07,1.9-1.75,3.07a2.57,2.57,0,0,0,3.08,1.75Z"/><path class="cls-25" d="M580.52,106.78c9.42-12,19.07-24.38,31.43-33.55a77.39,77.39,0,0,1,11.14-6.9c2.87-1.45.34-5.76-2.52-4.31-14.1,7.11-25.24,18.64-35.17,30.68-2.86,3.47-5.64,7-8.42,10.55a2.57,2.57,0,0,0,0,3.53,2.52,2.52,0,0,0,3.54,0Z"/><path class="cls-25" d="M614.37,230.72a102.77,102.77,0,0,1,42.79-20.89,99.15,99.15,0,0,1,13.5-2.08,2.57,2.57,0,0,0,2.5-2.5,2.51,2.51,0,0,0-2.5-2.5,108.28,108.28,0,0,0-48,15.91,109.63,109.63,0,0,0-11.79,8.52,2.53,2.53,0,0,0,0,3.54,2.56,2.56,0,0,0,3.54,0Z"/><path class="cls-25" d="M54.3,269.16q-12.45,12-23.74,25.11a2.55,2.55,0,0,0,0,3.53,2.51,2.51,0,0,0,3.53,0q11.29-13.08,23.74-25.1c2.32-2.24-1.22-5.77-3.53-3.54Z"/></g></g></svg>