<svg xmlns="http://www.w3.org/2000/svg" viewBox="0 0 631.63 400.28"><defs><style>.cls-1,.cls-2{fill:#4b361e;}.cls-2{stroke:#4b361e;stroke-miterlimit:10;stroke-width:2px;}</style></defs><g id="圖層_2" data-name="圖層 2"><g id="圖層_1-2" data-name="圖層 1"><path class="cls-1" d="M220.64,158.78h115c5.3,0,10.62.13,15.91,0h.23a5,5,0,0,0,0-10h-115c-5.3,0-10.62-.13-15.91,0h-.23a5,5,0,0,0,0,10Z"/><path class="cls-1" d="M287.19,46.72h68a5,5,0,0,0,0-10h-68a5,5,0,0,0,0,10Z"/><path class="cls-1" d="M351.33,44.82,355,49.56l9.9,12.89,14.65,19.08,17.87,23.27L417,130.3,436.74,156l18.42,24,15.58,20.29,11.2,14.58,5.31,6.92.23.3a5.47,5.47,0,0,0,3,2.29,5.12,5.12,0,0,0,3.85-.5c2-1.32,3.5-4.62,1.79-6.84l-3.63-4.74-9.91-12.9-14.64-19.07-17.88-23.27-19.57-25.5-19.77-25.74-18.43-24L376.71,61.57,365.5,47l-5.3-6.91-.23-.3a5.53,5.53,0,0,0-3-2.3,5.12,5.12,0,0,0-3.85.51c-2.05,1.32-3.5,4.62-1.8,6.84Z"/><path class="cls-1" d="M184.21,204.65h83.15a5,5,0,0,0,0-10H184.21a5,5,0,0,0,0,10Z"/><path class="cls-1" d="M305.08,204.65h83.15a5,5,0,0,0,0-10H305.08a5,5,0,0,0,0,10Z"/><path class="cls-1" d="M307.38,184.14h63a5,5,0,0,0,0-10h-63a5,5,0,0,0,0,10Z"/><path class="cls-1" d="M201.58,184.14h65.78a5,5,0,0,0,0-10H201.58a5,5,0,0,0,0,10Z"/><path class="cls-1" d="M375.46,130.33h41.38a5,5,0,0,0,0-10H375.46a5,5,0,1,0,0,10Z"/><path class="cls-1" d="M335.36,75.18H375a5,5,0,0,0,0-10H335.36a5,5,0,0,0,0,10Z"/><path class="cls-1" d="M379.55,167.49h39.58a5,5,0,0,0,0-10H379.55a5,5,0,1,0,0,10Z"/><path class="cls-1" d="M423.72,190.29h39.59a5,5,0,0,0,0-10H423.72a5,5,0,0,0,0,10Z"/><path class="cls-1" d="M335.36,106.71H375a5,5,0,0,0,0-10H335.36a5,5,0,0,0,0,10Z"/><path class="cls-1" d="M282.09,62.51l-3.17,4.15L270.29,78,257.58,94.59,242,115,225,137.29l-17.21,22.54-16.06,21-13.51,17.68-9.76,12.79c-1.54,2-3.16,4-4.63,6.06-.07.09-.14.17-.2.26-1.6,2.09-.4,5.69,1.79,6.84,2.64,1.4,5.14.44,6.84-1.79l3.17-4.15L184,207.23l12.7-16.63,15.57-20.37,17-22.33,17.22-22.54,16.05-21,13.51-17.69,9.77-12.78c1.54-2,3.16-4,4.63-6.06l.2-.27c1.59-2.08.39-5.68-1.8-6.84-2.64-1.39-5.14-.43-6.84,1.8Z"/><path class="cls-1" d="M282.05,67.55l3.17,4.16L293.85,83l12.71,16.63L322.12,120l17.06,22.32,17.21,22.54,16.06,21L386,203.58l9.76,12.79,4.63,6.06a2.56,2.56,0,0,1,.2.26,5.53,5.53,0,0,0,3,2.3,5.08,5.08,0,0,0,3.85-.51c2.05-1.32,3.5-4.62,1.8-6.84L406,213.49l-8.64-11.3-12.7-16.63-15.57-20.38-17.05-22.33-17.22-22.53-16-21L305.28,81.61l-9.77-12.78-4.63-6.06c-.07-.09-.13-.18-.2-.26a5.5,5.5,0,0,0-3-2.3,5.12,5.12,0,0,0-3.85.5c-2,1.32-3.49,4.62-1.79,6.84Z"/><path class="cls-1" d="M282.38,39.2,278.71,44l-10,13L254,76.17,236,99.55l-19.74,25.7-19.92,25.94-18.51,24.1-15.7,20.45-11.24,14.64c-1.78,2.32-3.64,4.59-5.35,7-.07.1-.15.19-.23.29-1.6,2.08-.39,5.69,1.8,6.84,2.64,1.4,5.13.43,6.84-1.79l3.67-4.79,10-13,14.72-19.17,18-23.38,19.74-25.7L240,110.7l18.5-24.1,15.7-20.45,11.25-14.64c1.78-2.32,3.64-4.59,5.35-7l.22-.29c1.6-2.09.39-5.69-1.79-6.84-2.65-1.4-5.13-.43-6.84,1.79Z"/><path class="cls-1" d="M282.33,44.25,286,49l10,13,14.72,19.17,17.95,23.37L348.4,130.3l19.93,25.94,18.5,24.1,15.7,20.44,11.25,14.65,5.35,7,.22.3a5.53,5.53,0,0,0,3,2.3,5.08,5.08,0,0,0,3.85-.51c2.05-1.31,3.5-4.62,1.8-6.84l-3.68-4.78-10-13L399.6,180.67l-18-23.38-19.74-25.7L342,105.65l-18.51-24.1-15.7-20.44L296.54,46.46l-5.35-7-.23-.3a5.53,5.53,0,0,0-3-2.3,5.08,5.08,0,0,0-3.85.51c-2,1.31-3.5,4.62-1.79,6.84Z"/><path class="cls-1" d="M297.85,118.12c0,.4,0,.8,0,1.2-.09,1.2.16-.68,0,.19a17.46,17.46,0,0,1-.55,2.27l-.22.63c-.08.24,0,.56,0,0s.12-.26,0,0l-.29.58a21.6,21.6,0,0,1-1.19,1.95c-.46.73.64-.68-.11.15-.26.28-.5.57-.77.84s-.46.46-.7.68l-.49.43c-.58.52.25-.12.25-.18,0,.29-1.7,1.12-1.93,1.24s-.58.3-.87.46c-.86.44.28-.11.28-.11s-.52.2-.62.24a17.78,17.78,0,0,1-2.27.64l-.5.09c-.67.16,1-.09.31,0-.4,0-.8.08-1.21.09a18.23,18.23,0,0,1-2.45-.07c-.92-.08,1.07.2-.19-.05-.39-.08-.77-.17-1.15-.27s-.76-.22-1.12-.35l-.63-.23c-.54-.17.46.16.43.18s-1.94-1-2.16-1.18-.53-.38-.81-.55c-.55-.35.71.64.24.18l-.37-.32a18.61,18.61,0,0,1-1.71-1.73s-.33-.34-.31-.38.58.85.29.37c-.2-.33-.44-.63-.64-.95s-.39-.65-.57-1c-.07-.15-.15-.29-.22-.44s-.21-1-.15-.3.09.23,0,0l-.22-.63c-.1-.31-.19-.63-.28-1s-.18-.76-.24-1.14c-.21-1.16.05.83,0-.36a16.74,16.74,0,0,1,0-2.24,4.18,4.18,0,0,0,.06-.68s-.18,1-.07.48.16-.88.26-1.31c.06-.23.47-2,.66-2,0,0-.47,1-.12.28l.21-.44c.2-.39.41-.77.64-1.14s.41-.64.62-1c.5-.77-.59.66,0,0a20.06,20.06,0,0,1,1.7-1.75l.36-.33c.71-.64-.24.19-.24.18s.69-.49.8-.57c.69-.45,1.44-.78,2.15-1.19.5-.3-.46.22-.43.17a2.87,2.87,0,0,1,.62-.24q.56-.19,1.11-.36t1-.24l.66-.13c.67-.16-1,.09-.31,0a20.08,20.08,0,0,1,2.45-.1l1,.06c1.25.12-.82-.16.37.07a18.14,18.14,0,0,1,2.59.73,1.58,1.58,0,0,1,.46.18c-.63-.27-.78-.33-.43-.17l.29.14c.39.2.78.4,1.16.62s.65.4,1,.62a3.81,3.81,0,0,1,.53.38c0-.07-.82-.7-.25-.18a21.31,21.31,0,0,1,1.85,1.83,4.12,4.12,0,0,1,.42.5s-.63-.9-.2-.23c.24.36.49.71.71,1.09s.43.76.63,1.15c.07.14.13.3.2.44.3.55-.4-1.16-.06-.13a22.55,22.55,0,0,1,.68,2.4l.12.66c.13.67-.07-1-.05-.31,0,.51.07,1,.07,1.55a5,5,0,0,0,10,0,21.66,21.66,0,0,0-38-13.94,21.52,21.52,0,0,0-2.2,24.88,22.06,22.06,0,0,0,23,10c9.91-1.86,17.1-11,17.2-20.94a5,5,0,0,0-10,0Z"/><path class="cls-1" d="M305.08,215.16H267.36l5,5V174c0-.42,0-.84,0-1.26a2.26,2.26,0,0,1,0-.26v-.2c0-.23,0-.47,0-.7s.19-1.37,0-.54.06-.25.08-.35.09-.44.15-.66c.11-.43.24-.86.38-1.28,0-.11.47-1.11.11-.34s.12-.22.16-.3a14.33,14.33,0,0,1,.82-1.43c.12-.19.25-.37.37-.55.53-.8-.19.24-.19.23s.85-1,1-1.1c.34-.35.71-.67,1.08-1,.71-.65-.24.19-.24.17a4.46,4.46,0,0,1,.81-.56,14.69,14.69,0,0,1,1.28-.74c.1-.05.67-.41.74-.36s-1.2.43-.27.13c.34-.12,2.7-1.06,2.93-.77-.11-.14-1.15.11-.13,0l.87,0h7.75c.24,0,.47,0,.7,0l.69.06-.65-.08a10.49,10.49,0,0,0,1.5.31c.49.13,1,.29,1.44.46.72.24-.23-.16-.28-.13a4.38,4.38,0,0,1,.6.28,16.41,16.41,0,0,1,1.57.91c.18.12.35.26.54.37.59.37-.91-.81-.11-.07.32.29.65.57,1,.88s.64.76,1,1.09-.66-1-.08-.1c.18.28.37.54.54.82a13.1,13.1,0,0,1,.64,1.16,4.06,4.06,0,0,1,.29.59c.09-.16-.39-1-.07-.11.16.48.32.95.44,1.44l.15.66c.11.53-.06,1.1,0,0-.05.66.1,1.36.1,2,0,1.18,0,2.37,0,3.55v43.85a5,5,0,1,0,10,0V177.94c0-3.83.27-7.83-.92-11.52a20.63,20.63,0,0,0-9.3-11.59,22.52,22.52,0,0,0-11.46-2.7,61.58,61.58,0,0,0-9.11.32A19.68,19.68,0,0,0,267,159.57a20.86,20.86,0,0,0-4.66,12.94c0,.91,0,1.82,0,2.73v44.92a5.07,5.07,0,0,0,5,5h37.72a5,5,0,0,0,0-10Z"/><path class="cls-1" d="M328.24,36.72H313.5l5,5V17.21l-5,5h14.74l-5-5V41.72a5,5,0,1,0,10,0V17.21a5.07,5.07,0,0,0-5-5H313.5a5.07,5.07,0,0,0-5,5V41.72a5.07,5.07,0,0,0,5,5h14.74a5,5,0,0,0,0-10Z"/><path class="cls-1" d="M59.3,4.83V377.42c0,5-.08,10.07,0,15.1,0,.22,0,.44,0,.66,0,6.43,10,6.44,10,0V20.59c0-5,.08-10.07,0-15.1V4.83c0-6.43-10-6.45-10,0Z"/><path class="cls-1" d="M207.27,241V374.48c0,6.14-.13,12.3,0,18.44v.26a5,5,0,0,0,10,0V259.74c0-6.14.13-12.3,0-18.44V241a5,5,0,0,0-10,0Z"/><path class="cls-1" d="M299,241V374.48c0,6.14-.13,12.3,0,18.44v.26a5,5,0,1,0,10,0V259.74c0-6.14.13-12.3,0-18.44V241a5,5,0,1,0-10,0Z"/><path class="cls-1" d="M411.67,241V374.48c0,6.14-.13,12.3,0,18.44v.26a5,5,0,0,0,10,0V259.74c0-6.14.13-12.3,0-18.44V241a5,5,0,0,0-10,0Z"/><path class="cls-1" d="M61.67,327.77l10.56,7,25.35,16.72,30.66,20.22,26.49,17.47c4.28,2.82,8.48,5.81,12.85,8.48l.18.11A5,5,0,0,0,174.6,396a5.11,5.11,0,0,0-1.8-6.84l-10.55-7L136.9,365.43,106.24,345.2l-26.5-17.47c-4.27-2.82-8.47-5.81-12.85-8.48l-.17-.11a5,5,0,0,0-6.84,1.79,5.12,5.12,0,0,0,1.79,6.84Z"/><path class="cls-1" d="M168.74,241.48l-10.58,6.79-25.39,16.31-30.5,19.57-26.54,17c-4.3,2.76-8.65,5.45-12.89,8.28l-.18.11c-2.2,1.41-3.3,4.51-1.79,6.84a5.07,5.07,0,0,0,6.84,1.8l10.58-6.79,25.39-16.31,30.49-19.57,26.55-17.05c4.3-2.75,8.65-5.44,12.89-8.27l.18-.11c2.2-1.41,3.3-4.51,1.79-6.84a5.07,5.07,0,0,0-6.84-1.8Z"/><path class="cls-1" d="M172.93,324.16v69.15a5,5,0,0,0,10,0V324.16a5,5,0,0,0-10,0Z"/><path class="cls-1" d="M208.65,239.08l4.29,7.54,10.37,18.22,12.49,21.94,10.8,19c1.75,3.08,3.42,6.23,5.26,9.26l.08.13a5,5,0,1,0,8.64-5l-4.29-7.54-10.37-18.22L233.43,262.4l-10.8-19c-1.75-3.08-3.42-6.23-5.27-9.25,0,0-.05-.09-.07-.14a5,5,0,0,0-8.64,5.05Z"/><path class="cls-1" d="M298.62,234,294,241.58l-11.13,18.13-13.53,22.05-11.64,19c-1.89,3.07-3.88,6.1-5.67,9.23a1,1,0,0,1-.08.14,5,5,0,1,0,8.64,5l4.63-7.54,11.12-18.13,13.53-22.05,11.65-19c1.88-3.07,3.88-6.1,5.66-9.23l.08-.13a5,5,0,0,0-8.63-5.05Z"/><ellipse class="cls-2" cx="177.93" cy="301.7" rx="8.05" ry="4.63"/><path class="cls-1" d="M323.09,321.18,324.88,364c.27,6.51-.16,13.58,2.6,19.63s9.28,9.55,15.36,11.73c10.92,3.93,24.31,4.22,34.82-1.09a26.12,26.12,0,0,0,11.69-11.82,44.89,44.89,0,0,0,3.77-15.13,355.67,355.67,0,0,0,1.38-47.19,5,5,0,0,0-10,0,380.6,380.6,0,0,1-.83,40.53c-.2,2.74-.42,5.48-.72,8.21-.1.87,0-.3.05-.39-.07.3-.09.63-.13.94-.09.52-.17,1-.27,1.56-.2,1-.44,2.08-.72,3.11a29.47,29.47,0,0,0-1,3c-.11-.11.5-1.07.07-.16-.12.24-.23.49-.35.73-.26.53-.55,1-.85,1.57s-.6.91-.9,1.37-.73.69.09-.08c-.16.15-.29.36-.43.52a10,10,0,0,1-2.74,2.68c.79-.34.46-.33.14-.11l-.92.64c-.55.36-1.11.69-1.68,1s-1,.51-1.46.74-.62-.06,0,0a5.25,5.25,0,0,0-1,.39,29.37,29.37,0,0,1-3.55,1c-.61.14-1.23.27-1.85.38l-.75.12c-1,.17,1-.1-.39,0a44,44,0,0,1-8,.11c-.66-.05-1.31-.13-2-.19-.24,0-1-.07.16,0-.39,0-.78-.12-1.17-.18-1.28-.22-2.55-.48-3.81-.8s-2.44-.68-3.64-1.09l-1.73-.65c-.85-.34.05,0,.18.08a11.23,11.23,0,0,1-1.32-.61,27.44,27.44,0,0,1-3.5-2c-.16-.11-1.22-.94-.29-.17l-.6-.51q-.36-.32-.69-.66c-.18-.18-1.09-1.33-.42-.39a14.42,14.42,0,0,1-1-1.67,2.69,2.69,0,0,1-.33-.69l.22.49c-.07-.18-.13-.35-.19-.53a16.71,16.71,0,0,1-.49-1.81c-.07-.3-.12-.61-.18-.92-.25-1.24.09,1.11,0-.15-.27-3-.34-5.95-.46-8.93l-1.9-45.53c-.11-2.61-2.23-5.12-5-5-2.62.12-5.12,2.2-5,5Z"/><path class="cls-1" d="M418.81,241.09a41.91,41.91,0,0,1,5.05-1.27c.44-.09.89-.16,1.33-.23.14,0,1.62-.23.46-.08,1.07-.13,2.13-.24,3.2-.33,3.74-.3,7.5-.37,11.25-.38A194,194,0,0,1,463.47,240l1.4.18c1.54.19-1-.16.53.07l2.77.43q3,.48,5.91,1.11a95.49,95.49,0,0,1,10.24,2.76q2.42.79,4.77,1.74c.16.06,1.44.61.33.13l1.12.49c.85.38,1.7.78,2.53,1.2,2.55,1.29,5.53,2.74,7.65,4.7-1-.89-.12-.08.08.09l.79.66c.5.44,1,.9,1.47,1.37s.91.93,1.33,1.42c.24.27.47.55.7.83-.67-.83.39.59.5.75a23.37,23.37,0,0,1,1.26,2.16c.12.24.24.49.35.73.59,1.2-.29-1,.12.29.24.75.51,1.48.7,2.25.09.38.18.75.25,1.14s.1.5.14.76c-.09-.7-.1-.76,0-.19a28.51,28.51,0,0,1,.05,4.62,9,9,0,0,1-.12,1.15c.28-1.31,0,0-.05.21q-.24,1.35-.6,2.67a34.74,34.74,0,0,1-1.37,4.11c.46-1.15-.06.1-.15.27-.17.37-.36.74-.55,1.09-.46.87-1,1.67-1.54,2.49-.75,1.16.65-.69-.27.37-.3.34-.58.68-.89,1-.56.6-1.16,1.18-1.78,1.73-.32.28-.64.54-1,.81-1.06.92.81-.56-.34.27-.78.57-1.56,1.12-2.36,1.65a85.34,85.34,0,0,1-8.46,4.86q-2.1,1.05-4.24,2l-1.09.49c-.17.07-1.42.6-.27.12l-2.25.92q-4.83,1.91-9.8,3.41a154.09,154.09,0,0,1-23.54,5.11c1.17-.17-.32,0-.46.06l-1.79.21c-.91.11-1.81.2-2.71.29q-3.16.31-6.35.51-6.4.38-12.82.27a5,5,0,0,0-5,5,5.1,5.1,0,0,0,5,5,166.46,166.46,0,0,0,46.64-5.74,133.14,133.14,0,0,0,20.75-7.59c6.47-3,13.22-6.62,18.31-11.71,5.58-5.57,8.5-13.47,9.07-21.24a27.64,27.64,0,0,0-7.62-20.94c-4.54-4.82-10.51-8.28-16.54-10.86a99.87,99.87,0,0,0-22.53-6.51,176.87,176.87,0,0,0-25.16-2.36c-8.3-.21-16.75-.23-24.94,1.22a41.28,41.28,0,0,0-5.5,1.36c-2.48.8-4.35,3.5-3.49,6.15.8,2.48,3.49,4.35,6.15,3.49Z"/><path class="cls-1" d="M418.28,324.76q22.11,13.28,43.63,27.5c14.32,9.48,28.38,19.32,42.29,29.39,7.9,5.71,15.76,11.49,23.62,17.26,2.12,1.56,5.67.43,6.84-1.79,1.38-2.61.47-5.18-1.79-6.84-14-10.28-28-20.56-42.2-30.51q-20.91-14.64-42.48-28.31-12.33-7.81-24.86-15.33a5,5,0,1,0-5.05,8.63Z"/><path class="cls-1" d="M587.1,356.87q0,1.38-.12,2.76c0,.18-.22,1.64-.07.77s0,.16,0,.29-.09.52-.14.78a33.69,33.69,0,0,1-1.49,5.33c-.08.2-.16.39-.23.59-.19.51-.31.15.14-.32a4.81,4.81,0,0,0-.52,1.15c-.41.85-.85,1.69-1.33,2.51s-.88,1.44-1.35,2.14c-.27.39-.55.78-.83,1.16-.41.56,0,.21-.1.13h0l-.21.25a37.47,37.47,0,0,1-3.9,4.07c-.55.51-1.41,1.56-2.13,1.79.08,0,1-.7.23-.18l-.53.39c-.45.32-.91.64-1.37.94a41.37,41.37,0,0,1-5,2.82l-1.23.58c-.81.37.14,0,.24-.1a5.13,5.13,0,0,1-.8.32c-.91.36-1.84.69-2.78,1a44.44,44.44,0,0,1-6,1.48c-.52.1-1.09.12-1.6.26.13,0,1.16-.14.24,0l-.72.08c-1.1.11-2.21.18-3.32.21a47.33,47.33,0,0,1-6.3-.21l-.72-.08c-.93-.1.11,0,.24,0a11.11,11.11,0,0,1-1.6-.26q-1.59-.27-3.15-.66a46.37,46.37,0,0,1-5.82-1.87c-.21-.08-.42-.19-.63-.26.12,0,1,.47.24.1l-1.24-.58c-.91-.44-1.81-.91-2.69-1.41s-1.54-.92-2.28-1.41q-.63-.41-1.23-.84l-.54-.39c-.64-.46-.31-.05.09.08-.71-.23-1.56-1.28-2.12-1.79-.73-.65-1.42-1.33-2.09-2s-1.24-1.34-1.82-2l-.4-.5s.75,1,.2.25c-.31-.43-.63-.85-.93-1.29a35.24,35.24,0,0,1-2.68-4.65,4.81,4.81,0,0,0-.52-1.15c.45.47.33.83.14.32-.07-.2-.15-.39-.23-.59-.33-.89-.62-1.79-.88-2.7s-.44-1.74-.61-2.63a7.16,7.16,0,0,0-.23-1.41c0,.09.13,1.25,0,.37,0-.27,0-.53-.07-.8a31.69,31.69,0,0,1,0-5.68c0-.21,0-.42.06-.64.05-.48.29-.44,0,.38a7.52,7.52,0,0,0,.2-1.26c.18-.94.39-1.87.64-2.79s.52-1.71.83-2.55c.07-.18.65-1.45.27-.72s0,.05.06-.13.26-.57.4-.86a35.26,35.26,0,0,1,2.7-4.64c.27-.39.56-.77.84-1.16.45-.61-.17.27-.2.25l.4-.49c.62-.75,1.26-1.47,1.93-2.16s1.22-1.23,1.86-1.81a9.16,9.16,0,0,1,2.24-1.9c-.69.26-.61.46-.22.18l.53-.39,1.23-.85c.84-.56,1.69-1.08,2.57-1.58s1.68-.92,2.54-1.33l1.24-.58c.27-.12.76-.46-.24.1a9.16,9.16,0,0,1,1-.39,46,46,0,0,1,5.67-1.78c.92-.23,1.85-.42,2.79-.59.53-.1,1.07-.18,1.6-.26.71-.11-1,.11-.25,0l.91-.1a48.55,48.55,0,0,1,6.49-.22c1,0,2.09.11,3.13.22.36,0,1.85.1.48,0a13.47,13.47,0,0,1,1.78.29,44.88,44.88,0,0,1,5.84,1.45c.89.28,1.76.59,2.62.92l.8.33c.64.25-.86-.39-.24-.11l1.39.65a42.42,42.42,0,0,1,5.12,2.91l1.23.85.53.39c.39.28.47.08-.23-.18a9.21,9.21,0,0,1,2.25,1.9,36.36,36.36,0,0,1,3.78,4l.41.49s-.65-.86-.2-.25c.28.39.57.77.84,1.16.54.78,1,1.59,1.52,2.41s.87,1.57,1.25,2.38a4.57,4.57,0,0,0,.52,1.14c-.07-.06-.45-1.13-.14-.32.09.25.19.49.28.74a32.71,32.71,0,0,1,1.47,5.34,6.62,6.62,0,0,0,.2,1.26c-.34-.83-.1-.86-.06-.38,0,.22.05.43.07.64.09,1,.13,1.95.13,2.92a5,5,0,0,0,10,0,39,39,0,0,0-9-24.36,46.18,46.18,0,0,0-21.87-14.44c-17.48-5.59-38.34-1.24-51.11,12.27A39.54,39.54,0,0,0,504.33,354a37.19,37.19,0,0,0,6.57,24.23c10.92,15.66,30.68,22.17,49.12,19,17.09-2.93,33.37-15.85,36.44-33.53a41.74,41.74,0,0,0,.64-6.79,5,5,0,0,0-10,0Z"/><path class="cls-1" d="M582.72,321.43a235.11,235.11,0,0,0,28.71,61.23c3.67,5.55,7.61,10.92,11.73,16.16,1.62,2.07,5.39,1.83,7.07,0,2-2.19,1.73-4.87,0-7.07l-.67-.86c-.15-.19-.74-1-.15-.19-.36-.46-.71-.92-1.06-1.39-.87-1.15-1.74-2.32-2.59-3.49q-2.43-3.35-4.73-6.76-4.6-6.84-8.71-14t-7.57-14.4c-1.17-2.41-2.29-4.85-3.36-7.3l-.87-2c-.11-.27-.23-.53-.34-.8.39.92,0,0-.08-.21-.53-1.27-1.05-2.55-1.56-3.83q-3.45-8.75-6.18-17.75a5,5,0,0,0-9.64,2.66Z"/><path class="cls-1" d="M58.24,61,52.57,67.4,39.05,82.66,22.61,101.22l-14.15,16C6.15,119.8,3.8,122.37,1.53,125l-.1.11c-1.73,2-2.07,5.17,0,7.08,1.9,1.74,5.22,2.09,7.07,0l5.67-6.4,13.52-15.26L44.13,92,58.28,76c2.31-2.6,4.66-5.18,6.93-7.82l.1-.11c1.73-2,2.07-5.17,0-7.07-1.9-1.74-5.22-2.09-7.07,0Z"/><path class="cls-1" d="M58.24,121.54l-5.67,6.4L39.05,143.2,22.61,161.75l-14.15,16c-2.31,2.61-4.66,5.18-6.93,7.82l-.1.12c-1.73,2-2.07,5.17,0,7.07,1.9,1.74,5.22,2.09,7.07,0l5.67-6.4,13.52-15.26,16.44-18.55,14.15-16c2.31-2.61,4.66-5.19,6.93-7.83l.1-.11c1.73-2,2.07-5.17,0-7.07-1.9-1.74-5.22-2.09-7.07,0Z"/><path class="cls-1" d="M58.24,3.48,52.57,9.87,39.05,25.13,22.61,43.69l-14.15,16c-2.31,2.6-4.66,5.18-6.93,7.82l-.1.11c-1.73,2-2.07,5.17,0,7.07,1.9,1.74,5.22,2.09,7.07,0l5.67-6.39L27.69,53,44.13,34.45l14.15-16c2.31-2.61,4.66-5.18,6.93-7.82a.52.52,0,0,1,.1-.11c1.73-2,2.07-5.17,0-7.07-1.9-1.75-5.22-2.1-7.07,0Z"/><path class="cls-1" d="M63.3,66.58,69,73,82.48,88.24l16.44,18.55,14.15,16c2.31,2.6,4.52,5.32,6.93,7.82l.1.12a5,5,0,0,0,7.07,0,5.12,5.12,0,0,0,0-7.08l-5.66-6.39L108,102,91.55,83.41l-14.15-16c-2.31-2.6-4.52-5.32-6.93-7.82l-.1-.11a5,5,0,0,0-7.07,0,5.11,5.11,0,0,0,0,7.07Z"/><path class="cls-1" d="M63.3,127.11l5.66,6.4,13.52,15.26,16.44,18.55,14.15,16c2.31,2.6,4.52,5.32,6.93,7.83a.52.52,0,0,1,.1.11,5,5,0,0,0,7.07,0,5.11,5.11,0,0,0,0-7.07l-5.66-6.4L108,162.5,91.55,144,77.4,128c-2.31-2.59-4.52-5.32-6.93-7.82a.52.52,0,0,1-.1-.11,5,5,0,0,0-7.07,0,5.11,5.11,0,0,0,0,7.07Z"/><path class="cls-1" d="M63.3,9.05,69,15.44,82.48,30.7,98.92,49.26l14.15,16c2.31,2.6,4.52,5.32,6.93,7.82l.1.11a5,5,0,0,0,7.07,0,5.11,5.11,0,0,0,0-7.07l-5.66-6.39L108,44.44,91.55,25.88,77.4,9.91c-2.31-2.6-4.52-5.32-6.93-7.82L70.37,2A5,5,0,0,0,63.3,2a5.11,5.11,0,0,0,0,7.07Z"/></g></g></svg>