<svg xmlns="http://www.w3.org/2000/svg" viewBox="0 0 857.02 413.27"><defs><style>.cls-1{fill:#c6ccb7;}.cls-2{fill:#dedfc7;}.cls-3{fill:#fff;}.cls-4,.cls-5{fill:#4b361e;}.cls-5{stroke:#4b361e;stroke-miterlimit:10;stroke-width:2px;}</style></defs><g id="圖層_2" data-name="圖層 2"><g id="圖層_1-2" data-name="圖層 1"><path class="cls-1" d="M422.37,406.29h428.4L639.53,17.48c-12.66-23.31-46.59-23.31-59.25,0L407.6,335.31Z"/><path class="cls-2" d="M398.2,405H512.75L385.15,104c-12.11-28.57-54.63-28.57-66.74,0L262.86,235Z"/><polygon class="cls-3" points="521.91 406.42 514.67 409.5 450.07 257.13 454.78 248.47 521.91 406.42"/><path class="cls-4" d="M86.65,335.78H218.93c6.07,0,12.16.13,18.23,0h.26a5,5,0,0,0,0-10H105.14c-6.07,0-12.16-.13-18.23,0h-.26a5,5,0,1,0,0,10Z"/><path class="cls-4" d="M163.17,205.13h78.15a5,5,0,0,0,0-10H163.17a5,5,0,1,0,0,10Z"/><path class="cls-4" d="M237.57,203.32l4.19,5.53,11.4,15.06L270,246.18l20.58,27.16,22.53,29.75L335.79,333,357,361l17.86,23.59,12.89,17q3,4,6.11,8.06c.08.12.17.23.26.35,1.57,2.08,4.38,3.38,6.84,1.79,2.05-1.32,3.48-4.61,1.79-6.84l-4.19-5.53-11.4-15.06L370.3,362.14,349.73,335l-22.54-29.75-22.66-29.93-21.2-28-17.87-23.58-12.89-17-6.1-8.06-.27-.35c-1.57-2.07-4.38-3.37-6.84-1.79-2.05,1.32-3.48,4.61-1.79,6.84Z"/><path class="cls-4" d="M44.76,389.26h83.81c3.87,0,7.76.11,11.63,0h.16a5,5,0,0,0,0-10H56.56c-3.87,0-7.76-.1-11.63,0h-.17a5,5,0,1,0,0,10Z"/><path class="cls-4" d="M183.74,389.26h83.81c3.87,0,7.76.11,11.63,0h.17a5,5,0,0,0,0-10H195.54c-3.87,0-7.76-.1-11.63,0h-.17a5,5,0,0,0,0,10Z"/><path class="cls-4" d="M186.39,365.35h72.47a5,5,0,0,0,0-10H186.39a5,5,0,0,0,0,10Z"/><path class="cls-4" d="M64.73,365.35h75.63a5,5,0,0,0,0-10H64.73a5,5,0,0,0,0,10Z"/><path class="cls-4" d="M264.67,302.61h47.57a5,5,0,0,0,0-10H264.67a5,5,0,1,0,0,10Z"/><path class="cls-4" d="M218.56,238.3h45.52a5,5,0,0,0,0-10H218.56a5,5,0,0,0,0,10Z"/><path class="cls-4" d="M269.37,345.94h45.51a5,5,0,0,0,0-10H269.37a5,5,0,0,0,0,10Z"/><path class="cls-4" d="M320.16,372.52h45.52a5,5,0,1,0,0-10H320.16a5,5,0,0,0,0,10Z"/><path class="cls-4" d="M218.56,275.07h45.52a5,5,0,0,0,0-10H218.56a5,5,0,0,0,0,10Z"/><path class="cls-4" d="M158,224.78l-3.66,4.86-9.91,13.15-14.65,19.44L111.8,286,92.23,312,72.47,338.25,54,362.79,38.42,383.45,27.23,398.31c-1.77,2.34-3.61,4.65-5.31,7a3.55,3.55,0,0,1-.23.31c-1.58,2.1-.4,5.68,1.8,6.84,2.63,1.39,5.15.44,6.84-1.79L34,405.85l9.91-13.16,14.64-19.44,17.94-23.81,19.57-26,19.76-26.22,18.49-24.55L149.86,252l11.19-14.86c1.77-2.35,3.61-4.65,5.31-7.05l.23-.3c1.58-2.1.4-5.68-1.79-6.84-2.63-1.39-5.16-.45-6.84,1.79Z"/><path class="cls-4" d="M157.9,229.83l3.66,4.86,9.91,13.15,14.65,19.44,17.94,23.81,19.57,26,19.75,26.23,18.49,24.54,15.56,20.66,11.2,14.85c1.77,2.35,3.53,4.7,5.31,7l.23.31c1.56,2.08,4.38,3.37,6.84,1.79,2.06-1.33,3.47-4.61,1.79-6.84l-3.66-4.86-9.91-13.16L274.58,368.2l-17.93-23.81-19.57-26-19.76-26.22-18.49-24.54L183.27,247l-11.19-14.86-5.31-7-.23-.31c-1.57-2.08-4.39-3.37-6.84-1.79-2.06,1.32-3.48,4.6-1.8,6.84Z"/><path class="cls-4" d="M158.29,197.61l-4.22,5.57-11.48,15.15-17,22.42L104.9,268.1,82.3,298,59.41,328.17,38.13,356.26l-18,23.83-13,17.12c-2,2.7-4.15,5.36-6.13,8.1l-.26.35c-1.59,2.09-.4,5.68,1.79,6.84,2.64,1.39,5.15.44,6.84-1.79l4.22-5.57L25.06,390l17-22.42,20.71-27.35,22.6-29.84,22.89-30.23,21.28-28.09,18-23.83,13-17.12c2-2.7,4.15-5.36,6.13-8.1.08-.12.17-.23.26-.35,1.59-2.09.4-5.68-1.79-6.84-2.64-1.39-5.15-.44-6.84,1.8Z"/><path class="cls-4" d="M158.23,202.65l4.21,5.57,11.48,15.16,17,22.42,20.71,27.34L234.21,303l22.89,30.23,21.28,28.09,18,23.82,13,17.13,6.13,8.1c.09.12.18.23.26.35,1.58,2.07,4.39,3.37,6.84,1.79,2.06-1.33,3.49-4.61,1.8-6.84l-4.22-5.57-11.48-15.16-17-22.42L271,335.17l-22.61-29.85-22.89-30.23L204.27,247l-18.05-23.82-13-17.13-6.14-8.1-.26-.34c-1.57-2.08-4.38-3.38-6.84-1.8-2.06,1.33-3.48,4.61-1.79,6.84Z"/><path class="cls-4" d="M176.18,289.2c0,.46,0,.93-.05,1.39a4.39,4.39,0,0,1-.06.69c.06,0,.19-1.08,0-.31a22.1,22.1,0,0,1-.68,2.78c-.06.22-.14.42-.21.64s-.09.8-.05.17.06-.13-.08.16l-.29.6a25.09,25.09,0,0,1-1.44,2.38c-.34.53.14.14.2-.22a3,3,0,0,1-.41.5c-.28.34-.58.66-.88,1s-1.37,1.66-1.94,1.75c.36-.06.76-.54.23-.19l-.54.37c-.37.24-.74.46-1.12.68s-.77.42-1.17.6a3,3,0,0,1-.6.28c.63-.27.77-.33.42-.19l-.31.11a23,23,0,0,1-2.58.74l-.67.12c-.31.06-.8-.08-.18,0s.1,0-.19,0l-.87.05a20,20,0,0,0-2.78-.1c.11,0,1.2.21.31,0l-.67-.12q-.75-.15-1.47-.36c-.43-.12-.85-.27-1.27-.41-1.09-.36.6.33-.19-.06a23.23,23.23,0,0,1-2.59-1.42l-.54-.37c-.55-.35-.1.15.22.19-.23,0-.71-.59-.87-.73a19.18,19.18,0,0,1-1.94-2,2.61,2.61,0,0,1-.41-.5c.06.36.54.75.19.22-.23-.36-.49-.72-.72-1.09s-.44-.76-.64-1.15c-.1-.19-.2-.39-.29-.59s-.19-1-.15-.31,0,.09-.05-.17-.15-.42-.22-.64q-.21-.63-.36-1.29c-.1-.38-.18-.77-.25-1.15a2.84,2.84,0,0,1-.11-.68c.09.71.11.87.07.48,0-.17,0-.34,0-.52a18.56,18.56,0,0,1,0-2.79,4.2,4.2,0,0,0,.06-.69c0,.11-.2,1.21,0,.31.08-.44.16-.89.26-1.33s.5-2.49.8-2.55c-.06,0-.45,1-.11.28.09-.2.18-.4.28-.59.22-.45.46-.88.71-1.3s.47-.74.71-1.1c.67-1-.58.63.21-.29a22.68,22.68,0,0,1,1.91-2c.18-.15.77-.81,1-.84,0,0-1,.71-.22.2l.54-.37a22.34,22.34,0,0,1,2.44-1.36c1.11-.54-.66.21.18-.07.42-.14.84-.3,1.27-.42s.86-.24,1.3-.34l.66-.13.51-.08q.57-.09-.48.06c.15-.27,2.27-.11,2.61-.1s.92.06,1.39.09c.69,0-1-.18-.31-.05l.84.14a24.56,24.56,0,0,1,2.9.83c.91.3-.26-.14-.27-.13a4,4,0,0,1,.9.41c.44.22.87.46,1.29.71s.83.54,1.24.81c.78.51-.2-.2-.23-.2.14,0,.51.41.63.52a19,19,0,0,1,2.19,2.2c.08.1.4.41.41.51,0-.3-.59-.84-.1-.09.27.41.54.81.79,1.24s.48.86.7,1.3c.09.2.18.41.28.6.27.55-.35-1-.07-.12a25.45,25.45,0,0,1,.86,3.07l.09.5c.21,1.17-.07-1.15,0,0,0,.58.07,1.15.08,1.74a5,5,0,0,0,10,0,24.48,24.48,0,0,0-16.12-22.75,24.12,24.12,0,0,0-26.38,7.14,25.09,25.09,0,0,0-5.69,14,23.86,23.86,0,0,0,3.4,14,24.46,24.46,0,0,0,25.76,11.11c11-2.2,18.93-12.48,19-23.57a5,5,0,0,0-10,0Z"/><path class="cls-4" d="M183.74,403.18H140.36l5,5V355.51c0-.34-.12-2.25.14-2.45-.1.08-.18,1.06,0,.31.06-.33.12-.67.19-1,.11-.49.23-1,.38-1.46s.31-1,.47-1.42c.36-1.1-.5,1,0,0,.15-.3.28-.6.43-.89a24.79,24.79,0,0,1,1.71-2.79c.42-.61-.2.15-.18.23,0-.1.55-.66.63-.74.36-.41.73-.8,1.12-1.18s.81-.73,1.21-1.09c.82-.72-.71.45-.11.08.23-.14.44-.32.67-.47a23.24,23.24,0,0,1,3-1.7c.88-.43-.1-.11-.13,0a5.07,5.07,0,0,1,.62-.24c.52-.18,1.06-.35,1.59-.49s1.1-.27,1.65-.38c.12,0,1.21-.11.34-.06s.56,0,.71-.05a33.8,33.8,0,0,1,4.93,0,4.48,4.48,0,0,1,.69.07l-.65-.09.67.11c.55.11,1.1.23,1.64.38s1,.27,1.44.44c.11,0,.76.2.78.29l-.43-.19.45.21a19.5,19.5,0,0,1,2.84,1.63l.54.37c.94.65-.84-.74,0,0,.41.36.83.71,1.22,1.09s.76.77,1.12,1.18c.07.07.66.66.63.74s-.73-1-.19-.23a24.41,24.41,0,0,1,1.79,2.93l.35.75c.48,1-.22-.81-.05-.13.11.48.34.94.48,1.42s.31,1.08.43,1.62c.06.28.11.56.16.83.23,1.31-.05-.85,0,.2.06.79.1,1.58.1,2.38,0,1.28,0,2.56,0,3.84v48.56a5,5,0,1,0,10,0V361.55c0-4.18.22-8.4-.8-12.49a26.1,26.1,0,0,0-23.42-19.31,29.34,29.34,0,0,0-13.83,2.19,25.71,25.71,0,0,0-11.58,10.15,26,26,0,0,0-3.75,13.43v52.66a5.07,5.07,0,0,0,5,5h43.38a5,5,0,1,0,0-10Z"/><path class="cls-4" d="M210.38,195.13h-17l5,5V171.55l-5,5h17l-5-5v28.58a5,5,0,0,0,10,0V171.55a5.08,5.08,0,0,0-5-5h-17a5.07,5.07,0,0,0-5,5v28.58a5.07,5.07,0,0,0,5,5h17a5,5,0,0,0,0-10Z"/><path class="cls-4" d="M5.73,413.18H817.64c11,0,22,.21,32.91,0H852c6.44,0,6.45-10,0-10H40.08c-11,0-21.95-.21-32.91,0H5.73c-6.44,0-6.45,10,0,10Z"/><path class="cls-4" d="M403.15,91.35V392.46c0,4.07-.06,8.14,0,12.21,0,.18,0,.35,0,.53a5,5,0,0,0,10,0V104.09c0-4.07.06-8.14,0-12.21v-.53a5,5,0,0,0-10,0Z"/><path class="cls-4" d="M520,265V388c0,5.65-.13,11.31,0,17v.23a5,5,0,1,0,10,0v-123c0-5.65.13-11.32,0-17V265a5,5,0,1,0-10,0Z"/><path class="cls-4" d="M592.38,265V388c0,5.65-.14,11.31,0,17v.23a5,5,0,0,0,10,0v-123c0-5.65.13-11.32,0-17a1.92,1.92,0,0,1,0-.24,5,5,0,0,0-10,0Z"/><path class="cls-4" d="M681.27,265V388c0,5.65-.13,11.31,0,17a1.77,1.77,0,0,1,0,.23,5,5,0,1,0,10,0v-123c0-5.65.14-11.32,0-17V265a5,5,0,1,0-10,0Z"/><path class="cls-4" d="M405.63,345.29l8.35,6.43,20,15.37,24.13,18.58,21,16.14c3.37,2.59,6.66,5.4,10.16,7.82l.14.12c2.09,1.6,5.69.38,6.85-1.8,1.4-2.65.42-5.13-1.8-6.84L486,394.68l-20-15.37-24.13-18.58-21-16.14c-3.37-2.6-6.66-5.4-10.16-7.82l-.14-.12c-2.08-1.6-5.69-.38-6.84,1.8-1.41,2.65-.43,5.13,1.79,6.84Z"/><path class="cls-4" d="M490.11,269.48l-8.35,6.43-20,15.37-24.13,18.58-21,16.14-10.15,7.82-.15.11a5.57,5.57,0,0,0-2.3,3,5.15,5.15,0,0,0,.5,3.86c1.32,2,4.63,3.5,6.84,1.79l8.36-6.43,19.95-15.37,24.14-18.59,21-16.13L495,278.23l.15-.12a5.5,5.5,0,0,0,2.3-3,5.08,5.08,0,0,0-.51-3.85c-1.31-2-4.62-3.5-6.84-1.79Z"/><path class="cls-4" d="M492.9,341.61v63.72a5,5,0,1,0,10,0V341.61a5,5,0,0,0-10,0Z"/><path class="cls-4" d="M521.23,267.57l11.55,24.35,18.4,38.78,4.2,8.86c1.13,2.37,4.71,3.17,6.84,1.8a5.14,5.14,0,0,0,1.8-6.84l-11.55-24.35-18.41-38.79-4.2-8.86c-1.12-2.37-4.71-3.17-6.84-1.79a5.12,5.12,0,0,0-1.79,6.84Z"/><path class="cls-4" d="M592.21,262.52l-12.48,24.41L560,325.58l-4.57,8.94c-1.19,2.32-.68,5.53,1.8,6.84,2.28,1.2,5.57.69,6.84-1.8l12.48-24.4,19.78-38.66,4.57-8.93c1.19-2.33.68-5.53-1.8-6.84-2.28-1.21-5.57-.7-6.84,1.79Z"/><ellipse class="cls-5" cx="497.9" cy="326.7" rx="6.35" ry="4.39"/><path class="cls-4" d="M611.38,338.88l1.35,37.8c.11,3.05.21,6.1.33,9.15a35,35,0,0,0,1.05,8.41c1.72,6,6.38,10.13,11.94,12.61,9.51,4.24,22.07,5.13,31-1a25,25,0,0,0,9.38-12.39c1.61-4.37,2.08-9.12,2.42-13.73a411.53,411.53,0,0,0,1-41.85,5,5,0,0,0-10,0q.48,17.47-.51,35c-.16,2.79-.34,5.58-.57,8.37-.08.89-.18,1.78-.28,2.67s.07-.3,0-.33-.1.69-.12.84c-.08.5-.17,1-.27,1.51-.19,1-.42,2-.7,3-.13.43-.26.86-.41,1.29s-.89,1.92-.22.7c-.46.84-.81,1.73-1.31,2.55-.26.44-.55.86-.84,1.28s0,.35.16-.2c-.07.26-.51.61-.68.79a10.68,10.68,0,0,1-2.08,2c1.1-.68-.41.24-.67.4-.51.32-1,.62-1.58.89l-.66.31c-.67.33,1.15-.4,0,0-.46.16-.92.33-1.39.48a28.15,28.15,0,0,1-3.27.75c-1,.16.08,0,.2,0a4.32,4.32,0,0,1-1,.1c-.51,0-1,.06-1.53.08a34.53,34.53,0,0,1-3.67-.11l-.78-.08c-.77-.08.07.12.18,0-.13.13-1.34-.23-1.53-.26a33.29,33.29,0,0,1-3.53-.92c-.54-.17-1.08-.36-1.61-.56a3.63,3.63,0,0,1-.7-.28s1.11.51.17.06a30,30,0,0,1-3.21-1.73c-.25-.16-.48-.33-.72-.48-1.13-.7.41.41-.18-.11s-.93-.81-1.36-1.27c-.18-.19-.36-.39-.53-.6.14.17.49.76,0,0-.14-.23-.29-.46-.42-.7s-.6-1.37-.18-.26a17.55,17.55,0,0,1-.88-3.25c0-.18-.12-1-.06-.32s0-.16,0-.33c-.06-.66-.1-1.32-.13-2-.14-2.78-.21-5.56-.31-8.34l-1.42-39.79c-.1-2.61-2.24-5.13-5-5a5.06,5.06,0,0,0-5,5Z"/><path class="cls-4" d="M688.24,269.6a27.63,27.63,0,0,1,4.07-1.23c.71-.16,1.42-.28,2.14-.4,1-.17.18,0,0,0,.51-.07,1-.12,1.55-.17,3.09-.3,6.21-.35,9.32-.35s6.28.09,9.41.3c1.56.1,3.12.23,4.67.4l2.31.27c-.2,0-.94-.14.06,0l1.37.2a85.83,85.83,0,0,1,9.4,2c1.31.36,2.62.76,3.91,1.2l1.78.64,1.17.45c.23.09,1.39.59.34.13a52.51,52.51,0,0,1,7.09,3.71c.55.34,1.08.69,1.6,1.06.26.18.52.36.77.55l.15.11c.44.34.4.3-.12-.1.36,0,1.16,1,1.41,1.18q.75.65,1.44,1.35c.38.37.74.76,1.09,1.15l.68.79c.59.67-.07-.14-.15-.21a12.53,12.53,0,0,1,2.34,3.79l.35.75c-.49-1.07,0,.17.11.35.21.57.39,1.16.55,1.75s.29,1.18.4,1.78c.06.34.49,1.34.06.26a4.88,4.88,0,0,1,.12,1.21,27.11,27.11,0,0,1,0,4c0,.27,0,.53-.06.8s-.08,1.57,0,.29a12.53,12.53,0,0,1-.36,2,35.68,35.68,0,0,1-1,3.94c-.21.66-.46,1.3-.69,1.94.34-.93.11-.24,0,0-.22.44-.42.88-.65,1.32a21.11,21.11,0,0,1-1.1,1.83c-.2.31-.41.6-.63.9.51-.7.1-.12,0,0a35.2,35.2,0,0,1-3.36,3.33l-.68.57c-.08.06-1.25,1-.4.33l-1.56,1.14c-1.1.77-2.22,1.52-3.36,2.23a76.11,76.11,0,0,1-6.9,3.83c-1.22.6-2.45,1.16-3.69,1.71s.64-.25-.12.06l-1,.39c-.77.31-1.54.61-2.32.9a102.65,102.65,0,0,1-18.58,5c-.86.15-1.72.28-2.59.41l-.87.12c1.18-.16-.4.05-.63.08-1.68.2-3.36.36-5,.48-3.39.25-6.79.33-10.18.26a5,5,0,0,0,0,10,111.46,111.46,0,0,0,38-5.75,93.22,93.22,0,0,0,16.94-7.6c5.58-3.25,11.13-7.14,15-12.4s5.57-12.06,5.93-18.44a28.45,28.45,0,0,0-5.11-18.28c-7.34-10-19.53-15.27-31.32-17.86a117.69,117.69,0,0,0-23.07-2.54c-7.44-.13-15.52-.22-22.56,2.49-2.43.94-4.38,3.41-3.49,6.15.77,2.37,3.54,4.5,6.15,3.5Z"/><path class="cls-4" d="M687,342.51q8.76,6.15,17.38,12.48c2.85,2.1,5.7,4.21,8.52,6.35l4.22,3.2L719,366l1.14.88s1.23.95.51.39C732,376,743,385,753.83,394.16q9.34,7.9,18.6,15.88c2,1.7,5.15,2.1,7.08,0,1.71-1.87,2.12-5.25,0-7.07-22.08-18.94-44.35-37.57-67.74-54.89q-9.75-7.23-19.71-14.2c-2.15-1.51-5.65-.46-6.84,1.79a5.13,5.13,0,0,0,1.79,6.84Z"/><path class="cls-4" d="M819.7,371.75c0,.83,0,1.65-.09,2.47,0,.41-.07.82-.11,1.22-.13,1.25.14-.82,0,.39a33.28,33.28,0,0,1-1.14,4.81c-.23.75-.51,1.48-.78,2.21s.4-.88-.08.19c-.18.41-.37.81-.57,1.21a32.74,32.74,0,0,1-2.43,4.12c-.11.16-.59,1-.77,1.07,0,0,.65-.78.28-.36l-.3.38c-.56.68-1.13,1.34-1.74,2s-1.07,1.09-1.63,1.6l-.73.65-.5.42c-.15.12-.79.79-.26.23s-.37.26-.54.39l-.81.56c-.72.49-1.47.94-2.23,1.37s-1.35.73-2.05,1.05c-.17.09-1.35.6-.6.29s-.61.23-.79.29a32.48,32.48,0,0,1-4.65,1.33c-.39.08-.77.15-1.16.21-1.17.2.73-.06-.19,0s-1.71.16-2.57.2a36.44,36.44,0,0,1-5-.2c-.92-.09,1,.16-.19,0l-1.16-.21c-.82-.17-1.63-.37-2.44-.6s-1.48-.46-2.21-.73c-.23-.08-1-.23-1.08-.42,0,0,1.14.52.28.12l-.59-.28a31.15,31.15,0,0,1-4.14-2.33l-.95-.65c-.22-.16-1-.91-.54-.39s-.34-.3-.51-.44c-.33-.28-.66-.56-1-.86a33.09,33.09,0,0,1-3.26-3.44l-.41-.51c-.36-.43.3.36.28.36s-.57-.77-.67-.93c-.48-.68-.92-1.37-1.34-2.08s-.77-1.34-1.12-2c-.17-.35-.34-.7-.5-1l-.27-.61c-.27-.6.45,1.17.05.11a38.55,38.55,0,0,1-1.42-4.5c-.18-.78-.34-1.56-.47-2.35a3.58,3.58,0,0,1-.11-.68c0,.06.14,1.25,0,.29,0-.46-.1-.92-.13-1.39a34.86,34.86,0,0,1,0-5.11c0-.41.08-.81.12-1.22.09-.93-.17,1.07,0-.21.14-.85.3-1.69.5-2.52a41.43,41.43,0,0,1,1.49-4.66c.19-.53-.19.42-.19.42.1-.19.18-.41.27-.61.16-.35.33-.7.5-1.05.37-.74.76-1.47,1.19-2.19s.8-1.31,1.24-1.94c.22-.31.46-.62.67-.93.31-.47-.29.38-.28.35a3.33,3.33,0,0,1,.51-.64,33.09,33.09,0,0,1,3.26-3.44c.24-.22,1.42-1.51,1.74-1.48,0,0-1,.73-.23.18l.39-.29c.36-.25.71-.5,1.08-.74a32.38,32.38,0,0,1,4.14-2.34c.21-.1,1.3-.57.6-.28s.45-.17.63-.24q1.17-.43,2.37-.78t2.28-.57l1.16-.22a3.75,3.75,0,0,0,.67-.11c-.25.09-1,.12-.32,0a33.2,33.2,0,0,1,5.18-.19c.75,0,1.49.08,2.23.17,1.29.14-.72-.13.19,0,.44.07.89.15,1.33.24a32.54,32.54,0,0,1,4.81,1.38c.16.06.84.22.92.36-.1-.19-.93-.41-.28-.11l.59.27q1.13.52,2.19,1.14t1.95,1.2c.32.21.64.42,1,.65l.39.29.26.19c.3.23.18.13-.36-.28.36,0,1.45,1.22,1.74,1.48.6.56,1.19,1.13,1.75,1.72s1,1.13,1.51,1.72l.31.39c.44.53,0-.18-.18-.24.23.06.64.89.77,1.07a33.59,33.59,0,0,1,2.43,4.13c.17.35.34.7.5,1.05.07.15.13.3.2.46.28.61-.35-.91-.12-.27.3.79.6,1.57.85,2.37a33,33,0,0,1,1.14,4.81c.19,1.17-.05-.71,0,.21,0,.41.09.81.12,1.22.06.88.09,1.76.1,2.64a5,5,0,0,0,10,0,38.77,38.77,0,0,0-25.1-36.11c-14.49-5.42-31.77-.56-41.45,11.46a39.62,39.62,0,0,0-8.75,21.83,38.64,38.64,0,0,0,5.25,22.55,37.55,37.55,0,0,0,40.14,17.77c15-3.06,27.1-16,29.35-31.1a44.36,44.36,0,0,0,.56-6.4,5,5,0,0,0-10,0Z"/><path class="cls-4" d="M816.28,339.21a235.14,235.14,0,0,0,22.64,56.29q4.1,7.26,8.76,14.16c1.45,2.17,4.47,3.33,6.84,1.8,2.15-1.39,3.35-4.52,1.79-6.84a217.63,217.63,0,0,1-14.56-25.15q-1.65-3.33-3.18-6.74c-.49-1.07-1-2.14-1.43-3.22q-.35-.79-.69-1.62c.08.19.36.87,0,0l-.42-1q-2.84-6.89-5.22-13.93-2.73-8.1-4.88-16.37a5,5,0,0,0-9.64,2.66Z"/><path class="cls-4" d="M404.15,84c-.9,1.71-1.86,3.38-2.9,5-.55.86-1.12,1.71-1.72,2.55l-.79,1.1-.27.37a57.22,57.22,0,0,1-7.86,8.46q-1,.9-2,1.77c-.39.33-.79.65-1.19,1l-.61.48c.5-.39.54-.41.09-.08-1.55,1.14-3.12,2.25-4.76,3.27s-3.32,2-5,2.85c-.8.4-1.61.8-2.43,1.17-.46.21-.93.44-1.41.62,1.25-.47-.36.14-.58.23-2.43,1-4.39,3.39-3.5,6.15.76,2.35,3.55,4.53,6.15,3.5A72.36,72.36,0,0,0,412.78,89c1.22-2.32.67-5.54-1.79-6.84-2.3-1.22-5.55-.68-6.84,1.79Z"/><path class="cls-4" d="M402.07,128.36c-1.24,1.92-2.53,3.79-3.89,5.62-.32.43-.64.86-1,1.28.66-.86-.26.32-.45.56-.7.89-1.43,1.76-2.16,2.62a98.77,98.77,0,0,1-9.28,9.47c-1.66,1.49-3.37,2.91-5.13,4.28.87-.68-.28.21-.54.4l-1.26.93c-.89.64-1.8,1.27-2.72,1.89a92.28,92.28,0,0,1-11.22,6.44c-1.09.52-2.2,1-3.31,1.52-.15.06-.92.38-.28.12l-.46.19-1.78.7q-3.37,1.27-6.86,2.28a5,5,0,0,0,2.66,9.64,99,99,0,0,0,46.33-29.74,109.62,109.62,0,0,0,9.95-13.15,5,5,0,0,0-1.79-6.84,5.1,5.1,0,0,0-6.84,1.79Z"/><path class="cls-4" d="M403.52,170.85c-1.65,2.54-3.4,5-5.22,7.43-.78,1,.65-.83-.15.19l-.47.6-1.43,1.77c-1,1.18-2,2.34-3,3.48A128.68,128.68,0,0,1,380.35,197c-1.08.93-2.18,1.83-3.29,2.72l-.92.73-.22.17c-.62.48-1.24,1-1.87,1.41q-3.71,2.75-7.59,5.24a142.42,142.42,0,0,1-16.09,8.91c-1.57.74-3.15,1.44-4.73,2.12-1.24.54,1-.39-.28.12l-1.49.61c-.74.3-1.49.59-2.24.87q-5.07,2-10.28,3.49A5,5,0,0,0,334,233c24.67-7.37,47.64-21.15,65.05-40.2a131.56,131.56,0,0,0,13.1-16.92,5,5,0,0,0-1.8-6.84,5.11,5.11,0,0,0-6.84,1.79Z"/><path class="cls-4" d="M404.15,89a72.4,72.4,0,0,0,37.49,33.37c2.44,1,5.59-1.06,6.15-3.5.66-2.88-.88-5.11-3.49-6.15-.23-.09-1.83-.7-.59-.23-.48-.18-.95-.41-1.41-.62-.82-.37-1.63-.77-2.43-1.17q-2.58-1.32-5-2.85c-1.63-1-3.2-2.13-4.76-3.27-.44-.33-.41-.31.09.08l-.6-.48c-.36-.28-.71-.56-1.05-.85-.74-.61-1.47-1.25-2.19-1.89A57.76,57.76,0,0,1,418.46,93c.7,1,0,0-.16-.22l-.9-1.25c-.59-.84-1.17-1.69-1.72-2.55-1-1.63-2-3.3-2.9-5a5,5,0,0,0-6.84-1.79A5.11,5.11,0,0,0,404.15,89Z"/><path class="cls-4" d="M405.61,133.41c10.18,15.79,24.54,29.1,41.54,37.24a96.22,96.22,0,0,0,14.73,5.65,5.06,5.06,0,0,0,6.16-3.49,5.11,5.11,0,0,0-3.5-6.15q-3.1-.9-6.14-2c-.95-.35-1.9-.73-2.84-1.11-.22-.09-.9-.34.13.06l-.7-.3-1.57-.71a91.37,91.37,0,0,1-11.32-6.21q-2.79-1.8-5.44-3.78c-.26-.19-1.46-1.12-.55-.4l-1.23-1c-.86-.7-1.72-1.41-2.56-2.14a98.45,98.45,0,0,1-9.43-9.29c-.84-.95-1.66-1.91-2.47-2.88-.38-.46-.75-.93-1.13-1.4l-.49-.63c.74.94-.1-.13-.19-.26-1.54-2-3-4.12-4.37-6.26s-4.5-3.3-6.84-1.79a5.06,5.06,0,0,0-1.79,6.84Z"/><path class="cls-4" d="M404.15,175.9c13.86,21.34,34.11,38.29,57.1,49.06A153.48,153.48,0,0,0,482.3,233a5,5,0,0,0,2.65-9.65c-3.08-.92-6.14-1.94-9.15-3.06-1.38-.51-2.75-1.05-4.11-1.6l-1.11-.46c1.15.47-.1-.05-.28-.12l-2.19-1a142.23,142.23,0,0,1-16.44-8.76q-3.84-2.37-7.51-5-1.76-1.24-3.46-2.55c-1.06-.8.81.65-.23-.17l-.92-.72-2-1.59a131.92,131.92,0,0,1-13-12.33c-2.24-2.44-4.37-5-6.42-7.56-.8-1,.63.84-.14-.19l-.91-1.22c-.46-.6-.9-1.22-1.34-1.83q-1.54-2.16-3-4.38c-1.42-2.19-4.49-3.3-6.84-1.79-2.19,1.41-3.32,4.49-1.79,6.84Z"/></g></g></svg>