<svg xmlns="http://www.w3.org/2000/svg" viewBox="0 0 686.09 462.91"><defs><style>.cls-1{fill:#c6ccb7;}.cls-2{fill:#e2f0dc;}.cls-3{fill:#4b361e;}</style></defs><g id="圖層_2" data-name="圖層 2"><g id="圖層_1-2" data-name="圖層 1"><path class="cls-1" d="M383.75,16.92,129.18,457.85h542a14.87,14.87,0,0,0,12.88-22.3L442.38,16.92C429.35-5.64,396.78-5.64,383.75,16.92Z"/><path class="cls-2" d="M177.5,120.14,1.91,435.59A15,15,0,0,0,15,457.85H424.64l-188-337.71C223.75,97,190.41,97,177.5,120.14Z"/><path class="cls-3" d="M185.65,357.78h195c2.63,0,5.27.05,7.91,0h.34a5,5,0,0,0,0-10h-195c-2.63,0-5.27,0-7.9,0h-.34a5,5,0,1,0,0,10Z"/><path class="cls-3" d="M288.79,181.68h92.33c4.27,0,8.56.11,12.82,0h.19a5,5,0,0,0,0-10H301.79c-4.26,0-8.55-.11-12.82,0h-.18a5,5,0,0,0,0,10Z"/><path class="cls-3" d="M390.58,180.1l5.65,7.47,15.39,20.33,22.7,30L462,274.4l30.39,40.14L523.06,355,551.5,392.6l24.18,31.92L593,447.46l8.19,10.81.36.47c1.57,2.08,4.38,3.37,6.84,1.79,2.05-1.32,3.48-4.61,1.79-6.84l-5.66-7.47L589.17,425.9l-22.69-30-27.67-36.54-30.4-40.13-30.67-40.51-28.45-37.56-24.17-31.92-17.37-22.94-8.18-10.8-.36-.47c-1.57-2.08-4.38-3.38-6.84-1.8-2.06,1.33-3.48,4.61-1.79,6.84Z"/><path class="cls-3" d="M129.18,429.88h113c5.22,0,10.47.12,15.69,0h.23a5,5,0,1,0,0-10h-113c-5.22,0-10.46-.13-15.69,0h-.23a5,5,0,1,0,0,10Z"/><path class="cls-3" d="M316.52,429.88h113c5.22,0,10.46.12,15.69,0h.23a5,5,0,0,0,0-10H332.44c-5.23,0-10.47-.13-15.69,0h-.23a5,5,0,0,0,0,10Z"/><path class="cls-3" d="M320.09,397.64h85.6c4,0,7.95.11,11.92,0h.16a5,5,0,0,0,0-10h-85.6c-4,0-7.95-.11-11.92,0h-.16a5,5,0,0,0,0,10Z"/><path class="cls-3" d="M156.11,397.64h89.42c4.11,0,8.23.11,12.34,0h.18a5,5,0,1,0,0-10H168.63c-4.11,0-8.24-.12-12.34,0h-.18a5,5,0,0,0,0,10Z"/><path class="cls-3" d="M425.6,313.07h64.12a5,5,0,0,0,0-10H425.6a5,5,0,0,0,0,10Z"/><path class="cls-3" d="M363.45,226.39h61.36a5,5,0,1,0,0-10H363.45a5,5,0,1,0,0,10Z"/><path class="cls-3" d="M431.93,371.47h61.36a5,5,0,0,0,0-10H431.93a5,5,0,0,0,0,10Z"/><path class="cls-3" d="M500.4,407.31h61.35a5,5,0,0,0,0-10H500.4a5,5,0,0,0,0,10Z"/><path class="cls-3" d="M363.45,276h61.36a5,5,0,0,0,0-10H363.45a5,5,0,0,0,0,10Z"/><path class="cls-3" d="M283.26,210.78l-4.91,6.53L265,235.08l-19.79,26.27L221,293.4l-26.37,35-26.61,35.32-24.88,33-21,27.91L107,444.72c-2.38,3.15-4.82,6.27-7.14,9.47-.09.14-.2.27-.3.4-1.58,2.1-.4,5.68,1.8,6.84,2.63,1.39,5.15.45,6.84-1.79l4.92-6.53,13.38-17.77,19.79-26.27L170.46,377l26.37-35,26.61-35.33,24.89-33,21-27.91,15.11-20.06c2.38-3.15,4.82-6.27,7.14-9.47l.3-.4c1.58-2.1.4-5.68-1.8-6.84-2.63-1.39-5.15-.44-6.84,1.79Z"/><path class="cls-3" d="M283.19,215.83l4.92,6.53,13.38,17.76,19.79,26.27,24.15,32.05,26.36,35,26.62,35.33,24.88,33,21,27.91,15.11,20.05,7.14,9.48.3.4c1.57,2.08,4.39,3.37,6.84,1.79,2.06-1.33,3.48-4.61,1.8-6.84l-4.92-6.53L457.2,430.3,437.4,404l-24.14-32-26.37-35-26.61-35.33-24.88-33-21-27.91-15.11-20.05-7.13-9.48-.3-.4c-1.57-2.08-4.39-3.37-6.84-1.79-2.06,1.33-3.48,4.61-1.8,6.84Z"/><path class="cls-3" d="M283.71,174.16,278,181.67l-15.5,20.46-22.83,30.16-27.86,36.77-30.58,40.4-30.88,40.76L121.74,388,97.41,420.16,79.93,443.24l-8.24,10.88-.35.47c-1.59,2.09-.4,5.68,1.79,6.84,2.63,1.39,5.15.44,6.84-1.79l5.69-7.52,15.5-20.46L124,401.51l27.86-36.78,30.58-40.39,30.88-40.77,28.63-37.81,24.33-32.12,17.48-23.09L292,179.68l.36-.48c1.59-2.09.4-5.68-1.79-6.84-2.64-1.39-5.15-.44-6.84,1.8Z"/><path class="cls-3" d="M283.63,179.2l5.69,7.52,15.49,20.46,22.84,30.15,27.85,36.78,30.59,40.39L417,355.27l28.63,37.81,24.33,32.12,17.48,23.09,8.24,10.87.36.48c1.57,2.07,4.38,3.37,6.84,1.79,2.05-1.32,3.48-4.61,1.79-6.84l-5.69-7.52-15.49-20.45-22.84-30.16-27.85-36.78-30.59-40.39L371.3,278.52l-28.63-37.8-24.33-32.13-17.48-23.08-8.24-10.88-.36-.47c-1.57-2.08-4.38-3.38-6.84-1.8-2.05,1.33-3.48,4.61-1.79,6.84Z"/><path class="cls-3" d="M308.06,296.73c0,.7,0,1.4-.08,2.1,0,.29-.06.57-.08.86-.07.75.22-1.27,0-.14a29.39,29.39,0,0,1-1,3.94c-.08.24-.35,1.44-.57,1.57l.24-.59-.27.61c-.14.3-.28.6-.44.89a24.89,24.89,0,0,1-1.87,3.09l-.19.27c-.32.43-.26.35.19-.23-.07.24-.46.58-.62.76-.35.42-.72.82-1.1,1.22s-.77.77-1.17,1.14l-.74.65-.5.42.23-.18c0,.25-1.13.8-1.34.93-.46.3-.93.59-1.41.86s-1.16.62-1.76.9c-.12.05-1.11.39-.31.15s-.51.18-.65.23a25.76,25.76,0,0,1-3.56,1c-.28.05-.56.11-.84.15-.79.14-.29.36.14,0-.35.29-1.79.15-2.25.17a29.85,29.85,0,0,1-3.66-.13c-1.2-.12,1.15.21,0,0-.34-.06-.68-.11-1-.18-.66-.14-1.32-.3-2-.48s-1.07-.33-1.59-.52c-.16-.05-.86-.22-.94-.35l.58.24-.6-.27a25.1,25.1,0,0,1-3.17-1.76c-.27-.18-.55-.36-.81-.55l-.27-.19c-.43-.32-.36-.26.23.19-.4-.1-1-.8-1.26-1.05a25.07,25.07,0,0,1-2.72-2.83,2.35,2.35,0,0,1-.41-.51l.38.49c-.13-.17-.26-.35-.38-.53-.35-.49-.68-1-1-1.51s-.61-1-.89-1.58c-.15-.29-.29-.59-.43-.89l-.14-.3c-.22-.5-.18-.41.11.28-.28-.17-.52-1.41-.62-1.73-.19-.59-.36-1.18-.51-1.78s-.25-1.1-.35-1.66l0-.34c-.09-.55-.07-.45,0,.31-.17-.21-.11-1.1-.13-1.38a27.25,27.25,0,0,1,0-3.5c0-.34.07-.69.09-1,.1-1.21-.2,1.15,0,0,.12-.67.24-1.34.4-2s.29-1.09.46-1.62c.1-.35.36-1.71.67-1.89-.2.12-.41.91-.11.28l.42-.9c.3-.59.61-1.17.95-1.73s.7-1.12,1.08-1.65c.09-.13.54-1,.19-.29s.1-.12.22-.26a25.07,25.07,0,0,1,2.72-2.83c.29-.26.88-.94,1.26-1l-.5.38L275,280c.26-.19.54-.38.81-.56a26.35,26.35,0,0,1,3.17-1.75l.3-.14c.5-.22.4-.18-.28.11.08-.13.78-.3.94-.35.52-.19,1.05-.36,1.59-.52s1.09-.29,1.64-.41l1-.2.67-.1c-.76.09-.86.11-.3,0A33.82,33.82,0,0,1,288,276c.7,0,1.39.09,2.08.14,1.16.1-.88-.15-.14,0,.4.07.79.13,1.18.21a30.48,30.48,0,0,1,4.19,1.23c.61.22.09-.17-.28-.12.28,0,1,.43,1.21.55.59.3,1.17.61,1.73.95s1.2.78,1.79,1.17.7.14-.1-.09c.33.09.76.61,1,.83a26.92,26.92,0,0,1,2.76,2.79c.16.19.55.53.62.77-.45-.59-.51-.66-.19-.23l.38.53c.37.55.72,1.1,1,1.67s.64,1.16.93,1.75c.09.18.44.71.41.9q-.42-1-.12-.27l.12.31a25.78,25.78,0,0,1,1.17,4.21c0,.15.25.9.17,1l-.08-.64c0,.22.05.45.07.68.08.81.11,1.63.11,2.44a5,5,0,0,0,10,0,31.19,31.19,0,0,0-20.73-29.09,30.85,30.85,0,0,0-33.67,9.4,31.77,31.77,0,0,0-7.07,17.6,30.48,30.48,0,0,0,4.4,18.1,31.18,31.18,0,0,0,32.78,14.08c14.07-2.86,24.2-15.89,24.29-30.09a5,5,0,0,0-10,0Z"/><path class="cls-3" d="M316.52,452.11H258.05l5,5V387.3c0-.53,0-1.05,0-1.58s.05-.8.09-1.2c0-.17,0-.35.05-.52,0-.69-.16,1,0,.32a30.54,30.54,0,0,1,1-4.43c.21-.69.49-1.35.72-2s-.19.47-.19.43a2.8,2.8,0,0,1,.27-.6c.16-.35.32-.69.49-1a28.91,28.91,0,0,1,2.29-3.77c.09-.14.2-.26.29-.4.36-.55-.62.74-.19.24l.62-.76q.74-.87,1.53-1.68c.5-.5,1-1,1.54-1.45l.75-.63a2.69,2.69,0,0,1,.51-.41c-.18,0-.81.6-.24.2a33.89,33.89,0,0,1,3.75-2.33c.45-.23,1.46-1,1.94-.91,0,0-1,.36-.43.18l.46-.18c.41-.15.83-.3,1.25-.43a29.22,29.22,0,0,1,4.41-1.07l.51-.07s-1.05.11-.48.07l1.2-.11c.69-.05,1.39-.07,2.08-.07s1.4,0,2.09.07l1.2.11c.57,0-.48-.07-.48-.07.22.05.45.06.67.1a28.57,28.57,0,0,1,4.4,1.09l1.1.38.46.18c.55.18-.46-.18-.43-.18.51-.05,1.62.74,2.08,1,1.31.69,2.5,1.53,3.74,2.34.47.31-.4-.29-.37-.29a3.06,3.06,0,0,1,.51.41l.75.63c.57.5,1.12,1,1.65,1.57s1,1,1.42,1.56c.18.2.67.63.72.88,0,0-.59-.83-.29-.36.12.18.26.35.39.53a30.08,30.08,0,0,1,2.26,3.79c.14.29.29.59.42.89a2.74,2.74,0,0,1,.27.6s-.37-1-.19-.43c.24.74.54,1.45.77,2.2.45,1.46.65,2.95,1,4.43,0,0-.12-1.05-.07-.48,0,.17,0,.35.05.52q.06.6.09,1.2c0,.53,0,1,0,1.58v69.81a5,5,0,0,0,10,0V395.4c0-5.41.29-10.92-1-16.23-3.12-13.08-14.45-23.71-27.8-25.65A35.34,35.34,0,0,0,272,356.65,34.21,34.21,0,0,0,257.72,370a34.63,34.63,0,0,0-4.67,17.34c0,1.36,0,2.72,0,4.08v65.68a5.07,5.07,0,0,0,5,5h58.47a5,5,0,0,0,0-10Z"/><path class="cls-3" d="M352.42,171.68H329.57l5,5V138.16l-5,5h22.85l-5-5v38.52a5,5,0,0,0,10,0V138.16a5.07,5.07,0,0,0-5-5H329.57a5.07,5.07,0,0,0-5,5v38.52a5.07,5.07,0,0,0,5,5h22.85a5,5,0,0,0,0-10Z"/><path class="cls-3" d="M77.57,462.85H585.24c6.86,0,13.73.13,20.58,0h.9c6.44,0,6.45-10,0-10H99.05c-6.86,0-13.73-.12-20.58,0h-.9c-6.44,0-6.45,10,0,10Z"/><path class="cls-3" d="M77.57,226.39H196.51c5.51,0,11,.14,16.54,0h.22a5,5,0,0,0,0-10H94.33c-5.5,0-11-.13-16.53,0a1.76,1.76,0,0,1-.23,0,5,5,0,0,0,0,10Z"/><path class="cls-3" d="M136.8,152V357.74c0,2.79,0,5.59,0,8.38v.35a5,5,0,0,0,10,0V160.7c0-2.79,0-5.59,0-8.38V152a5,5,0,1,0-10,0Z"/><path class="cls-3" d="M134.25,223,129,234.17l-12.46,26.7-15.07,32.27-13,27.9c-2.11,4.52-4.26,9-6.34,13.58l-.09.19c-1.1,2.37-.74,5.5,1.79,6.84,2.22,1.17,5.66.74,6.84-1.79l5.22-11.17L108.37,302l15.06-32.28,13-27.89c2.11-4.53,4.26-9,6.34-13.58l.09-.2c1.1-2.36.74-5.5-1.8-6.84-2.21-1.17-5.66-.73-6.84,1.8Z"/><path class="cls-3" d="M141.1,228.24l3.83,7.82,9.17,18.77,11.1,22.7,9.6,19.63c1.54,3.16,3,6.42,4.65,9.51l.07.14a5,5,0,0,0,6.84,1.8,5.11,5.11,0,0,0,1.79-6.84L184.33,294l-9.17-18.77-11.1-22.7-9.6-19.62c-1.54-3.17-3-6.43-4.65-9.52l-.07-.14a5,5,0,0,0-6.84-1.8,5.13,5.13,0,0,0-1.8,6.84Z"/><path class="cls-3" d="M449.26,226.39H589.61c6.45,0,12.91.15,19.35,0h.27a5,5,0,0,0,0-10H468.87c-6.44,0-12.9-.14-19.34,0a2.43,2.43,0,0,1-.27,0,5,5,0,0,0,0,10Z"/><path class="cls-3" d="M547.9,152v224.7c0,3.05,0,6.11,0,9.16v.39a5,5,0,0,0,10,0V161.52c0-3.05,0-6.11,0-9.16V152a5,5,0,0,0-10,0Z"/><path class="cls-3" d="M496.08,251.83l10,14.65,16,23.32,3.64,5.32c1.47,2.16,4.46,3.33,6.84,1.8,2.14-1.39,3.37-4.54,1.79-6.85l-10-14.64-16-23.32-3.65-5.32c-1.47-2.16-4.45-3.33-6.84-1.8-2.14,1.38-3.37,4.54-1.79,6.84Z"/></g></g></svg>