<svg xmlns="http://www.w3.org/2000/svg" viewBox="0 0 545.46 329.75"><defs><style>.cls-1{fill:#4b361e;}</style></defs><g id="圖層_2" data-name="圖層 2"><g id="圖層_1-2" data-name="圖層 1"><path class="cls-1" d="M115,224.62H310c2.64,0,5.27,0,7.91,0h.34a5,5,0,0,0,0-10h-195c-2.64,0-5.28,0-7.91,0H115a5,5,0,0,0,0,10Z"/><path class="cls-1" d="M218.18,48.52h92.33c4.27,0,8.56.11,12.83,0h.18a5,5,0,0,0,0-10H231.19c-4.27,0-8.56-.11-12.82,0h-.19a5,5,0,0,0,0,10Z"/><path class="cls-1" d="M320,47l5.65,7.46L341,74.74l22.69,30,27.67,36.55,30.39,40.13,30.68,40.5,28.44,37.57,24.18,31.92,17.37,22.93,8.18,10.81.36.47c1.57,2.08,4.38,3.38,6.84,1.79,2-1.32,3.48-4.61,1.79-6.84L534,313.06l-15.4-20.32-22.69-30L468.2,226.23,437.81,186.1l-30.68-40.51L378.68,108,354.51,76.11,337.14,53.18,329,42.37l-.36-.47c-1.57-2.08-4.38-3.38-6.84-1.8-2.05,1.33-3.48,4.62-1.79,6.85Z"/><path class="cls-1" d="M58.57,296.72h113c5.23,0,10.47.12,15.69,0h.23a5,5,0,0,0,0-10H74.49c-5.22,0-10.46-.13-15.69,0h-.23a5,5,0,1,0,0,10Z"/><path class="cls-1" d="M245.91,296.72h113c5.22,0,10.47.12,15.69,0h.23a5,5,0,0,0,0-10H261.83c-5.22,0-10.47-.13-15.69,0h-.23a5,5,0,1,0,0,10Z"/><path class="cls-1" d="M249.48,264.48h85.61c4,0,8,.11,11.91,0h.17a5,5,0,0,0,0-10H261.56c-4,0-7.95-.11-11.92,0h-.16a5,5,0,1,0,0,10Z"/><path class="cls-1" d="M85.5,264.48h89.42c4.11,0,8.23.11,12.34,0h.18a5,5,0,0,0,0-10H98c-4.11,0-8.23-.11-12.34,0H85.5a5,5,0,1,0,0,10Z"/><path class="cls-1" d="M355,179.91h64.13a5,5,0,0,0,0-10H355a5,5,0,0,0,0,10Z"/><path class="cls-1" d="M292.85,93.24H354.2a5,5,0,0,0,0-10H292.85a5,5,0,0,0,0,10Z"/><path class="cls-1" d="M361.33,238.31h61.35a5,5,0,0,0,0-10H361.33a5,5,0,0,0,0,10Z"/><path class="cls-1" d="M429.79,274.15h61.35a5,5,0,0,0,0-10H429.79a5,5,0,0,0,0,10Z"/><path class="cls-1" d="M292.85,142.8H354.2a5,5,0,0,0,0-10H292.85a5,5,0,0,0,0,10Z"/><path class="cls-1" d="M212.66,77.63l-4.92,6.52-13.38,17.77-19.8,26.27-24.14,32.05-26.37,35L97.44,230.56l-24.88,33-21,27.91L36.42,311.56c-2.37,3.16-4.82,6.27-7.13,9.48l-.3.39c-1.58,2.1-.41,5.68,1.79,6.84,2.63,1.39,5.15.45,6.84-1.79L42.54,320l13.38-17.76,19.79-26.27,24.15-32.05,26.36-35,26.61-35.33,24.89-33,21-27.91,15.11-20c2.38-3.16,4.82-6.28,7.14-9.48l.3-.4c1.58-2.09.4-5.68-1.79-6.84-2.63-1.39-5.16-.44-6.84,1.8Z"/><path class="cls-1" d="M212.58,82.67l4.92,6.53L230.88,107l19.8,26.27,24.14,32,26.37,35,26.61,35.32,24.88,33,21,27.91,15.11,20.06c2.38,3.15,4.75,6.32,7.13,9.47l.3.4c1.57,2.08,4.39,3.37,6.84,1.79,2.06-1.32,3.48-4.6,1.8-6.84L400,314.9l-13.38-17.76L366.8,270.87l-24.15-32.05-26.36-35L289.67,168.5l-24.88-33-21-27.9L228.66,87.5,221.52,78l-.3-.39c-1.57-2.09-4.39-3.38-6.84-1.8-2.06,1.33-3.48,4.61-1.8,6.84Z"/><path class="cls-1" d="M213.1,41l-5.69,7.52L191.92,69,169.08,99.13l-27.85,36.78L110.64,176.3,79.76,217.07l-28.63,37.8L26.81,287,9.32,310.08,1.09,321l-.36.47c-1.59,2.1-.4,5.68,1.79,6.84,2.64,1.39,5.15.44,6.84-1.79l5.7-7.52,15.49-20.45,22.84-30.16,27.85-36.78,30.59-40.39,30.87-40.77,28.63-37.8,24.33-32.13L213.14,57.4l8.24-10.88.36-.47c1.58-2.1.39-5.69-1.8-6.85-2.63-1.39-5.15-.44-6.84,1.8Z"/><path class="cls-1" d="M213,46.05l5.69,7.51L234.2,74,257,104.18,284.89,141l30.59,40.4,30.87,40.76L375,259.92,399.31,292l17.48,23.09L425,326l.36.47c1.57,2.08,4.39,3.38,6.84,1.79,2.06-1.32,3.48-4.61,1.8-6.84l-5.7-7.52-15.49-20.45L390,263.3l-27.85-36.78-30.59-40.39-30.87-40.77-28.63-37.8L247.73,75.43,230.25,52.35,222,41.47l-.36-.47c-1.57-2.08-4.38-3.38-6.84-1.8-2.05,1.33-3.48,4.62-1.79,6.85Z"/><path class="cls-1" d="M237.46,163.58c0,.7,0,1.4-.09,2.09,0,.29-.06.58-.08.86-.07.76.23-1.27,0-.13a29.63,29.63,0,0,1-1,3.93c-.08.25-.35,1.44-.57,1.57l.25-.58c-.09.2-.18.4-.28.6s-.28.6-.43.89a25.08,25.08,0,0,1-1.88,3.1l-.19.26c-.32.43-.25.36.19-.22-.07.23-.46.57-.62.76-.35.41-.72.82-1.1,1.21s-.76.77-1.17,1.14c-.24.22-.48.44-.73.65l-.51.42q-.63.5.24-.18c0,.25-1.14.8-1.35.94-.46.29-.93.58-1.41.85s-1.16.62-1.76.9c-.11.06-1.1.4-.31.15s-.5.18-.65.23a25.76,25.76,0,0,1-3.56,1q-.42.09-.84.15c-.79.14-.29.36.15,0-.36.29-1.79.16-2.25.17a29.94,29.94,0,0,1-3.67-.13c-1.2-.11,1.15.22,0,0l-1-.18c-.66-.13-1.32-.3-2-.48s-1.07-.33-1.59-.52c-.15-.05-.86-.22-.94-.35l.59.25-.61-.28a26.49,26.49,0,0,1-3.17-1.75l-.81-.56-.27-.19c-.43-.32-.35-.25.23.19-.39-.1-1-.79-1.26-1.05a27.87,27.87,0,0,1-2.72-2.82,2.62,2.62,0,0,1-.41-.51l.38.49c-.13-.18-.25-.36-.38-.53-.35-.5-.68-1-1-1.52s-.61-1-.88-1.58c-.16-.29-.3-.59-.44-.89l-.14-.3c-.22-.5-.18-.4.11.28-.28-.16-.52-1.41-.62-1.73-.19-.58-.36-1.18-.51-1.78s-.25-1.1-.34-1.66l-.06-.33c-.08-.56-.07-.46,0,.31-.17-.21-.11-1.11-.13-1.38a29.19,29.19,0,0,1,0-3.5c0-.35.07-.69.1-1,.09-1.2-.21,1.15,0,0,.12-.67.24-1.34.4-2s.29-1.09.46-1.62c.11-.35.37-1.71.67-1.88-.2.11-.41.91-.11.27.14-.3.28-.6.43-.89.29-.59.61-1.17.95-1.74s.69-1.12,1.07-1.65c.09-.13.54-1,.19-.29s.11-.12.22-.26a27,27,0,0,1,2.72-2.83c.29-.26.88-.94,1.26-1.05l-.49.38.53-.38.81-.55a26.57,26.57,0,0,1,3.17-1.76l.3-.14-.28.12c.08-.14.79-.31.94-.36.52-.19,1.06-.36,1.59-.52s1.09-.29,1.64-.41l1-.19.68-.11c-.77.1-.87.11-.31,0a29.1,29.1,0,0,1,3.49-.14c.7,0,1.39.08,2.08.14,1.16.09-.87-.16-.13,0,.39.08.78.13,1.17.21a30.48,30.48,0,0,1,4.19,1.23c.61.22.09-.16-.27-.12.28,0,.94.43,1.2.56.59.29,1.17.61,1.73.95s1.2.77,1.79,1.17.7.14-.09-.1c.32.1.75.61,1,.84a25.08,25.08,0,0,1,2.76,2.79,3.18,3.18,0,0,1,.62.76c-.44-.58-.51-.66-.19-.23l.38.54c.37.54.72,1.09,1,1.66s.65,1.16.93,1.75c.09.18.44.71.42.91-.29-.69-.33-.78-.13-.28l.12.32a26.26,26.26,0,0,1,1.18,4.21c0,.14.25.89.17,1l-.09-.65c0,.23,0,.46.07.68.08.82.11,1.63.12,2.45a5,5,0,0,0,10,0,31.18,31.18,0,0,0-20.74-29.09,30.85,30.85,0,0,0-33.67,9.39,31.77,31.77,0,0,0-7.07,17.6,30.48,30.48,0,0,0,4.4,18.1,31.19,31.19,0,0,0,32.78,14.08c14.07-2.85,24.2-15.89,24.3-30.08a5,5,0,0,0-10,0Z"/><path class="cls-1" d="M245.91,319H187.44l5,5V254.14c0-.53,0-1,0-1.58s.05-.8.09-1.2c0-.17,0-.34.05-.51,0-.7-.16,1,0,.31a33.43,33.43,0,0,1,1-4.43c.21-.69.49-1.35.72-2s-.19.46-.19.43a2.66,2.66,0,0,1,.27-.61c.16-.35.32-.69.5-1a29,29,0,0,1,2.28-3.78c.09-.13.2-.26.29-.4.36-.55-.62.74-.19.24l.62-.76q.74-.87,1.53-1.68c.5-.5,1-1,1.54-1.45l.75-.63c.06-.05.39-.38.51-.4-.18,0-.81.59-.23.19a35.07,35.07,0,0,1,3.75-2.33c.44-.23,1.45-1,1.93-.91,0,0-1,.37-.43.19l.46-.18c.42-.16.83-.31,1.25-.44a28,28,0,0,1,4.41-1.06c.17,0,.35,0,.51-.08,0,0-1.05.11-.48.07l1.2-.11c.69-.05,1.39-.07,2.09-.07s1.39,0,2.08.07l1.2.11c.58,0-.48-.07-.48-.07.22.05.45.07.68.1a29.16,29.16,0,0,1,4.4,1.09c.36.12.73.25,1.09.39.16.06.31.13.47.18.54.18-.47-.19-.44-.19.51-.05,1.62.75,2.08,1,1.32.69,2.5,1.54,3.74,2.34.47.31-.4-.29-.37-.28s.4.31.51.4l.75.63c.57.5,1.12,1,1.65,1.57s1,1,1.43,1.56c.17.21.66.64.71.89,0,0-.59-.84-.28-.37.11.18.25.35.38.53a29.61,29.61,0,0,1,2.26,3.79c.15.3.29.59.43.89a3.11,3.11,0,0,1,.26.61s-.37-1-.19-.43c.25.73.55,1.45.77,2.19.45,1.47.65,3,1,4.44,0,0-.11-1.06-.07-.48,0,.17,0,.34.05.51q.06.6.09,1.2c0,.53,0,1.06,0,1.58V324a5,5,0,0,0,10,0V262.25c0-5.42.29-10.93-1-16.24-3.11-13.08-14.45-23.71-27.8-25.64a35.26,35.26,0,0,0-20.72,3.12,34.21,34.21,0,0,0-14.31,13.36,34.83,34.83,0,0,0-4.67,17.34V324a5.07,5.07,0,0,0,5,5h58.47a5,5,0,1,0,0-10Z"/><path class="cls-1" d="M281.81,38.52H259l5,5V5l-5,5h22.85l-5-5V43.52a5,5,0,0,0,10,0V5a5.07,5.07,0,0,0-5-5H259a5.07,5.07,0,0,0-5,5V43.52a5.07,5.07,0,0,0,5,5h22.85a5,5,0,0,0,0-10Z"/><path class="cls-1" d="M7,329.7H514.64c6.85,0,13.72.12,20.58,0h.9c6.43,0,6.44-10,0-10H28.44c-6.86,0-13.73-.13-20.58,0H7c-6.44,0-6.45,10,0,10Z"/><path class="cls-1" d="M7,90.61H125.9c5.51,0,11,.13,16.54,0a1.76,1.76,0,0,1,.23,0,5,5,0,0,0,0-10H23.72c-5.5,0-11-.14-16.53,0H7a5,5,0,1,0,0,10Z"/><path class="cls-1" d="M66.19,16.18V222c0,2.79,0,5.59,0,8.38,0,.12,0,.24,0,.35a5,5,0,0,0,10,0V24.91c0-2.79,0-5.59,0-8.38v-.35a5,5,0,0,0-10,0Z"/><path class="cls-1" d="M63.65,87.22,58.43,98.39,46,125.08,30.91,157.35l-13,27.9c-2.11,4.53-4.26,9-6.34,13.58l-.09.19c-1.1,2.37-.74,5.5,1.8,6.84,2.21,1.17,5.66.74,6.84-1.79L25.3,192.9l12.46-26.69,15.07-32.27,13-27.9c2.11-4.53,4.26-9,6.34-13.58l.09-.19c1.1-2.37.74-5.5-1.79-6.84-2.22-1.17-5.66-.74-6.84,1.79Z"/><path class="cls-1" d="M70.5,92.46l3.82,7.81L83.49,119l11.1,22.71,9.6,19.62c1.55,3.16,3,6.42,4.65,9.51a1,1,0,0,1,.07.15,5,5,0,0,0,6.84,1.79,5.13,5.13,0,0,0,1.8-6.84l-3.82-7.82-9.18-18.76-11.1-22.71-9.6-19.62c-1.54-3.16-3-6.43-4.65-9.52a.61.61,0,0,1-.07-.14,5,5,0,0,0-6.84-1.79,5.12,5.12,0,0,0-1.79,6.84Z"/><path class="cls-1" d="M380.48,90.61H520.84c6.44,0,12.9.14,19.34,0a2.43,2.43,0,0,1,.27,0,5,5,0,0,0,0-10H400.09c-6.44,0-12.9-.15-19.34,0h-.27a5,5,0,0,0,0,10Z"/><path class="cls-1" d="M479.12,16.18v224.7c0,3.06,0,6.11,0,9.16v.4a5,5,0,0,0,10,0V25.73c0-3.05,0-6.11,0-9.16v-.39a5,5,0,0,0-10,0Z"/><path class="cls-1" d="M427.3,116.05l10,14.64,16,23.32,3.64,5.32c1.48,2.16,4.46,3.33,6.84,1.8,2.15-1.38,3.38-4.53,1.8-6.84l-10-14.65-16-23.32L435.94,111c-1.48-2.15-4.46-3.33-6.84-1.79-2.15,1.38-3.38,4.53-1.8,6.84Z"/></g></g></svg>