<svg xmlns="http://www.w3.org/2000/svg" viewBox="0 0 857.02 331.76"><defs><style>.cls-1,.cls-2{fill:#4b361e;}.cls-2{stroke:#4b361e;stroke-miterlimit:10;stroke-width:2px;}</style></defs><g id="圖層_2" data-name="圖層 2"><g id="圖層_1-2" data-name="圖層 1"><path class="cls-1" d="M5.73,331.66H817.64c11,0,22,.21,32.91,0H852c6.44,0,6.45-10,0-10H40.08c-11,0-21.95-.2-32.91,0H5.73c-6.44,0-6.45,10,0,10Z"/><path class="cls-1" d="M86.65,254.26H218.93c6.07,0,12.16.13,18.23,0h.26a5,5,0,0,0,0-10H105.14c-6.07,0-12.16-.13-18.23,0h-.26a5,5,0,1,0,0,10Z"/><path class="cls-1" d="M163.17,123.61h78.15a5,5,0,0,0,0-10H163.17a5,5,0,0,0,0,10Z"/><path class="cls-1" d="M237.57,121.8l4.19,5.54,11.4,15L270,164.66l20.58,27.16,22.53,29.76,22.66,29.93,21.21,28,17.86,23.59,12.89,17,6.11,8.07.26.34c1.57,2.08,4.38,3.38,6.84,1.8,2.05-1.33,3.48-4.62,1.79-6.85l-4.19-5.53-11.4-15.05L370.3,280.62l-20.57-27.17L327.19,223.7l-22.66-29.93-21.2-28-17.87-23.59-12.89-17-6.1-8.07-.27-.34c-1.57-2.08-4.38-3.38-6.84-1.8-2.05,1.33-3.48,4.61-1.79,6.84Z"/><path class="cls-1" d="M44.76,307.75h83.81c3.87,0,7.76.11,11.63,0h.16a5,5,0,0,0,0-10H56.56c-3.87,0-7.76-.11-11.63,0h-.17a5,5,0,1,0,0,10Z"/><path class="cls-1" d="M183.74,307.75h83.81c3.87,0,7.76.11,11.63,0h.17a5,5,0,0,0,0-10H195.54c-3.87,0-7.76-.11-11.63,0h-.17a5,5,0,0,0,0,10Z"/><path class="cls-1" d="M186.39,283.83h72.47a5,5,0,0,0,0-10H186.39a5,5,0,0,0,0,10Z"/><path class="cls-1" d="M64.73,283.83h75.63a5,5,0,0,0,0-10H64.73a5,5,0,0,0,0,10Z"/><path class="cls-1" d="M264.67,221.09h47.57a5,5,0,0,0,0-10H264.67a5,5,0,0,0,0,10Z"/><path class="cls-1" d="M218.56,156.79h45.52a5,5,0,0,0,0-10H218.56a5,5,0,0,0,0,10Z"/><path class="cls-1" d="M269.37,264.42h45.51a5,5,0,0,0,0-10H269.37a5,5,0,1,0,0,10Z"/><path class="cls-1" d="M320.16,291h45.52a5,5,0,1,0,0-10H320.16a5,5,0,0,0,0,10Z"/><path class="cls-1" d="M218.56,193.55h45.52a5,5,0,0,0,0-10H218.56a5,5,0,0,0,0,10Z"/><path class="cls-1" d="M158,143.26l-3.66,4.86-9.91,13.16-14.65,19.44L111.8,204.53l-19.57,26L72.47,256.73,54,281.28,38.42,301.93,27.23,316.79c-1.77,2.35-3.61,4.65-5.31,7l-.23.3c-1.58,2.1-.4,5.68,1.8,6.84,2.63,1.39,5.15.45,6.84-1.79L34,324.33l9.91-13.15,14.64-19.45,17.94-23.81,19.57-26,19.76-26.22,18.49-24.54,15.56-20.66,11.19-14.86c1.77-2.34,3.61-4.65,5.31-7a3.55,3.55,0,0,1,.23-.31c1.58-2.1.4-5.68-1.79-6.84-2.63-1.39-5.16-.45-6.84,1.79Z"/><path class="cls-1" d="M157.9,148.31l3.66,4.86,9.91,13.15,14.65,19.44,17.94,23.81,19.57,26,19.75,26.22,18.49,24.54L277.43,307l11.2,14.86c1.77,2.35,3.53,4.7,5.31,7l.23.31c1.56,2.08,4.38,3.37,6.84,1.79,2.06-1.33,3.47-4.6,1.79-6.84l-3.66-4.86-9.91-13.15-14.65-19.44-17.93-23.81-19.57-26-19.76-26.23-18.49-24.54-15.56-20.66-11.19-14.85-5.31-7.05a3.55,3.55,0,0,1-.23-.31c-1.57-2.08-4.39-3.37-6.84-1.79-2.06,1.33-3.48,4.61-1.8,6.84Z"/><path class="cls-1" d="M158.29,116.09l-4.22,5.57-11.48,15.16-17,22.41L104.9,186.58,82.3,216.43,59.41,246.66,38.13,274.75l-18,23.82-13,17.13c-2,2.69-4.15,5.35-6.13,8.1l-.26.34c-1.59,2.09-.4,5.68,1.79,6.84,2.64,1.39,5.15.44,6.84-1.79l4.22-5.57,11.48-15.16,17-22.41L62.75,258.7l22.6-29.85,22.89-30.23,21.28-28.09,18-23.82,13-17.13c2-2.7,4.15-5.36,6.13-8.1.08-.12.17-.23.26-.34,1.59-2.1.4-5.69-1.79-6.84-2.64-1.4-5.15-.45-6.84,1.79Z"/><path class="cls-1" d="M158.23,121.14l4.21,5.57,11.48,15.15,17,22.42,20.71,27.35,22.6,29.85L257.1,251.7l21.28,28.1,18,23.82,13,17.12,6.13,8.11c.09.11.18.22.26.34,1.58,2.08,4.39,3.38,6.84,1.79,2.06-1.32,3.49-4.61,1.8-6.84l-4.22-5.57-11.48-15.16-17-22.41L271,253.65,248.43,223.8l-22.89-30.22-21.27-28.1-18.05-23.82-13-17.13-6.14-8.1-.26-.34c-1.57-2.08-4.38-3.38-6.84-1.79-2.06,1.32-3.48,4.61-1.79,6.84Z"/><path class="cls-1" d="M176.18,207.68c0,.47,0,.93-.05,1.4a4.37,4.37,0,0,1-.06.68c.06,0,.19-1.08,0-.31a22.25,22.25,0,0,1-.68,2.79c-.06.21-.14.42-.21.63s-.09.81-.05.17.06-.12-.08.17-.19.39-.29.59a26.57,26.57,0,0,1-1.44,2.39c-.34.53.14.13.2-.23a3.65,3.65,0,0,1-.41.51c-.28.33-.58.65-.88,1s-1.37,1.65-1.94,1.75c.36-.06.76-.54.23-.2l-.54.37c-.37.24-.74.47-1.12.68s-.77.42-1.17.61a3,3,0,0,1-.6.27c.63-.26.77-.33.42-.19l-.31.12a25.31,25.31,0,0,1-2.58.73l-.67.13c-.31,0-.8-.09-.18,0s.1,0-.19,0-.58,0-.87,0a20,20,0,0,0-2.78-.1c.11,0,1.2.21.31.05l-.67-.13c-.5-.1-1-.22-1.47-.35l-1.27-.41c-1.09-.36.6.32-.19-.06a25.06,25.06,0,0,1-2.59-1.43l-.54-.37c-.55-.35-.1.15.22.2-.23,0-.71-.6-.87-.74a19.08,19.08,0,0,1-1.94-2,3,3,0,0,1-.41-.51c.06.36.54.76.19.23-.23-.37-.49-.72-.72-1.1s-.44-.75-.64-1.14l-.29-.59c-.13-.26-.19-1-.15-.32s0,.1-.05-.17l-.22-.63q-.21-.65-.36-1.29c-.1-.39-.18-.77-.25-1.16a2.68,2.68,0,0,1-.11-.67c.09.7.11.86.07.47,0-.17,0-.34,0-.51a18.69,18.69,0,0,1,0-2.8,4.08,4.08,0,0,0,.06-.68c0,.1-.2,1.2,0,.31.08-.45.16-.89.26-1.33s.5-2.49.8-2.55c-.06,0-.45,1-.11.28.09-.2.18-.4.28-.6.22-.44.46-.88.71-1.3s.47-.74.71-1.1c.67-1-.58.64.21-.29a21.26,21.26,0,0,1,1.91-2c.18-.16.77-.82,1-.84,0,0-1,.7-.22.19l.54-.37a22.34,22.34,0,0,1,2.44-1.36c1.11-.54-.66.21.18-.07.42-.14.84-.29,1.27-.42s.86-.24,1.3-.33l.66-.14.51-.08-.48.07c.15-.27,2.27-.12,2.61-.11s.92.07,1.39.09c.69,0-1-.17-.31-.05l.84.15a26.58,26.58,0,0,1,2.9.82c.91.3-.26-.13-.27-.13a4,4,0,0,1,.9.42c.44.22.87.45,1.29.71s.83.53,1.24.8c.78.51-.2-.19-.23-.19.14,0,.51.41.63.51a19.78,19.78,0,0,1,2.19,2.2c.08.1.4.42.41.51,0-.3-.59-.83-.1-.09.27.41.54.82.79,1.24s.48.86.7,1.31c.09.2.18.4.28.6.27.54-.35-1-.07-.12a24.46,24.46,0,0,1,.86,3.07l.09.5c.21,1.16-.07-1.16,0,0,0,.58.07,1.16.08,1.74a5,5,0,0,0,10,0,24.49,24.49,0,0,0-16.12-22.75,24.14,24.14,0,0,0-26.38,7.14,25.12,25.12,0,0,0-5.69,14,23.84,23.84,0,0,0,3.4,14,24.47,24.47,0,0,0,25.76,11.12c11-2.21,18.93-12.49,19-23.58a5,5,0,0,0-10,0Z"/><path class="cls-1" d="M183.74,321.66H140.36l5,5V274c0-.33-.12-2.24.14-2.45-.1.08-.18,1.06,0,.31.06-.33.12-.66.19-1,.11-.5.23-1,.38-1.47s.31-.95.47-1.42c.36-1.1-.5,1,0,0,.15-.3.28-.6.43-.89a25.73,25.73,0,0,1,1.71-2.79c.42-.61-.2.15-.18.24,0-.11.55-.66.63-.75.36-.41.73-.8,1.12-1.18s.81-.73,1.21-1.09c.82-.72-.71.45-.11.08.23-.14.44-.32.67-.47a24.49,24.49,0,0,1,3-1.7c.88-.43-.1-.1-.13.05a3.9,3.9,0,0,1,.62-.23c.52-.19,1.06-.36,1.59-.5s1.1-.27,1.65-.37c.12,0,1.21-.12.34-.07s.56,0,.71,0a32.46,32.46,0,0,1,4.93,0,4.39,4.39,0,0,1,.69.06l-.65-.08.67.11c.55.1,1.1.22,1.64.37s1,.28,1.44.44c.11,0,.76.21.78.29l-.43-.18.45.2a20.47,20.47,0,0,1,2.84,1.63l.54.37c.94.65-.84-.73,0,0,.41.36.83.71,1.22,1.09s.76.77,1.12,1.18c.07.08.66.66.63.75s-.73-1-.19-.24a24.53,24.53,0,0,1,1.79,2.94c.12.24.23.49.35.74.48,1-.22-.81-.05-.12.11.47.34.94.48,1.41s.31,1.08.43,1.63c.06.27.11.55.16.83.23,1.3-.05-.86,0,.19.06.79.1,1.59.1,2.38,0,1.28,0,2.56,0,3.84v48.56a5,5,0,0,0,10,0V280c0-4.17.22-8.4-.8-12.49a26.1,26.1,0,0,0-23.42-19.31,29.34,29.34,0,0,0-13.83,2.2,25.69,25.69,0,0,0-11.58,10.14A26.06,26.06,0,0,0,135.36,274v52.66a5.07,5.07,0,0,0,5,5h43.38a5,5,0,0,0,0-10Z"/><path class="cls-1" d="M210.38,113.61h-17l5,5V90l-5,5h17l-5-5v28.58a5,5,0,1,0,10,0V90a5.08,5.08,0,0,0-5-5h-17a5.07,5.07,0,0,0-5,5v28.58a5.07,5.07,0,0,0,5,5h17a5,5,0,0,0,0-10Z"/><path class="cls-1" d="M403.15,9.83V311c0,4.06-.06,8.13,0,12.2,0,.18,0,.36,0,.54a5,5,0,0,0,10,0V22.57c0-4.07.06-8.14,0-12.21V9.83a5,5,0,1,0-10,0Z"/><path class="cls-1" d="M520,183.53v123c0,5.65-.13,11.32,0,17v.24a5,5,0,1,0,10,0v-123c0-5.65.13-11.31,0-17v-.23a5,5,0,1,0-10,0Z"/><path class="cls-1" d="M592.38,183.53v123c0,5.65-.14,11.32,0,17v.24a5,5,0,0,0,10,0v-123c0-5.65.13-11.31,0-17a1.77,1.77,0,0,1,0-.23,5,5,0,1,0-10,0Z"/><path class="cls-1" d="M681.27,183.53v123c0,5.65-.13,11.32,0,17a1.92,1.92,0,0,1,0,.24,5,5,0,1,0,10,0v-123c0-5.65.14-11.31,0-17v-.23a5,5,0,1,0-10,0Z"/><path class="cls-1" d="M405.63,263.77,414,270.2l20,15.37,24.13,18.59,21,16.13c3.37,2.6,6.66,5.4,10.16,7.82l.14.12c2.09,1.6,5.69.39,6.85-1.79,1.4-2.66.42-5.14-1.8-6.85L486,313.16l-20-15.37-24.13-18.58-21-16.14c-3.37-2.59-6.66-5.4-10.16-7.82l-.14-.11c-2.08-1.61-5.69-.39-6.84,1.79-1.41,2.65-.43,5.13,1.79,6.84Z"/><path class="cls-1" d="M490.11,188l-8.35,6.43-20,15.37-24.13,18.58-21,16.14-10.15,7.82-.15.12a5.5,5.5,0,0,0-2.3,3,5.12,5.12,0,0,0,.5,3.85c1.32,2,4.63,3.5,6.84,1.79l8.36-6.43,19.95-15.37,24.14-18.58,21-16.14L495,196.71l.15-.12a5.51,5.51,0,0,0,2.3-3,5.11,5.11,0,0,0-.51-3.86c-1.31-2-4.62-3.5-6.84-1.79Z"/><path class="cls-1" d="M492.9,260.1v63.71a5,5,0,1,0,10,0V260.1a5,5,0,0,0-10,0Z"/><path class="cls-1" d="M521.23,186.05l11.55,24.35,18.4,38.79,4.2,8.86c1.13,2.37,4.71,3.17,6.84,1.79A5.14,5.14,0,0,0,564,253l-11.55-24.35-18.41-38.78-4.2-8.87c-1.12-2.37-4.71-3.17-6.84-1.79a5.12,5.12,0,0,0-1.79,6.84Z"/><path class="cls-1" d="M592.21,181l-12.48,24.41L560,244.07,555.38,253c-1.19,2.33-.68,5.53,1.8,6.84,2.28,1.21,5.57.69,6.84-1.79l12.48-24.41L596.28,195l4.57-8.93c1.19-2.33.68-5.53-1.8-6.84-2.28-1.21-5.57-.69-6.84,1.79Z"/><ellipse class="cls-2" cx="497.9" cy="245.18" rx="6.35" ry="4.39"/><path class="cls-1" d="M611.38,257.36l1.35,37.8c.11,3,.21,6.1.33,9.15a35.12,35.12,0,0,0,1.05,8.42c1.72,6,6.38,10.12,11.94,12.6,9.51,4.25,22.07,5.13,31-1a25,25,0,0,0,9.38-12.39c1.61-4.37,2.08-9.12,2.42-13.73a411.46,411.46,0,0,0,1-41.85,5,5,0,0,0-10,0q.48,17.49-.51,35c-.16,2.79-.34,5.59-.57,8.37-.08.89-.18,1.78-.28,2.67s.07-.29,0-.32-.1.68-.12.83c-.08.51-.17,1-.27,1.51-.19,1-.42,2-.7,3-.13.44-.26.87-.41,1.29s-.89,1.93-.22.7c-.46.84-.81,1.73-1.31,2.55-.26.44-.55.86-.84,1.28s0,.35.16-.19c-.07.25-.51.6-.68.78a10.68,10.68,0,0,1-2.08,1.95c1.1-.68-.41.24-.67.41-.51.32-1,.61-1.58.88l-.66.31c-.67.34,1.15-.39,0,0-.46.15-.92.33-1.39.47a26.23,26.23,0,0,1-3.27.75c-1,.17.08,0,.2,0a4.31,4.31,0,0,1-1,.09c-.51,0-1,.07-1.53.08a29.94,29.94,0,0,1-3.67-.11l-.78-.08c-.77-.08.07.13.18,0-.13.12-1.34-.23-1.53-.27a33.24,33.24,0,0,1-3.53-.91c-.54-.18-1.08-.36-1.61-.57a4.48,4.48,0,0,1-.7-.27s1.11.51.17.06a30.13,30.13,0,0,1-3.21-1.74c-.25-.15-.48-.32-.72-.48-1.13-.7.41.42-.18-.11s-.93-.81-1.36-1.26c-.18-.2-.36-.4-.53-.61.14.17.49.76,0,0-.14-.24-.29-.46-.42-.7s-.6-1.37-.18-.26a17.44,17.44,0,0,1-.88-3.26c0-.17-.12-1-.06-.32s0-.16,0-.33c-.06-.66-.1-1.32-.13-2-.14-2.79-.21-5.57-.31-8.35l-1.42-39.79c-.1-2.61-2.24-5.12-5-5a5.07,5.07,0,0,0-5,5Z"/><path class="cls-1" d="M688.24,188.08a27.6,27.6,0,0,1,4.07-1.22c.71-.16,1.42-.28,2.14-.41,1-.17.18,0,0,0l1.55-.17c3.09-.3,6.21-.35,9.32-.35s6.28.09,9.41.3c1.56.1,3.12.24,4.67.4l2.31.27c-.2,0-.94-.13.06,0l1.37.21a83.55,83.55,0,0,1,9.4,2c1.31.36,2.62.76,3.91,1.2.59.2,1.19.41,1.78.63l1.17.45c.23.1,1.39.59.34.13a52.51,52.51,0,0,1,7.09,3.71c.55.34,1.08.7,1.6,1.06l.77.55.15.12c.44.33.4.29-.12-.11.36,0,1.16,1,1.41,1.18q.75.66,1.44,1.35c.38.38.74.76,1.09,1.15l.68.79c.59.68-.07-.13-.15-.21A12.53,12.53,0,0,1,756,204.9c.12.25.23.5.35.76-.49-1.08,0,.17.11.34.21.58.39,1.16.55,1.75s.29,1.18.4,1.78c.06.34.49,1.35.06.27a4.75,4.75,0,0,1,.12,1.2,27.11,27.11,0,0,1,0,4c0,.27,0,.54-.06.81s-.08,1.56,0,.28a12.53,12.53,0,0,1-.36,2,36.45,36.45,0,0,1-1,3.95c-.21.65-.46,1.29-.69,1.94.34-.93.11-.25,0,0-.22.44-.42.88-.65,1.32-.34.63-.7,1.24-1.1,1.84-.2.3-.41.6-.63.89.51-.7.1-.12,0,0a36.32,36.32,0,0,1-3.36,3.32l-.68.57c-.08.07-1.25,1-.4.33q-.78.58-1.56,1.14c-1.1.78-2.22,1.52-3.36,2.23a78.72,78.72,0,0,1-6.9,3.84c-1.22.6-2.45,1.15-3.69,1.7s.64-.25-.12.06l-1,.39c-.77.31-1.54.61-2.32.9a102.65,102.65,0,0,1-18.58,5c-.86.15-1.72.29-2.59.41l-.87.13c1.18-.17-.4,0-.63.07-1.68.2-3.36.36-5,.49-3.39.24-6.79.32-10.18.26a5,5,0,0,0-5,5,5.09,5.09,0,0,0,5,5,112,112,0,0,0,38-5.75,94.62,94.62,0,0,0,16.94-7.6c5.58-3.26,11.13-7.14,15-12.41s5.57-12.06,5.93-18.43a28.46,28.46,0,0,0-5.11-18.29c-7.34-10-19.53-15.26-31.32-17.86A117.67,117.67,0,0,0,708.14,176c-7.44-.14-15.52-.23-22.56,2.49-2.43.94-4.38,3.4-3.49,6.15.77,2.36,3.54,4.5,6.15,3.49Z"/><path class="cls-1" d="M687,261q8.76,6.15,17.38,12.48c2.85,2.1,5.7,4.22,8.52,6.35l4.22,3.2,1.91,1.46,1.14.88.51.39c11.26,8.71,22.27,17.72,33.14,26.9q9.34,7.89,18.6,15.88c2,1.7,5.15,2.09,7.08,0,1.71-1.87,2.12-5.26,0-7.07-22.08-18.94-44.35-37.58-67.74-54.9q-9.75-7.23-19.71-14.2c-2.15-1.51-5.65-.46-6.84,1.79A5.12,5.12,0,0,0,687,261Z"/><path class="cls-1" d="M819.7,290.24c0,.82,0,1.64-.09,2.47,0,.4-.07.81-.11,1.22-.13,1.24.14-.82,0,.38a33,33,0,0,1-1.14,4.81c-.23.75-.51,1.48-.78,2.22s.4-.88-.08.19q-.27.6-.57,1.2a33.59,33.59,0,0,1-2.43,4.13c-.11.15-.59,1-.77,1.06,0,0,.65-.78.28-.36l-.3.39c-.56.68-1.13,1.33-1.74,2s-1.07,1.09-1.63,1.61l-.73.65-.5.42c-.15.12-.79.78-.26.22s-.37.27-.54.39l-.81.56c-.72.49-1.47.95-2.23,1.37s-1.35.73-2.05,1.06c-.17.08-1.35.59-.6.28s-.61.23-.79.3a32.45,32.45,0,0,1-4.65,1.32l-1.16.22c-1.17.19.73-.07-.19,0s-1.71.17-2.57.2a36.44,36.44,0,0,1-5-.2c-.92-.09,1,.16-.19,0l-1.16-.22c-.82-.17-1.63-.37-2.44-.6s-1.48-.46-2.21-.72c-.23-.09-1-.23-1.08-.42,0,0,1.14.51.28.11l-.59-.27a32.38,32.38,0,0,1-4.14-2.34l-.95-.65c-.22-.16-1-.9-.54-.39s-.34-.29-.51-.43l-1-.86a32.21,32.21,0,0,1-3.26-3.45c-.14-.16-.27-.34-.41-.51-.36-.42.3.37.28.36s-.57-.77-.67-.93c-.48-.67-.92-1.37-1.34-2.08s-.77-1.34-1.12-2c-.17-.35-.34-.7-.5-1.05l-.27-.61c-.27-.6.45,1.17.05.12a39.32,39.32,0,0,1-1.42-4.51c-.18-.77-.34-1.56-.47-2.35a3.33,3.33,0,0,1-.11-.68c0,.06.14,1.25,0,.3,0-.47-.1-.93-.13-1.39a35,35,0,0,1,0-5.12c0-.41.08-.81.12-1.22.09-.93-.17,1.07,0-.21.14-.85.3-1.69.5-2.52a42.09,42.09,0,0,1,1.49-4.66c.19-.52-.19.42-.19.42.1-.19.18-.41.27-.61.16-.35.33-.7.5-1.05.37-.74.76-1.47,1.19-2.18s.8-1.31,1.24-1.95c.22-.31.46-.61.67-.93.31-.47-.29.38-.28.36a3.05,3.05,0,0,1,.51-.64,32.12,32.12,0,0,1,3.26-3.44c.24-.23,1.42-1.52,1.74-1.49,0,0-1,.74-.23.19l.39-.29c.36-.26.71-.51,1.08-.75a31.15,31.15,0,0,1,4.14-2.33c.21-.1,1.3-.58.6-.29s.45-.17.63-.24q1.17-.43,2.37-.78c.75-.21,1.51-.4,2.28-.56l1.16-.23a4.92,4.92,0,0,0,.67-.1c-.25.08-1,.11-.32,0a33.2,33.2,0,0,1,5.18-.19c.75,0,1.49.09,2.23.17,1.29.15-.72-.13.19,0,.44.08.89.15,1.33.24a33.81,33.81,0,0,1,4.81,1.38c.16.07.84.22.92.37-.1-.19-.93-.42-.28-.12l.59.28c.75.35,1.48.72,2.19,1.13s1.32.78,1.95,1.2l1,.65.39.29.26.2c.3.22.18.13-.36-.29.36,0,1.45,1.22,1.74,1.49.6.55,1.19,1.12,1.75,1.72s1,1.13,1.51,1.72c.11.12.21.25.31.38.44.54,0-.18-.18-.23.23.05.64.88.77,1.06a33.59,33.59,0,0,1,2.43,4.13c.17.35.34.7.5,1.05.07.15.13.31.2.46.28.62-.35-.91-.12-.27s.6,1.57.85,2.37a33,33,0,0,1,1.14,4.81c.19,1.17-.05-.71,0,.21,0,.41.09.81.12,1.22.06.88.09,1.76.1,2.65a5,5,0,0,0,10,0,38.8,38.8,0,0,0-25.1-36.12c-14.49-5.42-31.77-.56-41.45,11.46a39.62,39.62,0,0,0-8.75,21.84A38.61,38.61,0,0,0,759.65,310a37.55,37.55,0,0,0,40.14,17.77c15-3.05,27.1-16,29.35-31.1a44.22,44.22,0,0,0,.56-6.39,5,5,0,0,0-10,0Z"/><path class="cls-1" d="M816.28,257.69A235.21,235.21,0,0,0,838.92,314q4.1,7.25,8.76,14.16c1.45,2.16,4.47,3.32,6.84,1.79,2.15-1.39,3.35-4.52,1.79-6.84A217.5,217.5,0,0,1,841.75,298q-1.65-3.34-3.18-6.74c-.49-1.07-1-2.15-1.43-3.22l-.69-1.62c.08.18.36.87,0,0l-.42-1q-2.84-6.87-5.22-13.93-2.73-8.1-4.88-16.37a5,5,0,0,0-9.64,2.66Z"/><path class="cls-1" d="M404.15,2.47c-.9,1.71-1.86,3.38-2.9,5-.55.86-1.12,1.72-1.72,2.56-.26.36-.52.73-.79,1.09l-.27.37A56.72,56.72,0,0,1,390.61,20c-.67.6-1.35,1.2-2,1.77l-1.19,1-.61.47.09-.07c-1.55,1.13-3.12,2.24-4.76,3.27s-3.32,2-5,2.84q-1.2.62-2.43,1.17c-.46.22-.93.44-1.41.63,1.25-.48-.36.14-.58.23-2.43,1-4.39,3.38-3.5,6.15.76,2.34,3.55,4.52,6.15,3.49A72.27,72.27,0,0,0,412.78,7.52C414,5.21,413.45,2,411,.68c-2.3-1.22-5.55-.68-6.84,1.79Z"/><path class="cls-1" d="M402.07,46.84c-1.24,1.92-2.53,3.8-3.89,5.63-.32.42-.64.85-1,1.27.66-.86-.26.33-.45.57-.7.88-1.43,1.75-2.16,2.61a100.06,100.06,0,0,1-9.28,9.48q-2.49,2.22-5.13,4.27l-.54.41-1.26.92c-.89.65-1.8,1.28-2.72,1.89a92.28,92.28,0,0,1-11.22,6.44c-1.09.53-2.2,1-3.31,1.52l-.28.12-.46.19-1.78.7c-2.25.86-4.54,1.61-6.86,2.28a5,5,0,0,0,2.66,9.65A99.14,99.14,0,0,0,400.75,65a109.62,109.62,0,0,0,9.95-13.15,5,5,0,0,0-1.79-6.84,5.11,5.11,0,0,0-6.84,1.79Z"/><path class="cls-1" d="M403.52,89.33c-1.65,2.55-3.4,5-5.22,7.43-.78,1,.65-.82-.15.19l-.47.6c-.47.6-.95,1.19-1.43,1.78-1,1.17-2,2.34-3,3.48a130.88,130.88,0,0,1-12.92,12.66q-1.62,1.38-3.29,2.72l-.92.72c-.16.13-1.2.93-.22.18l-1.87,1.41q-3.71,2.75-7.59,5.23a140.87,140.87,0,0,1-16.09,8.91c-1.57.74-3.15,1.44-4.73,2.13-1.24.53,1-.39-.28.12l-1.49.6-2.24.88q-5.07,1.94-10.28,3.49A5,5,0,0,0,334,151.5c24.67-7.37,47.64-21.15,65.05-40.2a130.87,130.87,0,0,0,13.1-16.92,5,5,0,0,0-1.8-6.84,5.11,5.11,0,0,0-6.84,1.79Z"/><path class="cls-1" d="M404.15,7.52a72.31,72.31,0,0,0,37.49,33.37c2.44,1,5.59-1.06,6.15-3.49.66-2.89-.88-5.12-3.49-6.15l-.59-.23c-.48-.19-.95-.41-1.41-.63q-1.23-.55-2.43-1.17-2.58-1.3-5-2.84c-1.63-1-3.2-2.14-4.76-3.27l.09.07-.6-.47c-.36-.28-.71-.57-1.05-.85-.74-.62-1.47-1.25-2.19-1.9a57.26,57.26,0,0,1-7.86-8.46c.7,1,0,0-.16-.22L417.4,10c-.59-.84-1.17-1.69-1.72-2.56-1-1.63-2-3.3-2.9-5A5,5,0,0,0,405.94.68a5.11,5.11,0,0,0-1.79,6.84Z"/><path class="cls-1" d="M405.61,51.89c10.18,15.79,24.54,29.1,41.54,37.24a96.26,96.26,0,0,0,14.73,5.66,5,5,0,1,0,2.66-9.65q-3.1-.89-6.14-2c-.95-.36-1.9-.73-2.84-1.12-.22-.08-.9-.33.13.07l-.7-.31-1.57-.7a91.43,91.43,0,0,1-11.32-6.22q-2.79-1.78-5.44-3.77c-.26-.19-1.46-1.12-.55-.41l-1.23-1c-.86-.7-1.72-1.41-2.56-2.13a99.75,99.75,0,0,1-9.43-9.3c-.84-.94-1.66-1.9-2.47-2.88-.38-.46-.75-.93-1.13-1.4-.16-.2-.32-.42-.49-.62.74.93-.1-.14-.19-.26-1.54-2-3-4.13-4.37-6.27s-4.5-3.3-6.84-1.79-3.31,4.49-1.79,6.84Z"/><path class="cls-1" d="M404.15,94.38c13.86,21.34,34.11,38.3,57.1,49.07a153.43,153.43,0,0,0,21.05,8.05,5,5,0,1,0,2.65-9.64c-3.08-.93-6.14-1.94-9.15-3.07-1.38-.51-2.75-1-4.11-1.6l-1.11-.46c1.15.48-.1,0-.28-.12l-2.19-1a142.16,142.16,0,0,1-16.44-8.75q-3.84-2.39-7.51-5-1.76-1.26-3.46-2.56c-1.06-.79.81.65-.23-.17l-.92-.72c-.66-.52-1.31-1.05-2-1.59a130.75,130.75,0,0,1-13-12.33c-2.24-2.43-4.37-5-6.42-7.56-.8-1,.63.84-.14-.19-.31-.4-.61-.81-.91-1.21-.46-.61-.9-1.22-1.34-1.84q-1.54-2.16-3-4.38c-1.42-2.19-4.49-3.3-6.84-1.79-2.19,1.41-3.32,4.5-1.79,6.84Z"/></g></g></svg>